<?xml version="1.0" standalone="no"?>
<!DOCTYPE svg PUBLIC "-//W3C//DTD SVG 20010904//EN"
 "http://www.w3.org/TR/2001/REC-SVG-20010904/DTD/svg10.dtd">
<svg version="1.0" xmlns="http://www.w3.org/2000/svg"
 width="512.000000pt" height="512.000000pt" viewBox="0 0 512.000000 512.000000"
 preserveAspectRatio="xMidYMid meet">
<metadata>
Created by potrace 1.14, written by Peter Selinger 2001-2017
</metadata>
<g transform="translate(0.000000,512.000000) scale(0.100000,-0.100000)"
fill="#000000" stroke="none">
<path d="M1075 5104 c-464 -81 -842 -396 -999 -833 -15 -41 -37 -115 -49 -165
l-22 -91 0 -1430 c0 -786 3 -1455 7 -1485 15 -116 66 -276 124 -393 130 -257
339 -460 598 -582 91 -43 194 -81 251 -91 176 -33 173 -33 1605 -31 778 2
1426 6 1440 9 14 3 41 9 60 12 102 19 217 59 332 117 76 38 101 59 296 252
195 195 216 219 256 297 53 103 91 206 119 325 21 89 21 99 24 1515 1 889 -2
1448 -8 1485 -5 33 -19 96 -30 140 -123 487 -522 857 -1019 945 -99 17 -188
18 -1505 18 -1152 0 -1414 -2 -1480 -14z"/>
</g>
</svg>
