<svg width="1024" height="275" viewBox="0 0 1024 275" fill="none" xmlns="http://www.w3.org/2000/svg">
<g clip-path="url(#clip0_30_1420)">
<rect width="1024" height="275" rx="24" fill="white"/>
<path d="M49.875 81.0001V58.4532H58.4844C60.7448 58.4532 62.6719 58.8855 64.2656 59.7501C65.8698 60.6147 67.099 61.8803 67.9531 63.547C68.8073 65.2032 69.2344 67.2241 69.2344 69.6095V69.6407C69.2344 72.0262 68.8073 74.0678 67.9531 75.7657C67.1094 77.4637 65.8854 78.7605 64.2812 79.6564C62.6771 80.5522 60.7448 81.0001 58.4844 81.0001H49.875ZM54.5938 77.0939H57.9219C59.3281 77.0939 60.5156 76.8126 61.4844 76.2501C62.4531 75.6876 63.1823 74.8543 63.6719 73.7501C64.1719 72.646 64.4219 71.2814 64.4219 69.6564V69.6251C64.4219 68.0522 64.1667 66.7241 63.6562 65.6407C63.1562 64.5574 62.4219 63.7397 61.4531 63.1876C60.4844 62.6251 59.3073 62.3439 57.9219 62.3439H54.5938V77.0939ZM71.9844 81.0001V64.2501H76.5469V81.0001H71.9844ZM74.2656 62.0939C73.5781 62.0939 73 61.8595 72.5312 61.3907C72.0625 60.922 71.8281 60.3647 71.8281 59.7189C71.8281 59.0626 72.0625 58.5053 72.5312 58.047C73 57.5782 73.5781 57.3439 74.2656 57.3439C74.9531 57.3439 75.5312 57.5782 76 58.047C76.4688 58.5053 76.7031 59.0626 76.7031 59.7189C76.7031 60.3647 76.4688 60.922 76 61.3907C75.5312 61.8595 74.9531 62.0939 74.2656 62.0939ZM86.5 81.3439C84.9583 81.3439 83.6458 81.1199 82.5625 80.672C81.4792 80.2241 80.6302 79.6043 80.0156 78.8126C79.4115 78.0105 79.0469 77.0835 78.9219 76.0314L78.9062 75.8907H83.3594L83.3906 76.0314C83.5365 76.6876 83.8646 77.198 84.375 77.5626C84.8854 77.9272 85.5938 78.1095 86.5 78.1095C87.0833 78.1095 87.5781 78.0418 87.9844 77.9064C88.3906 77.7605 88.7031 77.5574 88.9219 77.297C89.151 77.0366 89.2656 76.7241 89.2656 76.3595V76.3439C89.2656 75.896 89.1042 75.5366 88.7812 75.2657C88.4583 74.9949 87.8854 74.7657 87.0625 74.5782L84.2188 73.9845C83.1354 73.7553 82.2292 73.4272 81.5 73.0001C80.7812 72.5626 80.2396 72.0262 79.875 71.3907C79.5104 70.7449 79.3281 70.0053 79.3281 69.172V69.1564C79.3281 68.0835 79.6146 67.1564 80.1875 66.3751C80.7604 65.5939 81.5729 64.9897 82.625 64.5626C83.6875 64.1251 84.9271 63.9064 86.3438 63.9064C87.8229 63.9064 89.0781 64.146 90.1094 64.6251C91.151 65.0939 91.9479 65.7293 92.5 66.5314C93.0625 67.3335 93.3594 68.2241 93.3906 69.2032V69.3595H89.1875L89.1719 69.2345C89.099 68.6303 88.8177 68.1303 88.3281 67.7345C87.849 67.3282 87.1875 67.1251 86.3438 67.1251C85.8229 67.1251 85.3698 67.198 84.9844 67.3439C84.599 67.4897 84.3021 67.698 84.0938 67.9689C83.8854 68.2293 83.7812 68.5418 83.7812 68.9064V68.922C83.7812 69.2032 83.849 69.4585 83.9844 69.6876C84.1302 69.9064 84.3698 70.0991 84.7031 70.2657C85.0365 70.4324 85.4844 70.5782 86.0469 70.7032L88.8906 71.3126C90.651 71.6772 91.9115 72.2241 92.6719 72.9532C93.4427 73.6824 93.8281 74.6616 93.8281 75.8907V75.9064C93.8281 77.0001 93.5156 77.9532 92.8906 78.7657C92.2656 79.5782 91.401 80.2137 90.2969 80.672C89.2031 81.1199 87.9375 81.3439 86.5 81.3439ZM101.062 81.2657C99.9479 81.2657 98.9688 81.0522 98.125 80.6251C97.2812 80.1876 96.6198 79.5887 96.1406 78.8282C95.6719 78.0574 95.4375 77.1824 95.4375 76.2032V76.172C95.4375 75.1512 95.6927 74.2814 96.2031 73.5626C96.7135 72.8335 97.4531 72.2605 98.4219 71.8439C99.3906 71.4272 100.568 71.172 101.953 71.0782L108.484 70.672V73.5157L102.641 73.8907C101.766 73.9428 101.099 74.1512 100.641 74.5157C100.182 74.8699 99.9531 75.3439 99.9531 75.9376V75.9689C99.9531 76.5835 100.188 77.0678 100.656 77.422C101.125 77.7657 101.755 77.9376 102.547 77.9376C103.224 77.9376 103.828 77.8074 104.359 77.547C104.901 77.2762 105.323 76.9116 105.625 76.4532C105.938 75.9845 106.094 75.4585 106.094 74.8751V69.797C106.094 69.0574 105.859 68.4741 105.391 68.047C104.922 67.6095 104.24 67.3907 103.344 67.3907C102.49 67.3907 101.812 67.5678 101.312 67.922C100.812 68.2762 100.505 68.7241 100.391 69.2657L100.359 69.4064H96.1875L96.2031 69.2189C96.2865 68.1876 96.625 67.271 97.2188 66.4689C97.8229 65.6668 98.6562 65.0418 99.7188 64.5939C100.792 64.1355 102.062 63.9064 103.531 63.9064C104.979 63.9064 106.234 64.1407 107.297 64.6095C108.359 65.0678 109.182 65.7189 109.766 66.5626C110.359 67.4064 110.656 68.3907 110.656 69.5157V81.0001H106.094V78.5001H106C105.688 79.073 105.281 79.5678 104.781 79.9845C104.292 80.3907 103.734 80.7085 103.109 80.9376C102.484 81.1564 101.802 81.2657 101.062 81.2657ZM123.531 81.3439C122.729 81.3439 121.995 81.2137 121.328 80.9532C120.661 80.6928 120.078 80.3282 119.578 79.8595C119.078 79.3803 118.677 78.8074 118.375 78.1407H118.281V81.0001H113.719V58.4532H118.281V67.1564H118.375C118.688 66.4793 119.094 65.9012 119.594 65.422C120.094 64.9324 120.677 64.5574 121.344 64.297C122.021 64.0366 122.755 63.9064 123.547 63.9064C124.953 63.9064 126.161 64.2553 127.172 64.9532C128.193 65.6407 128.979 66.6355 129.531 67.9376C130.083 69.2293 130.359 70.7866 130.359 72.6095V72.6251C130.359 74.4376 130.083 75.9949 129.531 77.297C128.979 78.5991 128.193 79.5991 127.172 80.297C126.151 80.9949 124.938 81.3439 123.531 81.3439ZM122.016 77.5626C122.776 77.5626 123.432 77.3647 123.984 76.9689C124.536 76.5626 124.964 75.9897 125.266 75.2501C125.568 74.5105 125.719 73.6355 125.719 72.6251V72.6095C125.719 71.5887 125.568 70.7137 125.266 69.9845C124.964 69.2449 124.531 68.6772 123.969 68.2814C123.417 67.8855 122.766 67.6876 122.016 67.6876C121.276 67.6876 120.625 67.8907 120.062 68.297C119.51 68.6928 119.073 69.2605 118.75 70.0001C118.438 70.7293 118.281 71.5991 118.281 72.6095V72.6251C118.281 73.6355 118.438 74.5105 118.75 75.2501C119.062 75.9897 119.5 76.5626 120.062 76.9689C120.625 77.3647 121.276 77.5626 122.016 77.5626ZM132.812 81.0001V58.4532H137.375V81.0001H132.812ZM148.078 81.3439C146.37 81.3439 144.901 80.9949 143.672 80.297C142.443 79.5887 141.495 78.5835 140.828 77.2814C140.172 75.9793 139.844 74.4376 139.844 72.6564V72.6407C139.844 70.8595 140.172 69.3178 140.828 68.0157C141.495 66.7032 142.427 65.6928 143.625 64.9845C144.833 64.2657 146.255 63.9064 147.891 63.9064C149.526 63.9064 150.938 64.2553 152.125 64.9532C153.323 65.6407 154.245 66.6147 154.891 67.8751C155.547 69.1355 155.875 70.6095 155.875 72.297V73.7032H142.078V70.8282H153.719L151.547 73.5157V71.7657C151.547 70.7866 151.396 69.9689 151.094 69.3126C150.792 68.646 150.37 68.146 149.828 67.8126C149.297 67.4793 148.677 67.3126 147.969 67.3126C147.26 67.3126 146.63 67.4845 146.078 67.8282C145.536 68.172 145.109 68.6772 144.797 69.3439C144.495 70.0001 144.344 70.8074 144.344 71.7657V73.5314C144.344 74.4585 144.495 75.2501 144.797 75.9064C145.109 76.5626 145.552 77.0678 146.125 77.422C146.698 77.7657 147.38 77.9376 148.172 77.9376C148.797 77.9376 149.339 77.8387 149.797 77.6407C150.255 77.4428 150.63 77.1928 150.922 76.8907C151.214 76.5887 151.411 76.2814 151.516 75.9689L151.547 75.8751H155.734L155.688 76.047C155.562 76.6616 155.318 77.2814 154.953 77.9064C154.589 78.5314 154.094 79.1043 153.469 79.6251C152.854 80.146 152.099 80.5626 151.203 80.8751C150.318 81.1876 149.276 81.3439 148.078 81.3439ZM164.438 81.3439C163.031 81.3439 161.818 80.9949 160.797 80.297C159.776 79.5991 158.99 78.5991 158.438 77.297C157.896 75.9949 157.625 74.4376 157.625 72.6251V72.6095C157.625 70.7866 157.901 69.2293 158.453 67.9376C159.005 66.6355 159.786 65.6407 160.797 64.9532C161.818 64.2553 163.031 63.9064 164.438 63.9064C165.229 63.9064 165.958 64.0366 166.625 64.297C167.292 64.5574 167.875 64.9324 168.375 65.422C168.885 65.9012 169.292 66.4793 169.594 67.1564H169.688V58.4532H174.25V81.0001H169.688V78.1407H169.594C169.302 78.8074 168.906 79.3803 168.406 79.8595C167.906 80.3282 167.323 80.6928 166.656 80.9532C165.99 81.2137 165.25 81.3439 164.438 81.3439ZM165.969 77.5626C166.708 77.5626 167.359 77.3647 167.922 76.9689C168.484 76.5626 168.922 75.9897 169.234 75.2501C169.547 74.5105 169.703 73.6355 169.703 72.6251V72.6095C169.703 71.5991 169.542 70.7293 169.219 70.0001C168.906 69.2605 168.469 68.6928 167.906 68.297C167.354 67.8907 166.708 67.6876 165.969 67.6876C165.208 67.6876 164.552 67.8855 164 68.2814C163.448 68.6772 163.021 69.2449 162.719 69.9845C162.417 70.7137 162.266 71.5887 162.266 72.6095V72.6251C162.266 73.6355 162.411 74.5105 162.703 75.2501C163.005 75.9897 163.432 76.5626 163.984 76.9689C164.547 77.3647 165.208 77.5626 165.969 77.5626Z" fill="#1B1D23"/>
<path d="M49.6211 46.0001V31.9083H52.1406V43.881H58.5859V46.0001H49.6211ZM60.8711 46.0001V35.4044H63.3027V46.0001H60.8711ZM62.0918 33.6857C61.7012 33.6857 61.3659 33.549 61.0859 33.2755C60.806 32.9956 60.666 32.6635 60.666 32.2794C60.666 31.8888 60.806 31.5568 61.0859 31.2833C61.3659 31.0099 61.7012 30.8732 62.0918 30.8732C62.4824 30.8732 62.8177 31.0099 63.0977 31.2833C63.3776 31.5568 63.5176 31.8888 63.5176 32.2794C63.5176 32.6635 63.3776 32.9956 63.0977 33.2755C62.8177 33.549 62.4824 33.6857 62.0918 33.6857ZM66.0664 46.0001V35.4044H68.498V37.0353H68.6348C68.8952 36.4624 69.2826 36.0131 69.7969 35.6876C70.3177 35.3556 70.9655 35.1896 71.7402 35.1896C72.9186 35.1896 73.8203 35.5346 74.4453 36.2247C75.0768 36.9148 75.3926 37.8881 75.3926 39.1447V46.0001H72.9609V39.6915C72.9609 38.8842 72.7852 38.2755 72.4336 37.8654C72.0885 37.4487 71.5547 37.2404 70.832 37.2404C70.3503 37.2404 69.9336 37.3478 69.582 37.5626C69.237 37.7775 68.9701 38.0769 68.7812 38.4611C68.5924 38.8452 68.498 39.3009 68.498 39.8282V46.0001H66.0664ZM78.1367 46.0001V31.3615H80.5684V46.0001H78.1367ZM84.8066 46.0001L81.2422 41.1857L82.9902 39.6329L87.6973 46.0001H84.8066ZM80.3242 42.5333L80.2559 39.7599H80.7051L84.6309 35.4044H87.4434L82.7559 40.3556L81.7988 41.0197L80.3242 42.5333Z" fill="#484848"/>
<line x1="283.5" y1="243" x2="283.5" y2="32" stroke="#DDDDDD"/>
<path d="M605.305 143.281C604.43 143.281 603.669 143.146 603.023 142.875C602.383 142.604 601.878 142.227 601.508 141.742C601.138 141.258 600.93 140.693 600.883 140.047L600.875 139.938H602.828L602.836 140.016C602.867 140.333 602.992 140.609 603.211 140.844C603.435 141.078 603.732 141.263 604.102 141.398C604.471 141.529 604.893 141.594 605.367 141.594C605.82 141.594 606.221 141.523 606.57 141.383C606.919 141.242 607.193 141.049 607.391 140.805C607.589 140.555 607.688 140.268 607.688 139.945V139.938C607.688 139.531 607.529 139.201 607.211 138.945C606.893 138.685 606.37 138.477 605.641 138.32L604.43 138.07C603.273 137.826 602.432 137.435 601.906 136.898C601.385 136.357 601.125 135.667 601.125 134.828V134.82C601.125 134.148 601.302 133.56 601.656 133.055C602.016 132.549 602.508 132.156 603.133 131.875C603.763 131.589 604.484 131.445 605.297 131.445C606.13 131.445 606.852 131.586 607.461 131.867C608.07 132.143 608.549 132.521 608.898 133C609.247 133.479 609.443 134.021 609.484 134.625L609.492 134.727H607.57L607.555 134.633C607.508 134.336 607.385 134.078 607.188 133.859C606.995 133.635 606.737 133.458 606.414 133.328C606.091 133.198 605.714 133.133 605.281 133.133C604.87 133.133 604.503 133.198 604.18 133.328C603.857 133.453 603.602 133.63 603.414 133.859C603.232 134.089 603.141 134.365 603.141 134.688V134.695C603.141 135.091 603.294 135.419 603.602 135.68C603.914 135.94 604.422 136.143 605.125 136.289L606.336 136.547C607.128 136.714 607.771 136.935 608.266 137.211C608.76 137.487 609.122 137.831 609.352 138.242C609.586 138.648 609.703 139.138 609.703 139.711V139.719C609.703 140.448 609.523 141.078 609.164 141.609C608.81 142.141 608.302 142.552 607.641 142.844C606.984 143.135 606.206 143.281 605.305 143.281ZM611.844 143V131.156H613.789V135.773H613.922C614.125 135.31 614.432 134.948 614.844 134.688C615.255 134.427 615.768 134.297 616.383 134.297C617.018 134.297 617.555 134.422 617.992 134.672C618.43 134.917 618.76 135.276 618.984 135.75C619.214 136.224 619.328 136.799 619.328 137.477V143H617.383V137.93C617.383 137.263 617.242 136.763 616.961 136.43C616.685 136.096 616.253 135.93 615.664 135.93C615.279 135.93 614.945 136.016 614.664 136.188C614.383 136.359 614.167 136.602 614.016 136.914C613.865 137.227 613.789 137.596 613.789 138.023V143H611.844ZM625.312 143.172C624.464 143.172 623.732 142.995 623.117 142.641C622.503 142.281 622.029 141.771 621.695 141.109C621.367 140.448 621.203 139.656 621.203 138.734V138.719C621.203 137.807 621.37 137.021 621.703 136.359C622.036 135.693 622.508 135.182 623.117 134.828C623.732 134.474 624.464 134.297 625.312 134.297C626.161 134.297 626.891 134.474 627.5 134.828C628.115 135.182 628.589 135.69 628.922 136.352C629.255 137.013 629.422 137.802 629.422 138.719V138.734C629.422 139.656 629.255 140.448 628.922 141.109C628.594 141.771 628.122 142.281 627.508 142.641C626.898 142.995 626.167 143.172 625.312 143.172ZM625.312 141.594C625.76 141.594 626.141 141.482 626.453 141.258C626.771 141.029 627.013 140.703 627.18 140.281C627.346 139.854 627.43 139.341 627.43 138.742V138.727C627.43 138.122 627.346 137.609 627.18 137.188C627.013 136.76 626.771 136.435 626.453 136.211C626.141 135.982 625.76 135.867 625.312 135.867C624.865 135.867 624.482 135.982 624.164 136.211C623.846 136.435 623.604 136.76 623.438 137.188C623.271 137.609 623.188 138.122 623.188 138.727V138.742C623.188 139.341 623.271 139.854 623.438 140.281C623.604 140.708 623.844 141.034 624.156 141.258C624.474 141.482 624.859 141.594 625.312 141.594ZM632.664 143L630.344 134.461H632.297L633.711 140.883H633.852L635.492 134.461H637.344L638.992 140.883H639.133L640.547 134.461H642.477L640.156 143H638.125L636.461 136.812H636.328L634.672 143H632.664ZM648.422 143V134.461H650.367V135.789H650.5C650.682 135.315 650.977 134.948 651.383 134.688C651.794 134.427 652.281 134.297 652.844 134.297C653.229 134.297 653.576 134.359 653.883 134.484C654.195 134.609 654.464 134.786 654.688 135.016C654.911 135.245 655.083 135.518 655.203 135.836H655.344C655.484 135.529 655.68 135.26 655.93 135.031C656.185 134.797 656.482 134.617 656.82 134.492C657.164 134.362 657.534 134.297 657.93 134.297C658.503 134.297 658.992 134.411 659.398 134.641C659.81 134.865 660.125 135.188 660.344 135.609C660.568 136.031 660.68 136.536 660.68 137.125V143H658.734V137.602C658.734 137.227 658.677 136.917 658.562 136.672C658.453 136.427 658.284 136.242 658.055 136.117C657.826 135.992 657.536 135.93 657.188 135.93C656.849 135.93 656.555 136.008 656.305 136.164C656.055 136.315 655.859 136.521 655.719 136.781C655.583 137.042 655.516 137.336 655.516 137.664V143H653.57V137.461C653.57 137.143 653.508 136.87 653.383 136.641C653.263 136.411 653.086 136.237 652.852 136.117C652.622 135.992 652.349 135.93 652.031 135.93C651.714 135.93 651.427 136.013 651.172 136.18C650.922 136.341 650.724 136.565 650.578 136.852C650.438 137.133 650.367 137.451 650.367 137.805V143H648.422ZM666.656 143.172C665.807 143.172 665.076 142.995 664.461 142.641C663.846 142.281 663.372 141.771 663.039 141.109C662.711 140.448 662.547 139.656 662.547 138.734V138.719C662.547 137.807 662.714 137.021 663.047 136.359C663.38 135.693 663.852 135.182 664.461 134.828C665.076 134.474 665.807 134.297 666.656 134.297C667.505 134.297 668.234 134.474 668.844 134.828C669.458 135.182 669.932 135.69 670.266 136.352C670.599 137.013 670.766 137.802 670.766 138.719V138.734C670.766 139.656 670.599 140.448 670.266 141.109C669.938 141.771 669.466 142.281 668.852 142.641C668.242 142.995 667.51 143.172 666.656 143.172ZM666.656 141.594C667.104 141.594 667.484 141.482 667.797 141.258C668.115 141.029 668.357 140.703 668.523 140.281C668.69 139.854 668.773 139.341 668.773 138.742V138.727C668.773 138.122 668.69 137.609 668.523 137.188C668.357 136.76 668.115 136.435 667.797 136.211C667.484 135.982 667.104 135.867 666.656 135.867C666.208 135.867 665.826 135.982 665.508 136.211C665.19 136.435 664.948 136.76 664.781 137.188C664.615 137.609 664.531 138.122 664.531 138.727V138.742C664.531 139.341 664.615 139.854 664.781 140.281C664.948 140.708 665.188 141.034 665.5 141.258C665.818 141.482 666.203 141.594 666.656 141.594ZM672.719 143V134.461H674.664V135.773H674.797C674.943 135.315 675.203 134.958 675.578 134.703C675.958 134.448 676.43 134.32 676.992 134.32C677.138 134.32 677.281 134.331 677.422 134.352C677.568 134.367 677.688 134.388 677.781 134.414V136.156C677.625 136.12 677.466 136.094 677.305 136.078C677.148 136.057 676.984 136.047 676.812 136.047C676.38 136.047 676.003 136.128 675.68 136.289C675.357 136.451 675.107 136.682 674.93 136.984C674.753 137.281 674.664 137.633 674.664 138.039V143H672.719ZM682.812 143.172C681.964 143.172 681.234 142.992 680.625 142.633C680.021 142.273 679.555 141.763 679.227 141.102C678.898 140.44 678.734 139.656 678.734 138.75V138.742C678.734 137.846 678.896 137.065 679.219 136.398C679.547 135.732 680.01 135.216 680.609 134.852C681.208 134.482 681.911 134.297 682.719 134.297C683.531 134.297 684.229 134.477 684.812 134.836C685.401 135.19 685.854 135.688 686.172 136.328C686.49 136.969 686.648 137.719 686.648 138.578V139.219H679.711V137.914H685.695L684.773 139.133V138.359C684.773 137.792 684.688 137.32 684.516 136.945C684.344 136.57 684.104 136.289 683.797 136.102C683.495 135.914 683.143 135.82 682.742 135.82C682.341 135.82 681.984 135.919 681.672 136.117C681.365 136.31 681.12 136.596 680.938 136.977C680.76 137.352 680.672 137.812 680.672 138.359V139.141C680.672 139.667 680.76 140.117 680.938 140.492C681.115 140.862 681.365 141.148 681.688 141.352C682.016 141.549 682.404 141.648 682.852 141.648C683.201 141.648 683.5 141.599 683.75 141.5C684.005 141.396 684.211 141.273 684.367 141.133C684.523 140.987 684.633 140.849 684.695 140.719L684.719 140.664H686.562L686.547 140.734C686.479 141.01 686.354 141.292 686.172 141.578C685.995 141.859 685.753 142.122 685.445 142.367C685.143 142.607 684.773 142.802 684.336 142.953C683.898 143.099 683.391 143.172 682.812 143.172Z" fill="#484848"/>
</g>
<defs>
<clipPath id="clip0_30_1420">
<rect width="1024" height="275" rx="24" fill="white"/>
</clipPath>
</defs>
</svg>
