<svg width="1024" height="426" viewBox="0 0 1024 426" fill="none" xmlns="http://www.w3.org/2000/svg">
<g clip-path="url(#clip0_28_1024)">
<rect width="1024" height="426" rx="24" fill="white"/>
<path d="M303.5 232.75H-497.5C-501.228 232.75 -504.25 235.772 -504.25 239.5V296.5C-504.25 300.228 -501.228 303.25 -497.5 303.25H303.5C307.228 303.25 310.25 300.228 310.25 296.5V239.5C310.25 235.772 307.228 232.75 303.5 232.75Z" stroke="#DDDDDD"/>
<mask id="mask0_28_1024" style="mask-type:luminance" maskUnits="userSpaceOnUse" x="219" y="251" width="74" height="34">
<path d="M293 251.5H219.5V284.5H293V251.5Z" fill="white"/>
</mask>
<g mask="url(#mask0_28_1024)">
<path d="M224 252H288.5C290.709 252 292.5 253.791 292.5 256V280C292.5 282.209 290.709 284 288.5 284H224C221.791 284 220 282.209 220 280V256C220 253.791 221.791 252 224 252Z" stroke="#DDDDDD"/>
<path d="M230.215 260.286C231.28 260.286 232.143 261.149 232.143 262.214V264.143H230.215C229.15 264.143 228.285 263.279 228.285 262.214C228.285 261.149 229.15 260.286 230.215 260.286ZM233.429 264.143V262.214C233.429 260.439 231.989 259 230.215 259C228.439 259 227 260.439 227 262.214C227 263.989 228.439 265.429 230.215 265.429H232.143V270.571H230.215C228.439 270.571 227 272.011 227 273.786C227 275.561 228.439 277 230.215 277C231.989 277 233.429 275.561 233.429 273.786V271.857H238.571V273.786C238.571 275.561 240.011 277 241.785 277C243.561 277 245 275.561 245 273.786C245 272.011 243.561 270.571 241.785 270.571H239.857V265.429H241.785C243.561 265.429 245 263.989 245 262.214C245 260.439 243.561 259 241.785 259C240.011 259 238.571 260.439 238.571 262.214V264.143H233.429ZM233.429 265.429H238.571V270.571H233.429V265.429ZM239.857 264.143V262.214C239.857 261.149 240.72 260.286 241.785 260.286C242.85 260.286 243.715 261.149 243.715 262.214C243.715 263.279 242.85 264.143 241.785 264.143H239.857ZM239.857 271.857H241.785C242.85 271.857 243.715 272.721 243.715 273.786C243.715 274.851 242.85 275.714 241.785 275.714C240.72 275.714 239.857 274.851 239.857 273.786V271.857ZM232.143 271.857V273.786C232.143 274.851 231.28 275.714 230.215 275.714C229.15 275.714 228.285 274.851 228.285 273.786C228.285 272.721 229.15 271.857 230.215 271.857H232.143Z" fill="#DDDDDD"/>
<path d="M257.786 273.112H256.094V269.44H252.44V267.874H256.094V264.238H257.786V267.874H261.44V269.44H257.786V273.112Z" fill="#DDDDDD"/>
<path d="M276.146 274.75H274.166V261.826H276.146V267.802L281.618 261.826H283.904L278.144 268.162L284.048 274.75H281.564L276.146 268.756V274.75Z" fill="#DDDDDD"/>
</g>
<rect x="923.5" y="378.5" width="1" height="100" transform="rotate(-90 923.5 378.5)" fill="#484848"/>
<path d="M615.969 387.316C614.539 387.316 613.305 387.055 612.266 386.531C611.227 386.008 610.422 385.277 609.852 384.34C609.289 383.402 609.008 382.312 609.008 381.07V370.09H612.031V380.812C612.031 381.594 612.184 382.277 612.488 382.863C612.801 383.441 613.25 383.895 613.836 384.223C614.422 384.543 615.133 384.703 615.969 384.703C616.805 384.703 617.516 384.543 618.102 384.223C618.688 383.895 619.133 383.441 619.438 382.863C619.742 382.277 619.895 381.594 619.895 380.812V370.09H622.906V381.07C622.906 382.305 622.625 383.395 622.062 384.34C621.508 385.277 620.711 386.008 619.672 386.531C618.633 387.055 617.398 387.316 615.969 387.316ZM638.266 387V372.633H633.18V370.09H646.363V372.633H641.277V387H638.266ZM656.637 387V370.09H659.648V387H656.637ZM670.848 387V370.09H673.859V384.457H681.547V387H670.848ZM691.926 387V370.09H694.938V387H691.926ZM710.273 387V372.633H705.188V370.09H718.371V372.633H713.285V387H710.273ZM733.379 387V380.332L727.449 370.09H730.754L734.832 377.426H734.938L739.016 370.09H742.32L736.391 380.332V387H733.379ZM772.723 387.316C771.113 387.316 769.715 386.961 768.527 386.25C767.348 385.539 766.434 384.527 765.785 383.215C765.145 381.902 764.824 380.344 764.824 378.539V378.527C764.824 376.723 765.145 375.168 765.785 373.863C766.434 372.551 767.348 371.543 768.527 370.84C769.715 370.129 771.113 369.773 772.723 369.773C774.02 369.773 775.18 370.023 776.203 370.523C777.234 371.023 778.074 371.715 778.723 372.598C779.371 373.48 779.77 374.496 779.918 375.645L779.93 375.762H776.965L776.906 375.562C776.75 374.914 776.48 374.355 776.098 373.887C775.723 373.41 775.25 373.043 774.68 372.785C774.109 372.52 773.457 372.387 772.723 372.387C771.746 372.387 770.895 372.637 770.168 373.137C769.449 373.637 768.891 374.348 768.492 375.27C768.102 376.184 767.906 377.27 767.906 378.527V378.539C767.906 379.797 768.102 380.887 768.492 381.809C768.891 382.73 769.453 383.445 770.18 383.953C770.906 384.453 771.758 384.703 772.734 384.703C773.453 384.703 774.094 384.578 774.656 384.328C775.227 384.07 775.707 383.703 776.098 383.227C776.488 382.742 776.77 382.16 776.941 381.48L776.965 381.375H779.93L779.918 381.492C779.777 382.641 779.383 383.652 778.734 384.527C778.086 385.402 777.246 386.086 776.215 386.578C775.191 387.07 774.027 387.316 772.723 387.316ZM790.426 387V370.09H793.438V384.457H801.125V387H790.426ZM810.309 387L816.344 370.09H818.887V373.125H817.996L813.473 387H810.309ZM813.367 382.629L814.164 380.297H821.91L822.719 382.629H813.367ZM822.613 387L818.09 373.125V370.09H819.742L825.777 387H822.613ZM841.523 387.316C840.227 387.316 839.094 387.121 838.125 386.73C837.156 386.34 836.391 385.781 835.828 385.055C835.273 384.328 834.961 383.465 834.891 382.465L834.879 382.277H837.773L837.797 382.418C837.875 382.902 838.082 383.32 838.418 383.672C838.754 384.023 839.195 384.297 839.742 384.492C840.289 384.68 840.918 384.773 841.629 384.773C842.332 384.773 842.941 384.676 843.457 384.48C843.98 384.277 844.383 383.996 844.664 383.637C844.953 383.27 845.098 382.844 845.098 382.359V382.348C845.098 381.723 844.859 381.223 844.383 380.848C843.914 380.473 843.133 380.172 842.039 379.945L840.223 379.57C838.551 379.219 837.305 378.648 836.484 377.859C835.664 377.07 835.254 376.047 835.254 374.789V374.777C835.262 373.777 835.531 372.906 836.062 372.164C836.602 371.414 837.344 370.828 838.289 370.406C839.234 369.984 840.312 369.773 841.523 369.773C842.758 369.773 843.832 369.977 844.746 370.383C845.668 370.789 846.391 371.355 846.914 372.082C847.445 372.809 847.738 373.648 847.793 374.602L847.805 374.789H844.922L844.898 374.648C844.828 374.164 844.645 373.75 844.348 373.406C844.059 373.055 843.672 372.785 843.188 372.598C842.703 372.41 842.141 372.316 841.5 372.316C840.852 372.316 840.285 372.414 839.801 372.609C839.324 372.797 838.953 373.062 838.688 373.406C838.422 373.75 838.289 374.152 838.289 374.613V374.625C838.289 375.219 838.527 375.703 839.004 376.078C839.48 376.445 840.23 376.738 841.254 376.957L843.082 377.332C844.254 377.574 845.211 377.902 845.953 378.316C846.695 378.73 847.242 379.25 847.594 379.875C847.953 380.492 848.133 381.238 848.133 382.113V382.125C848.133 383.18 847.867 384.098 847.336 384.879C846.805 385.66 846.047 386.262 845.062 386.684C844.078 387.105 842.898 387.316 841.523 387.316ZM864.523 387.316C863.227 387.316 862.094 387.121 861.125 386.73C860.156 386.34 859.391 385.781 858.828 385.055C858.273 384.328 857.961 383.465 857.891 382.465L857.879 382.277H860.773L860.797 382.418C860.875 382.902 861.082 383.32 861.418 383.672C861.754 384.023 862.195 384.297 862.742 384.492C863.289 384.68 863.918 384.773 864.629 384.773C865.332 384.773 865.941 384.676 866.457 384.48C866.98 384.277 867.383 383.996 867.664 383.637C867.953 383.27 868.098 382.844 868.098 382.359V382.348C868.098 381.723 867.859 381.223 867.383 380.848C866.914 380.473 866.133 380.172 865.039 379.945L863.223 379.57C861.551 379.219 860.305 378.648 859.484 377.859C858.664 377.07 858.254 376.047 858.254 374.789V374.777C858.262 373.777 858.531 372.906 859.062 372.164C859.602 371.414 860.344 370.828 861.289 370.406C862.234 369.984 863.312 369.773 864.523 369.773C865.758 369.773 866.832 369.977 867.746 370.383C868.668 370.789 869.391 371.355 869.914 372.082C870.445 372.809 870.738 373.648 870.793 374.602L870.805 374.789H867.922L867.898 374.648C867.828 374.164 867.645 373.75 867.348 373.406C867.059 373.055 866.672 372.785 866.188 372.598C865.703 372.41 865.141 372.316 864.5 372.316C863.852 372.316 863.285 372.414 862.801 372.609C862.324 372.797 861.953 373.062 861.688 373.406C861.422 373.75 861.289 374.152 861.289 374.613V374.625C861.289 375.219 861.527 375.703 862.004 376.078C862.48 376.445 863.23 376.738 864.254 376.957L866.082 377.332C867.254 377.574 868.211 377.902 868.953 378.316C869.695 378.73 870.242 379.25 870.594 379.875C870.953 380.492 871.133 381.238 871.133 382.113V382.125C871.133 383.18 870.867 384.098 870.336 384.879C869.805 385.66 869.047 386.262 868.062 386.684C867.078 387.105 865.898 387.316 864.523 387.316Z" fill="#484848"/>
<path d="M39.375 245.465C32.2266 245.465 26.0742 243.688 20.918 240.133C15.7617 236.578 11.7969 231.539 9.02344 225.016C6.28906 218.453 4.92188 210.699 4.92188 201.754V201.637C4.92188 192.652 6.28906 184.898 9.02344 178.375C11.7969 171.852 15.7617 166.832 20.918 163.316C26.0742 159.762 32.2266 157.984 39.375 157.984C46.5234 157.984 52.6562 159.762 57.7734 163.316C62.9297 166.832 66.8945 171.852 69.668 178.375C72.4414 184.898 73.8281 192.652 73.8281 201.637V201.754C73.8281 210.699 72.4414 218.453 69.668 225.016C66.8945 231.539 62.9297 236.578 57.7734 240.133C52.6562 243.688 46.5234 245.465 39.375 245.465ZM39.375 231.285C42.8906 231.285 45.8789 230.113 48.3398 227.77C50.8008 225.426 52.6758 222.047 53.9648 217.633C55.293 213.219 55.957 207.926 55.957 201.754V201.637C55.957 195.426 55.293 190.133 53.9648 185.758C52.6758 181.344 50.8008 177.984 48.3398 175.68C45.8789 173.336 42.8906 172.164 39.375 172.164C35.8594 172.164 32.8516 173.336 30.3516 175.68C27.8906 177.984 26.0156 181.344 24.7266 185.758C23.4375 190.133 22.793 195.426 22.793 201.637V201.754C22.793 207.926 23.4375 213.219 24.7266 217.633C26.0156 222.047 27.8906 225.426 30.3516 227.77C32.8516 230.113 35.8594 231.285 39.375 231.285ZM79.8549 244V231.871L109.738 203.922C113.41 200.523 116.183 197.691 118.058 195.426C119.933 193.16 121.203 191.129 121.867 189.332C122.57 187.535 122.921 185.66 122.921 183.707V183.59C122.921 181.285 122.374 179.254 121.281 177.496C120.187 175.699 118.664 174.293 116.71 173.277C114.796 172.262 112.589 171.754 110.089 171.754C107.199 171.754 104.66 172.34 102.472 173.512C100.285 174.645 98.5658 176.227 97.3158 178.258C96.0658 180.25 95.4018 182.516 95.3237 185.055L95.2651 185.582H78.8588V185.113C78.8588 179.801 80.2065 175.113 82.9018 171.051C85.5971 166.949 89.2885 163.746 93.976 161.441C98.7026 159.137 104.035 157.984 109.972 157.984C115.949 157.984 121.203 159.039 125.734 161.148C130.265 163.219 133.8 166.109 136.339 169.82C138.878 173.531 140.148 177.789 140.148 182.594V182.711C140.148 186.109 139.523 189.273 138.273 192.203C137.062 195.094 135.05 198.18 132.238 201.461C129.425 204.703 125.578 208.57 120.695 213.062L96.2026 235.387L102.999 223.492V235.387L96.2612 229.938H141.32V244H79.8549Z" fill="#EEEFF4"/>
<path d="M53.2188 227V176.27H63.8359V218.246H86.0195V227H53.2188ZM90.216 227V189.312H100.482V227H90.216ZM95.3488 184.461C93.8019 184.461 92.5011 183.934 91.4464 182.879C90.3917 181.824 89.8644 180.57 89.8644 179.117C89.8644 177.641 90.3917 176.387 91.4464 175.355C92.5011 174.301 93.8019 173.773 95.3488 173.773C96.8956 173.773 98.1964 174.301 99.2511 175.355C100.306 176.387 100.833 177.641 100.833 179.117C100.833 180.57 100.306 181.824 99.2511 182.879C98.1964 183.934 96.8956 184.461 95.3488 184.461ZM105.944 227V189.312H116.209V195.5H116.42C117.405 193.344 118.858 191.645 120.78 190.402C122.701 189.16 125.08 188.539 127.916 188.539C132.065 188.539 135.264 189.793 137.514 192.301C139.787 194.785 140.924 198.242 140.924 202.672V227H130.658V204.781C130.658 202.32 130.073 200.422 128.901 199.086C127.752 197.727 126.03 197.047 123.733 197.047C122.209 197.047 120.885 197.398 119.76 198.102C118.635 198.781 117.756 199.742 117.123 200.984C116.514 202.227 116.209 203.68 116.209 205.344V227H105.944ZM146.351 227V176.27H156.617V227H146.351ZM170.046 227L158.41 210.336L164.914 202.531L181.894 227H170.046ZM155.351 215.891V204.395H156.828L169.554 189.312H181.191L163.789 209.105H161.503L155.351 215.891ZM198.114 227.773C194.645 227.773 191.692 227.27 189.254 226.262C186.817 225.254 184.907 223.859 183.524 222.078C182.165 220.273 181.344 218.188 181.063 215.82L181.028 215.504H191.047L191.118 215.82C191.446 217.297 192.184 218.445 193.333 219.266C194.481 220.086 196.075 220.496 198.114 220.496C199.426 220.496 200.54 220.344 201.454 220.039C202.368 219.711 203.071 219.254 203.563 218.668C204.079 218.082 204.337 217.379 204.337 216.559V216.523C204.337 215.516 203.973 214.707 203.247 214.098C202.52 213.488 201.231 212.973 199.379 212.551L192.981 211.215C190.544 210.699 188.504 209.961 186.864 209C185.247 208.016 184.028 206.809 183.208 205.379C182.387 203.926 181.977 202.262 181.977 200.387V200.352C181.977 197.938 182.622 195.852 183.911 194.094C185.2 192.336 187.028 190.977 189.395 190.016C191.786 189.031 194.575 188.539 197.762 188.539C201.09 188.539 203.915 189.078 206.235 190.156C208.579 191.211 210.372 192.641 211.614 194.445C212.879 196.25 213.547 198.254 213.618 200.457V200.809H204.161L204.126 200.527C203.962 199.168 203.329 198.043 202.227 197.152C201.149 196.238 199.661 195.781 197.762 195.781C196.59 195.781 195.571 195.945 194.704 196.273C193.837 196.602 193.169 197.07 192.7 197.68C192.231 198.266 191.997 198.969 191.997 199.789V199.824C191.997 200.457 192.149 201.031 192.454 201.547C192.782 202.039 193.321 202.473 194.071 202.848C194.821 203.223 195.829 203.551 197.094 203.832L203.493 205.203C207.454 206.023 210.29 207.254 212.001 208.895C213.735 210.535 214.602 212.738 214.602 215.504V215.539C214.602 218 213.899 220.145 212.493 221.973C211.087 223.801 209.141 225.23 206.657 226.262C204.196 227.27 201.348 227.773 198.114 227.773Z" fill="#1B1D23"/>
<g clip-path="url(#clip1_28_1024)">
<path d="M560.216 181.528C559.469 181.328 558.905 181.069 558.522 180.752C558.144 180.436 557.949 180.084 557.936 179.697C557.923 179.309 558.098 178.909 558.462 178.494L558.524 178.424L560.192 178.871L560.149 178.922C559.978 179.127 559.912 179.328 559.952 179.525C559.996 179.723 560.135 179.906 560.366 180.076C560.601 180.241 560.92 180.379 561.325 180.487C561.712 180.591 562.098 180.639 562.484 180.631C562.87 180.623 563.224 180.565 563.546 180.457C563.871 180.346 564.135 180.189 564.337 179.988L564.342 179.983C564.596 179.728 564.667 179.485 564.555 179.253C564.446 179.018 564.13 178.767 563.605 178.503L562.727 178.07C561.893 177.652 561.418 177.215 561.304 176.76C561.198 176.302 561.407 175.811 561.932 175.287L561.936 175.282C562.357 174.862 562.876 174.534 563.494 174.299C564.117 174.066 564.783 173.933 565.493 173.9C566.21 173.865 566.915 173.94 567.609 174.126C568.321 174.317 568.849 174.57 569.194 174.885C569.542 175.197 569.715 175.543 569.713 175.923C569.712 176.302 569.54 176.685 569.198 177.073L569.141 177.138L567.5 176.698L567.545 176.636C567.69 176.44 567.747 176.25 567.715 176.068C567.69 175.884 567.581 175.714 567.386 175.559C567.192 175.404 566.91 175.277 566.541 175.178C566.19 175.084 565.835 175.04 565.478 175.048C565.124 175.052 564.796 175.104 564.492 175.205C564.193 175.306 563.943 175.458 563.741 175.66L563.736 175.665C563.488 175.912 563.415 176.153 563.514 176.386C563.618 176.62 563.925 176.863 564.434 177.115L565.307 177.553C565.879 177.839 566.29 178.124 566.54 178.41C566.79 178.696 566.884 178.994 566.823 179.304C566.769 179.611 566.563 179.945 566.205 180.302L566.2 180.307C565.744 180.763 565.196 181.116 564.558 181.366C563.923 181.617 563.232 181.758 562.485 181.789C561.742 181.822 560.986 181.734 560.216 181.528ZM565.977 182.848L573.381 175.444L575.043 175.889L572.156 178.776L572.269 178.806C572.733 178.563 573.222 178.407 573.736 178.338C574.25 178.269 574.769 178.305 575.294 178.446C575.837 178.591 576.217 178.792 576.434 179.049C576.655 179.302 576.713 179.602 576.608 179.95C576.507 180.299 576.245 180.685 575.822 181.108L572.369 184.561L570.707 184.116L573.877 180.946C574.294 180.529 574.487 180.184 574.455 179.912C574.427 179.64 574.162 179.437 573.66 179.302C573.331 179.214 572.992 179.192 572.644 179.235C572.296 179.278 571.961 179.38 571.636 179.541C571.312 179.701 571.017 179.915 570.749 180.183L567.638 183.294L565.977 182.848ZM577.372 186.038C576.647 185.844 576.133 185.566 575.83 185.203C575.529 184.838 575.444 184.411 575.572 183.921C575.706 183.432 576.061 182.9 576.637 182.324L576.647 182.314C577.217 181.743 577.85 181.291 578.548 180.953C579.25 180.612 579.972 180.401 580.714 180.319C581.46 180.238 582.196 180.295 582.921 180.49C583.646 180.684 584.158 180.961 584.457 181.322C584.76 181.684 584.847 182.11 584.718 182.6C584.59 183.09 584.238 183.622 583.666 184.194L583.656 184.204C583.08 184.78 582.442 185.237 581.744 185.575C581.05 185.913 580.329 186.124 579.579 186.208C578.837 186.29 578.101 186.234 577.372 186.038ZM578.359 185.051C578.741 185.154 579.136 185.171 579.543 185.102C579.958 185.031 580.368 184.884 580.774 184.658C581.183 184.43 581.575 184.128 581.949 183.753L581.959 183.743C582.337 183.366 582.587 183.026 582.708 182.724C582.833 182.419 582.83 182.16 582.698 181.947C582.575 181.732 582.321 181.574 581.939 181.471C581.556 181.369 581.158 181.353 580.743 181.423C580.332 181.491 579.922 181.638 579.512 181.868C579.106 182.093 578.714 182.395 578.336 182.773L578.326 182.783C577.952 183.157 577.702 183.497 577.578 183.802C577.453 184.107 577.455 184.365 577.582 184.577C577.713 184.789 577.972 184.947 578.359 185.051ZM584.052 187.692L587.408 181.822L589.077 182.269L586.269 186.607L586.389 186.64L591.805 183L593.387 183.424L590.78 187.816L590.9 187.848L596.122 184.157L597.77 184.598L590.45 189.406L588.715 188.941L591.163 184.692L591.049 184.661L585.766 188.151L584.052 187.692Z" fill="#222222"/>
<path d="M554.04 181.96L591.03 191.872L590.23 192.672L553.239 182.761L554.04 181.96Z" fill="#222222"/>
<path d="M764.321 221.461L731.298 212.613C728.311 211.813 724.116 212.937 721.93 215.123L713.594 223.459C711.407 225.646 712.056 228.068 715.043 228.868L748.066 237.717C751.053 238.517 755.247 237.393 757.434 235.206L765.77 226.87C767.957 224.684 767.308 222.262 764.321 221.461Z" stroke="#222222" stroke-width="1.5"/>
<path d="M721.914 224.855C721.166 224.654 720.602 224.395 720.22 224.078C719.841 223.762 719.646 223.411 719.633 223.024C719.621 222.636 719.795 222.235 720.159 221.82L720.221 221.75L721.889 222.197L721.846 222.248C721.674 222.454 721.609 222.655 721.649 222.852C721.693 223.05 721.832 223.233 722.063 223.402C722.298 223.568 722.617 223.705 723.022 223.813C723.409 223.917 723.795 223.966 724.182 223.957C724.566 223.949 724.922 223.891 725.243 223.784C725.568 223.672 725.833 223.516 726.034 223.314L726.039 223.309C726.294 223.055 726.364 222.812 726.252 222.58C726.143 222.345 725.827 222.094 725.301 221.83L724.423 221.397C723.59 220.979 723.115 220.542 723.002 220.087C722.895 219.629 723.105 219.138 723.629 218.613L723.634 218.608C724.054 218.188 724.573 217.861 725.191 217.626C725.814 217.392 726.48 217.259 727.19 217.226C727.907 217.191 728.612 217.267 729.307 217.453C730.019 217.644 730.547 217.897 730.891 218.212C731.239 218.524 731.412 218.87 731.411 219.249C731.409 219.629 731.237 220.012 730.894 220.399L730.838 220.464L729.197 220.025L729.242 219.962C729.388 219.766 729.444 219.577 729.412 219.395C729.387 219.211 729.278 219.041 729.084 218.886C728.889 218.73 728.607 218.603 728.238 218.504C727.886 218.41 727.532 218.367 727.175 218.375C726.822 218.379 726.492 218.431 726.19 218.531C725.89 218.633 725.639 218.784 725.437 218.986L725.433 218.991C725.185 219.239 725.112 219.479 725.211 219.712C725.316 219.947 725.622 220.19 726.132 220.442L727.005 220.88C727.577 221.166 727.987 221.451 728.237 221.737C728.487 222.022 728.582 222.321 728.52 222.631C728.466 222.937 728.259 223.271 727.902 223.629L727.897 223.634C727.441 224.09 726.894 224.443 726.255 224.692C725.62 224.943 724.93 225.085 724.181 225.116C723.438 225.148 722.682 225.061 721.914 224.855ZM727.674 226.175L735.079 218.77L736.74 219.216L733.853 222.102L733.966 222.133C734.43 221.889 734.918 221.733 735.433 221.665C735.947 221.596 736.466 221.632 736.991 221.773C737.534 221.918 737.914 222.119 738.131 222.375C738.352 222.628 738.409 222.929 738.304 223.276C738.204 223.625 737.942 224.012 737.519 224.434L734.066 227.888L732.404 227.443L735.574 224.272C735.991 223.856 736.184 223.511 736.152 223.238C736.125 222.967 735.859 222.764 735.357 222.629C735.028 222.541 734.689 222.518 734.342 222.561C733.993 222.605 733.658 222.706 733.333 222.868C733.009 223.028 732.714 223.242 732.446 223.509L729.335 226.62L727.674 226.175ZM739.069 229.365C738.344 229.171 737.83 228.892 737.527 228.53C737.226 228.165 737.14 227.737 737.269 227.247C737.402 226.759 737.757 226.226 738.333 225.65L738.343 225.64C738.913 225.07 739.547 224.617 740.245 224.28C740.947 223.939 741.669 223.728 742.411 223.646C743.157 223.565 743.893 223.622 744.617 223.816C745.343 224.01 745.855 224.288 746.154 224.649C746.457 225.011 746.544 225.437 746.415 225.927C746.286 226.417 745.935 226.948 745.362 227.521L745.352 227.531C744.776 228.107 744.139 228.564 743.441 228.901C742.747 229.239 742.026 229.451 741.277 229.535C740.534 229.617 739.798 229.56 739.069 229.365ZM740.056 228.378C740.438 228.48 740.833 228.497 741.24 228.429C741.655 228.358 742.065 228.21 742.471 227.985C742.88 227.756 743.272 227.454 743.646 227.08L743.656 227.07C744.034 226.692 744.284 226.353 744.405 226.051C744.53 225.745 744.526 225.486 744.395 225.274C744.271 225.059 744.018 224.9 743.635 224.798C743.253 224.695 742.854 224.679 742.44 224.75C742.029 224.817 741.619 224.965 741.209 225.194C740.803 225.42 740.411 225.722 740.034 226.099L740.024 226.109C739.65 226.484 739.399 226.824 739.275 227.128C739.15 227.433 739.152 227.692 739.278 227.903C739.409 228.116 739.67 228.274 740.056 228.378ZM745.749 231.018L749.106 225.149L750.773 225.595L747.966 229.934L748.086 229.966L753.503 226.327L755.084 226.751L752.477 231.143L752.596 231.175L757.819 227.484L759.467 227.925L752.147 232.733L750.413 232.268L752.861 228.019L752.747 227.988L747.464 231.478L745.749 231.018Z" fill="#222222"/>
<path d="M715.737 225.287L752.726 235.198L751.926 235.999L714.936 226.087L715.737 225.287Z" fill="#222222"/>
<path d="M596.786 145.915C595.915 145.681 595.256 145.38 594.81 145.01C594.369 144.641 594.141 144.231 594.126 143.779C594.111 143.327 594.315 142.859 594.74 142.375L594.812 142.293L596.758 142.815L596.709 142.874C596.508 143.114 596.431 143.349 596.478 143.578C596.53 143.809 596.691 144.023 596.961 144.22C597.234 144.414 597.607 144.574 598.08 144.701C598.531 144.822 598.982 144.878 599.432 144.868C599.883 144.859 600.295 144.791 600.671 144.665C601.051 144.536 601.358 144.353 601.594 144.118L601.6 144.112C601.896 143.816 601.979 143.532 601.848 143.261C601.722 142.987 601.352 142.695 600.74 142.386L599.716 141.881C598.742 141.393 598.189 140.884 598.056 140.352C597.932 139.818 598.176 139.245 598.788 138.633L598.793 138.628C599.283 138.138 599.889 137.756 600.61 137.482C601.337 137.209 602.114 137.054 602.942 137.015C603.779 136.975 604.602 137.063 605.412 137.28C606.242 137.502 606.858 137.797 607.26 138.165C607.666 138.529 607.868 138.933 607.866 139.375C607.864 139.818 607.664 140.265 607.265 140.717L607.199 140.793L605.284 140.28L605.336 140.208C605.506 139.978 605.572 139.758 605.535 139.545C605.506 139.331 605.378 139.133 605.152 138.951C604.925 138.77 604.596 138.622 604.165 138.506C603.755 138.397 603.342 138.346 602.925 138.355C602.512 138.36 602.129 138.421 601.775 138.538C601.426 138.656 601.134 138.833 600.898 139.069L600.893 139.075C600.604 139.363 600.518 139.644 600.634 139.916C600.755 140.189 601.113 140.473 601.708 140.767L602.726 141.278C603.393 141.611 603.873 141.944 604.164 142.278C604.456 142.611 604.566 142.959 604.494 143.32C604.431 143.679 604.191 144.067 603.773 144.485L603.767 144.491C603.236 145.023 602.597 145.434 601.851 145.726C601.111 146.019 600.305 146.183 599.433 146.22C598.566 146.257 597.684 146.156 596.786 145.915ZM603.507 147.456L612.146 138.817L614.084 139.336L610.716 142.704L610.848 142.739C611.389 142.456 611.959 142.274 612.559 142.193C613.159 142.113 613.765 142.155 614.378 142.319C615.011 142.489 615.454 142.723 615.708 143.023C615.965 143.318 616.032 143.668 615.91 144.074C615.792 144.481 615.487 144.931 614.993 145.425L610.964 149.454L609.026 148.934L612.724 145.236C613.211 144.75 613.435 144.348 613.398 144.029C613.366 143.713 613.057 143.476 612.471 143.319C612.086 143.216 611.692 143.189 611.286 143.24C610.88 143.29 610.488 143.409 610.11 143.596C609.732 143.784 609.387 144.034 609.075 144.345L605.445 147.975L603.507 147.456ZM616.801 151.177C615.956 150.95 615.356 150.626 615.002 150.203C614.651 149.777 614.551 149.278 614.702 148.707C614.857 148.137 615.271 147.515 615.944 146.843L615.955 146.832C616.62 146.167 617.36 145.638 618.174 145.244C618.993 144.847 619.835 144.6 620.7 144.505C621.571 144.411 622.429 144.477 623.275 144.703C624.121 144.93 624.718 145.254 625.067 145.675C625.421 146.097 625.523 146.594 625.372 147.166C625.222 147.737 624.813 148.357 624.144 149.026L624.133 149.037C623.46 149.71 622.717 150.243 621.902 150.636C621.093 151.031 620.251 151.277 619.376 151.375C618.511 151.471 617.653 151.405 616.801 151.177ZM617.953 150.026C618.399 150.145 618.859 150.165 619.334 150.085C619.818 150.003 620.297 149.83 620.77 149.567C621.248 149.3 621.705 148.948 622.142 148.511L622.153 148.5C622.594 148.059 622.885 147.663 623.027 147.31C623.172 146.954 623.169 146.652 623.015 146.404C622.871 146.153 622.576 145.968 622.129 145.849C621.683 145.729 621.218 145.711 620.735 145.793C620.255 145.871 619.776 146.044 619.298 146.311C618.825 146.575 618.367 146.926 617.927 147.367L617.915 147.379C617.478 147.815 617.187 148.212 617.042 148.568C616.896 148.924 616.898 149.225 617.046 149.472C617.199 149.72 617.501 149.905 617.953 150.026ZM624.252 153.014L628.168 146.166L630.114 146.688L626.839 151.749L626.979 151.787L633.298 147.541L635.143 148.035L632.101 153.159L632.241 153.197L638.334 148.89L640.257 149.406L631.717 155.014L629.693 154.472L632.548 149.515L632.416 149.479L626.252 153.55L624.252 153.014ZM639.952 157.221L646.181 150.993L648.119 151.512L647.15 152.481L647.283 152.516C647.81 152.219 648.371 152.03 648.966 151.949C649.566 151.868 650.146 151.904 650.706 152.054C651.09 152.157 651.39 152.295 651.605 152.468C651.825 152.642 651.963 152.843 652.019 153.07C652.075 153.297 652.047 153.542 651.934 153.806L652.075 153.844C652.439 153.657 652.829 153.514 653.245 153.413C653.671 153.31 654.097 153.259 654.526 153.258C654.963 153.255 655.379 153.306 655.774 153.412C656.345 153.564 656.749 153.779 656.986 154.054C657.233 154.328 657.311 154.647 657.222 155.013C657.137 155.381 656.88 155.779 656.451 156.209L652.166 160.494L650.228 159.974L654.165 156.037C654.439 155.763 654.608 155.522 654.672 155.313C654.742 155.105 654.708 154.925 654.571 154.773C654.433 154.62 654.191 154.498 653.843 154.404C653.506 154.314 653.156 154.292 652.793 154.34C652.434 154.383 652.089 154.481 651.759 154.633C651.434 154.787 651.152 154.984 650.912 155.223L647.02 159.115L645.082 158.596L649.122 154.555C649.354 154.324 649.491 154.108 649.534 153.907C649.582 153.708 649.532 153.533 649.386 153.383C649.249 153.231 649.022 153.113 648.706 153.028C648.389 152.943 648.043 152.927 647.667 152.981C647.3 153.032 646.94 153.142 646.586 153.312C646.24 153.48 645.938 153.693 645.68 153.951L641.891 157.741L639.952 157.221ZM657.995 162.215C657.149 161.988 656.55 161.663 656.195 161.241C655.845 160.815 655.745 160.316 655.896 159.745C656.051 159.175 656.465 158.553 657.137 157.881L657.149 157.869C657.814 157.205 658.553 156.675 659.368 156.282C660.186 155.885 661.028 155.638 661.894 155.543C662.765 155.448 663.623 155.515 664.469 155.741C665.315 155.968 665.912 156.292 666.261 156.713C666.615 157.135 666.717 157.632 666.566 158.204C666.416 158.775 666.006 159.395 665.338 160.064L665.326 160.075C664.654 160.747 663.911 161.28 663.096 161.674C662.287 162.069 661.445 162.315 660.57 162.413C659.705 162.509 658.846 162.443 657.995 162.215ZM659.146 161.064C659.593 161.183 660.053 161.203 660.528 161.123C661.012 161.041 661.49 160.868 661.964 160.605C662.442 160.338 662.899 159.986 663.336 159.549L663.347 159.538C663.788 159.097 664.079 158.7 664.221 158.348C664.366 157.992 664.362 157.69 664.209 157.442C664.065 157.191 663.77 157.006 663.323 156.887C662.877 156.767 662.412 156.748 661.928 156.831C661.448 156.909 660.97 157.082 660.492 157.349C660.018 157.612 659.561 157.964 659.12 158.405L659.109 158.416C658.672 158.853 658.381 159.25 658.235 159.606C658.09 159.962 658.091 160.263 658.239 160.51C658.393 160.758 658.695 160.943 659.146 161.064ZM664.161 163.708L670.39 157.479L672.328 157.999L671.37 158.956L671.503 158.992C671.982 158.696 672.502 158.506 673.062 158.42C673.627 158.335 674.19 158.368 674.75 158.518C674.895 158.557 675.03 158.603 675.155 158.655C675.289 158.706 675.393 158.753 675.468 158.797L674.197 160.068C674.068 159.999 673.929 159.938 673.779 159.883C673.639 159.826 673.483 159.775 673.312 159.729C672.881 159.614 672.446 159.572 672.006 159.603C671.567 159.635 671.149 159.737 670.752 159.91C670.359 160.08 670.014 160.312 669.718 160.609L666.099 164.227L664.161 163.708ZM674.093 166.528C673.247 166.301 672.652 165.976 672.307 165.551C671.967 165.127 671.875 164.631 672.03 164.061C672.186 163.491 672.594 162.875 673.255 162.214L673.261 162.208C673.914 161.555 674.645 161.028 675.453 160.628C676.266 160.229 677.104 159.977 677.967 159.871C678.833 159.761 679.668 159.814 680.473 160.03C681.282 160.247 681.847 160.564 682.166 160.982C682.494 161.397 682.583 161.881 682.432 162.433C682.281 162.985 681.892 163.575 681.266 164.202L680.798 164.669L673.886 162.817L674.838 161.865L680.8 163.463L678.993 164.105L679.557 163.541C679.971 163.127 680.229 162.761 680.332 162.441C680.434 162.122 680.4 161.853 680.231 161.634C680.067 161.416 679.785 161.254 679.385 161.147C678.985 161.04 678.558 161.017 678.102 161.078C677.655 161.136 677.202 161.28 676.744 161.509C676.294 161.735 675.869 162.047 675.47 162.446L674.9 163.016C674.517 163.4 674.276 163.752 674.179 164.073C674.086 164.39 674.126 164.666 674.3 164.9C674.482 165.132 674.797 165.308 675.243 165.427C675.591 165.52 675.925 165.564 676.246 165.559C676.577 165.551 676.871 165.517 677.129 165.456C677.391 165.391 677.601 165.32 677.758 165.241L677.821 165.208L679.658 165.7L679.592 165.747C679.323 165.93 678.993 166.102 678.603 166.262C678.221 166.42 677.788 166.547 677.303 166.644C676.827 166.738 676.317 166.782 675.77 166.775C675.228 166.765 674.669 166.682 674.093 166.528Z" fill="#222222"/>
<mask id="mask1_28_1024" style="mask-type:luminance" maskUnits="userSpaceOnUse" x="681" y="158" width="32" height="19">
<path d="M712.581 163.47L694.362 158.588L681.024 171.926L699.244 176.808L712.581 163.47Z" fill="white"/>
</mask>
<g mask="url(#mask1_28_1024)">
<path d="M691.191 170.422L699.08 168.308L697.86 163.753" stroke="#222222" stroke-width="1.33333" stroke-linecap="round" stroke-linejoin="round"/>
</g>
<path d="M874.918 203.269L769.018 174.893C765.874 174.05 761.459 175.233 759.157 177.535L748.32 188.372C746.018 190.674 746.701 193.223 749.846 194.066L855.746 222.441C858.89 223.284 863.305 222.101 865.607 219.799L876.444 208.962C878.746 206.66 878.063 204.111 874.918 203.269Z" stroke="#222222" stroke-width="2"/>
<path d="M758.484 189.242C757.612 189.008 756.953 188.706 756.507 188.336C756.066 187.968 755.838 187.557 755.823 187.105C755.808 186.653 756.012 186.185 756.436 185.702L756.509 185.62L758.455 186.142L758.405 186.2C758.205 186.441 758.128 186.675 758.176 186.905C758.228 187.136 758.388 187.349 758.658 187.547C758.931 187.741 759.305 187.901 759.776 188.027C760.228 188.148 760.679 188.204 761.129 188.195C761.579 188.185 761.993 188.118 762.369 187.992C762.748 187.863 763.056 187.68 763.291 187.445L763.297 187.439C763.593 187.143 763.676 186.859 763.546 186.588C763.419 186.313 763.05 186.022 762.437 185.713L761.413 185.207C760.439 184.72 759.886 184.21 759.753 183.679C759.629 183.144 759.873 182.572 760.484 181.96L760.49 181.954C760.98 181.464 761.586 181.082 762.307 180.808C763.035 180.536 763.811 180.38 764.639 180.342C765.476 180.302 766.3 180.39 767.109 180.606C767.939 180.829 768.555 181.124 768.957 181.492C769.364 181.856 769.565 182.259 769.563 182.702C769.561 183.144 769.361 183.592 768.962 184.044L768.896 184.12L766.981 183.607L767.033 183.534C767.203 183.305 767.269 183.084 767.232 182.872C767.203 182.657 767.076 182.459 766.848 182.278C766.622 182.097 766.293 181.948 765.862 181.833C765.452 181.723 765.039 181.673 764.622 181.681C764.21 181.687 763.826 181.747 763.472 181.865C763.123 181.983 762.831 182.16 762.596 182.396L762.59 182.401C762.301 182.69 762.214 182.97 762.331 183.242C762.453 183.516 762.81 183.799 763.404 184.093L764.423 184.605C765.091 184.938 765.569 185.271 765.861 185.604C766.153 185.938 766.263 186.285 766.192 186.647C766.129 187.006 765.888 187.394 765.47 187.812L765.464 187.817C764.932 188.349 764.294 188.761 763.549 189.053C762.808 189.345 762.002 189.51 761.131 189.546C760.263 189.584 759.381 189.482 758.484 189.242ZM765.204 190.782L773.843 182.143L775.781 182.663L772.413 186.03L772.546 186.066C773.086 185.782 773.656 185.6 774.256 185.52C774.856 185.44 775.462 185.482 776.075 185.646C776.708 185.816 777.151 186.05 777.404 186.349C777.662 186.645 777.729 186.995 777.607 187.4C777.49 187.807 777.184 188.258 776.69 188.752L772.661 192.78L770.723 192.261L774.421 188.563C774.908 188.076 775.132 187.674 775.095 187.356C775.063 187.039 774.754 186.802 774.167 186.645C773.784 186.542 773.389 186.516 772.983 186.566C772.578 186.617 772.186 186.735 771.807 186.923C771.429 187.111 771.083 187.36 770.772 187.672L767.142 191.301L765.204 190.782ZM778.498 194.503C777.653 194.277 777.052 193.952 776.699 193.53C776.349 193.104 776.248 192.605 776.398 192.033C776.554 191.463 776.969 190.842 777.641 190.17L777.652 190.158C778.317 189.494 779.057 188.964 779.871 188.571C780.69 188.174 781.531 187.927 782.398 187.832C783.267 187.737 784.126 187.804 784.971 188.03C785.817 188.257 786.415 188.58 786.763 189.001C787.118 189.424 787.22 189.921 787.07 190.492C786.919 191.064 786.51 191.684 785.841 192.352L785.83 192.364C785.157 193.036 784.413 193.569 783.6 193.963C782.79 194.358 781.948 194.604 781.073 194.702C780.208 194.798 779.35 194.732 778.498 194.503ZM779.649 193.352C780.096 193.472 780.556 193.492 781.031 193.412C781.514 193.329 781.993 193.157 782.467 192.893C782.945 192.626 783.402 192.275 783.839 191.838L783.851 191.826C784.291 191.386 784.582 190.989 784.724 190.637C784.869 190.281 784.865 189.979 784.712 189.731C784.568 189.48 784.272 189.295 783.826 189.175C783.381 189.056 782.916 189.037 782.432 189.12C781.952 189.198 781.473 189.371 780.996 189.638C780.522 189.901 780.064 190.253 779.624 190.694L779.612 190.705C779.175 191.142 778.884 191.538 778.739 191.895C778.594 192.251 778.594 192.552 778.743 192.799C778.896 193.047 779.198 193.231 779.649 193.352ZM785.949 196.341L789.866 189.493L791.812 190.014L788.536 195.076L788.676 195.114L794.995 190.868L796.84 191.362L793.798 196.486L793.938 196.523L800.032 192.217L801.954 192.732L793.414 198.341L791.39 197.799L794.245 192.841L794.113 192.806L787.949 196.877L785.949 196.341ZM801.649 200.548L807.878 194.319L809.816 194.839L808.847 195.807L808.98 195.843C809.507 195.546 810.068 195.356 810.663 195.275C811.263 195.195 811.843 195.23 812.403 195.38C812.788 195.483 813.087 195.621 813.301 195.794C813.522 195.969 813.661 196.17 813.717 196.397C813.773 196.624 813.744 196.869 813.632 197.133L813.772 197.17C814.136 196.984 814.526 196.84 814.942 196.74C815.368 196.637 815.795 196.585 816.223 196.584C816.661 196.581 817.076 196.632 817.47 196.738C818.042 196.891 818.446 197.105 818.684 197.381C818.931 197.654 819.008 197.974 818.919 198.34C818.835 198.707 818.578 199.106 818.148 199.535L813.863 203.82L811.925 203.301L815.863 199.364C816.136 199.09 816.304 198.848 816.369 198.639C816.438 198.431 816.404 198.251 816.268 198.099C816.13 197.947 815.888 197.824 815.54 197.731C815.203 197.641 814.852 197.619 814.49 197.666C814.131 197.71 813.786 197.808 813.456 197.96C813.13 198.114 812.849 198.31 812.609 198.55L808.717 202.442L806.779 201.922L810.819 197.882C811.051 197.65 811.188 197.434 811.231 197.234C811.279 197.035 811.229 196.86 811.083 196.71C810.947 196.558 810.719 196.439 810.402 196.354C810.086 196.269 809.74 196.254 809.364 196.307C808.998 196.358 808.636 196.469 808.283 196.639C807.938 196.806 807.635 197.019 807.377 197.278L803.587 201.067L801.649 200.548ZM819.692 205.541C818.846 205.315 818.246 204.99 817.892 204.568C817.543 204.142 817.442 203.643 817.592 203.071C817.748 202.501 818.163 201.88 818.835 201.208L818.847 201.196C819.511 200.531 820.25 200.002 821.065 199.609C821.884 199.211 822.725 198.965 823.591 198.869C824.461 198.775 825.319 198.841 826.165 199.068C827.012 199.295 827.609 199.618 827.957 200.039C828.312 200.462 828.414 200.959 828.263 201.53C828.113 202.102 827.704 202.722 827.035 203.39L827.024 203.402C826.351 204.074 825.608 204.607 824.793 205C823.983 205.395 823.142 205.642 822.267 205.74C821.402 205.836 820.544 205.769 819.692 205.541ZM820.843 204.39C821.29 204.51 821.75 204.53 822.225 204.45C822.708 204.367 823.187 204.195 823.661 203.931C824.139 203.664 824.596 203.312 825.033 202.876L825.045 202.864C825.485 202.424 825.776 202.027 825.918 201.675C826.063 201.319 826.059 201.017 825.906 200.768C825.762 200.518 825.466 200.333 825.02 200.213C824.574 200.094 824.109 200.075 823.625 200.157C823.145 200.236 822.666 200.409 822.19 200.676C821.716 200.939 821.258 201.291 820.818 201.732L820.806 201.743C820.369 202.18 820.078 202.576 819.933 202.932C819.787 203.288 819.788 203.59 819.936 203.836C820.089 204.084 820.392 204.269 820.843 204.39ZM825.858 207.034L832.087 200.806L834.025 201.325L833.067 202.283L833.199 202.318C833.68 202.023 834.199 201.832 834.759 201.746C835.324 201.662 835.887 201.694 836.447 201.844C836.593 201.883 836.727 201.929 836.852 201.982C836.987 202.032 837.091 202.08 837.165 202.124L835.895 203.394C835.765 203.326 835.626 203.265 835.477 203.21C835.336 203.153 835.18 203.102 835.009 203.056C834.578 202.94 834.143 202.898 833.704 202.93C833.264 202.962 832.845 203.064 832.448 203.237C832.056 203.406 831.711 203.639 831.415 203.935L827.796 207.554L825.858 207.034ZM835.79 209.855C834.944 209.628 834.349 209.302 834.004 208.877C833.663 208.454 833.571 207.957 833.727 207.387C833.883 206.817 834.291 206.202 834.952 205.541L834.958 205.535C835.612 204.882 836.342 204.355 837.149 203.955C837.964 203.556 838.801 203.304 839.663 203.198C840.53 203.088 841.366 203.141 842.17 203.356C842.98 203.573 843.544 203.891 843.863 204.308C844.191 204.724 844.279 205.208 844.129 205.76C843.978 206.312 843.589 206.901 842.962 207.528L842.495 207.995L835.583 206.143L836.535 205.192L842.497 206.789L840.69 207.432L841.254 206.868C841.668 206.454 841.927 206.087 842.028 205.768C842.131 205.448 842.097 205.179 841.928 204.96C841.764 204.743 841.481 204.581 841.082 204.474C840.683 204.367 840.254 204.343 839.799 204.404C839.352 204.463 838.9 204.607 838.44 204.835C837.99 205.061 837.566 205.374 837.167 205.773L836.598 206.343C836.214 206.726 835.973 207.079 835.876 207.399C835.783 207.716 835.823 207.992 835.997 208.227C836.18 208.459 836.494 208.634 836.94 208.754C837.287 208.847 837.622 208.891 837.943 208.885C838.274 208.878 838.569 208.843 838.826 208.782C839.088 208.718 839.298 208.646 839.455 208.568L839.519 208.534L841.355 209.027L841.289 209.074C841.02 209.257 840.69 209.429 840.299 209.589C839.918 209.747 839.485 209.874 839.001 209.971C838.524 210.065 838.014 210.108 837.468 210.102C836.925 210.091 836.366 210.009 835.79 209.855Z" fill="#222222"/>
<mask id="mask2_28_1024" style="mask-type:luminance" maskUnits="userSpaceOnUse" x="842" y="201" width="33" height="20">
<path d="M874.278 206.797L856.059 201.915L842.721 215.252L860.941 220.134L874.278 206.797Z" fill="white"/>
</mask>
<g mask="url(#mask2_28_1024)">
<path d="M852.888 213.749L860.777 211.635L859.557 207.08" stroke="#222222" stroke-width="1.33333" stroke-linecap="round" stroke-linejoin="round"/>
</g>
<path d="M635.085 108.614C634.021 108.329 633.277 107.908 632.853 107.351C632.435 106.796 632.336 106.141 632.558 105.386C632.789 104.629 633.346 103.808 634.232 102.923L634.243 102.912C635.132 102.023 636.105 101.313 637.162 100.782C638.228 100.249 639.32 99.9104 640.438 99.7667C641.555 99.623 642.646 99.6937 643.71 99.9787C644.561 100.207 645.205 100.536 645.644 100.967C646.085 101.393 646.305 101.881 646.303 102.429C646.304 102.974 646.07 103.537 645.6 104.119L645.546 104.163L643.585 103.637L643.605 103.607C643.835 103.259 643.94 102.93 643.919 102.622C643.903 102.309 643.769 102.035 643.518 101.799C643.271 101.559 642.911 101.376 642.439 101.249C641.806 101.08 641.132 101.056 640.418 101.178C639.704 101.299 638.992 101.554 638.282 101.942C637.581 102.327 636.919 102.831 636.296 103.454L636.285 103.466C635.662 104.089 635.247 104.662 635.04 105.184C634.838 105.708 634.848 106.156 635.068 106.528C635.288 106.901 635.717 107.172 636.355 107.343C636.833 107.471 637.322 107.525 637.822 107.505C638.328 107.486 638.818 107.401 639.292 107.249C639.776 107.094 640.214 106.879 640.608 106.604L640.658 106.574L642.619 107.1L642.574 107.145C641.928 107.666 641.187 108.074 640.352 108.371C639.516 108.667 638.645 108.84 637.738 108.891C636.836 108.939 635.951 108.846 635.085 108.614ZM642.155 110.248L650.794 101.61L652.732 102.129L644.094 110.768L642.155 110.248ZM650.048 112.522C649.202 112.295 648.606 111.97 648.261 111.545C647.921 111.121 647.829 110.625 647.985 110.055C648.14 109.485 648.549 108.869 649.21 108.208L649.215 108.202C649.869 107.549 650.599 107.022 651.407 106.622C652.221 106.223 653.059 105.971 653.921 105.865C654.788 105.755 655.623 105.808 656.428 106.024C657.237 106.241 657.801 106.558 658.121 106.976C658.449 107.391 658.537 107.875 658.387 108.427C658.236 108.979 657.847 109.569 657.22 110.196L656.753 110.663L649.841 108.811L650.792 107.859L656.755 109.457L654.948 110.1L655.512 109.535C655.926 109.121 656.184 108.755 656.286 108.435C656.389 108.116 656.355 107.847 656.185 107.628C656.021 107.41 655.739 107.248 655.34 107.141C654.94 107.034 654.512 107.011 654.057 107.072C653.61 107.13 653.157 107.274 652.698 107.503C652.248 107.729 651.824 108.041 651.425 108.44L650.855 109.01C650.471 109.394 650.231 109.746 650.134 110.067C650.041 110.384 650.081 110.66 650.254 110.894C650.437 111.126 650.751 111.302 651.198 111.421C651.545 111.515 651.88 111.558 652.201 111.553C652.531 111.545 652.826 111.511 653.084 111.45C653.346 111.385 653.556 111.314 653.713 111.235L653.776 111.202L655.613 111.694L655.546 111.741C655.278 111.924 654.948 112.096 654.557 112.257C654.176 112.414 653.743 112.542 653.258 112.638C652.782 112.732 652.271 112.776 651.725 112.769C651.183 112.759 650.624 112.676 650.048 112.522ZM658.15 114.664C657.616 114.521 657.212 114.316 656.938 114.051C656.67 113.786 656.552 113.482 656.586 113.14C656.628 112.795 656.839 112.432 657.219 112.052L657.231 112.041C657.599 111.672 658.041 111.388 658.556 111.189C659.075 110.986 659.651 110.873 660.286 110.851C660.921 110.828 661.596 110.896 662.313 111.054L665.6 111.755L664.666 112.689L661.657 112.056C661.089 111.933 660.603 111.909 660.199 111.984C659.796 112.059 659.465 112.225 659.206 112.483L659.195 112.495C658.929 112.761 658.859 113.005 658.986 113.226C659.118 113.45 659.4 113.619 659.83 113.734C660.22 113.839 660.624 113.875 661.044 113.843C661.465 113.811 661.86 113.722 662.23 113.575C662.604 113.425 662.914 113.227 663.161 112.98L665.133 111.008C665.444 110.696 665.547 110.423 665.44 110.187C665.338 109.948 665.022 109.757 664.492 109.615C664.051 109.497 663.634 109.457 663.239 109.496C662.849 109.531 662.502 109.638 662.198 109.817L662.168 109.838L660.338 109.348L660.397 109.298C660.809 108.966 661.302 108.71 661.875 108.531C662.449 108.352 663.065 108.26 663.723 108.253C664.381 108.246 665.045 108.333 665.714 108.512C666.451 108.709 666.99 108.96 667.332 109.263C667.677 109.563 667.824 109.906 667.773 110.292C667.727 110.675 667.485 111.084 667.048 111.521L662.791 115.778L660.876 115.265L661.731 114.41L661.599 114.374C661.245 114.53 660.872 114.647 660.479 114.725C660.09 114.804 659.7 114.839 659.308 114.83C658.915 114.821 658.529 114.766 658.15 114.664ZM665.119 116.401L671.347 110.173L673.285 110.692L672.328 111.65L672.46 111.685C673.001 111.401 673.571 111.219 674.171 111.139C674.771 111.059 675.377 111.101 675.989 111.265C676.939 111.52 677.464 111.916 677.565 112.453C677.665 112.991 677.345 113.63 676.605 114.371L672.576 118.4L670.638 117.88L674.336 114.182C674.822 113.696 675.047 113.293 675.01 112.975C674.978 112.658 674.668 112.421 674.082 112.264C673.698 112.161 673.303 112.135 672.898 112.185C672.492 112.236 672.1 112.355 671.722 112.542C671.343 112.73 670.998 112.979 670.687 113.291L667.057 116.921L665.119 116.401ZM674.888 119.019L681.116 112.791L683.047 113.308L676.818 119.536L674.888 119.019ZM683.132 112.009C682.815 111.924 682.625 111.769 682.56 111.545C682.495 111.32 682.576 111.094 682.804 110.866C683.04 110.63 683.351 110.463 683.739 110.365C684.131 110.263 684.485 110.254 684.801 110.339C685.118 110.424 685.306 110.578 685.366 110.801C685.435 111.022 685.352 111.25 685.116 111.485C684.888 111.713 684.578 111.878 684.187 111.98C683.8 112.084 683.448 112.093 683.132 112.009ZM679.208 120.177L685.436 113.948L687.374 114.468L686.417 115.425L686.55 115.46C687.09 115.177 687.66 114.995 688.26 114.914C688.86 114.834 689.466 114.876 690.079 115.04C691.028 115.295 691.553 115.691 691.654 116.228C691.755 116.766 691.435 117.405 690.694 118.146L686.665 122.175L684.727 121.655L688.425 117.957C688.911 117.471 689.136 117.069 689.099 116.75C689.067 116.434 688.758 116.197 688.171 116.04C687.787 115.937 687.393 115.91 686.987 115.961C686.581 116.011 686.189 116.13 685.811 116.317C685.433 116.505 685.088 116.755 684.776 117.066L681.146 120.696L679.208 120.177ZM690.424 125.956C689.677 125.756 689.103 125.511 688.702 125.221C688.307 124.932 688.087 124.612 688.041 124.263C687.992 123.918 688.108 123.561 688.39 123.193L688.415 123.178L690.346 123.696L690.344 123.717C690.209 123.931 690.237 124.143 690.428 124.354C690.621 124.569 690.987 124.749 691.527 124.893C692.191 125.071 692.813 125.101 693.393 124.982C693.978 124.864 694.47 124.606 694.868 124.207L696.065 123.01L695.933 122.975C695.548 123.156 695.148 123.289 694.732 123.375C694.322 123.463 693.911 123.502 693.499 123.493C693.097 123.481 692.698 123.423 692.303 123.317C691.587 123.125 691.093 122.834 690.819 122.442C690.549 122.048 690.496 121.588 690.659 121.063C690.827 120.54 691.206 119.983 691.794 119.395L691.806 119.383C692.406 118.783 693.077 118.293 693.818 117.914C694.559 117.534 695.321 117.286 696.104 117.168C696.891 117.051 697.651 117.091 698.383 117.287C698.777 117.393 699.092 117.535 699.328 117.714C699.569 117.894 699.73 118.101 699.812 118.335C699.899 118.57 699.906 118.827 699.831 119.106L699.932 119.133L700.958 118.107L702.896 118.627L696.822 124.701C696.343 125.18 695.763 125.549 695.081 125.81C694.401 126.076 693.662 126.222 692.865 126.249C692.068 126.277 691.254 126.179 690.424 125.956ZM694.031 122.349C694.477 122.469 694.939 122.494 695.417 122.424C695.898 122.351 696.363 122.199 696.812 121.967C697.265 121.737 697.677 121.438 698.045 121.069L698.056 121.058C698.425 120.69 698.66 120.343 698.76 120.018C698.87 119.691 698.842 119.407 698.676 119.165C698.514 118.919 698.21 118.737 697.764 118.617C697.312 118.496 696.848 118.473 696.372 118.548C695.905 118.62 695.448 118.774 695.001 119.011C694.563 119.245 694.159 119.547 693.791 119.915L693.779 119.926C693.415 120.291 693.172 120.636 693.052 120.96C692.941 121.282 692.961 121.564 693.113 121.807C693.274 122.048 693.58 122.228 694.031 122.349ZM703.915 126.797L709.043 121.668L707.65 121.295L708.75 120.195L710.143 120.568L710.759 119.953C711.177 119.535 711.618 119.215 712.084 118.993C712.555 118.772 713.061 118.651 713.604 118.627C714.151 118.6 714.738 118.671 715.366 118.839C715.574 118.895 715.76 118.952 715.925 119.011C716.094 119.066 716.244 119.123 716.376 119.182L715.384 120.174C715.319 120.147 715.231 120.116 715.121 120.081C715.014 120.043 714.894 120.006 714.759 119.97C714.302 119.848 713.9 119.839 713.552 119.943C713.208 120.043 712.886 120.244 712.586 120.544L712.05 121.079L713.895 121.574L712.795 122.674L710.982 122.188L705.853 127.316L703.915 126.797ZM712.741 129.321C711.895 129.094 711.3 128.768 710.955 128.344C710.615 127.92 710.523 127.423 710.678 126.853C710.834 126.283 711.242 125.668 711.903 125.007L711.909 125.001C712.562 124.348 713.293 123.821 714.101 123.421C714.914 123.022 715.752 122.77 716.615 122.664C717.481 122.554 718.317 122.607 719.121 122.822C719.931 123.039 720.495 123.357 720.814 123.775C721.142 124.19 721.231 124.674 721.08 125.226C720.929 125.778 720.541 126.367 719.914 126.994L719.447 127.462L712.534 125.609L713.486 124.658L719.449 126.255L717.641 126.898L718.205 126.334C718.619 125.92 718.878 125.553 718.98 125.234C719.082 124.914 719.049 124.645 718.879 124.427C718.715 124.209 718.433 124.047 718.033 123.94C717.634 123.833 717.206 123.81 716.75 123.871C716.304 123.929 715.851 124.073 715.392 124.301C714.942 124.528 714.518 124.84 714.119 125.239L713.549 125.809C713.165 126.193 712.925 126.545 712.828 126.866C712.734 127.183 712.775 127.458 712.948 127.693C713.131 127.925 713.445 128.1 713.891 128.22C714.239 128.313 714.573 128.357 714.895 128.352C715.225 128.344 715.519 128.309 715.778 128.249C716.04 128.184 716.249 128.112 716.407 128.034L716.47 128.001L718.307 128.493L718.24 128.54C717.971 128.723 717.641 128.895 717.251 129.055C716.869 129.213 716.436 129.34 715.951 129.437C715.476 129.531 714.965 129.575 714.419 129.568C713.876 129.558 713.317 129.475 712.741 129.321ZM722.145 131.84C721.299 131.614 720.703 131.288 720.358 130.863C720.018 130.44 719.926 129.943 720.082 129.373C720.237 128.803 720.645 128.187 721.306 127.526L721.312 127.521C721.966 126.867 722.696 126.341 723.504 125.94C724.318 125.542 725.156 125.289 726.018 125.183C726.885 125.074 727.72 125.126 728.525 125.342C729.334 125.559 729.898 125.876 730.217 126.294C730.546 126.71 730.634 127.193 730.483 127.745C730.333 128.298 729.944 128.887 729.317 129.514L728.85 129.981L721.938 128.129L722.889 127.177L728.852 128.775L727.044 129.418L727.609 128.854C728.023 128.44 728.281 128.073 728.383 127.753C728.485 127.434 728.452 127.165 728.282 126.946C728.118 126.729 727.836 126.567 727.437 126.459C727.037 126.352 726.609 126.329 726.154 126.39C725.707 126.449 725.254 126.592 724.795 126.821C724.345 127.047 723.921 127.36 723.522 127.759L722.952 128.329C722.568 128.712 722.328 129.064 722.231 129.385C722.138 129.702 722.178 129.978 722.351 130.212C722.534 130.444 722.848 130.62 723.295 130.74C723.642 130.833 723.977 130.877 724.298 130.871C724.628 130.863 724.923 130.829 725.181 130.768C725.443 130.704 725.653 130.632 725.81 130.554L725.873 130.52L727.71 131.012L727.643 131.06C727.374 131.243 727.045 131.415 726.654 131.575C726.273 131.733 725.839 131.86 725.355 131.956C724.879 132.05 724.368 132.094 723.822 132.088C723.28 132.077 722.721 131.995 722.145 131.84Z" fill="#222222"/>
<path d="M899.904 162.401L806.53 137.381C803.386 136.539 798.97 137.722 796.668 140.024L785.832 150.86C783.53 153.162 784.213 155.711 787.357 156.554L880.732 181.573C883.876 182.416 888.291 181.233 890.593 178.931L901.43 168.094C903.732 165.792 903.049 163.243 899.904 162.401Z" stroke="#222222" stroke-width="2"/>
<path d="M796.782 151.94C795.718 151.656 794.974 151.235 794.55 150.678C794.132 150.123 794.033 149.468 794.255 148.713C794.485 147.956 795.044 147.135 795.929 146.25L795.94 146.238C796.829 145.349 797.802 144.639 798.86 144.109C799.926 143.576 801.018 143.237 802.135 143.093C803.253 142.95 804.343 143.02 805.407 143.305C806.258 143.533 806.902 143.863 807.341 144.293C807.782 144.72 808.002 145.207 807.999 145.756C808.002 146.301 807.766 146.864 807.297 147.446L807.243 147.489L805.281 146.964L805.303 146.933C805.532 146.586 805.637 146.257 805.617 145.948C805.6 145.636 805.466 145.361 805.215 145.125C804.968 144.886 804.608 144.703 804.136 144.576C803.503 144.406 802.829 144.382 802.116 144.504C801.402 144.626 800.689 144.881 799.98 145.269C799.278 145.654 798.616 146.158 797.993 146.781L797.982 146.793C797.359 147.416 796.944 147.988 796.737 148.511C796.535 149.035 796.545 149.483 796.765 149.855C796.985 150.227 797.413 150.499 798.052 150.67C798.529 150.798 799.018 150.852 799.519 150.832C800.024 150.813 800.514 150.727 800.99 150.575C801.473 150.421 801.912 150.206 802.306 149.931L802.355 149.901L804.317 150.426L804.271 150.472C803.625 150.992 802.884 151.401 802.049 151.697C801.213 151.994 800.342 152.167 799.435 152.218C798.533 152.265 797.648 152.173 796.782 151.94ZM803.852 153.575L812.491 144.936L814.429 145.455L805.79 154.094L803.852 153.575ZM811.744 155.849C810.899 155.622 810.303 155.296 809.958 154.871C809.619 154.448 809.527 153.951 809.682 153.381C809.838 152.811 810.246 152.196 810.907 151.535L810.912 151.529C811.566 150.876 812.296 150.349 813.105 149.949C813.918 149.55 814.756 149.298 815.619 149.192C816.485 149.082 817.32 149.135 818.124 149.35C818.934 149.567 819.499 149.885 819.817 150.302C820.145 150.718 820.235 151.202 820.084 151.754C819.933 152.306 819.544 152.895 818.918 153.522L818.45 153.989L811.537 152.137L812.489 151.185L818.452 152.783L816.644 153.426L817.208 152.862C817.623 152.448 817.881 152.081 817.984 151.762C818.085 151.442 818.052 151.173 817.883 150.955C817.718 150.737 817.437 150.575 817.037 150.468C816.637 150.361 816.21 150.338 815.754 150.398C815.307 150.457 814.854 150.601 814.396 150.829C813.946 151.056 813.521 151.368 813.122 151.767L812.552 152.337C812.168 152.72 811.928 153.073 811.831 153.394C811.738 153.711 811.777 153.986 811.952 154.221C812.134 154.453 812.449 154.628 812.895 154.748C813.243 154.841 813.577 154.885 813.899 154.88C814.229 154.872 814.523 154.837 814.781 154.777C815.043 154.712 815.253 154.64 815.41 154.562L815.473 154.528L817.311 155.021L817.243 155.068C816.975 155.251 816.645 155.423 816.255 155.583C815.873 155.741 815.44 155.868 814.955 155.965C814.479 156.059 813.968 156.102 813.422 156.096C812.88 156.086 812.32 156.003 811.744 155.849ZM819.847 157.991C819.313 157.848 818.909 157.643 818.635 157.377C818.367 157.112 818.25 156.809 818.282 156.466C818.326 156.121 818.536 155.759 818.916 155.379L818.928 155.367C819.296 154.999 819.738 154.715 820.253 154.516C820.772 154.313 821.348 154.2 821.983 154.177C822.618 154.155 823.294 154.223 824.01 154.381L827.298 155.081L826.363 156.016L823.354 155.383C822.787 155.26 822.3 155.235 821.897 155.31C821.493 155.385 821.162 155.552 820.903 155.81L820.892 155.821C820.626 156.087 820.557 156.331 820.683 156.553C820.815 156.776 821.096 156.946 821.528 157.061C821.916 157.165 822.322 157.202 822.742 157.17C823.161 157.138 823.556 157.048 823.927 156.902C824.301 156.752 824.612 156.553 824.859 156.306L826.83 154.335C827.142 154.023 827.244 153.749 827.137 153.514C827.034 153.274 826.718 153.084 826.19 152.942C825.748 152.824 825.33 152.784 824.936 152.823C824.546 152.858 824.199 152.965 823.895 153.143L823.865 153.164L822.035 152.674L822.095 152.625C822.507 152.292 822.999 152.036 823.572 151.858C824.146 151.679 824.762 151.586 825.42 151.58C826.078 151.573 826.742 151.659 827.412 151.839C828.148 152.036 828.688 152.287 829.028 152.59C829.374 152.89 829.521 153.232 829.471 153.619C829.423 154.001 829.181 154.411 828.744 154.848L824.488 159.104L822.574 158.591L823.428 157.737L823.296 157.701C822.943 157.857 822.569 157.974 822.175 158.051C821.787 158.13 821.397 158.165 821.004 158.156C820.612 158.148 820.227 158.092 819.847 157.991ZM826.815 159.728L833.044 153.5L834.982 154.019L834.024 154.976L834.158 155.012C834.697 154.728 835.268 154.546 835.867 154.466C836.467 154.386 837.074 154.428 837.686 154.592C838.636 154.846 839.161 155.242 839.262 155.78C839.362 156.317 839.042 156.957 838.301 157.697L834.273 161.726L832.335 161.207L836.033 157.509C836.519 157.022 836.744 156.62 836.707 156.302C836.674 155.985 836.365 155.748 835.779 155.591C835.395 155.488 835 155.462 834.595 155.512C834.189 155.562 833.797 155.681 833.419 155.869C833.041 156.056 832.695 156.306 832.383 156.617L828.753 160.247L826.815 159.728ZM836.584 162.345L842.813 156.117L844.744 156.635L838.516 162.863L836.584 162.345ZM844.829 155.335C844.512 155.25 844.322 155.096 844.256 154.871C844.192 154.647 844.273 154.42 844.501 154.192C844.736 153.957 845.049 153.79 845.436 153.692C845.828 153.589 846.182 153.581 846.499 153.666C846.815 153.75 847.003 153.904 847.063 154.128C847.131 154.348 847.049 154.576 846.813 154.812C846.585 155.04 846.275 155.205 845.884 155.307C845.497 155.411 845.146 155.42 844.829 155.335ZM840.905 163.503L847.133 157.275L849.072 157.794L848.115 158.752L848.247 158.787C848.786 158.503 849.357 158.321 849.957 158.241C850.557 158.161 851.163 158.203 851.775 158.367C852.725 158.621 853.25 159.017 853.351 159.555C853.452 160.093 853.132 160.732 852.391 161.473L848.362 165.501L846.424 164.982L850.122 161.284C850.608 160.797 850.833 160.395 850.796 160.077C850.764 159.76 850.455 159.523 849.868 159.366C849.485 159.263 849.089 159.237 848.684 159.287C848.278 159.337 847.886 159.456 847.508 159.644C847.13 159.832 846.785 160.081 846.474 160.393L842.844 164.023L840.905 163.503ZM852.121 169.283C851.374 169.083 850.8 168.837 850.4 168.547C850.004 168.258 849.784 167.939 849.739 167.59C849.689 167.244 849.806 166.888 850.088 166.52L850.112 166.505L852.043 167.022L852.041 167.043C851.906 167.258 851.933 167.47 852.125 167.68C852.318 167.896 852.684 168.075 853.223 168.22C853.888 168.398 854.51 168.428 855.09 168.308C855.674 168.19 856.166 167.932 856.565 167.533L857.762 166.337L857.63 166.301C857.245 166.482 856.845 166.616 856.429 166.702C856.019 166.79 855.608 166.829 855.197 166.82C854.794 166.808 854.395 166.749 854.001 166.644C853.285 166.452 852.79 166.16 852.517 165.769C852.246 165.374 852.193 164.914 852.356 164.389C852.524 163.866 852.902 163.31 853.491 162.721L853.503 162.71C854.103 162.11 854.773 161.62 855.515 161.24C856.257 160.861 857.018 160.612 857.801 160.495C858.588 160.378 859.348 160.418 860.08 160.614C860.474 160.719 860.789 160.862 861.025 161.041C861.266 161.221 861.428 161.428 861.51 161.662C861.597 161.897 861.603 162.154 861.528 162.432L861.629 162.46L862.655 161.434L864.593 161.953L858.518 168.028C858.04 168.506 857.46 168.876 856.778 169.137C856.098 169.402 855.36 169.549 854.562 169.576C853.765 169.603 852.951 169.506 852.121 169.283ZM855.728 165.676C856.175 165.796 856.636 165.821 857.114 165.751C857.595 165.678 858.061 165.525 858.509 165.294C858.962 165.064 859.373 164.764 859.742 164.396L859.753 164.385C860.121 164.016 860.357 163.67 860.457 163.345C860.568 163.018 860.539 162.734 860.374 162.492C860.211 162.246 859.907 162.063 859.461 161.944C859.009 161.822 858.545 161.799 858.069 161.874C857.602 161.947 857.145 162.101 856.697 162.338C856.26 162.572 855.856 162.873 855.487 163.242L855.476 163.253C855.111 163.618 854.869 163.962 854.749 164.286C854.638 164.608 854.658 164.891 854.81 165.134C854.97 165.374 855.276 165.555 855.728 165.676ZM865.612 170.124L870.741 164.995L869.347 164.622L870.447 163.522L871.841 163.895L872.456 163.28C872.874 162.862 873.315 162.542 873.781 162.32C874.252 162.099 874.758 161.977 875.301 161.954C875.848 161.927 876.435 161.998 877.064 162.166C877.271 162.222 877.457 162.279 877.622 162.337C877.791 162.392 877.941 162.449 878.073 162.509L877.081 163.5C877.016 163.473 876.928 163.442 876.818 163.408C876.712 163.37 876.59 163.333 876.456 163.297C875.999 163.174 875.597 163.165 875.249 163.269C874.905 163.37 874.583 163.57 874.282 163.87L873.747 164.406L875.593 164.901L874.493 166L872.679 165.514L867.55 170.643L865.612 170.124ZM874.438 172.647C873.592 172.421 872.997 172.095 872.652 171.67C872.312 171.247 872.22 170.75 872.375 170.18C872.531 169.61 872.94 168.994 873.601 168.333L873.606 168.328C874.26 167.674 874.99 167.148 875.798 166.747C876.612 166.349 877.449 166.096 878.312 165.99C879.178 165.881 880.014 165.934 880.818 166.149C881.628 166.366 882.193 166.683 882.511 167.101C882.839 167.517 882.927 168 882.777 168.552C882.626 169.104 882.237 169.694 881.61 170.321L881.143 170.788L874.231 168.936L875.183 167.984L881.145 169.582L879.338 170.225L879.903 169.661C880.317 169.247 880.575 168.88 880.677 168.56C880.779 168.241 880.745 167.972 880.576 167.753C880.412 167.536 880.13 167.373 879.73 167.266C879.331 167.16 878.903 167.136 878.448 167.197C878.001 167.256 877.548 167.399 877.089 167.628C876.639 167.854 876.215 168.167 875.816 168.566L875.246 169.136C874.862 169.519 874.621 169.871 874.524 170.192C874.431 170.509 874.471 170.785 874.646 171.019C874.828 171.251 875.142 171.427 875.588 171.547C875.937 171.64 876.271 171.684 876.592 171.678C876.923 171.671 877.217 171.636 877.474 171.575C877.737 171.511 877.947 171.439 878.103 171.361L878.167 171.327L880.004 171.819L879.938 171.867C879.668 172.05 879.339 172.222 878.947 172.382C878.566 172.54 878.134 172.667 877.649 172.763C877.172 172.857 876.662 172.901 876.116 172.895C875.573 172.884 875.015 172.802 874.438 172.647ZM883.842 175.167C882.996 174.94 882.4 174.615 882.056 174.19C881.715 173.766 881.623 173.27 881.779 172.7C881.934 172.129 882.342 171.514 883.003 170.853L883.009 170.847C883.662 170.194 884.394 169.667 885.201 169.267C886.014 168.868 886.853 168.616 887.715 168.51C888.582 168.4 889.417 168.453 890.222 168.669C891.031 168.886 891.595 169.203 891.915 169.621C892.243 170.036 892.331 170.52 892.18 171.072C892.03 171.624 891.641 172.214 891.014 172.84L890.547 173.308L883.635 171.456L884.586 170.504L890.549 172.102L888.742 172.745L889.306 172.18C889.72 171.766 889.977 171.399 890.08 171.08C890.183 170.761 890.149 170.492 889.979 170.273C889.815 170.055 889.533 169.893 889.133 169.786C888.734 169.679 888.306 169.656 887.851 169.717C887.404 169.775 886.952 169.919 886.492 170.148C886.042 170.374 885.618 170.686 885.219 171.085L884.649 171.655C884.266 172.039 884.025 172.391 883.928 172.712C883.835 173.029 883.875 173.305 884.048 173.539C884.231 173.771 884.545 173.947 884.992 174.066C885.339 174.159 885.673 174.203 885.995 174.198C886.325 174.19 886.619 174.156 886.878 174.095C887.14 174.03 887.35 173.959 887.507 173.88L887.57 173.847L889.407 174.339L889.34 174.386C889.071 174.569 888.742 174.741 888.351 174.901C887.969 175.059 887.536 175.186 887.052 175.283C886.576 175.377 886.066 175.421 885.519 175.414C884.977 175.404 884.418 175.321 883.842 175.167Z" fill="#222222"/>
<path d="M524.434 216.109L530.422 210.121L527.46 209.327L528.519 208.267L536.166 210.316L535.106 211.376L532.144 210.582L526.155 216.57L524.434 216.109ZM533.767 218.746C533.042 218.552 532.532 218.273 532.236 217.909C531.945 217.546 531.866 217.12 531.999 216.631C532.133 216.143 532.483 215.615 533.049 215.048L533.054 215.044C533.614 214.484 534.24 214.032 534.933 213.689C535.63 213.348 536.348 213.131 537.087 213.041C537.831 212.946 538.546 212.992 539.236 213.177C539.93 213.363 540.414 213.634 540.687 213.993C540.968 214.349 541.044 214.764 540.915 215.236C540.785 215.71 540.453 216.215 539.915 216.753L539.515 217.153L533.59 215.565L534.405 214.75L539.516 216.119L537.967 216.67L538.45 216.187C538.806 215.832 539.027 215.517 539.115 215.243C539.202 214.97 539.173 214.739 539.029 214.551C538.887 214.365 538.646 214.226 538.304 214.134C537.961 214.042 537.595 214.022 537.204 214.075C536.821 214.125 536.433 214.248 536.04 214.444C535.653 214.638 535.29 214.906 534.948 215.248L534.46 215.736C534.131 216.065 533.924 216.367 533.841 216.642C533.762 216.913 533.796 217.15 533.944 217.351C534.101 217.55 534.371 217.7 534.753 217.803C535.051 217.882 535.338 217.92 535.613 217.916C535.896 217.909 536.149 217.879 536.37 217.828C536.595 217.772 536.774 217.711 536.909 217.644L536.963 217.615L538.538 218.037L538.48 218.077C538.25 218.234 537.967 218.382 537.632 218.519C537.305 218.654 536.934 218.763 536.519 218.845C536.111 218.926 535.673 218.964 535.205 218.958C534.741 218.949 534.261 218.879 533.767 218.746ZM538.812 219.962L544.15 214.624L545.812 215.069L544.992 215.889L545.105 215.919C545.516 215.666 545.961 215.503 546.442 215.429C546.926 215.357 547.408 215.384 547.889 215.513C548.013 215.547 548.129 215.586 548.236 215.631C548.351 215.674 548.44 215.715 548.503 215.753L547.415 216.842C547.304 216.783 547.185 216.73 547.056 216.684C546.936 216.635 546.802 216.591 546.656 216.552C546.286 216.453 545.913 216.417 545.536 216.444C545.16 216.471 544.801 216.559 544.462 216.707C544.124 216.852 543.829 217.052 543.575 217.305L540.474 220.407L538.812 219.962ZM544.483 221.482L549.822 216.143L551.483 216.588L550.653 217.419L550.766 217.449C551.219 217.194 551.699 217.032 552.209 216.962C552.724 216.893 553.22 216.924 553.701 217.053C554.03 217.141 554.287 217.259 554.471 217.407C554.66 217.557 554.778 217.729 554.826 217.924C554.874 218.118 554.85 218.329 554.754 218.554L554.874 218.587C555.187 218.426 555.521 218.303 555.878 218.217C556.242 218.13 556.608 218.085 556.975 218.084C557.35 218.081 557.706 218.126 558.044 218.216C558.534 218.348 558.88 218.531 559.084 218.767C559.296 219.001 559.362 219.276 559.286 219.589C559.214 219.904 558.993 220.245 558.625 220.614L554.952 224.287L553.291 223.841L556.666 220.466C556.9 220.232 557.045 220.025 557.1 219.846C557.16 219.667 557.131 219.514 557.013 219.383C556.896 219.252 556.688 219.147 556.39 219.067C556.101 218.989 555.801 218.971 555.49 219.012C555.182 219.049 554.886 219.133 554.603 219.263C554.325 219.395 554.083 219.564 553.878 219.769L550.542 223.105L548.88 222.66L552.343 219.197C552.542 218.998 552.66 218.813 552.697 218.641C552.737 218.471 552.695 218.321 552.57 218.192C552.452 218.061 552.258 217.96 551.987 217.887C551.715 217.814 551.418 217.801 551.096 217.847C550.782 217.891 550.473 217.985 550.169 218.131C549.873 218.275 549.614 218.457 549.393 218.679L546.145 221.927L544.483 221.482ZM559.555 225.656C558.937 225.491 558.466 225.284 558.145 225.036C557.83 224.787 557.658 224.514 557.627 224.217C557.6 223.917 557.714 223.608 557.968 223.293L557.978 223.283L559.626 223.724L559.623 223.736C559.526 223.946 559.542 224.141 559.669 224.324C559.797 224.507 560.067 224.654 560.48 224.765C560.756 224.839 561.026 224.876 561.291 224.876C561.558 224.874 561.803 224.838 562.024 224.769C562.245 224.701 562.423 224.599 562.556 224.466L562.566 224.456C562.722 224.3 562.765 224.147 562.696 223.996C562.63 223.842 562.43 223.678 562.094 223.506L561.108 222.995C560.721 222.796 560.443 222.589 560.273 222.375C560.104 222.16 560.043 221.934 560.086 221.699C560.135 221.464 560.29 221.216 560.55 220.956L560.555 220.951C560.877 220.629 561.283 220.378 561.772 220.199C562.265 220.022 562.8 219.924 563.377 219.905C563.954 219.887 564.53 219.954 565.103 220.108C565.695 220.266 566.139 220.468 566.436 220.712C566.733 220.957 566.888 221.225 566.9 221.518C566.912 221.81 566.791 222.106 566.537 222.405L566.527 222.415L564.966 221.997L564.974 221.98C565.081 221.794 565.075 221.611 564.956 221.431C564.846 221.248 564.595 221.105 564.203 221C563.959 220.934 563.711 220.903 563.459 220.906C563.213 220.91 562.983 220.948 562.771 221.019C562.567 221.088 562.398 221.189 562.264 221.323L562.259 221.328C562.155 221.432 562.1 221.532 562.093 221.63C562.09 221.728 562.14 221.828 562.241 221.929C562.343 222.031 562.502 222.14 562.719 222.255L563.709 222.763C564.308 223.072 564.663 223.388 564.775 223.711C564.886 224.033 564.747 224.39 564.356 224.781L564.346 224.791C564.007 225.13 563.578 225.39 563.057 225.572C562.536 225.755 561.97 225.855 561.36 225.874C560.753 225.888 560.151 225.816 559.555 225.656ZM571.118 228.755C570.393 228.56 569.879 228.282 569.576 227.92C569.275 227.555 569.189 227.127 569.318 226.637C569.451 226.149 569.806 225.616 570.382 225.04L570.392 225.03C570.963 224.46 571.596 224.007 572.294 223.67C572.996 223.329 573.718 223.118 574.46 223.036C575.206 222.954 575.941 223.012 576.666 223.206C577.391 223.4 577.904 223.677 578.203 224.038C578.506 224.401 578.593 224.827 578.464 225.317C578.335 225.806 577.984 226.338 577.412 226.911L577.402 226.921C576.826 227.497 576.188 227.954 575.49 228.291C574.796 228.629 574.074 228.841 573.325 228.924C572.583 229.007 571.847 228.95 571.118 228.755ZM572.105 227.768C572.487 227.87 572.882 227.887 573.289 227.819C573.704 227.748 574.114 227.6 574.52 227.375C574.929 227.146 575.321 226.844 575.695 226.47L575.705 226.46C576.083 226.082 576.333 225.742 576.454 225.441C576.579 225.135 576.575 224.876 576.444 224.663C576.321 224.448 576.068 224.29 575.685 224.187C575.303 224.085 574.904 224.069 574.489 224.14C574.078 224.207 573.668 224.355 573.258 224.584C572.852 224.81 572.46 225.111 572.082 225.489L572.072 225.499C571.698 225.873 571.448 226.213 571.324 226.518C571.199 226.823 571.201 227.081 571.327 227.293C571.459 227.506 571.718 227.664 572.105 227.768ZM576.937 230.177L581.332 225.782L580.138 225.462L581.081 224.519L582.275 224.839L582.803 224.311C583.161 223.953 583.539 223.679 583.939 223.488C584.342 223.299 584.777 223.195 585.242 223.175C585.71 223.152 586.214 223.213 586.752 223.357C586.93 223.405 587.09 223.453 587.231 223.504C587.376 223.551 587.504 223.6 587.618 223.65L586.767 224.501C586.712 224.477 586.637 224.451 586.542 224.421C586.451 224.388 586.348 224.356 586.232 224.325C585.84 224.221 585.495 224.214 585.197 224.303C584.902 224.389 584.627 224.56 584.369 224.818L583.91 225.277L585.491 225.701L584.548 226.644L582.994 226.227L578.598 230.623L576.937 230.177ZM588.737 233.562C587.99 233.362 587.426 233.103 587.043 232.786C586.665 232.47 586.47 232.119 586.457 231.732C586.444 231.343 586.619 230.943 586.983 230.528L587.045 230.458L588.713 230.905L588.67 230.956C588.499 231.161 588.433 231.363 588.473 231.559C588.518 231.757 588.656 231.94 588.887 232.11C589.122 232.275 589.441 232.413 589.846 232.521C590.233 232.625 590.619 232.673 591.005 232.665C591.391 232.657 591.745 232.599 592.067 232.492C592.393 232.38 592.656 232.224 592.858 232.022L592.863 232.017C593.117 231.763 593.188 231.52 593.076 231.288C592.967 231.052 592.651 230.802 592.126 230.537L591.248 230.104C590.414 229.686 589.94 229.25 589.825 228.794C589.719 228.337 589.928 227.845 590.453 227.321L590.458 227.316C590.878 226.896 591.397 226.569 592.015 226.334C592.638 226.1 593.304 225.967 594.014 225.934C594.731 225.899 595.437 225.975 596.13 226.161C596.842 226.351 597.371 226.604 597.715 226.919C598.063 227.231 598.236 227.578 598.234 227.957C598.233 228.336 598.061 228.72 597.719 229.107L597.662 229.172L596.021 228.732L596.066 228.671C596.211 228.474 596.268 228.285 596.236 228.103C596.211 227.919 596.102 227.749 595.908 227.593C595.713 227.438 595.431 227.311 595.062 227.212C594.71 227.118 594.357 227.074 593.999 227.082C593.645 227.087 593.316 227.139 593.013 227.24C592.715 227.34 592.464 227.492 592.262 227.695L592.258 227.699C592.01 227.946 591.936 228.187 592.035 228.42C592.139 228.654 592.447 228.897 592.955 229.15L593.829 229.588C594.401 229.873 594.811 230.159 595.061 230.445C595.312 230.73 595.406 231.028 595.344 231.338C595.29 231.645 595.084 231.979 594.726 232.337L594.721 232.342C594.265 232.797 593.717 233.151 593.079 233.4C592.445 233.651 591.753 233.792 591.006 233.823C590.263 233.856 589.507 233.769 588.737 233.562ZM597.446 235.809C596.721 235.615 596.211 235.336 595.915 234.972C595.624 234.608 595.545 234.183 595.678 233.694C595.811 233.205 596.162 232.678 596.728 232.111L596.733 232.107C597.293 231.547 597.919 231.095 598.612 230.752C599.309 230.41 600.027 230.194 600.766 230.103C601.509 230.009 602.225 230.055 602.915 230.239C603.608 230.425 604.093 230.697 604.366 231.055C604.647 231.412 604.723 231.826 604.594 232.299C604.464 232.773 604.132 233.278 603.594 233.815L603.194 234.215L597.269 232.628L598.084 231.813L603.195 233.182L601.646 233.733L602.129 233.249C602.484 232.894 602.706 232.58 602.794 232.306C602.881 232.032 602.852 231.802 602.707 231.614C602.566 231.428 602.325 231.288 601.982 231.197C601.64 231.105 601.274 231.085 600.883 231.138C600.5 231.187 600.112 231.311 599.719 231.506C599.332 231.701 598.969 231.968 598.626 232.311L598.139 232.799C597.809 233.128 597.603 233.43 597.52 233.705C597.441 233.976 597.475 234.212 597.623 234.414C597.78 234.612 598.05 234.763 598.432 234.865C598.73 234.945 599.017 234.983 599.292 234.978C599.575 234.972 599.827 234.942 600.048 234.89C600.274 234.834 600.453 234.774 600.588 234.706L600.642 234.677L602.217 235.099L602.159 235.14C601.929 235.297 601.646 235.444 601.311 235.582C600.984 235.717 600.613 235.826 600.198 235.908C599.79 235.989 599.352 236.027 598.884 236.021C598.419 236.012 597.94 235.941 597.446 235.809ZM602.491 237.025L607.829 231.686L609.491 232.131L608.671 232.952L608.784 232.982C609.195 232.729 609.64 232.566 610.12 232.491C610.604 232.419 611.087 232.447 611.567 232.576C611.692 232.609 611.808 232.649 611.914 232.694C612.03 232.737 612.119 232.777 612.182 232.816L611.093 233.904C610.983 233.846 610.864 233.793 610.735 233.747C610.615 233.698 610.481 233.654 610.334 233.614C609.965 233.515 609.592 233.48 609.215 233.507C608.839 233.534 608.48 233.622 608.14 233.769C607.803 233.915 607.508 234.115 607.254 234.368L604.152 237.47L602.491 237.025ZM610.124 239.07L612.867 233.036L614.642 233.512L612.172 238.113L612.292 238.146L618.118 234.443L619.866 234.911L611.939 239.556L610.124 239.07ZM615.949 240.631L621.287 235.292L622.942 235.736L617.603 241.074L615.949 240.631ZM623.016 234.621C622.744 234.549 622.581 234.416 622.525 234.224C622.469 234.032 622.539 233.837 622.734 233.642C622.936 233.44 623.203 233.297 623.535 233.213C623.871 233.126 624.175 233.118 624.446 233.191C624.717 233.264 624.879 233.396 624.93 233.587C624.989 233.776 624.918 233.971 624.716 234.173C624.521 234.368 624.254 234.51 623.92 234.597C623.588 234.686 623.287 234.694 623.016 234.621ZM622.674 242.569C621.94 242.372 621.423 242.093 621.125 241.732C620.825 241.372 620.746 240.946 620.887 240.455C621.028 239.964 621.389 239.429 621.968 238.85L621.978 238.84C622.554 238.264 623.186 237.807 623.871 237.471C624.557 237.135 625.27 236.927 626.009 236.848C626.751 236.766 627.486 236.823 628.215 237.019C628.842 237.187 629.301 237.41 629.591 237.691C629.888 237.968 630.028 238.282 630.01 238.633C630.001 238.981 629.841 239.349 629.532 239.737L629.513 239.756L627.945 239.336L627.953 239.32C628.138 239.039 628.178 238.779 628.072 238.54C627.971 238.303 627.694 238.123 627.241 238.002C626.863 237.9 626.468 237.883 626.057 237.951C625.65 238.019 625.243 238.166 624.837 238.392C624.431 238.617 624.04 238.918 623.666 239.292L623.656 239.302C623.279 239.68 623.025 240.023 622.898 240.331C622.778 240.637 622.78 240.898 622.903 241.113C623.03 241.324 623.282 241.481 623.661 241.582C624.092 241.697 624.511 241.719 624.916 241.647C625.326 241.575 625.722 241.412 626.105 241.16L626.138 241.143L627.704 241.557L627.653 241.599C627.211 241.939 626.72 242.21 626.18 242.412C625.644 242.615 625.079 242.735 624.487 242.769C623.896 242.801 623.292 242.734 622.674 242.569ZM630.553 244.68C629.828 244.486 629.318 244.207 629.022 243.843C628.731 243.48 628.652 243.054 628.785 242.565C628.919 242.076 629.269 241.549 629.835 240.982L629.84 240.978C630.4 240.418 631.026 239.966 631.719 239.623C632.416 239.281 633.134 239.065 633.873 238.974C634.617 238.88 635.332 238.926 636.022 239.11C636.716 239.296 637.2 239.568 637.473 239.926C637.754 240.283 637.83 240.697 637.701 241.17C637.572 241.644 637.239 242.149 636.701 242.686L636.301 243.086L630.376 241.499L631.191 240.684L636.302 242.053L634.753 242.604L635.236 242.121C635.592 241.765 635.813 241.451 635.901 241.177C635.988 240.903 635.959 240.673 635.815 240.485C635.673 240.299 635.432 240.159 635.09 240.068C634.747 239.976 634.381 239.956 633.99 240.009C633.607 240.058 633.219 240.182 632.826 240.377C632.439 240.572 632.076 240.839 631.734 241.182L631.246 241.67C630.917 241.999 630.71 242.301 630.627 242.576C630.548 242.847 630.582 243.083 630.73 243.285C630.887 243.483 631.157 243.634 631.539 243.736C631.837 243.816 632.124 243.854 632.399 243.849C632.682 243.843 632.935 243.813 633.156 243.761C633.381 243.705 633.56 243.645 633.695 243.577L633.749 243.548L635.324 243.97L635.266 244.011C635.036 244.168 634.753 244.315 634.418 244.453C634.091 244.588 633.72 244.697 633.305 244.779C632.897 244.86 632.459 244.898 631.991 244.892C631.527 244.883 631.047 244.813 630.553 244.68Z" fill="#0066CC"/>
<path d="M519.029 216.971L632.762 247.446L631.962 248.246L518.228 217.772L519.029 216.971Z" fill="#0066CC"/>
<path d="M808.089 277.317L694.218 246.805C692.331 246.3 689.682 247.01 688.301 248.391L676.631 260.061C675.25 261.442 675.66 262.972 677.546 263.477L791.417 293.989C793.304 294.495 795.953 293.785 797.334 292.404L809.005 280.733C810.386 279.352 809.976 277.823 808.089 277.317Z" stroke="#0066CC" stroke-width="2"/>
<path d="M686.13 259.436L692.119 253.447L689.157 252.654L690.216 251.594L697.863 253.643L696.803 254.702L693.84 253.908L687.852 259.897L686.13 259.436ZM695.465 262.073C694.739 261.879 694.229 261.599 693.933 261.236C693.642 260.872 693.563 260.446 693.696 259.958C693.83 259.469 694.18 258.942 694.746 258.375L694.751 258.371C695.311 257.81 695.937 257.359 696.629 257.016C697.326 256.674 698.045 256.458 698.784 256.367C699.527 256.272 700.243 256.319 700.932 256.503C701.627 256.689 702.111 256.961 702.384 257.319C702.665 257.676 702.741 258.09 702.612 258.563C702.482 259.037 702.149 259.541 701.611 260.079L701.211 260.479L695.287 258.892L696.102 258.076L701.214 259.446L699.664 259.997L700.147 259.513C700.502 259.158 700.724 258.844 700.812 258.57C700.899 258.296 700.87 258.066 700.726 257.878C700.584 257.692 700.344 257.552 700.001 257.461C699.658 257.369 699.291 257.349 698.901 257.401C698.519 257.451 698.13 257.574 697.736 257.77C697.35 257.965 696.987 258.232 696.644 258.575L696.157 259.062C695.828 259.392 695.621 259.694 695.538 259.968C695.459 260.24 695.494 260.476 695.642 260.678C695.798 260.876 696.068 261.027 696.451 261.129C696.749 261.209 697.035 261.247 697.311 261.242C697.593 261.236 697.845 261.206 698.067 261.154C698.292 261.098 698.471 261.038 698.606 260.97L698.66 260.941L700.235 261.363L700.177 261.404C699.947 261.561 699.665 261.708 699.329 261.846C699.002 261.981 698.632 262.09 698.216 262.172C697.809 262.253 697.37 262.291 696.902 262.285C696.438 262.276 695.958 262.205 695.465 262.073ZM700.509 263.288L705.847 257.95L707.508 258.395L706.688 259.215L706.802 259.246C707.213 258.992 707.659 258.83 708.139 258.755C708.622 258.683 709.105 258.711 709.586 258.84C709.71 258.873 709.825 258.912 709.933 258.958C710.048 259.001 710.137 259.041 710.2 259.079L709.111 260.168C709 260.11 708.882 260.057 708.753 260.011C708.633 259.962 708.5 259.918 708.353 259.878C707.984 259.779 707.61 259.744 707.233 259.771C706.857 259.798 706.498 259.885 706.159 260.033C705.822 260.179 705.525 260.378 705.272 260.632L702.17 263.734L700.509 263.288ZM706.181 264.808L711.519 259.47L713.18 259.915L712.35 260.745L712.463 260.775C712.915 260.52 713.396 260.359 713.906 260.289C714.42 260.22 714.917 260.25 715.397 260.379C715.726 260.467 715.983 260.586 716.169 260.734C716.357 260.884 716.475 261.056 716.523 261.25C716.571 261.445 716.547 261.655 716.451 261.881L716.571 261.913C716.884 261.753 717.218 261.63 717.575 261.544C717.938 261.456 718.305 261.412 718.672 261.411C719.048 261.408 719.403 261.452 719.742 261.543C720.23 261.674 720.577 261.858 720.781 262.093C720.993 262.328 721.059 262.602 720.982 262.916C720.91 263.23 720.69 263.572 720.322 263.94L716.649 267.613L714.987 267.168L718.363 263.793C718.597 263.558 718.741 263.352 718.797 263.172C718.857 262.994 718.827 262.84 718.711 262.71C718.593 262.579 718.385 262.473 718.087 262.393C717.798 262.316 717.498 262.298 717.186 262.338C716.879 262.375 716.583 262.46 716.301 262.59C716.022 262.722 715.78 262.89 715.575 263.095L712.238 266.431L710.577 265.986L714.04 262.523C714.239 262.324 714.356 262.139 714.394 261.967C714.434 261.797 714.392 261.647 714.266 261.519C714.149 261.388 713.955 261.286 713.684 261.214C713.413 261.141 713.115 261.128 712.792 261.173C712.479 261.217 712.169 261.312 711.866 261.458C711.57 261.602 711.311 261.784 711.09 262.006L707.842 265.253L706.181 264.808ZM721.252 268.983C720.634 268.817 720.163 268.611 719.842 268.363C719.527 268.114 719.355 267.84 719.324 267.544C719.297 267.243 719.412 266.935 719.665 266.619L719.675 266.609L721.323 267.051L721.32 267.063C721.223 267.272 721.238 267.468 721.365 267.651C721.494 267.833 721.763 267.981 722.177 268.091C722.454 268.165 722.722 268.203 722.988 268.203C723.256 268.201 723.5 268.165 723.721 268.096C723.942 268.027 724.12 267.926 724.253 267.793L724.263 267.783C724.419 267.627 724.462 267.473 724.392 267.323C724.327 267.169 724.127 267.005 723.792 266.833L722.805 266.321C722.418 266.122 722.139 265.916 721.971 265.701C721.801 265.487 721.74 265.261 721.783 265.025C721.832 264.791 721.987 264.543 722.247 264.283L722.252 264.278C722.575 263.955 722.98 263.705 723.469 263.526C723.963 263.348 724.497 263.251 725.074 263.232C725.651 263.213 726.227 263.281 726.8 263.434C727.393 263.593 727.837 263.795 728.134 264.039C728.43 264.283 728.585 264.552 728.597 264.845C728.609 265.137 728.488 265.433 728.234 265.732L728.224 265.742L726.663 265.323L726.671 265.307C726.778 265.121 726.772 264.937 726.653 264.757C726.543 264.575 726.292 264.431 725.9 264.326C725.655 264.261 725.408 264.229 725.156 264.233C724.91 264.236 724.68 264.274 724.469 264.345C724.264 264.414 724.095 264.516 723.961 264.649L723.956 264.654C723.852 264.758 723.797 264.859 723.79 264.956C723.787 265.055 723.837 265.155 723.938 265.256C724.04 265.357 724.198 265.466 724.416 265.582L725.406 266.089C726.005 266.399 726.36 266.715 726.472 267.037C726.583 267.36 726.444 267.717 726.053 268.108L726.043 268.118C725.704 268.456 725.275 268.716 724.753 268.899C724.233 269.082 723.668 269.182 723.056 269.2C722.449 269.215 721.848 269.142 721.252 268.983ZM732.815 272.081C732.09 271.887 731.576 271.609 731.273 271.246C730.972 270.881 730.886 270.453 731.015 269.964C731.148 269.475 731.503 268.942 732.079 268.366L732.089 268.356C732.659 267.786 733.293 267.333 733.991 266.996C734.692 266.656 735.415 266.444 736.157 266.362C736.903 266.281 737.639 266.339 738.363 266.533C739.088 266.727 739.601 267.004 739.9 267.365C740.203 267.728 740.29 268.153 740.161 268.643C740.032 269.133 739.681 269.665 739.108 270.237L739.098 270.247C738.522 270.823 737.885 271.28 737.187 271.617C736.493 271.956 735.772 272.167 735.023 272.251C734.28 272.333 733.544 272.277 732.815 272.081ZM733.801 271.094C734.184 271.197 734.579 271.214 734.986 271.145C735.401 271.074 735.811 270.927 736.217 270.701C736.626 270.473 737.018 270.171 737.392 269.796L737.402 269.786C737.78 269.409 738.03 269.069 738.151 268.767C738.276 268.462 738.272 268.203 738.141 267.99C738.017 267.775 737.764 267.616 737.382 267.514C736.999 267.411 736.601 267.395 736.186 267.466C735.775 267.534 735.365 267.681 734.955 267.911C734.549 268.136 734.157 268.438 733.78 268.816L733.77 268.826C733.395 269.2 733.145 269.54 733.021 269.845C732.896 270.15 732.898 270.408 733.024 270.619C733.155 270.832 733.414 270.99 733.801 271.094ZM738.634 273.504L743.029 269.108L741.835 268.788L742.778 267.846L743.972 268.166L744.5 267.638C744.858 267.28 745.236 267.006 745.636 266.815C746.039 266.626 746.474 266.521 746.938 266.502C747.408 266.479 747.91 266.539 748.449 266.684C748.626 266.731 748.787 266.78 748.929 266.83C749.073 266.877 749.202 266.927 749.315 266.977L748.464 267.827C748.408 267.804 748.334 267.777 748.239 267.748C748.148 267.715 748.044 267.683 747.929 267.652C747.538 267.547 747.192 267.54 746.894 267.629C746.6 267.715 746.323 267.887 746.066 268.144L745.606 268.603L747.188 269.027L746.245 269.97L744.691 269.554L740.295 273.949L738.634 273.504ZM750.434 276.889C749.687 276.689 749.123 276.43 748.741 276.113C748.362 275.797 748.167 275.445 748.154 275.058C748.141 274.67 748.316 274.27 748.68 273.855L748.742 273.785L750.41 274.232L750.367 274.283C750.195 274.488 750.13 274.689 750.17 274.886C750.214 275.084 750.353 275.267 750.584 275.437C750.818 275.602 751.138 275.739 751.543 275.848C751.93 275.952 752.316 276 752.703 275.992C753.087 275.984 753.443 275.926 753.764 275.818C754.089 275.707 754.354 275.55 754.555 275.349L754.56 275.344C754.815 275.089 754.885 274.846 754.773 274.614C754.665 274.379 754.348 274.128 753.823 273.864L752.944 273.431C752.111 273.013 751.636 272.576 751.523 272.121C751.416 271.663 751.626 271.172 752.15 270.648L752.155 270.643C752.575 270.222 753.094 269.895 753.712 269.66C754.335 269.427 755.001 269.293 755.711 269.261C756.428 269.225 757.133 269.301 757.828 269.487C758.54 269.678 759.068 269.931 759.413 270.246C759.76 270.558 759.932 270.904 759.932 271.284C759.931 271.663 759.758 272.047 759.415 272.434L759.359 272.499L757.718 272.059L757.763 271.997C757.909 271.801 757.965 271.612 757.933 271.43C757.908 271.245 757.799 271.076 757.605 270.92C757.41 270.764 757.128 270.638 756.759 270.539C756.407 270.445 756.054 270.401 755.697 270.409C755.343 270.413 755.013 270.466 754.71 270.566C754.412 270.667 754.161 270.819 753.958 271.021L753.954 271.025C753.706 271.273 753.633 271.513 753.732 271.747C753.837 271.981 754.143 272.224 754.653 272.477L755.526 272.914C756.098 273.2 756.508 273.485 756.758 273.771C757.008 274.057 757.103 274.355 757.041 274.665C756.987 274.972 756.78 275.305 756.423 275.663L756.418 275.668C755.962 276.124 755.415 276.477 754.776 276.727C754.141 276.977 753.451 277.119 752.702 277.15C751.959 277.182 751.204 277.095 750.434 276.889ZM759.143 279.136C758.418 278.942 757.908 278.662 757.612 278.299C757.321 277.935 757.242 277.509 757.375 277.021C757.509 276.532 757.859 276.004 758.426 275.438L758.43 275.433C758.99 274.873 759.616 274.422 760.308 274.079C761.005 273.737 761.724 273.521 762.463 273.43C763.206 273.335 763.922 273.381 764.611 273.566C765.305 273.752 765.79 274.023 766.062 274.382C766.344 274.738 766.42 275.153 766.291 275.626C766.161 276.099 765.828 276.604 765.29 277.142L764.89 277.542L758.966 275.954L759.781 275.139L764.891 276.508L763.343 277.06L763.826 276.576C764.181 276.221 764.403 275.906 764.491 275.633C764.578 275.359 764.549 275.128 764.405 274.941C764.263 274.755 764.022 274.615 763.68 274.523C763.337 274.432 762.97 274.411 762.58 274.464C762.197 274.514 761.809 274.637 761.415 274.833C761.029 275.027 760.666 275.295 760.323 275.638L759.836 276.125C759.507 276.454 759.3 276.756 759.217 277.031C759.138 277.303 759.171 277.539 759.321 277.741C759.477 277.939 759.747 278.089 760.13 278.192C760.427 278.272 760.714 278.309 760.988 278.305C761.272 278.298 761.524 278.269 761.745 278.217C761.971 278.161 762.15 278.1 762.284 278.033L762.339 278.004L763.914 278.426L763.856 278.466C763.625 278.623 763.344 278.771 763.008 278.908C762.681 279.044 762.31 279.152 761.895 279.235C761.487 279.316 761.049 279.354 760.581 279.348C760.117 279.338 759.637 279.268 759.143 279.136ZM764.188 280.351L769.526 275.013L771.187 275.458L770.367 276.278L770.481 276.309C770.892 276.055 771.338 275.892 771.818 275.818C772.301 275.746 772.785 275.774 773.264 275.902C773.389 275.936 773.504 275.975 773.612 276.021C773.727 276.063 773.816 276.104 773.879 276.142L772.79 277.231C772.679 277.173 772.561 277.12 772.432 277.074C772.312 277.024 772.179 276.98 772.032 276.941C771.662 276.842 771.289 276.806 770.912 276.833C770.536 276.86 770.177 276.948 769.838 277.096C769.501 277.241 769.204 277.441 768.951 277.694L765.849 280.796L764.188 280.351ZM771.82 282.396L774.564 276.363L776.339 276.838L773.868 281.44L773.989 281.472L779.814 277.77L781.563 278.238L773.636 282.883L771.82 282.396ZM777.646 283.957L782.984 278.619L784.639 279.062L779.301 284.401L777.646 283.957ZM784.712 277.948C784.441 277.875 784.278 277.743 784.222 277.55C784.166 277.358 784.236 277.164 784.431 276.969C784.633 276.767 784.9 276.624 785.232 276.54C785.568 276.452 785.872 276.445 786.143 276.517C786.414 276.59 786.576 276.722 786.626 276.913C786.685 277.102 786.614 277.298 786.412 277.5C786.217 277.695 785.951 277.837 785.616 277.924C785.286 278.013 784.983 278.02 784.712 277.948ZM784.371 285.896C783.636 285.699 783.12 285.42 782.821 285.059C782.522 284.698 782.443 284.272 782.584 283.782C782.725 283.291 783.086 282.755 783.665 282.176L783.675 282.166C784.251 281.59 784.882 281.134 785.568 280.797C786.255 280.461 786.966 280.253 787.705 280.175C788.447 280.092 789.182 280.15 789.912 280.345C790.54 280.513 790.998 280.737 791.288 281.017C791.585 281.295 791.725 281.609 791.707 281.959C791.698 282.308 791.538 282.676 791.229 283.064L791.21 283.083L789.642 282.663L789.65 282.647C789.835 282.366 789.875 282.106 789.769 281.867C789.669 281.63 789.391 281.45 788.938 281.328C788.56 281.227 788.164 281.21 787.753 281.277C787.347 281.346 786.94 281.493 786.533 281.719C786.128 281.944 785.738 282.244 785.364 282.619L785.354 282.629C784.976 283.006 784.722 283.349 784.595 283.658C784.475 283.964 784.477 284.224 784.6 284.439C784.726 284.651 784.98 284.807 785.358 284.909C785.789 285.024 786.207 285.045 786.613 284.973C787.023 284.901 787.419 284.739 787.801 284.486L787.835 284.47L789.401 284.883L789.35 284.926C788.909 285.266 788.417 285.537 787.877 285.739C787.342 285.942 786.776 286.061 786.183 286.096C785.593 286.128 784.989 286.061 784.371 285.896ZM792.251 288.007C791.525 287.813 791.015 287.533 790.719 287.169C790.428 286.806 790.349 286.38 790.482 285.892C790.615 285.403 790.966 284.875 791.532 284.309L791.537 284.304C792.097 283.744 792.723 283.293 793.415 282.95C794.112 282.608 794.831 282.392 795.57 282.301C796.313 282.206 797.029 282.252 797.718 282.437C798.413 282.623 798.897 282.894 799.17 283.253C799.451 283.609 799.527 284.024 799.398 284.497C799.268 284.97 798.936 285.475 798.399 286.013L797.998 286.413L792.073 284.825L792.888 284.01L797.999 285.38L796.45 285.931L796.933 285.447C797.288 285.092 797.51 284.777 797.598 284.504C797.685 284.23 797.656 283.999 797.512 283.812C797.37 283.626 797.13 283.486 796.787 283.394C796.444 283.302 796.077 283.282 795.687 283.335C795.305 283.385 794.916 283.508 794.522 283.704C794.137 283.899 793.773 284.166 793.43 284.508L792.943 284.996C792.613 285.325 792.408 285.628 792.324 285.902C792.245 286.174 792.279 286.41 792.427 286.612C792.584 286.81 792.854 286.96 793.237 287.063C793.535 287.143 793.821 287.18 794.097 287.176C794.379 287.169 794.631 287.14 794.853 287.088C795.078 287.032 795.257 286.971 795.392 286.904L795.446 286.875L797.021 287.297L796.963 287.337C796.733 287.495 796.45 287.642 796.115 287.779C795.788 287.915 795.418 288.024 795.002 288.106C794.595 288.187 794.156 288.225 793.688 288.219C793.223 288.209 792.744 288.139 792.251 288.007Z" fill="#0066CC"/>
<path d="M680.726 260.298L794.459 290.773L793.659 291.573L679.925 261.098L680.726 260.298Z" fill="#0066CC"/>
</g>
</g>
<defs>
<clipPath id="clip0_28_1024">
<rect width="1024" height="426" rx="24" fill="white"/>
</clipPath>
<clipPath id="clip1_28_1024">
<rect width="290.005" height="181.548" fill="white" transform="matrix(0.965926 0.258819 -0.707107 0.707107 643.389 92.6107)"/>
</clipPath>
</defs>
</svg>
