<svg width="1024" height="275" viewBox="0 0 1024 275" fill="none" xmlns="http://www.w3.org/2000/svg">
<g clip-path="url(#clip0_30_1406)">
<rect width="1024" height="275" rx="24" fill="white"/>
<path d="M58.1094 81.3907C56.3281 81.3907 54.7708 81.1303 53.4375 80.6095C52.1146 80.0782 51.0729 79.323 50.3125 78.3439C49.5521 77.3543 49.125 76.1668 49.0312 74.7814L49.0156 74.5314H53.4688L53.5 74.7032C53.6042 75.2866 53.8646 75.7918 54.2812 76.2189C54.7083 76.6355 55.2604 76.9637 55.9375 77.2032C56.6146 77.4324 57.3802 77.547 58.2344 77.547C59.1094 77.547 59.8594 77.4324 60.4844 77.2032C61.1198 76.9637 61.6094 76.6303 61.9531 76.2032C62.3073 75.7657 62.4844 75.2605 62.4844 74.6876V74.672C62.4844 73.9116 62.1823 73.3178 61.5781 72.8907C60.9844 72.4532 59.9844 72.0887 58.5781 71.797L56.2031 71.3282C53.9844 70.8803 52.3125 70.1251 51.1875 69.0626C50.0625 68.0001 49.5 66.6199 49.5 64.922V64.9064C49.5 63.5314 49.8698 62.3335 50.6094 61.3126C51.349 60.2814 52.3646 59.4845 53.6562 58.922C54.9479 58.3491 56.4271 58.0626 58.0938 58.0626C59.8333 58.0626 61.3333 58.3335 62.5938 58.8751C63.8646 59.4168 64.8542 60.1824 65.5625 61.172C66.2708 62.1616 66.6615 63.3126 66.7344 64.6251L66.75 64.922H62.2969L62.2812 64.7345C62.1979 64.1407 61.974 63.6355 61.6094 63.2189C61.2448 62.7918 60.7604 62.4637 60.1562 62.2345C59.5625 62.0053 58.875 61.8907 58.0938 61.8907C57.2917 61.8907 56.599 62.0105 56.0156 62.2501C55.4323 62.4793 54.9844 62.797 54.6719 63.2032C54.3698 63.6095 54.2188 64.0835 54.2188 64.6251V64.6407C54.2188 65.3491 54.5208 65.922 55.125 66.3595C55.7292 66.797 56.6771 67.146 57.9688 67.4064L60.3594 67.8907C61.9323 68.2032 63.224 68.6355 64.2344 69.1876C65.2448 69.7397 65.9896 70.4376 66.4688 71.2814C66.9583 72.1147 67.2031 73.1199 67.2031 74.297V74.3126C67.2031 75.7605 66.8385 77.0157 66.1094 78.0782C65.3906 79.1303 64.349 79.948 62.9844 80.5314C61.6302 81.1043 60.0052 81.3907 58.1094 81.3907ZM77.3281 81.3439C75.6198 81.3439 74.151 80.9949 72.9219 80.297C71.6927 79.5887 70.7448 78.5835 70.0781 77.2814C69.4219 75.9793 69.0938 74.4376 69.0938 72.6564V72.6407C69.0938 70.8595 69.4219 69.3178 70.0781 68.0157C70.7448 66.7032 71.6771 65.6928 72.875 64.9845C74.0833 64.2657 75.5052 63.9064 77.1406 63.9064C78.776 63.9064 80.1875 64.2553 81.375 64.9532C82.5729 65.6407 83.4948 66.6147 84.1406 67.8751C84.7969 69.1355 85.125 70.6095 85.125 72.297V73.7032H71.3281V70.8282H82.9688L80.7969 73.5157V71.7657C80.7969 70.7866 80.6458 69.9689 80.3438 69.3126C80.0417 68.646 79.6198 68.146 79.0781 67.8126C78.5469 67.4793 77.9271 67.3126 77.2188 67.3126C76.5104 67.3126 75.8802 67.4845 75.3281 67.8282C74.7865 68.172 74.3594 68.6772 74.0469 69.3439C73.7448 70.0001 73.5938 70.8074 73.5938 71.7657V73.5314C73.5938 74.4585 73.7448 75.2501 74.0469 75.9064C74.3594 76.5626 74.8021 77.0678 75.375 77.422C75.9479 77.7657 76.6302 77.9376 77.4219 77.9376C78.0469 77.9376 78.5885 77.8387 79.0469 77.6407C79.5052 77.4428 79.8802 77.1928 80.1719 76.8907C80.4635 76.5887 80.6615 76.2814 80.7656 75.9689L80.7969 75.8751H84.9844L84.9375 76.047C84.8125 76.6616 84.5677 77.2814 84.2031 77.9064C83.8385 78.5314 83.3438 79.1043 82.7188 79.6251C82.1042 80.146 81.349 80.5626 80.4531 80.8751C79.5677 81.1876 78.526 81.3439 77.3281 81.3439ZM95.1406 81.3439C93.4427 81.3439 91.974 80.9897 90.7344 80.2814C89.4948 79.573 88.5417 78.5678 87.875 77.2657C87.2083 75.9532 86.875 74.4012 86.875 72.6095V72.5939C86.875 70.8022 87.2083 69.2605 87.875 67.9689C88.5521 66.6668 89.5052 65.6668 90.7344 64.9689C91.974 64.2605 93.4271 63.9064 95.0938 63.9064C96.6146 63.9064 97.9323 64.1928 99.0469 64.7657C100.161 65.3282 101.031 66.0939 101.656 67.0626C102.292 68.0314 102.641 69.1199 102.703 70.3282V70.4376H98.4688L98.4375 70.297C98.3021 69.4949 97.9583 68.8282 97.4062 68.297C96.8542 67.7553 96.1042 67.4845 95.1562 67.4845C94.4167 67.4845 93.7708 67.6928 93.2188 68.1095C92.6771 68.5157 92.2552 69.1043 91.9531 69.8751C91.6615 70.6355 91.5156 71.547 91.5156 72.6095V72.6251C91.5156 73.7189 91.6615 74.6512 91.9531 75.422C92.2552 76.1824 92.6771 76.7657 93.2188 77.172C93.7708 77.5678 94.4219 77.7657 95.1719 77.7657C96.0885 77.7657 96.8229 77.5105 97.375 77.0001C97.9375 76.4793 98.2969 75.797 98.4531 74.9532L98.4688 74.8126H102.719V74.9064C102.646 76.1251 102.292 77.2189 101.656 78.1876C101.021 79.1564 100.146 79.9272 99.0312 80.5001C97.9271 81.0626 96.6302 81.3439 95.1406 81.3439ZM112.609 81.3439C110.911 81.3439 109.443 80.9949 108.203 80.297C106.964 79.5991 106.005 78.5991 105.328 77.297C104.651 75.9949 104.312 74.4376 104.312 72.6251V72.5939C104.312 70.7918 104.656 69.2449 105.344 67.9532C106.031 66.6512 106.995 65.6512 108.234 64.9532C109.474 64.2553 110.927 63.9064 112.594 63.9064C114.271 63.9064 115.729 64.2553 116.969 64.9532C118.219 65.6407 119.188 66.6355 119.875 67.9376C120.562 69.2293 120.906 70.7814 120.906 72.5939V72.6251C120.906 74.448 120.562 76.0105 119.875 77.3126C119.198 78.6147 118.24 79.6147 117 80.3126C115.76 81.0001 114.297 81.3439 112.609 81.3439ZM112.625 77.7657C113.365 77.7657 114.005 77.5678 114.547 77.172C115.099 76.7657 115.521 76.1824 115.812 75.422C116.115 74.6512 116.266 73.7189 116.266 72.6251V72.5939C116.266 71.5105 116.115 70.5887 115.812 69.8282C115.51 69.0678 115.083 68.4897 114.531 68.0939C113.979 67.6876 113.333 67.4845 112.594 67.4845C111.865 67.4845 111.224 67.6876 110.672 68.0939C110.13 68.4897 109.708 69.0678 109.406 69.8282C109.104 70.5887 108.953 71.5105 108.953 72.5939V72.6251C108.953 73.7189 109.099 74.6512 109.391 75.422C109.693 76.1824 110.12 76.7657 110.672 77.172C111.224 77.5678 111.875 77.7657 112.625 77.7657ZM123.266 81.0001V64.2501H127.828V67.0001H127.922C128.359 66.0418 129.005 65.2866 129.859 64.7345C130.714 64.1824 131.771 63.9064 133.031 63.9064C134.875 63.9064 136.297 64.4637 137.297 65.5782C138.307 66.6824 138.812 68.2189 138.812 70.1876V81.0001H134.25V71.1251C134.25 70.0314 133.99 69.1876 133.469 68.5939C132.958 67.9897 132.193 67.6876 131.172 67.6876C130.495 67.6876 129.906 67.8439 129.406 68.1564C128.906 68.4585 128.516 68.8855 128.234 69.4376C127.964 69.9897 127.828 70.6355 127.828 71.3751V81.0001H123.266ZM147.906 81.3439C146.5 81.3439 145.286 80.9949 144.266 80.297C143.245 79.5991 142.458 78.5991 141.906 77.297C141.365 75.9949 141.094 74.4376 141.094 72.6251V72.6095C141.094 70.7866 141.37 69.2293 141.922 67.9376C142.474 66.6355 143.255 65.6407 144.266 64.9532C145.286 64.2553 146.5 63.9064 147.906 63.9064C148.698 63.9064 149.427 64.0366 150.094 64.297C150.76 64.5574 151.344 64.9324 151.844 65.422C152.354 65.9012 152.76 66.4793 153.062 67.1564H153.156V58.4532H157.719V81.0001H153.156V78.1407H153.062C152.771 78.8074 152.375 79.3803 151.875 79.8595C151.375 80.3282 150.792 80.6928 150.125 80.9532C149.458 81.2137 148.719 81.3439 147.906 81.3439ZM149.438 77.5626C150.177 77.5626 150.828 77.3647 151.391 76.9689C151.953 76.5626 152.391 75.9897 152.703 75.2501C153.016 74.5105 153.172 73.6355 153.172 72.6251V72.6095C153.172 71.5991 153.01 70.7293 152.688 70.0001C152.375 69.2605 151.938 68.6928 151.375 68.297C150.823 67.8907 150.177 67.6876 149.438 67.6876C148.677 67.6876 148.021 67.8855 147.469 68.2814C146.917 68.6772 146.49 69.2449 146.188 69.9845C145.885 70.7137 145.734 71.5887 145.734 72.6095V72.6251C145.734 73.6355 145.88 74.5105 146.172 75.2501C146.474 75.9897 146.901 76.5626 147.453 76.9689C148.016 77.3647 148.677 77.5626 149.438 77.5626ZM165.75 81.2657C164.635 81.2657 163.656 81.0522 162.812 80.6251C161.969 80.1876 161.307 79.5887 160.828 78.8282C160.359 78.0574 160.125 77.1824 160.125 76.2032V76.172C160.125 75.1512 160.38 74.2814 160.891 73.5626C161.401 72.8335 162.141 72.2605 163.109 71.8439C164.078 71.4272 165.255 71.172 166.641 71.0782L173.172 70.672V73.5157L167.328 73.8907C166.453 73.9428 165.786 74.1512 165.328 74.5157C164.87 74.8699 164.641 75.3439 164.641 75.9376V75.9689C164.641 76.5835 164.875 77.0678 165.344 77.422C165.812 77.7657 166.443 77.9376 167.234 77.9376C167.911 77.9376 168.516 77.8074 169.047 77.547C169.589 77.2762 170.01 76.9116 170.312 76.4532C170.625 75.9845 170.781 75.4585 170.781 74.8751V69.797C170.781 69.0574 170.547 68.4741 170.078 68.047C169.609 67.6095 168.927 67.3907 168.031 67.3907C167.177 67.3907 166.5 67.5678 166 67.922C165.5 68.2762 165.193 68.7241 165.078 69.2657L165.047 69.4064H160.875L160.891 69.2189C160.974 68.1876 161.312 67.271 161.906 66.4689C162.51 65.6668 163.344 65.0418 164.406 64.5939C165.479 64.1355 166.75 63.9064 168.219 63.9064C169.667 63.9064 170.922 64.1407 171.984 64.6095C173.047 65.0678 173.87 65.7189 174.453 66.5626C175.047 67.4064 175.344 68.3907 175.344 69.5157V81.0001H170.781V78.5001H170.688C170.375 79.073 169.969 79.5678 169.469 79.9845C168.979 80.3907 168.422 80.7085 167.797 80.9376C167.172 81.1564 166.49 81.2657 165.75 81.2657ZM178.297 81.0001V64.2501H182.859V67.172H182.953C183.203 66.1407 183.656 65.3387 184.312 64.7657C184.969 64.1928 185.786 63.9064 186.766 63.9064C187.016 63.9064 187.255 63.922 187.484 63.9532C187.714 63.9845 187.911 64.0262 188.078 64.0782V68.0939C187.891 68.021 187.651 67.9637 187.359 67.922C187.068 67.8699 186.755 67.8439 186.422 67.8439C185.672 67.8439 185.031 67.9897 184.5 68.2814C183.969 68.573 183.562 69.0001 183.281 69.5626C183 70.1251 182.859 70.8126 182.859 71.6251V81.0001H178.297ZM193.141 86.5157C192.693 86.5157 192.26 86.4949 191.844 86.4532C191.427 86.4116 191.083 86.3647 190.812 86.3126V82.922C190.979 82.9532 191.193 82.9845 191.453 83.0157C191.714 83.0574 192.01 83.0782 192.344 83.0782C193.031 83.0782 193.573 82.9637 193.969 82.7345C194.365 82.5053 194.661 82.1095 194.859 81.547L195.062 81.0001L189.141 64.2501H194.156L197.938 78.2501L197.328 77.3439H198.188L197.578 78.2501L201.359 64.2501H206.172L200.422 81.297C199.984 82.6095 199.432 83.646 198.766 84.4064C198.109 85.1668 197.318 85.7085 196.391 86.0314C195.464 86.3543 194.38 86.5157 193.141 86.5157Z" fill="#1B1D23"/>
<path d="M49.6211 46.0001V31.9083H52.1406V43.881H58.5859V46.0001H49.6211ZM60.8711 46.0001V35.4044H63.3027V46.0001H60.8711ZM62.0918 33.6857C61.7012 33.6857 61.3659 33.549 61.0859 33.2755C60.806 32.9956 60.666 32.6635 60.666 32.2794C60.666 31.8888 60.806 31.5568 61.0859 31.2833C61.3659 31.0099 61.7012 30.8732 62.0918 30.8732C62.4824 30.8732 62.8177 31.0099 63.0977 31.2833C63.3776 31.5568 63.5176 31.8888 63.5176 32.2794C63.5176 32.6635 63.3776 32.9956 63.0977 33.2755C62.8177 33.549 62.4824 33.6857 62.0918 33.6857ZM66.0664 46.0001V35.4044H68.498V37.0353H68.6348C68.8952 36.4624 69.2826 36.0131 69.7969 35.6876C70.3177 35.3556 70.9655 35.1896 71.7402 35.1896C72.9186 35.1896 73.8203 35.5346 74.4453 36.2247C75.0768 36.9148 75.3926 37.8881 75.3926 39.1447V46.0001H72.9609V39.6915C72.9609 38.8842 72.7852 38.2755 72.4336 37.8654C72.0885 37.4487 71.5547 37.2404 70.832 37.2404C70.3503 37.2404 69.9336 37.3478 69.582 37.5626C69.237 37.7775 68.9701 38.0769 68.7812 38.4611C68.5924 38.8452 68.498 39.3009 68.498 39.8282V46.0001H66.0664ZM78.1367 46.0001V31.3615H80.5684V46.0001H78.1367ZM84.8066 46.0001L81.2422 41.1857L82.9902 39.6329L87.6973 46.0001H84.8066ZM80.3242 42.5333L80.2559 39.7599H80.7051L84.6309 35.4044H87.4434L82.7559 40.3556L81.7988 41.0197L80.3242 42.5333Z" fill="#484848"/>
<line x1="283.5" y1="243" x2="283.5" y2="32" stroke="#DDDDDD"/>
<path d="M605.305 143.281C604.43 143.281 603.669 143.146 603.023 142.875C602.383 142.604 601.878 142.227 601.508 141.742C601.138 141.258 600.93 140.693 600.883 140.047L600.875 139.938H602.828L602.836 140.016C602.867 140.333 602.992 140.609 603.211 140.844C603.435 141.078 603.732 141.263 604.102 141.398C604.471 141.529 604.893 141.594 605.367 141.594C605.82 141.594 606.221 141.523 606.57 141.383C606.919 141.242 607.193 141.049 607.391 140.805C607.589 140.555 607.688 140.268 607.688 139.945V139.938C607.688 139.531 607.529 139.201 607.211 138.945C606.893 138.685 606.37 138.477 605.641 138.32L604.43 138.07C603.273 137.826 602.432 137.435 601.906 136.898C601.385 136.357 601.125 135.667 601.125 134.828V134.82C601.125 134.148 601.302 133.56 601.656 133.055C602.016 132.549 602.508 132.156 603.133 131.875C603.763 131.589 604.484 131.445 605.297 131.445C606.13 131.445 606.852 131.586 607.461 131.867C608.07 132.143 608.549 132.521 608.898 133C609.247 133.479 609.443 134.021 609.484 134.625L609.492 134.727H607.57L607.555 134.633C607.508 134.336 607.385 134.078 607.188 133.859C606.995 133.635 606.737 133.458 606.414 133.328C606.091 133.198 605.714 133.133 605.281 133.133C604.87 133.133 604.503 133.198 604.18 133.328C603.857 133.453 603.602 133.63 603.414 133.859C603.232 134.089 603.141 134.365 603.141 134.688V134.695C603.141 135.091 603.294 135.419 603.602 135.68C603.914 135.94 604.422 136.143 605.125 136.289L606.336 136.547C607.128 136.714 607.771 136.935 608.266 137.211C608.76 137.487 609.122 137.831 609.352 138.242C609.586 138.648 609.703 139.138 609.703 139.711V139.719C609.703 140.448 609.523 141.078 609.164 141.609C608.81 142.141 608.302 142.552 607.641 142.844C606.984 143.135 606.206 143.281 605.305 143.281ZM611.844 143V131.156H613.789V135.773H613.922C614.125 135.31 614.432 134.948 614.844 134.688C615.255 134.427 615.768 134.297 616.383 134.297C617.018 134.297 617.555 134.422 617.992 134.672C618.43 134.917 618.76 135.276 618.984 135.75C619.214 136.224 619.328 136.799 619.328 137.477V143H617.383V137.93C617.383 137.263 617.242 136.763 616.961 136.43C616.685 136.096 616.253 135.93 615.664 135.93C615.279 135.93 614.945 136.016 614.664 136.188C614.383 136.359 614.167 136.602 614.016 136.914C613.865 137.227 613.789 137.596 613.789 138.023V143H611.844ZM625.312 143.172C624.464 143.172 623.732 142.995 623.117 142.641C622.503 142.281 622.029 141.771 621.695 141.109C621.367 140.448 621.203 139.656 621.203 138.734V138.719C621.203 137.807 621.37 137.021 621.703 136.359C622.036 135.693 622.508 135.182 623.117 134.828C623.732 134.474 624.464 134.297 625.312 134.297C626.161 134.297 626.891 134.474 627.5 134.828C628.115 135.182 628.589 135.69 628.922 136.352C629.255 137.013 629.422 137.802 629.422 138.719V138.734C629.422 139.656 629.255 140.448 628.922 141.109C628.594 141.771 628.122 142.281 627.508 142.641C626.898 142.995 626.167 143.172 625.312 143.172ZM625.312 141.594C625.76 141.594 626.141 141.482 626.453 141.258C626.771 141.029 627.013 140.703 627.18 140.281C627.346 139.854 627.43 139.341 627.43 138.742V138.727C627.43 138.122 627.346 137.609 627.18 137.188C627.013 136.76 626.771 136.435 626.453 136.211C626.141 135.982 625.76 135.867 625.312 135.867C624.865 135.867 624.482 135.982 624.164 136.211C623.846 136.435 623.604 136.76 623.438 137.188C623.271 137.609 623.188 138.122 623.188 138.727V138.742C623.188 139.341 623.271 139.854 623.438 140.281C623.604 140.708 623.844 141.034 624.156 141.258C624.474 141.482 624.859 141.594 625.312 141.594ZM632.664 143L630.344 134.461H632.297L633.711 140.883H633.852L635.492 134.461H637.344L638.992 140.883H639.133L640.547 134.461H642.477L640.156 143H638.125L636.461 136.812H636.328L634.672 143H632.664ZM648.422 143V134.461H650.367V135.789H650.5C650.682 135.315 650.977 134.948 651.383 134.688C651.794 134.427 652.281 134.297 652.844 134.297C653.229 134.297 653.576 134.359 653.883 134.484C654.195 134.609 654.464 134.786 654.688 135.016C654.911 135.245 655.083 135.518 655.203 135.836H655.344C655.484 135.529 655.68 135.26 655.93 135.031C656.185 134.797 656.482 134.617 656.82 134.492C657.164 134.362 657.534 134.297 657.93 134.297C658.503 134.297 658.992 134.411 659.398 134.641C659.81 134.865 660.125 135.188 660.344 135.609C660.568 136.031 660.68 136.536 660.68 137.125V143H658.734V137.602C658.734 137.227 658.677 136.917 658.562 136.672C658.453 136.427 658.284 136.242 658.055 136.117C657.826 135.992 657.536 135.93 657.188 135.93C656.849 135.93 656.555 136.008 656.305 136.164C656.055 136.315 655.859 136.521 655.719 136.781C655.583 137.042 655.516 137.336 655.516 137.664V143H653.57V137.461C653.57 137.143 653.508 136.87 653.383 136.641C653.263 136.411 653.086 136.237 652.852 136.117C652.622 135.992 652.349 135.93 652.031 135.93C651.714 135.93 651.427 136.013 651.172 136.18C650.922 136.341 650.724 136.565 650.578 136.852C650.438 137.133 650.367 137.451 650.367 137.805V143H648.422ZM666.656 143.172C665.807 143.172 665.076 142.995 664.461 142.641C663.846 142.281 663.372 141.771 663.039 141.109C662.711 140.448 662.547 139.656 662.547 138.734V138.719C662.547 137.807 662.714 137.021 663.047 136.359C663.38 135.693 663.852 135.182 664.461 134.828C665.076 134.474 665.807 134.297 666.656 134.297C667.505 134.297 668.234 134.474 668.844 134.828C669.458 135.182 669.932 135.69 670.266 136.352C670.599 137.013 670.766 137.802 670.766 138.719V138.734C670.766 139.656 670.599 140.448 670.266 141.109C669.938 141.771 669.466 142.281 668.852 142.641C668.242 142.995 667.51 143.172 666.656 143.172ZM666.656 141.594C667.104 141.594 667.484 141.482 667.797 141.258C668.115 141.029 668.357 140.703 668.523 140.281C668.69 139.854 668.773 139.341 668.773 138.742V138.727C668.773 138.122 668.69 137.609 668.523 137.188C668.357 136.76 668.115 136.435 667.797 136.211C667.484 135.982 667.104 135.867 666.656 135.867C666.208 135.867 665.826 135.982 665.508 136.211C665.19 136.435 664.948 136.76 664.781 137.188C664.615 137.609 664.531 138.122 664.531 138.727V138.742C664.531 139.341 664.615 139.854 664.781 140.281C664.948 140.708 665.188 141.034 665.5 141.258C665.818 141.482 666.203 141.594 666.656 141.594ZM672.719 143V134.461H674.664V135.773H674.797C674.943 135.315 675.203 134.958 675.578 134.703C675.958 134.448 676.43 134.32 676.992 134.32C677.138 134.32 677.281 134.331 677.422 134.352C677.568 134.367 677.688 134.388 677.781 134.414V136.156C677.625 136.12 677.466 136.094 677.305 136.078C677.148 136.057 676.984 136.047 676.812 136.047C676.38 136.047 676.003 136.128 675.68 136.289C675.357 136.451 675.107 136.682 674.93 136.984C674.753 137.281 674.664 137.633 674.664 138.039V143H672.719ZM682.812 143.172C681.964 143.172 681.234 142.992 680.625 142.633C680.021 142.273 679.555 141.763 679.227 141.102C678.898 140.44 678.734 139.656 678.734 138.75V138.742C678.734 137.846 678.896 137.065 679.219 136.398C679.547 135.732 680.01 135.216 680.609 134.852C681.208 134.482 681.911 134.297 682.719 134.297C683.531 134.297 684.229 134.477 684.812 134.836C685.401 135.19 685.854 135.688 686.172 136.328C686.49 136.969 686.648 137.719 686.648 138.578V139.219H679.711V137.914H685.695L684.773 139.133V138.359C684.773 137.792 684.688 137.32 684.516 136.945C684.344 136.57 684.104 136.289 683.797 136.102C683.495 135.914 683.143 135.82 682.742 135.82C682.341 135.82 681.984 135.919 681.672 136.117C681.365 136.31 681.12 136.596 680.938 136.977C680.76 137.352 680.672 137.812 680.672 138.359V139.141C680.672 139.667 680.76 140.117 680.938 140.492C681.115 140.862 681.365 141.148 681.688 141.352C682.016 141.549 682.404 141.648 682.852 141.648C683.201 141.648 683.5 141.599 683.75 141.5C684.005 141.396 684.211 141.273 684.367 141.133C684.523 140.987 684.633 140.849 684.695 140.719L684.719 140.664H686.562L686.547 140.734C686.479 141.01 686.354 141.292 686.172 141.578C685.995 141.859 685.753 142.122 685.445 142.367C685.143 142.607 684.773 142.802 684.336 142.953C683.898 143.099 683.391 143.172 682.812 143.172Z" fill="#1F1F1F"/>
</g>
<defs>
<clipPath id="clip0_30_1406">
<rect width="1024" height="275" rx="24" fill="white"/>
</clipPath>
</defs>
</svg>
