<?xml version="1.0" standalone="no"?>
<!DOCTYPE svg PUBLIC "-//W3C//DTD SVG 20010904//EN"
 "http://www.w3.org/TR/2001/REC-SVG-20010904/DTD/svg10.dtd">
<svg version="1.0" xmlns="http://www.w3.org/2000/svg"
 width="700.000000pt" height="700.000000pt" viewBox="0 0 700.000000 700.000000"
 preserveAspectRatio="xMidYMid meet">
<metadata>
Created by potrace 1.14, written by Peter Selinger 2001-2017
</metadata>
<g transform="translate(0.000000,700.000000) scale(0.100000,-0.100000)"
fill="#000000" stroke="none">
<path d="M795 6989 c-278 -40 -540 -222 -679 -472 -47 -84 -93 -224 -106 -327
-8 -60 -10 -856 -8 -2745 l3 -2660 22 -77 c100 -349 332 -581 681 -681 l77
-22 2675 -3 c2942 -3 2754 -6 2933 58 247 90 457 300 547 547 64 179 61 -9 58
2933 l-3 2675 -22 77 c-100 349 -332 581 -681 681 l-77 22 -2680 1 c-1481 1
-2707 -2 -2740 -7z m3712 -1581 c78 -43 49 68 485 -1880 220 -986 400 -1814
400 -1839 0 -71 -42 -134 -105 -158 -41 -16 -1470 -15 -1500 0 -41 21 -87 73
-97 109 -39 143 -800 3582 -800 3613 0 76 58 149 133 167 17 5 352 8 742 7
655 -2 712 -3 742 -19z m-1881 -1367 c17 -10 36 -32 42 -47 14 -36 512 -2281
512 -2310 0 -34 -43 -88 -80 -101 -46 -16 -1276 -18 -1332 -3 -47 13 -88 61
-88 103 0 42 775 2315 798 2340 36 40 99 48 148 18z"/>
</g>
</svg>
