<?xml version="1.0" standalone="no"?>
<!DOCTYPE svg PUBLIC "-//W3C//DTD SVG 20010904//EN"
 "http://www.w3.org/TR/2001/REC-SVG-20010904/DTD/svg10.dtd">
<svg version="1.0" xmlns="http://www.w3.org/2000/svg"
 width="256.000000pt" height="256.000000pt" viewBox="0 0 256.000000 256.000000"
 preserveAspectRatio="xMidYMid meet">
<metadata>
Created by potrace 1.14, written by Peter Selinger 2001-2017
</metadata>
<g transform="translate(0.000000,256.000000) scale(0.100000,-0.100000)"
fill="#000000" stroke="none">
<path d="M220 2543 c-84 -29 -146 -84 -188 -165 l-27 -53 0 -1045 0 -1045 25
-48 c34 -67 86 -121 150 -154 l55 -28 1045 0 1045 0 49 25 c63 31 127 96 157
158 l24 47 0 1045 0 1045 -25 49 c-45 88 -110 143 -199 170 -49 14 -163 16
-1060 15 -885 0 -1011 -2 -1051 -16z"/>
</g>
</svg>
