<svg width="1024" height="275" viewBox="0 0 1024 275" fill="none" xmlns="http://www.w3.org/2000/svg">
<g clip-path="url(#clip0_29_1366)">
<rect width="1024" height="275" rx="24" fill="white"/>
<path d="M52.25 73.8907V70.2032H57.7812C59.1354 70.2032 60.1875 69.8595 60.9375 69.172C61.6979 68.4741 62.0781 67.4845 62.0781 66.2032V66.172C62.0781 64.8907 61.6979 63.9064 60.9375 63.2189C60.1875 62.5314 59.1354 62.1876 57.7812 62.1876H52.25V58.4532H58.9375C60.5208 58.4532 61.9062 58.7762 63.0938 59.422C64.2812 60.0574 65.2031 60.9532 65.8594 62.1095C66.526 63.2657 66.8594 64.6147 66.8594 66.1564V66.1876C66.8594 67.7397 66.526 69.0939 65.8594 70.2501C65.2031 71.4064 64.2812 72.3022 63.0938 72.9376C61.9062 73.573 60.5208 73.8907 58.9375 73.8907H52.25ZM49.875 81.0001V58.4532H54.5938V81.0001H49.875ZM69.2656 81.0001V64.2501H73.8281V67.172H73.9219C74.1719 66.1407 74.625 65.3387 75.2812 64.7657C75.9375 64.1928 76.7552 63.9064 77.7344 63.9064C77.9844 63.9064 78.224 63.922 78.4531 63.9532C78.6823 63.9845 78.8802 64.0262 79.0469 64.0782V68.0939C78.8594 68.021 78.6198 67.9637 78.3281 67.922C78.0365 67.8699 77.724 67.8439 77.3906 67.8439C76.6406 67.8439 76 67.9897 75.4688 68.2814C74.9375 68.573 74.5312 69.0001 74.25 69.5626C73.9688 70.1251 73.8281 70.8126 73.8281 71.6251V81.0001H69.2656ZM81.0156 81.0001V64.2501H85.5781V81.0001H81.0156ZM83.2969 62.0939C82.6094 62.0939 82.0312 61.8595 81.5625 61.3907C81.0938 60.922 80.8594 60.3647 80.8594 59.7189C80.8594 59.0626 81.0938 58.5053 81.5625 58.047C82.0312 57.5782 82.6094 57.3439 83.2969 57.3439C83.9844 57.3439 84.5625 57.5782 85.0312 58.047C85.5 58.5053 85.7344 59.0626 85.7344 59.7189C85.7344 60.3647 85.5 60.922 85.0312 61.3907C84.5625 61.8595 83.9844 62.0939 83.2969 62.0939ZM88.6406 81.0001V64.2501H93.2031V67.0626H93.2969C93.6406 66.1043 94.224 65.3387 95.0469 64.7657C95.8802 64.1928 96.8594 63.9064 97.9844 63.9064C98.7656 63.9064 99.4688 64.0418 100.094 64.3126C100.719 64.5835 101.245 64.9741 101.672 65.4845C102.109 65.9949 102.417 66.6199 102.594 67.3595H102.688C102.938 66.6512 103.312 66.0418 103.812 65.5314C104.323 65.0105 104.922 64.6095 105.609 64.3282C106.307 64.047 107.068 63.9064 107.891 63.9064C108.984 63.9064 109.943 64.1407 110.766 64.6095C111.589 65.0782 112.229 65.7345 112.688 66.5782C113.146 67.422 113.375 68.4116 113.375 69.547V81.0001H108.812V70.6876C108.812 70.0418 108.703 69.4949 108.484 69.047C108.276 68.5991 107.969 68.2605 107.562 68.0314C107.167 67.8022 106.672 67.6876 106.078 67.6876C105.505 67.6876 105 67.8178 104.562 68.0782C104.135 68.3387 103.802 68.7032 103.562 69.172C103.323 69.6407 103.203 70.1876 103.203 70.8126V81.0001H98.8125V70.547C98.8125 69.9428 98.7031 69.4272 98.4844 69.0001C98.2656 68.573 97.9531 68.2501 97.5469 68.0314C97.151 67.8022 96.6719 67.6876 96.1094 67.6876C95.5365 67.6876 95.0312 67.823 94.5938 68.0939C94.1562 68.3647 93.8125 68.7397 93.5625 69.2189C93.3229 69.698 93.2031 70.2553 93.2031 70.8907V81.0001H88.6406ZM121.25 81.2657C120.135 81.2657 119.156 81.0522 118.312 80.6251C117.469 80.1876 116.807 79.5887 116.328 78.8282C115.859 78.0574 115.625 77.1824 115.625 76.2032V76.172C115.625 75.1512 115.88 74.2814 116.391 73.5626C116.901 72.8335 117.641 72.2605 118.609 71.8439C119.578 71.4272 120.755 71.172 122.141 71.0782L128.672 70.672V73.5157L122.828 73.8907C121.953 73.9428 121.286 74.1512 120.828 74.5157C120.37 74.8699 120.141 75.3439 120.141 75.9376V75.9689C120.141 76.5835 120.375 77.0678 120.844 77.422C121.312 77.7657 121.943 77.9376 122.734 77.9376C123.411 77.9376 124.016 77.8074 124.547 77.547C125.089 77.2762 125.51 76.9116 125.812 76.4532C126.125 75.9845 126.281 75.4585 126.281 74.8751V69.797C126.281 69.0574 126.047 68.4741 125.578 68.047C125.109 67.6095 124.427 67.3907 123.531 67.3907C122.677 67.3907 122 67.5678 121.5 67.922C121 68.2762 120.693 68.7241 120.578 69.2657L120.547 69.4064H116.375L116.391 69.2189C116.474 68.1876 116.812 67.271 117.406 66.4689C118.01 65.6668 118.844 65.0418 119.906 64.5939C120.979 64.1355 122.25 63.9064 123.719 63.9064C125.167 63.9064 126.422 64.1407 127.484 64.6095C128.547 65.0678 129.37 65.7189 129.953 66.5626C130.547 67.4064 130.844 68.3907 130.844 69.5157V81.0001H126.281V78.5001H126.188C125.875 79.073 125.469 79.5678 124.969 79.9845C124.479 80.3907 123.922 80.7085 123.297 80.9376C122.672 81.1564 121.99 81.2657 121.25 81.2657ZM133.797 81.0001V64.2501H138.359V67.172H138.453C138.703 66.1407 139.156 65.3387 139.812 64.7657C140.469 64.1928 141.286 63.9064 142.266 63.9064C142.516 63.9064 142.755 63.922 142.984 63.9532C143.214 63.9845 143.411 64.0262 143.578 64.0782V68.0939C143.391 68.021 143.151 67.9637 142.859 67.922C142.568 67.8699 142.255 67.8439 141.922 67.8439C141.172 67.8439 140.531 67.9897 140 68.2814C139.469 68.573 139.062 69.0001 138.781 69.5626C138.5 70.1251 138.359 70.8126 138.359 71.6251V81.0001H133.797ZM148.641 86.5157C148.193 86.5157 147.76 86.4949 147.344 86.4532C146.927 86.4116 146.583 86.3647 146.312 86.3126V82.922C146.479 82.9532 146.693 82.9845 146.953 83.0157C147.214 83.0574 147.51 83.0782 147.844 83.0782C148.531 83.0782 149.073 82.9637 149.469 82.7345C149.865 82.5053 150.161 82.1095 150.359 81.547L150.562 81.0001L144.641 64.2501H149.656L153.438 78.2501L152.828 77.3439H153.688L153.078 78.2501L156.859 64.2501H161.672L155.922 81.297C155.484 82.6095 154.932 83.646 154.266 84.4064C153.609 85.1668 152.818 85.7085 151.891 86.0314C150.964 86.3543 149.88 86.5157 148.641 86.5157Z" fill="#1B1D23"/>
<path d="M49.6211 46.0001V31.9083H52.1406V43.881H58.5859V46.0001H49.6211ZM60.8711 46.0001V35.4044H63.3027V46.0001H60.8711ZM62.0918 33.6857C61.7012 33.6857 61.3659 33.549 61.0859 33.2755C60.806 32.9956 60.666 32.6635 60.666 32.2794C60.666 31.8888 60.806 31.5568 61.0859 31.2833C61.3659 31.0099 61.7012 30.8732 62.0918 30.8732C62.4824 30.8732 62.8177 31.0099 63.0977 31.2833C63.3776 31.5568 63.5176 31.8888 63.5176 32.2794C63.5176 32.6635 63.3776 32.9956 63.0977 33.2755C62.8177 33.549 62.4824 33.6857 62.0918 33.6857ZM66.0664 46.0001V35.4044H68.498V37.0353H68.6348C68.8952 36.4624 69.2826 36.0131 69.7969 35.6876C70.3177 35.3556 70.9655 35.1896 71.7402 35.1896C72.9186 35.1896 73.8203 35.5346 74.4453 36.2247C75.0768 36.9148 75.3926 37.8881 75.3926 39.1447V46.0001H72.9609V39.6915C72.9609 38.8842 72.7852 38.2755 72.4336 37.8654C72.0885 37.4487 71.5547 37.2404 70.832 37.2404C70.3503 37.2404 69.9336 37.3478 69.582 37.5626C69.237 37.7775 68.9701 38.0769 68.7812 38.4611C68.5924 38.8452 68.498 39.3009 68.498 39.8282V46.0001H66.0664ZM78.1367 46.0001V31.3615H80.5684V46.0001H78.1367ZM84.8066 46.0001L81.2422 41.1857L82.9902 39.6329L87.6973 46.0001H84.8066ZM80.3242 42.5333L80.2559 39.7599H80.7051L84.6309 35.4044H87.4434L82.7559 40.3556L81.7988 41.0197L80.3242 42.5333Z" fill="#484848"/>
<line x1="283.5" y1="243" x2="283.5" y2="32" stroke="#DDDDDD"/>
<path d="M605.305 143.281C604.43 143.281 603.669 143.146 603.023 142.875C602.383 142.604 601.878 142.227 601.508 141.742C601.138 141.258 600.93 140.693 600.883 140.047L600.875 139.938H602.828L602.836 140.016C602.867 140.333 602.992 140.609 603.211 140.844C603.435 141.078 603.732 141.263 604.102 141.398C604.471 141.529 604.893 141.594 605.367 141.594C605.82 141.594 606.221 141.523 606.57 141.383C606.919 141.242 607.193 141.049 607.391 140.805C607.589 140.555 607.688 140.268 607.688 139.945V139.938C607.688 139.531 607.529 139.201 607.211 138.945C606.893 138.685 606.37 138.477 605.641 138.32L604.43 138.07C603.273 137.826 602.432 137.435 601.906 136.898C601.385 136.357 601.125 135.667 601.125 134.828V134.82C601.125 134.148 601.302 133.56 601.656 133.055C602.016 132.549 602.508 132.156 603.133 131.875C603.763 131.589 604.484 131.445 605.297 131.445C606.13 131.445 606.852 131.586 607.461 131.867C608.07 132.143 608.549 132.521 608.898 133C609.247 133.479 609.443 134.021 609.484 134.625L609.492 134.727H607.57L607.555 134.633C607.508 134.336 607.385 134.078 607.188 133.859C606.995 133.635 606.737 133.458 606.414 133.328C606.091 133.198 605.714 133.133 605.281 133.133C604.87 133.133 604.503 133.198 604.18 133.328C603.857 133.453 603.602 133.63 603.414 133.859C603.232 134.089 603.141 134.365 603.141 134.688V134.695C603.141 135.091 603.294 135.419 603.602 135.68C603.914 135.94 604.422 136.143 605.125 136.289L606.336 136.547C607.128 136.714 607.771 136.935 608.266 137.211C608.76 137.487 609.122 137.831 609.352 138.242C609.586 138.648 609.703 139.138 609.703 139.711V139.719C609.703 140.448 609.523 141.078 609.164 141.609C608.81 142.141 608.302 142.552 607.641 142.844C606.984 143.135 606.206 143.281 605.305 143.281ZM611.844 143V131.156H613.789V135.773H613.922C614.125 135.31 614.432 134.948 614.844 134.688C615.255 134.427 615.768 134.297 616.383 134.297C617.018 134.297 617.555 134.422 617.992 134.672C618.43 134.917 618.76 135.276 618.984 135.75C619.214 136.224 619.328 136.799 619.328 137.477V143H617.383V137.93C617.383 137.263 617.242 136.763 616.961 136.43C616.685 136.096 616.253 135.93 615.664 135.93C615.279 135.93 614.945 136.016 614.664 136.188C614.383 136.359 614.167 136.602 614.016 136.914C613.865 137.227 613.789 137.596 613.789 138.023V143H611.844ZM625.312 143.172C624.464 143.172 623.732 142.995 623.117 142.641C622.503 142.281 622.029 141.771 621.695 141.109C621.367 140.448 621.203 139.656 621.203 138.734V138.719C621.203 137.807 621.37 137.021 621.703 136.359C622.036 135.693 622.508 135.182 623.117 134.828C623.732 134.474 624.464 134.297 625.312 134.297C626.161 134.297 626.891 134.474 627.5 134.828C628.115 135.182 628.589 135.69 628.922 136.352C629.255 137.013 629.422 137.802 629.422 138.719V138.734C629.422 139.656 629.255 140.448 628.922 141.109C628.594 141.771 628.122 142.281 627.508 142.641C626.898 142.995 626.167 143.172 625.312 143.172ZM625.312 141.594C625.76 141.594 626.141 141.482 626.453 141.258C626.771 141.029 627.013 140.703 627.18 140.281C627.346 139.854 627.43 139.341 627.43 138.742V138.727C627.43 138.122 627.346 137.609 627.18 137.188C627.013 136.76 626.771 136.435 626.453 136.211C626.141 135.982 625.76 135.867 625.312 135.867C624.865 135.867 624.482 135.982 624.164 136.211C623.846 136.435 623.604 136.76 623.438 137.188C623.271 137.609 623.188 138.122 623.188 138.727V138.742C623.188 139.341 623.271 139.854 623.438 140.281C623.604 140.708 623.844 141.034 624.156 141.258C624.474 141.482 624.859 141.594 625.312 141.594ZM632.664 143L630.344 134.461H632.297L633.711 140.883H633.852L635.492 134.461H637.344L638.992 140.883H639.133L640.547 134.461H642.477L640.156 143H638.125L636.461 136.812H636.328L634.672 143H632.664ZM648.422 143V134.461H650.367V135.789H650.5C650.682 135.315 650.977 134.948 651.383 134.688C651.794 134.427 652.281 134.297 652.844 134.297C653.229 134.297 653.576 134.359 653.883 134.484C654.195 134.609 654.464 134.786 654.688 135.016C654.911 135.245 655.083 135.518 655.203 135.836H655.344C655.484 135.529 655.68 135.26 655.93 135.031C656.185 134.797 656.482 134.617 656.82 134.492C657.164 134.362 657.534 134.297 657.93 134.297C658.503 134.297 658.992 134.411 659.398 134.641C659.81 134.865 660.125 135.188 660.344 135.609C660.568 136.031 660.68 136.536 660.68 137.125V143H658.734V137.602C658.734 137.227 658.677 136.917 658.562 136.672C658.453 136.427 658.284 136.242 658.055 136.117C657.826 135.992 657.536 135.93 657.188 135.93C656.849 135.93 656.555 136.008 656.305 136.164C656.055 136.315 655.859 136.521 655.719 136.781C655.583 137.042 655.516 137.336 655.516 137.664V143H653.57V137.461C653.57 137.143 653.508 136.87 653.383 136.641C653.263 136.411 653.086 136.237 652.852 136.117C652.622 135.992 652.349 135.93 652.031 135.93C651.714 135.93 651.427 136.013 651.172 136.18C650.922 136.341 650.724 136.565 650.578 136.852C650.438 137.133 650.367 137.451 650.367 137.805V143H648.422ZM666.656 143.172C665.807 143.172 665.076 142.995 664.461 142.641C663.846 142.281 663.372 141.771 663.039 141.109C662.711 140.448 662.547 139.656 662.547 138.734V138.719C662.547 137.807 662.714 137.021 663.047 136.359C663.38 135.693 663.852 135.182 664.461 134.828C665.076 134.474 665.807 134.297 666.656 134.297C667.505 134.297 668.234 134.474 668.844 134.828C669.458 135.182 669.932 135.69 670.266 136.352C670.599 137.013 670.766 137.802 670.766 138.719V138.734C670.766 139.656 670.599 140.448 670.266 141.109C669.938 141.771 669.466 142.281 668.852 142.641C668.242 142.995 667.51 143.172 666.656 143.172ZM666.656 141.594C667.104 141.594 667.484 141.482 667.797 141.258C668.115 141.029 668.357 140.703 668.523 140.281C668.69 139.854 668.773 139.341 668.773 138.742V138.727C668.773 138.122 668.69 137.609 668.523 137.188C668.357 136.76 668.115 136.435 667.797 136.211C667.484 135.982 667.104 135.867 666.656 135.867C666.208 135.867 665.826 135.982 665.508 136.211C665.19 136.435 664.948 136.76 664.781 137.188C664.615 137.609 664.531 138.122 664.531 138.727V138.742C664.531 139.341 664.615 139.854 664.781 140.281C664.948 140.708 665.188 141.034 665.5 141.258C665.818 141.482 666.203 141.594 666.656 141.594ZM672.719 143V134.461H674.664V135.773H674.797C674.943 135.315 675.203 134.958 675.578 134.703C675.958 134.448 676.43 134.32 676.992 134.32C677.138 134.32 677.281 134.331 677.422 134.352C677.568 134.367 677.688 134.388 677.781 134.414V136.156C677.625 136.12 677.466 136.094 677.305 136.078C677.148 136.057 676.984 136.047 676.812 136.047C676.38 136.047 676.003 136.128 675.68 136.289C675.357 136.451 675.107 136.682 674.93 136.984C674.753 137.281 674.664 137.633 674.664 138.039V143H672.719ZM682.812 143.172C681.964 143.172 681.234 142.992 680.625 142.633C680.021 142.273 679.555 141.763 679.227 141.102C678.898 140.44 678.734 139.656 678.734 138.75V138.742C678.734 137.846 678.896 137.065 679.219 136.398C679.547 135.732 680.01 135.216 680.609 134.852C681.208 134.482 681.911 134.297 682.719 134.297C683.531 134.297 684.229 134.477 684.812 134.836C685.401 135.19 685.854 135.688 686.172 136.328C686.49 136.969 686.648 137.719 686.648 138.578V139.219H679.711V137.914H685.695L684.773 139.133V138.359C684.773 137.792 684.688 137.32 684.516 136.945C684.344 136.57 684.104 136.289 683.797 136.102C683.495 135.914 683.143 135.82 682.742 135.82C682.341 135.82 681.984 135.919 681.672 136.117C681.365 136.31 681.12 136.596 680.938 136.977C680.76 137.352 680.672 137.812 680.672 138.359V139.141C680.672 139.667 680.76 140.117 680.938 140.492C681.115 140.862 681.365 141.148 681.688 141.352C682.016 141.549 682.404 141.648 682.852 141.648C683.201 141.648 683.5 141.599 683.75 141.5C684.005 141.396 684.211 141.273 684.367 141.133C684.523 140.987 684.633 140.849 684.695 140.719L684.719 140.664H686.562L686.547 140.734C686.479 141.01 686.354 141.292 686.172 141.578C685.995 141.859 685.753 142.122 685.445 142.367C685.143 142.607 684.773 142.802 684.336 142.953C683.898 143.099 683.391 143.172 682.812 143.172Z" fill="#0066CC"/>
<rect x="46.5" y="101.5" width="70" height="23" rx="4.5" fill="#0F6CBD"/>
<rect x="46.5" y="101.5" width="70" height="23" rx="4.5" stroke="#0F6CBD"/>
<path d="M58.2704 117.5H55.313V108.773H58.33C59.1965 108.773 59.9408 108.947 60.563 109.297C61.188 109.643 61.6681 110.142 62.0033 110.793C62.3386 111.443 62.5062 112.222 62.5062 113.128C62.5062 114.037 62.3371 114.818 61.9991 115.472C61.6638 116.125 61.1795 116.626 60.5459 116.976C59.9153 117.325 59.1567 117.5 58.2704 117.5ZM56.8939 116.132H58.1937C58.8016 116.132 59.3087 116.021 59.715 115.8C60.1212 115.575 60.4266 115.241 60.6312 114.798C60.8357 114.352 60.938 113.795 60.938 113.128C60.938 112.46 60.8357 111.906 60.6312 111.466C60.4266 111.023 60.1241 110.692 59.7235 110.473C59.3258 110.251 58.8314 110.141 58.2405 110.141H56.8939V116.132ZM64.1883 117.5V108.773H69.8644V110.098H65.7693V112.467H69.5704V113.793H65.7693V116.175H69.8985V117.5H64.1883ZM71.6574 117.5V108.773H77.2483V110.098H73.2383V112.467H76.8647V113.793H73.2383V117.5H71.6574ZM78.8995 117.5H77.212L80.2844 108.773H82.2362L85.3129 117.5H83.6254L81.2944 110.562H81.2262L78.8995 117.5ZM78.9549 114.078H83.5572V115.348H78.9549V114.078ZM92.1438 108.773H93.7247V114.474C93.7247 115.099 93.577 115.649 93.2816 116.124C92.9889 116.598 92.577 116.969 92.0458 117.236C91.5145 117.5 90.8938 117.632 90.1835 117.632C89.4705 117.632 88.8483 117.5 88.3171 117.236C87.7858 116.969 87.3739 116.598 87.0813 116.124C86.7887 115.649 86.6424 115.099 86.6424 114.474V108.773H88.2233V114.342C88.2233 114.706 88.3029 115.03 88.462 115.314C88.6239 115.598 88.8512 115.821 89.1438 115.983C89.4364 116.142 89.783 116.222 90.1835 116.222C90.5841 116.222 90.9307 116.142 91.2233 115.983C91.5188 115.821 91.746 115.598 91.9051 115.314C92.0642 115.03 92.1438 114.706 92.1438 114.342V108.773ZM95.6231 117.5V108.773H97.2041V116.175H101.048V117.5H95.6231ZM101.103 110.098V108.773H108.066V110.098H105.369V117.5H103.801V110.098H101.103Z" fill="white"/>
</g>
<defs>
<clipPath id="clip0_29_1366">
<rect width="1024" height="275" rx="24" fill="white"/>
</clipPath>
</defs>
</svg>
