<svg width="1024" height="426" viewBox="0 0 1024 426" fill="none" xmlns="http://www.w3.org/2000/svg">
<g clip-path="url(#clip0_29_1166)">
<rect width="1024" height="426" rx="24" fill="white"/>
<path d="M303.5 232.75H-497.5C-501.228 232.75 -504.25 235.772 -504.25 239.5V296.5C-504.25 300.228 -501.228 303.25 -497.5 303.25H303.5C307.228 303.25 310.25 300.228 310.25 296.5V239.5C310.25 235.772 307.228 232.75 303.5 232.75Z" stroke="#DDDDDD"/>
<mask id="mask0_29_1166" style="mask-type:luminance" maskUnits="userSpaceOnUse" x="219" y="251" width="74" height="34">
<path d="M293 251.5H219.5V284.5H293V251.5Z" fill="white"/>
</mask>
<g mask="url(#mask0_29_1166)">
<path d="M224 252H288.5C290.709 252 292.5 253.791 292.5 256V280C292.5 282.209 290.709 284 288.5 284H224C221.791 284 220 282.209 220 280V256C220 253.791 221.791 252 224 252Z" stroke="#DDDDDD"/>
<path d="M230.215 260.286C231.28 260.286 232.143 261.149 232.143 262.214V264.143H230.215C229.15 264.143 228.285 263.279 228.285 262.214C228.285 261.149 229.15 260.286 230.215 260.286ZM233.429 264.143V262.214C233.429 260.439 231.989 259 230.215 259C228.439 259 227 260.439 227 262.214C227 263.989 228.439 265.429 230.215 265.429H232.143V270.571H230.215C228.439 270.571 227 272.011 227 273.786C227 275.561 228.439 277 230.215 277C231.989 277 233.429 275.561 233.429 273.786V271.857H238.571V273.786C238.571 275.561 240.011 277 241.785 277C243.561 277 245 275.561 245 273.786C245 272.011 243.561 270.571 241.785 270.571H239.857V265.429H241.785C243.561 265.429 245 263.989 245 262.214C245 260.439 243.561 259 241.785 259C240.011 259 238.571 260.439 238.571 262.214V264.143H233.429ZM233.429 265.429H238.571V270.571H233.429V265.429ZM239.857 264.143V262.214C239.857 261.149 240.72 260.286 241.785 260.286C242.85 260.286 243.715 261.149 243.715 262.214C243.715 263.279 242.85 264.143 241.785 264.143H239.857ZM239.857 271.857H241.785C242.85 271.857 243.715 272.721 243.715 273.786C243.715 274.851 242.85 275.714 241.785 275.714C240.72 275.714 239.857 274.851 239.857 273.786V271.857ZM232.143 271.857V273.786C232.143 274.851 231.28 275.714 230.215 275.714C229.15 275.714 228.285 274.851 228.285 273.786C228.285 272.721 229.15 271.857 230.215 271.857H232.143Z" fill="#DDDDDD"/>
<path d="M257.786 273.112H256.094V269.44H252.44V267.874H256.094V264.238H257.786V267.874H261.44V269.44H257.786V273.112Z" fill="#DDDDDD"/>
<path d="M276.146 274.75H274.166V261.826H276.146V267.802L281.618 261.826H283.904L278.144 268.162L284.048 274.75H281.564L276.146 268.756V274.75Z" fill="#DDDDDD"/>
</g>
<rect x="923.5" y="378.5" width="1" height="100" transform="rotate(-90 923.5 378.5)" fill="#484848"/>
<path d="M665.746 387.316C664.137 387.316 662.738 386.961 661.551 386.25C660.371 385.539 659.457 384.527 658.809 383.215C658.168 381.902 657.848 380.344 657.848 378.539V378.527C657.848 376.723 658.168 375.168 658.809 373.863C659.457 372.551 660.371 371.543 661.551 370.84C662.738 370.129 664.137 369.773 665.746 369.773C667.043 369.773 668.203 370.023 669.227 370.523C670.258 371.023 671.098 371.715 671.746 372.598C672.395 373.48 672.793 374.496 672.941 375.645L672.953 375.762H669.988L669.93 375.562C669.773 374.914 669.504 374.355 669.121 373.887C668.746 373.41 668.273 373.043 667.703 372.785C667.133 372.52 666.48 372.387 665.746 372.387C664.77 372.387 663.918 372.637 663.191 373.137C662.473 373.637 661.914 374.348 661.516 375.27C661.125 376.184 660.93 377.27 660.93 378.527V378.539C660.93 379.797 661.125 380.887 661.516 381.809C661.914 382.73 662.477 383.445 663.203 383.953C663.93 384.453 664.781 384.703 665.758 384.703C666.477 384.703 667.117 384.578 667.68 384.328C668.25 384.07 668.73 383.703 669.121 383.227C669.512 382.742 669.793 382.16 669.965 381.48L669.988 381.375H672.953L672.941 381.492C672.801 382.641 672.406 383.652 671.758 384.527C671.109 385.402 670.27 386.086 669.238 386.578C668.215 387.07 667.051 387.316 665.746 387.316ZM690.867 387.316C689.219 387.316 687.793 386.961 686.59 386.25C685.395 385.531 684.469 384.52 683.812 383.215C683.164 381.902 682.84 380.348 682.84 378.551V378.527C682.84 376.73 683.168 375.18 683.824 373.875C684.48 372.562 685.406 371.551 686.602 370.84C687.805 370.129 689.227 369.773 690.867 369.773C692.508 369.773 693.926 370.133 695.121 370.852C696.324 371.562 697.25 372.57 697.898 373.875C698.555 375.18 698.883 376.73 698.883 378.527V378.551C698.883 380.348 698.555 381.902 697.898 383.215C697.25 384.52 696.328 385.531 695.133 386.25C693.938 386.961 692.516 387.316 690.867 387.316ZM690.867 384.703C691.883 384.703 692.758 384.449 693.492 383.941C694.234 383.434 694.805 382.723 695.203 381.809C695.602 380.887 695.801 379.801 695.801 378.551V378.527C695.801 377.27 695.598 376.184 695.191 375.27C694.793 374.348 694.223 373.637 693.48 373.137C692.746 372.637 691.875 372.387 690.867 372.387C689.859 372.387 688.984 372.637 688.242 373.137C687.5 373.637 686.926 374.344 686.52 375.258C686.121 376.172 685.922 377.262 685.922 378.527V378.551C685.922 379.801 686.121 380.887 686.52 381.809C686.926 382.73 687.496 383.445 688.23 383.953C688.973 384.453 689.852 384.703 690.867 384.703ZM709.496 387V370.09H712.977L718.145 383.027H718.238L723.406 370.09H726.887V387H724.168V374.965H722.762L725.832 370.559L719.223 387H717.16L710.551 370.559L713.609 374.965H712.215V387H709.496ZM739.598 381.41V378.973H743.898C744.992 378.973 745.836 378.695 746.43 378.141C747.031 377.578 747.332 376.789 747.332 375.773V375.75C747.332 374.727 747.031 373.938 746.43 373.383C745.836 372.828 744.992 372.551 743.898 372.551H739.598V370.09H744.648C745.789 370.09 746.789 370.324 747.648 370.793C748.516 371.262 749.191 371.922 749.676 372.773C750.16 373.617 750.402 374.605 750.402 375.738V375.762C750.402 376.887 750.16 377.875 749.676 378.727C749.191 379.57 748.516 380.23 747.648 380.707C746.789 381.176 745.789 381.41 744.648 381.41H739.598ZM738.098 387V370.09H741.109V387H738.098ZM768.234 387.316C766.586 387.316 765.16 386.961 763.957 386.25C762.762 385.531 761.836 384.52 761.18 383.215C760.531 381.902 760.207 380.348 760.207 378.551V378.527C760.207 376.73 760.535 375.18 761.191 373.875C761.848 372.562 762.773 371.551 763.969 370.84C765.172 370.129 766.594 369.773 768.234 369.773C769.875 369.773 771.293 370.133 772.488 370.852C773.691 371.562 774.617 372.57 775.266 373.875C775.922 375.18 776.25 376.73 776.25 378.527V378.551C776.25 380.348 775.922 381.902 775.266 383.215C774.617 384.52 773.695 385.531 772.5 386.25C771.305 386.961 769.883 387.316 768.234 387.316ZM768.234 384.703C769.25 384.703 770.125 384.449 770.859 383.941C771.602 383.434 772.172 382.723 772.57 381.809C772.969 380.887 773.168 379.801 773.168 378.551V378.527C773.168 377.27 772.965 376.184 772.559 375.27C772.16 374.348 771.59 373.637 770.848 373.137C770.113 372.637 769.242 372.387 768.234 372.387C767.227 372.387 766.352 372.637 765.609 373.137C764.867 373.637 764.293 374.344 763.887 375.258C763.488 376.172 763.289 377.262 763.289 378.527V378.551C763.289 379.801 763.488 380.887 763.887 381.809C764.293 382.73 764.863 383.445 765.598 383.953C766.34 384.453 767.219 384.703 768.234 384.703ZM786.863 387V370.09H789.559L799.297 384.035L796.578 381.914H797.902V370.09H800.891V387H798.207L788.457 373.008L791.164 375.141H789.84V387H786.863ZM812.09 387V370.09H823.023V372.633H815.102V377.203H822.59V379.629H815.102V384.457H823.023V387H812.09ZM833.871 387V370.09H836.566L846.305 384.035L843.586 381.914H844.91V370.09H847.898V387H845.215L835.465 373.008L838.172 375.141H836.848V387H833.871ZM863.234 387V372.633H858.148V370.09H871.332V372.633H866.246V387H863.234Z" fill="#484848"/>
<path d="M39.375 245.465C32.2266 245.465 26.0742 243.688 20.918 240.133C15.7617 236.578 11.7969 231.539 9.02344 225.016C6.28906 218.453 4.92188 210.699 4.92188 201.754V201.637C4.92188 192.652 6.28906 184.898 9.02344 178.375C11.7969 171.852 15.7617 166.832 20.918 163.316C26.0742 159.762 32.2266 157.984 39.375 157.984C46.5234 157.984 52.6562 159.762 57.7734 163.316C62.9297 166.832 66.8945 171.852 69.668 178.375C72.4414 184.898 73.8281 192.652 73.8281 201.637V201.754C73.8281 210.699 72.4414 218.453 69.668 225.016C66.8945 231.539 62.9297 236.578 57.7734 240.133C52.6562 243.688 46.5234 245.465 39.375 245.465ZM39.375 231.285C42.8906 231.285 45.8789 230.113 48.3398 227.77C50.8008 225.426 52.6758 222.047 53.9648 217.633C55.293 213.219 55.957 207.926 55.957 201.754V201.637C55.957 195.426 55.293 190.133 53.9648 185.758C52.6758 181.344 50.8008 177.984 48.3398 175.68C45.8789 173.336 42.8906 172.164 39.375 172.164C35.8594 172.164 32.8516 173.336 30.3516 175.68C27.8906 177.984 26.0156 181.344 24.7266 185.758C23.4375 190.133 22.793 195.426 22.793 201.637V201.754C22.793 207.926 23.4375 213.219 24.7266 217.633C26.0156 222.047 27.8906 225.426 30.3516 227.77C32.8516 230.113 35.8594 231.285 39.375 231.285ZM120.753 244V228.473H78.683V213.707C80.9487 210.113 83.2143 206.5 85.4799 202.867C87.7455 199.234 90.0112 195.621 92.2768 192.027C94.5424 188.395 96.7885 184.781 99.0151 181.188C101.281 177.555 103.546 173.922 105.812 170.289C108.078 166.656 110.343 163.043 112.609 159.449H137.57V214.352H148.703V228.473H137.57V244H120.753ZM94.0932 214.82H121.105V172.223H120.695C118.898 175.035 117.121 177.848 115.363 180.66C113.605 183.473 111.828 186.285 110.031 189.098C108.273 191.871 106.496 194.684 104.699 197.535C102.941 200.348 101.164 203.16 99.3666 205.973C97.6088 208.746 95.851 211.539 94.0932 214.352V214.82Z" fill="#EEEFF4"/>
<path d="M65.3477 227V185.023H50.6875V176.27H90.6602V185.023H75.9648V227H65.3477ZM96.8605 227.598C94.3527 227.598 92.1496 227.117 90.2511 226.156C88.3527 225.172 86.8644 223.824 85.7863 222.113C84.7316 220.379 84.2042 218.41 84.2042 216.207V216.137C84.2042 213.84 84.7785 211.883 85.9269 210.266C87.0753 208.625 88.7394 207.336 90.9191 206.398C93.0988 205.461 95.7472 204.887 98.8644 204.676L113.56 203.762V210.16L100.411 211.004C98.4425 211.121 96.9425 211.59 95.9113 212.41C94.88 213.207 94.3644 214.273 94.3644 215.609V215.68C94.3644 217.062 94.8917 218.152 95.9464 218.949C97.0011 219.723 98.4191 220.109 100.2 220.109C101.724 220.109 103.083 219.816 104.278 219.23C105.497 218.621 106.446 217.801 107.126 216.77C107.829 215.715 108.181 214.531 108.181 213.219V201.793C108.181 200.129 107.653 198.816 106.599 197.855C105.544 196.871 104.009 196.379 101.993 196.379C100.071 196.379 98.548 196.777 97.423 197.574C96.298 198.371 95.6066 199.379 95.3488 200.598L95.2785 200.914H85.8917L85.9269 200.492C86.1144 198.172 86.8761 196.109 88.2121 194.305C89.5714 192.5 91.4464 191.094 93.8371 190.086C96.2511 189.055 99.1105 188.539 102.415 188.539C105.673 188.539 108.497 189.066 110.888 190.121C113.278 191.152 115.13 192.617 116.443 194.516C117.778 196.414 118.446 198.629 118.446 201.16V227H108.181V221.375H107.97C107.267 222.664 106.353 223.777 105.228 224.715C104.126 225.629 102.872 226.344 101.466 226.859C100.06 227.352 98.5246 227.598 96.8605 227.598ZM145.987 227.773C144.182 227.773 142.53 227.48 141.03 226.895C139.53 226.309 138.217 225.488 137.092 224.434C135.967 223.355 135.065 222.066 134.385 220.566H134.174V227H123.908V176.27H134.174V195.852H134.385C135.088 194.328 136.002 193.027 137.127 191.949C138.252 190.848 139.565 190.004 141.065 189.418C142.588 188.832 144.241 188.539 146.022 188.539C149.186 188.539 151.905 189.324 154.178 190.895C156.475 192.441 158.244 194.68 159.487 197.609C160.729 200.516 161.35 204.02 161.35 208.121V208.156C161.35 212.234 160.729 215.738 159.487 218.668C158.244 221.598 156.475 223.848 154.178 225.418C151.881 226.988 149.151 227.773 145.987 227.773ZM142.576 219.266C144.287 219.266 145.764 218.82 147.006 217.93C148.248 217.016 149.209 215.727 149.889 214.062C150.569 212.398 150.908 210.43 150.908 208.156V208.121C150.908 205.824 150.569 203.855 149.889 202.215C149.209 200.551 148.237 199.273 146.971 198.383C145.729 197.492 144.264 197.047 142.576 197.047C140.912 197.047 139.448 197.504 138.182 198.418C136.94 199.309 135.955 200.586 135.229 202.25C134.526 203.891 134.174 205.848 134.174 208.121V208.156C134.174 210.43 134.526 212.398 135.229 214.062C135.932 215.727 136.916 217.016 138.182 217.93C139.448 218.82 140.912 219.266 142.576 219.266ZM178.919 227V176.27H189.536V218.246H211.719V227H178.919ZM215.916 227V189.312H226.181V227H215.916ZM221.049 184.461C219.502 184.461 218.201 183.934 217.146 182.879C216.092 181.824 215.564 180.57 215.564 179.117C215.564 177.641 216.092 176.387 217.146 175.355C218.201 174.301 219.502 173.773 221.049 173.773C222.595 173.773 223.896 174.301 224.951 175.355C226.006 176.387 226.533 177.641 226.533 179.117C226.533 180.57 226.006 181.824 224.951 182.879C223.896 183.934 222.595 184.461 221.049 184.461ZM247.147 227.773C243.679 227.773 240.725 227.27 238.288 226.262C235.85 225.254 233.94 223.859 232.557 222.078C231.198 220.273 230.378 218.188 230.097 215.82L230.061 215.504H240.081L240.151 215.82C240.479 217.297 241.218 218.445 242.366 219.266C243.515 220.086 245.108 220.496 247.147 220.496C248.46 220.496 249.573 220.344 250.487 220.039C251.401 219.711 252.104 219.254 252.597 218.668C253.112 218.082 253.37 217.379 253.37 216.559V216.523C253.37 215.516 253.007 214.707 252.28 214.098C251.554 213.488 250.265 212.973 248.413 212.551L242.015 211.215C239.577 210.699 237.538 209.961 235.897 209C234.28 208.016 233.061 206.809 232.241 205.379C231.421 203.926 231.011 202.262 231.011 200.387V200.352C231.011 197.938 231.655 195.852 232.944 194.094C234.233 192.336 236.061 190.977 238.429 190.016C240.819 189.031 243.608 188.539 246.796 188.539C250.124 188.539 252.948 189.078 255.268 190.156C257.612 191.211 259.405 192.641 260.647 194.445C261.913 196.25 262.581 198.254 262.651 200.457V200.809H253.194L253.159 200.527C252.995 199.168 252.362 198.043 251.261 197.152C250.182 196.238 248.694 195.781 246.796 195.781C245.624 195.781 244.604 195.945 243.737 196.273C242.87 196.602 242.202 197.07 241.733 197.68C241.265 198.266 241.03 198.969 241.03 199.789V199.824C241.03 200.457 241.182 201.031 241.487 201.547C241.815 202.039 242.354 202.473 243.104 202.848C243.854 203.223 244.862 203.551 246.128 203.832L252.526 205.203C256.487 206.023 259.323 207.254 261.034 208.895C262.768 210.535 263.636 212.738 263.636 215.504V215.539C263.636 218 262.932 220.145 261.526 221.973C260.12 223.801 258.175 225.23 255.69 226.262C253.229 227.27 250.382 227.773 247.147 227.773ZM282.246 227.773C278.074 227.773 274.98 226.895 272.965 225.137C270.949 223.379 269.941 220.484 269.941 216.453V197.047H264.703V189.312H269.941V180.102H280.312V189.312H287.203V197.047H280.312V215.328C280.312 217.086 280.699 218.316 281.473 219.02C282.27 219.699 283.441 220.039 284.988 220.039C285.457 220.039 285.867 220.027 286.219 220.004C286.57 219.957 286.898 219.91 287.203 219.863V227.387C286.641 227.48 285.938 227.562 285.094 227.633C284.273 227.727 283.324 227.773 282.246 227.773Z" fill="#1B1D23"/>
<rect width="594" height="41" rx="8" transform="matrix(0.965926 0.258819 -0.707107 0.707107 409.991 126)" fill="#DDDDDD"/>
<path d="M512.297 175.827L519.272 168.852L520.752 169.249L520.618 175.863L519.882 175.108L520.734 175.336L525.539 170.531L527.176 170.97L520.201 177.945L518.729 177.551L518.867 170.932L519.603 171.687L518.751 171.458L513.942 176.268L512.297 175.827ZM525.371 179.465C524.653 179.273 524.148 178.997 523.855 178.636C523.567 178.277 523.489 177.856 523.621 177.372C523.753 176.889 524.099 176.366 524.66 175.806L524.665 175.801C525.219 175.247 525.839 174.8 526.524 174.46C527.214 174.122 527.925 173.908 528.657 173.818C529.392 173.725 530.1 173.77 530.783 173.953C531.469 174.137 531.948 174.406 532.219 174.76C532.497 175.113 532.572 175.523 532.444 175.992C532.316 176.46 531.987 176.96 531.455 177.492L531.059 177.888L525.195 176.317L526.002 175.51L531.06 176.865L529.527 177.41L530.006 176.932C530.357 176.58 530.576 176.269 530.663 175.998C530.749 175.727 530.721 175.499 530.577 175.314C530.438 175.129 530.199 174.992 529.86 174.901C529.521 174.81 529.158 174.79 528.771 174.842C528.393 174.892 528.008 175.013 527.619 175.207C527.237 175.399 526.877 175.664 526.539 176.003L526.056 176.486C525.73 176.812 525.526 177.11 525.444 177.383C525.365 177.651 525.399 177.885 525.546 178.084C525.701 178.281 525.968 178.43 526.346 178.531C526.641 178.61 526.925 178.648 527.197 178.643C527.478 178.636 527.727 178.607 527.946 178.556C528.169 178.501 528.346 178.44 528.48 178.374L528.533 178.345L530.092 178.763L530.035 178.803C529.807 178.958 529.527 179.104 529.196 179.24C528.872 179.374 528.505 179.482 528.094 179.564C527.69 179.643 527.257 179.68 526.794 179.675C526.334 179.666 525.859 179.596 525.371 179.465ZM532.244 181.282C531.791 181.161 531.448 180.987 531.216 180.762C530.988 180.537 530.888 180.28 530.917 179.989C530.953 179.696 531.132 179.389 531.454 179.067L531.464 179.057C531.776 178.744 532.151 178.504 532.588 178.335C533.028 178.162 533.517 178.067 534.055 178.047C534.594 178.028 535.167 178.086 535.775 178.22L538.563 178.814L537.771 179.607L535.218 179.07C534.737 178.965 534.325 178.945 533.982 179.008C533.639 179.072 533.359 179.213 533.139 179.432L533.13 179.442C532.904 179.668 532.845 179.874 532.953 180.063C533.065 180.252 533.304 180.396 533.669 180.494C533.999 180.582 534.342 180.613 534.699 180.586C535.055 180.559 535.39 180.483 535.704 180.359C536.022 180.231 536.285 180.063 536.494 179.853L538.167 178.181C538.431 177.917 538.518 177.684 538.428 177.485C538.341 177.281 538.073 177.12 537.624 176.999C537.249 176.899 536.895 176.865 536.561 176.898C536.23 176.928 535.935 177.019 535.678 177.171L535.652 177.188L534.1 176.772L534.15 176.731C534.499 176.448 534.917 176.231 535.404 176.08C535.89 175.928 536.413 175.85 536.971 175.844C537.529 175.838 538.092 175.911 538.66 176.064C539.285 176.231 539.742 176.443 540.032 176.701C540.325 176.955 540.45 177.246 540.407 177.574C540.367 177.898 540.162 178.245 539.791 178.616L536.18 182.227L534.556 181.792L535.281 181.067L535.169 181.036C534.869 181.169 534.553 181.268 534.219 181.333C533.89 181.4 533.558 181.43 533.225 181.423C532.892 181.415 532.565 181.368 532.244 181.282ZM538.155 182.756L543.438 177.473L545.082 177.913L544.27 178.725L544.382 178.755C544.789 178.505 545.23 178.343 545.705 178.27C546.184 178.198 546.661 178.226 547.137 178.353C547.26 178.386 547.375 178.425 547.481 178.47C547.594 178.513 547.683 178.553 547.746 178.59L546.668 179.668C546.558 179.61 546.44 179.558 546.313 179.512C546.194 179.463 546.062 179.42 545.917 179.381C545.551 179.283 545.182 179.247 544.81 179.274C544.437 179.301 544.082 179.388 543.745 179.535C543.412 179.678 543.12 179.876 542.868 180.127L539.799 183.196L538.155 182.756ZM546.58 185.148C545.862 184.956 545.357 184.679 545.064 184.319C544.776 183.96 544.698 183.539 544.83 183.055C544.962 182.571 545.308 182.049 545.869 181.489L545.873 181.484C546.428 180.929 547.048 180.483 547.733 180.143C548.423 179.805 549.134 179.591 549.865 179.501C550.6 179.408 551.309 179.453 551.991 179.636C552.678 179.82 553.157 180.089 553.427 180.443C553.706 180.796 553.781 181.206 553.653 181.674C553.525 182.143 553.196 182.643 552.664 183.175L552.267 183.571L546.404 182L547.211 181.193L552.269 182.548L550.736 183.093L551.214 182.615C551.566 182.263 551.785 181.952 551.871 181.681C551.958 181.41 551.93 181.182 551.786 180.996C551.647 180.812 551.408 180.674 551.069 180.584C550.73 180.493 550.367 180.473 549.98 180.525C549.601 180.575 549.217 180.696 548.828 180.89C548.446 181.082 548.086 181.347 547.748 181.686L547.265 182.169C546.939 182.495 546.735 182.793 546.653 183.065C546.574 183.334 546.608 183.568 546.755 183.767C546.91 183.964 547.177 184.113 547.555 184.214C547.85 184.293 548.134 184.331 548.406 184.326C548.686 184.319 548.936 184.29 549.155 184.239C549.377 184.184 549.555 184.123 549.689 184.057L549.742 184.028L551.301 184.446L551.244 184.486C551.016 184.641 550.736 184.787 550.405 184.923C550.081 185.057 549.714 185.165 549.303 185.246C548.899 185.326 548.466 185.363 548.002 185.358C547.542 185.349 547.068 185.279 546.58 185.148ZM554.193 187.188C553.581 187.024 553.116 186.82 552.797 186.575C552.485 186.328 552.315 186.058 552.285 185.764C552.259 185.466 552.371 185.161 552.622 184.849L552.632 184.839L554.263 185.276L554.26 185.288C554.164 185.495 554.179 185.689 554.305 185.87C554.431 186.051 554.699 186.196 555.109 186.306C555.382 186.379 555.649 186.416 555.911 186.416C556.175 186.414 556.417 186.378 556.636 186.31C556.855 186.242 557.03 186.142 557.162 186.01L557.172 186.001C557.327 185.846 557.37 185.694 557.301 185.545C557.236 185.392 557.037 185.231 556.706 185.06L555.73 184.554C555.346 184.357 555.071 184.153 554.904 183.94C554.737 183.728 554.675 183.505 554.719 183.272C554.767 183.039 554.92 182.794 555.177 182.536L555.182 182.532C555.501 182.213 555.903 181.965 556.386 181.788C556.875 181.612 557.404 181.515 557.975 181.497C558.547 181.478 559.116 181.545 559.684 181.697C560.269 181.854 560.709 182.053 561.003 182.295C561.296 182.538 561.449 182.803 561.461 183.093C561.474 183.382 561.354 183.675 561.102 183.971L561.093 183.98L559.547 183.566L559.555 183.55C559.661 183.366 559.656 183.185 559.538 183.006C559.429 182.826 559.18 182.683 558.793 182.58C558.551 182.515 558.305 182.484 558.057 182.487C557.813 182.491 557.586 182.528 557.376 182.598C557.174 182.667 557.006 182.767 556.874 182.899L556.869 182.904C556.766 183.007 556.711 183.107 556.704 183.203C556.702 183.3 556.751 183.399 556.851 183.5C556.952 183.6 557.109 183.708 557.324 183.823L558.304 184.324C558.897 184.63 559.248 184.943 559.358 185.263C559.469 185.582 559.33 185.935 558.944 186.322L558.934 186.332C558.599 186.667 558.173 186.925 557.658 187.105C557.143 187.286 556.583 187.385 555.979 187.403C555.378 187.418 554.783 187.346 554.193 187.188ZM561.796 189.121C560.968 188.899 560.483 188.628 560.34 188.308C560.197 187.988 560.378 187.575 560.884 187.069L563.833 184.12L562.71 183.819L563.643 182.887L564.766 183.187L566.061 181.892L567.732 182.339L566.436 183.635L567.955 184.042L567.022 184.975L565.503 184.568L562.84 187.231C562.579 187.492 562.462 187.704 562.489 187.867C562.524 188.027 562.711 188.153 563.05 188.244C563.169 188.275 563.267 188.3 563.345 188.317C563.431 188.331 563.526 188.349 563.629 188.368L562.701 189.296C562.57 189.282 562.425 189.259 562.266 189.229C562.111 189.199 561.954 189.164 561.796 189.121Z" fill="#222222"/>
<g filter="url(#filter0_d_29_1166)">
<rect width="293" height="33" rx="5" transform="matrix(0.965926 0.258819 -0.707107 0.707107 694.043 205.698)" fill="white" shape-rendering="crispEdges"/>
<path d="M804.727 254.404C803.987 254.206 803.428 253.95 803.05 253.636C802.676 253.323 802.483 252.975 802.47 252.592C802.457 252.209 802.631 251.812 802.991 251.402L803.052 251.332L804.703 251.774L804.661 251.824C804.491 252.028 804.426 252.227 804.465 252.422C804.51 252.618 804.646 252.799 804.875 252.967C805.107 253.131 805.423 253.267 805.824 253.374C806.207 253.477 806.589 253.524 806.971 253.516C807.353 253.508 807.703 253.451 808.022 253.344C808.344 253.234 808.605 253.079 808.805 252.88L808.81 252.875C809.061 252.624 809.131 252.383 809.021 252.153C808.913 251.92 808.6 251.673 808.08 251.411L807.211 250.982C806.386 250.569 805.916 250.136 805.804 249.685C805.699 249.232 805.906 248.746 806.424 248.227L806.429 248.223C806.845 247.807 807.359 247.483 807.971 247.25C808.587 247.019 809.246 246.887 809.949 246.855C810.658 246.82 811.357 246.895 812.043 247.079C812.748 247.268 813.27 247.518 813.611 247.83C813.956 248.139 814.127 248.481 814.125 248.857C814.124 249.232 813.954 249.612 813.615 249.995L813.559 250.059L811.935 249.624L811.98 249.563C812.124 249.368 812.18 249.181 812.148 249.001C812.123 248.819 812.015 248.651 811.823 248.497C811.63 248.343 811.351 248.218 810.986 248.12C810.638 248.027 810.288 247.984 809.934 247.991C809.584 247.995 809.259 248.047 808.958 248.146C808.663 248.247 808.415 248.397 808.215 248.597L808.21 248.602C807.965 248.847 807.892 249.084 807.991 249.315C808.094 249.547 808.397 249.788 808.901 250.037L809.765 250.471C810.331 250.753 810.738 251.036 810.985 251.319C811.233 251.602 811.326 251.896 811.265 252.203C811.212 252.507 811.008 252.837 810.653 253.191L810.649 253.196C810.197 253.647 809.656 253.996 809.023 254.244C808.395 254.492 807.711 254.632 806.972 254.662C806.237 254.694 805.488 254.608 804.727 254.404ZM812.176 256.29C811.723 256.168 811.38 255.995 811.148 255.769C810.92 255.545 810.821 255.287 810.849 254.996C810.885 254.704 811.064 254.396 811.386 254.074L811.396 254.064C811.709 253.752 812.083 253.511 812.52 253.342C812.96 253.17 813.45 253.074 813.988 253.055C814.526 253.036 815.099 253.093 815.707 253.228L818.496 253.822L817.703 254.614L815.151 254.077C814.669 253.973 814.257 253.952 813.914 254.016C813.572 254.079 813.291 254.221 813.072 254.44L813.062 254.449C812.837 254.675 812.778 254.882 812.885 255.07C812.997 255.259 813.236 255.403 813.601 255.501C813.931 255.589 814.275 255.62 814.631 255.593C814.988 255.566 815.323 255.49 815.637 255.366C815.954 255.239 816.217 255.07 816.427 254.861L818.099 253.188C818.364 252.924 818.45 252.692 818.36 252.492C818.273 252.289 818.005 252.127 817.556 252.007C817.182 251.907 816.828 251.873 816.493 251.906C816.162 251.936 815.868 252.026 815.61 252.178L815.584 252.196L814.032 251.78L814.082 251.738C814.432 251.456 814.85 251.239 815.336 251.087C815.823 250.936 816.345 250.857 816.903 250.851C817.461 250.846 818.024 250.919 818.592 251.071C819.217 251.239 819.675 251.451 819.964 251.708C820.257 251.962 820.382 252.253 820.339 252.581C820.299 252.905 820.094 253.253 819.724 253.623L816.113 257.234L814.488 256.799L815.214 256.074L815.101 256.044C814.802 256.176 814.485 256.275 814.151 256.341C813.822 256.408 813.491 256.438 813.158 256.43C812.825 256.423 812.498 256.376 812.176 256.29ZM819.804 258.223L822.519 252.252L824.275 252.722L821.83 257.277L821.949 257.309L827.715 253.644L829.445 254.108L821.6 258.705L819.804 258.223ZM828.242 260.619C827.524 260.427 827.019 260.151 826.727 259.79C826.438 259.431 826.36 259.01 826.492 258.526C826.624 258.042 826.97 257.52 827.531 256.96L827.536 256.955C828.09 256.401 828.71 255.954 829.395 255.614C830.085 255.276 830.796 255.062 831.528 254.972C832.263 254.879 832.971 254.924 833.654 255.107C834.34 255.291 834.819 255.56 835.09 255.914C835.368 256.267 835.443 256.677 835.316 257.146C835.188 257.614 834.858 258.114 834.326 258.646L833.93 259.042L828.066 257.471L828.874 256.664L833.931 258.019L832.398 258.564L832.877 258.086C833.228 257.734 833.447 257.423 833.534 257.152C833.621 256.881 833.592 256.653 833.448 256.467C833.309 256.283 833.07 256.145 832.731 256.055C832.392 255.964 832.029 255.944 831.643 255.996C831.264 256.046 830.88 256.167 830.49 256.361C830.109 256.553 829.749 256.818 829.41 257.157L828.927 257.64C828.601 257.966 828.397 258.264 828.315 258.536C828.236 258.805 828.27 259.039 828.417 259.238C828.572 259.435 828.839 259.584 829.217 259.685C829.512 259.764 829.796 259.802 830.069 259.797C830.349 259.79 830.598 259.761 830.817 259.71C831.04 259.655 831.218 259.594 831.351 259.528L831.405 259.499L832.963 259.917L832.906 259.957C832.678 260.112 832.399 260.258 832.067 260.394C831.744 260.528 831.376 260.636 830.965 260.717C830.561 260.797 830.128 260.834 829.665 260.829C829.205 260.82 828.73 260.75 828.242 260.619ZM835.749 262.606C835.15 262.446 834.738 262.196 834.513 261.858C834.291 261.517 834.263 261.109 834.43 260.635C834.597 260.161 834.958 259.646 835.512 259.092L835.522 259.082C836.083 258.522 836.685 258.07 837.329 257.728C837.98 257.383 838.635 257.161 839.295 257.059C839.962 256.956 840.599 256.986 841.206 257.149C841.536 257.237 841.806 257.359 842.015 257.513C842.227 257.663 842.371 257.837 842.448 258.033C842.53 258.231 842.537 258.441 842.47 258.664L842.589 258.696L845.475 255.81L847.113 256.249L839.785 263.577L838.147 263.138L838.974 262.312L838.855 262.28C838.533 262.435 838.194 262.552 837.84 262.633C837.493 262.712 837.142 262.751 836.786 262.749C836.434 262.745 836.088 262.697 835.749 262.606ZM837.279 261.729C837.653 261.829 838.042 261.848 838.446 261.784C838.858 261.719 839.263 261.578 839.663 261.363C840.071 261.145 840.45 260.861 840.801 260.509L840.811 260.5C841.165 260.145 841.395 259.821 841.5 259.526C841.609 259.232 841.597 258.98 841.462 258.768C841.332 258.558 841.08 258.402 840.706 258.302C840.336 258.203 839.946 258.186 839.534 258.251C839.13 258.315 838.727 258.456 838.324 258.675C837.924 258.891 837.547 259.176 837.192 259.53L837.183 259.54C836.828 259.894 836.596 260.218 836.487 260.512C836.378 260.805 836.388 261.057 836.518 261.268C836.651 261.475 836.905 261.629 837.279 261.729Z" fill="#222222"/>
</g>
</g>
<defs>
<filter id="filter0_d_29_1166" x="653.708" y="194.698" width="340.351" height="133.169" filterUnits="userSpaceOnUse" color-interpolation-filters="sRGB">
<feFlood flood-opacity="0" result="BackgroundImageFix"/>
<feColorMatrix in="SourceAlpha" type="matrix" values="0 0 0 0 0 0 0 0 0 0 0 0 0 0 0 0 0 0 127 0" result="hardAlpha"/>
<feOffset dy="6"/>
<feGaussianBlur stdDeviation="8.5"/>
<feComposite in2="hardAlpha" operator="out"/>
<feColorMatrix type="matrix" values="0 0 0 0 0 0 0 0 0 0 0 0 0 0 0 0 0 0 0.08 0"/>
<feBlend mode="normal" in2="BackgroundImageFix" result="effect1_dropShadow_29_1166"/>
<feBlend mode="normal" in="SourceGraphic" in2="effect1_dropShadow_29_1166" result="shape"/>
</filter>
<clipPath id="clip0_29_1166">
<rect width="1024" height="426" rx="24" fill="white"/>
</clipPath>
</defs>
</svg>
