<svg width="1024" height="666" viewBox="0 0 1024 666" fill="none" xmlns="http://www.w3.org/2000/svg">
<g clip-path="url(#clip0_48_7257)">
<rect width="1024" height="666" rx="24" fill="white"/>
<path d="M59.9062 81.3907C57.7083 81.3907 55.8021 80.922 54.1875 79.9845C52.5833 79.047 51.3438 77.7085 50.4688 75.9689C49.6042 74.2189 49.1719 72.1355 49.1719 69.7189V69.7032C49.1719 67.2762 49.6094 65.198 50.4844 63.4689C51.3594 61.7293 52.599 60.396 54.2031 59.4689C55.8073 58.5314 57.7083 58.0626 59.9062 58.0626C61.7292 58.0626 63.3542 58.4168 64.7812 59.1251C66.2083 59.8335 67.3542 60.8074 68.2188 62.047C69.0833 63.2762 69.5885 64.6928 69.7344 66.297L69.75 66.4376H65.1562L65.0938 66.172C64.9167 65.3387 64.599 64.6147 64.1406 64.0001C63.6823 63.3855 63.0938 62.9116 62.375 62.5782C61.6667 62.2345 60.8438 62.0626 59.9062 62.0626C58.6979 62.0626 57.651 62.3699 56.7656 62.9845C55.8802 63.5991 55.1927 64.4793 54.7031 65.6251C54.224 66.7605 53.9844 68.1147 53.9844 69.6876V69.7032C53.9844 71.2866 54.224 72.6564 54.7031 73.8126C55.1927 74.9585 55.8802 75.8439 56.7656 76.4689C57.6615 77.0835 58.7083 77.3907 59.9062 77.3907C60.8125 77.3907 61.6198 77.2241 62.3281 76.8907C63.0469 76.5574 63.6458 76.0782 64.125 75.4532C64.6042 74.8178 64.9427 74.0522 65.1406 73.1564L65.1719 73.0001H69.7656L69.75 73.172C69.6042 74.7657 69.0938 76.1824 68.2188 77.422C67.3542 78.6616 66.2083 79.6355 64.7812 80.3439C63.3542 81.0418 61.7292 81.3907 59.9062 81.3907ZM77.1875 81.2657C76.0729 81.2657 75.0938 81.0522 74.25 80.6251C73.4062 80.1876 72.7448 79.5887 72.2656 78.8282C71.7969 78.0574 71.5625 77.1824 71.5625 76.2032V76.172C71.5625 75.1512 71.8177 74.2814 72.3281 73.5626C72.8385 72.8335 73.5781 72.2605 74.5469 71.8439C75.5156 71.4272 76.6927 71.172 78.0781 71.0782L84.6094 70.672V73.5157L78.7656 73.8907C77.8906 73.9428 77.224 74.1512 76.7656 74.5157C76.3073 74.8699 76.0781 75.3439 76.0781 75.9376V75.9689C76.0781 76.5835 76.3125 77.0678 76.7812 77.422C77.25 77.7657 77.8802 77.9376 78.6719 77.9376C79.349 77.9376 79.9531 77.8074 80.4844 77.547C81.026 77.2762 81.4479 76.9116 81.75 76.4532C82.0625 75.9845 82.2188 75.4585 82.2188 74.8751V69.797C82.2188 69.0574 81.9844 68.4741 81.5156 68.047C81.0469 67.6095 80.3646 67.3907 79.4688 67.3907C78.6146 67.3907 77.9375 67.5678 77.4375 67.922C76.9375 68.2762 76.6302 68.7241 76.5156 69.2657L76.4844 69.4064H72.3125L72.3281 69.2189C72.4115 68.1876 72.75 67.271 73.3438 66.4689C73.9479 65.6668 74.7812 65.0418 75.8438 64.5939C76.9167 64.1355 78.1875 63.9064 79.6562 63.9064C81.1042 63.9064 82.3594 64.1407 83.4219 64.6095C84.4844 65.0678 85.3073 65.7189 85.8906 66.5626C86.4844 67.4064 86.7812 68.3907 86.7812 69.5157V81.0001H82.2188V78.5001H82.125C81.8125 79.073 81.4062 79.5678 80.9062 79.9845C80.4167 80.3907 79.8594 80.7085 79.2344 80.9376C78.6094 81.1564 77.9271 81.2657 77.1875 81.2657ZM89.7344 81.0001V64.2501H94.2969V67.172H94.3906C94.6406 66.1407 95.0938 65.3387 95.75 64.7657C96.4062 64.1928 97.224 63.9064 98.2031 63.9064C98.4531 63.9064 98.6927 63.922 98.9219 63.9532C99.151 63.9845 99.349 64.0262 99.5156 64.0782V68.0939C99.3281 68.021 99.0885 67.9637 98.7969 67.922C98.5052 67.8699 98.1927 67.8439 97.8594 67.8439C97.1094 67.8439 96.4688 67.9897 95.9375 68.2814C95.4062 68.573 95 69.0001 94.7188 69.5626C94.4375 70.1251 94.2969 70.8126 94.2969 71.6251V81.0001H89.7344ZM107.062 81.3439C105.656 81.3439 104.443 80.9949 103.422 80.297C102.401 79.5991 101.615 78.5991 101.062 77.297C100.521 75.9949 100.25 74.4376 100.25 72.6251V72.6095C100.25 70.7866 100.526 69.2293 101.078 67.9376C101.63 66.6355 102.411 65.6407 103.422 64.9532C104.443 64.2553 105.656 63.9064 107.062 63.9064C107.854 63.9064 108.583 64.0366 109.25 64.297C109.917 64.5574 110.5 64.9324 111 65.422C111.51 65.9012 111.917 66.4793 112.219 67.1564H112.312V58.4532H116.875V81.0001H112.312V78.1407H112.219C111.927 78.8074 111.531 79.3803 111.031 79.8595C110.531 80.3282 109.948 80.6928 109.281 80.9532C108.615 81.2137 107.875 81.3439 107.062 81.3439ZM108.594 77.5626C109.333 77.5626 109.984 77.3647 110.547 76.9689C111.109 76.5626 111.547 75.9897 111.859 75.2501C112.172 74.5105 112.328 73.6355 112.328 72.6251V72.6095C112.328 71.5991 112.167 70.7293 111.844 70.0001C111.531 69.2605 111.094 68.6928 110.531 68.297C109.979 67.8907 109.333 67.6876 108.594 67.6876C107.833 67.6876 107.177 67.8855 106.625 68.2814C106.073 68.6772 105.646 69.2449 105.344 69.9845C105.042 70.7137 104.891 71.5887 104.891 72.6095V72.6251C104.891 73.6355 105.036 74.5105 105.328 75.2501C105.63 75.9897 106.057 76.5626 106.609 76.9689C107.172 77.3647 107.833 77.5626 108.594 77.5626Z" fill="#1B1D23"/>
<line x1="283.5" y1="640" x2="283.5" y2="19" stroke="#DDDDDD"/>
<rect x="404.5" y="189.5" width="499" height="287" rx="7.5" fill="white"/>
<rect x="404.5" y="189.5" width="499" height="287" rx="7.5" stroke="#DDDDDD"/>
</g>
<defs>
<clipPath id="clip0_48_7257">
<rect width="1024" height="666" rx="24" fill="white"/>
</clipPath>
</defs>
</svg>
