<svg width="1024" height="426" viewBox="0 0 1024 426" fill="none" xmlns="http://www.w3.org/2000/svg">
<g clip-path="url(#clip0_29_1320)">
<rect width="1024" height="426" rx="24" fill="white"/>
<path d="M303.5 232.75H-497.5C-501.228 232.75 -504.25 235.772 -504.25 239.5V296.5C-504.25 300.228 -501.228 303.25 -497.5 303.25H303.5C307.228 303.25 310.25 300.228 310.25 296.5V239.5C310.25 235.772 307.228 232.75 303.5 232.75Z" stroke="#DDDDDD"/>
<mask id="mask0_29_1320" style="mask-type:luminance" maskUnits="userSpaceOnUse" x="219" y="251" width="74" height="34">
<path d="M293 251.5H219.5V284.5H293V251.5Z" fill="white"/>
</mask>
<g mask="url(#mask0_29_1320)">
<path d="M224 252H288.5C290.709 252 292.5 253.791 292.5 256V280C292.5 282.209 290.709 284 288.5 284H224C221.791 284 220 282.209 220 280V256C220 253.791 221.791 252 224 252Z" stroke="#DDDDDD"/>
<path d="M230.215 260.286C231.28 260.286 232.143 261.149 232.143 262.214V264.143H230.215C229.15 264.143 228.285 263.279 228.285 262.214C228.285 261.149 229.15 260.286 230.215 260.286ZM233.429 264.143V262.214C233.429 260.439 231.989 259 230.215 259C228.439 259 227 260.439 227 262.214C227 263.989 228.439 265.429 230.215 265.429H232.143V270.571H230.215C228.439 270.571 227 272.011 227 273.786C227 275.561 228.439 277 230.215 277C231.989 277 233.429 275.561 233.429 273.786V271.857H238.571V273.786C238.571 275.561 240.011 277 241.785 277C243.561 277 245 275.561 245 273.786C245 272.011 243.561 270.571 241.785 270.571H239.857V265.429H241.785C243.561 265.429 245 263.989 245 262.214C245 260.439 243.561 259 241.785 259C240.011 259 238.571 260.439 238.571 262.214V264.143H233.429ZM233.429 265.429H238.571V270.571H233.429V265.429ZM239.857 264.143V262.214C239.857 261.149 240.72 260.286 241.785 260.286C242.85 260.286 243.715 261.149 243.715 262.214C243.715 263.279 242.85 264.143 241.785 264.143H239.857ZM239.857 271.857H241.785C242.85 271.857 243.715 272.721 243.715 273.786C243.715 274.851 242.85 275.714 241.785 275.714C240.72 275.714 239.857 274.851 239.857 273.786V271.857ZM232.143 271.857V273.786C232.143 274.851 231.28 275.714 230.215 275.714C229.15 275.714 228.285 274.851 228.285 273.786C228.285 272.721 229.15 271.857 230.215 271.857H232.143Z" fill="#DDDDDD"/>
<path d="M257.786 273.112H256.094V269.44H252.44V267.874H256.094V264.238H257.786V267.874H261.44V269.44H257.786V273.112Z" fill="#DDDDDD"/>
<path d="M276.146 274.75H274.166V261.826H276.146V267.802L281.618 261.826H283.904L278.144 268.162L284.048 274.75H281.564L276.146 268.756V274.75Z" fill="#DDDDDD"/>
</g>
<g filter="url(#filter0_d_29_1320)">
<rect width="500" height="288" rx="8" transform="matrix(0.965926 0.258819 -0.707107 0.707107 496.647 66)" fill="white"/>
<rect x="0.12941" y="0.482963" width="499" height="287" rx="7.5" transform="matrix(0.965926 0.258819 -0.707107 0.707107 496.993 66.108)" stroke="#DDDDDD"/>
</g>
<rect x="923.5" y="378.5" width="1" height="100" transform="rotate(-90 923.5 378.5)" fill="#484848"/>
<path d="M615.969 387.316C614.539 387.316 613.305 387.055 612.266 386.531C611.227 386.008 610.422 385.277 609.852 384.34C609.289 383.402 609.008 382.312 609.008 381.07V370.09H612.031V380.812C612.031 381.594 612.184 382.277 612.488 382.863C612.801 383.441 613.25 383.895 613.836 384.223C614.422 384.543 615.133 384.703 615.969 384.703C616.805 384.703 617.516 384.543 618.102 384.223C618.688 383.895 619.133 383.441 619.438 382.863C619.742 382.277 619.895 381.594 619.895 380.812V370.09H622.906V381.07C622.906 382.305 622.625 383.395 622.062 384.34C621.508 385.277 620.711 386.008 619.672 386.531C618.633 387.055 617.398 387.316 615.969 387.316ZM638.266 387V372.633H633.18V370.09H646.363V372.633H641.277V387H638.266ZM656.637 387V370.09H659.648V387H656.637ZM670.848 387V370.09H673.859V384.457H681.547V387H670.848ZM691.926 387V370.09H694.938V387H691.926ZM710.273 387V372.633H705.188V370.09H718.371V372.633H713.285V387H710.273ZM733.379 387V380.332L727.449 370.09H730.754L734.832 377.426H734.938L739.016 370.09H742.32L736.391 380.332V387H733.379ZM772.723 387.316C771.113 387.316 769.715 386.961 768.527 386.25C767.348 385.539 766.434 384.527 765.785 383.215C765.145 381.902 764.824 380.344 764.824 378.539V378.527C764.824 376.723 765.145 375.168 765.785 373.863C766.434 372.551 767.348 371.543 768.527 370.84C769.715 370.129 771.113 369.773 772.723 369.773C774.02 369.773 775.18 370.023 776.203 370.523C777.234 371.023 778.074 371.715 778.723 372.598C779.371 373.48 779.77 374.496 779.918 375.645L779.93 375.762H776.965L776.906 375.562C776.75 374.914 776.48 374.355 776.098 373.887C775.723 373.41 775.25 373.043 774.68 372.785C774.109 372.52 773.457 372.387 772.723 372.387C771.746 372.387 770.895 372.637 770.168 373.137C769.449 373.637 768.891 374.348 768.492 375.27C768.102 376.184 767.906 377.27 767.906 378.527V378.539C767.906 379.797 768.102 380.887 768.492 381.809C768.891 382.73 769.453 383.445 770.18 383.953C770.906 384.453 771.758 384.703 772.734 384.703C773.453 384.703 774.094 384.578 774.656 384.328C775.227 384.07 775.707 383.703 776.098 383.227C776.488 382.742 776.77 382.16 776.941 381.48L776.965 381.375H779.93L779.918 381.492C779.777 382.641 779.383 383.652 778.734 384.527C778.086 385.402 777.246 386.086 776.215 386.578C775.191 387.07 774.027 387.316 772.723 387.316ZM790.426 387V370.09H793.438V384.457H801.125V387H790.426ZM810.309 387L816.344 370.09H818.887V373.125H817.996L813.473 387H810.309ZM813.367 382.629L814.164 380.297H821.91L822.719 382.629H813.367ZM822.613 387L818.09 373.125V370.09H819.742L825.777 387H822.613ZM841.523 387.316C840.227 387.316 839.094 387.121 838.125 386.73C837.156 386.34 836.391 385.781 835.828 385.055C835.273 384.328 834.961 383.465 834.891 382.465L834.879 382.277H837.773L837.797 382.418C837.875 382.902 838.082 383.32 838.418 383.672C838.754 384.023 839.195 384.297 839.742 384.492C840.289 384.68 840.918 384.773 841.629 384.773C842.332 384.773 842.941 384.676 843.457 384.48C843.98 384.277 844.383 383.996 844.664 383.637C844.953 383.27 845.098 382.844 845.098 382.359V382.348C845.098 381.723 844.859 381.223 844.383 380.848C843.914 380.473 843.133 380.172 842.039 379.945L840.223 379.57C838.551 379.219 837.305 378.648 836.484 377.859C835.664 377.07 835.254 376.047 835.254 374.789V374.777C835.262 373.777 835.531 372.906 836.062 372.164C836.602 371.414 837.344 370.828 838.289 370.406C839.234 369.984 840.312 369.773 841.523 369.773C842.758 369.773 843.832 369.977 844.746 370.383C845.668 370.789 846.391 371.355 846.914 372.082C847.445 372.809 847.738 373.648 847.793 374.602L847.805 374.789H844.922L844.898 374.648C844.828 374.164 844.645 373.75 844.348 373.406C844.059 373.055 843.672 372.785 843.188 372.598C842.703 372.41 842.141 372.316 841.5 372.316C840.852 372.316 840.285 372.414 839.801 372.609C839.324 372.797 838.953 373.062 838.688 373.406C838.422 373.75 838.289 374.152 838.289 374.613V374.625C838.289 375.219 838.527 375.703 839.004 376.078C839.48 376.445 840.23 376.738 841.254 376.957L843.082 377.332C844.254 377.574 845.211 377.902 845.953 378.316C846.695 378.73 847.242 379.25 847.594 379.875C847.953 380.492 848.133 381.238 848.133 382.113V382.125C848.133 383.18 847.867 384.098 847.336 384.879C846.805 385.66 846.047 386.262 845.062 386.684C844.078 387.105 842.898 387.316 841.523 387.316ZM864.523 387.316C863.227 387.316 862.094 387.121 861.125 386.73C860.156 386.34 859.391 385.781 858.828 385.055C858.273 384.328 857.961 383.465 857.891 382.465L857.879 382.277H860.773L860.797 382.418C860.875 382.902 861.082 383.32 861.418 383.672C861.754 384.023 862.195 384.297 862.742 384.492C863.289 384.68 863.918 384.773 864.629 384.773C865.332 384.773 865.941 384.676 866.457 384.48C866.98 384.277 867.383 383.996 867.664 383.637C867.953 383.27 868.098 382.844 868.098 382.359V382.348C868.098 381.723 867.859 381.223 867.383 380.848C866.914 380.473 866.133 380.172 865.039 379.945L863.223 379.57C861.551 379.219 860.305 378.648 859.484 377.859C858.664 377.07 858.254 376.047 858.254 374.789V374.777C858.262 373.777 858.531 372.906 859.062 372.164C859.602 371.414 860.344 370.828 861.289 370.406C862.234 369.984 863.312 369.773 864.523 369.773C865.758 369.773 866.832 369.977 867.746 370.383C868.668 370.789 869.391 371.355 869.914 372.082C870.445 372.809 870.738 373.648 870.793 374.602L870.805 374.789H867.922L867.898 374.648C867.828 374.164 867.645 373.75 867.348 373.406C867.059 373.055 866.672 372.785 866.188 372.598C865.703 372.41 865.141 372.316 864.5 372.316C863.852 372.316 863.285 372.414 862.801 372.609C862.324 372.797 861.953 373.062 861.688 373.406C861.422 373.75 861.289 374.152 861.289 374.613V374.625C861.289 375.219 861.527 375.703 862.004 376.078C862.48 376.445 863.23 376.738 864.254 376.957L866.082 377.332C867.254 377.574 868.211 377.902 868.953 378.316C869.695 378.73 870.242 379.25 870.594 379.875C870.953 380.492 871.133 381.238 871.133 382.113V382.125C871.133 383.18 870.867 384.098 870.336 384.879C869.805 385.66 869.047 386.262 868.062 386.684C867.078 387.105 865.898 387.316 864.523 387.316Z" fill="#484848"/>
<path d="M39.375 245.465C32.2266 245.465 26.0742 243.688 20.918 240.133C15.7617 236.578 11.7969 231.539 9.02344 225.016C6.28906 218.453 4.92188 210.699 4.92188 201.754V201.637C4.92188 192.652 6.28906 184.898 9.02344 178.375C11.7969 171.852 15.7617 166.832 20.918 163.316C26.0742 159.762 32.2266 157.984 39.375 157.984C46.5234 157.984 52.6562 159.762 57.7734 163.316C62.9297 166.832 66.8945 171.852 69.668 178.375C72.4414 184.898 73.8281 192.652 73.8281 201.637V201.754C73.8281 210.699 72.4414 218.453 69.668 225.016C66.8945 231.539 62.9297 236.578 57.7734 240.133C52.6562 243.688 46.5234 245.465 39.375 245.465ZM39.375 231.285C42.8906 231.285 45.8789 230.113 48.3398 227.77C50.8008 225.426 52.6758 222.047 53.9648 217.633C55.293 213.219 55.957 207.926 55.957 201.754V201.637C55.957 195.426 55.293 190.133 53.9648 185.758C52.6758 181.344 50.8008 177.984 48.3398 175.68C45.8789 173.336 42.8906 172.164 39.375 172.164C35.8594 172.164 32.8516 173.336 30.3516 175.68C27.8906 177.984 26.0156 181.344 24.7266 185.758C23.4375 190.133 22.793 195.426 22.793 201.637V201.754C22.793 207.926 23.4375 213.219 24.7266 217.633C26.0156 222.047 27.8906 225.426 30.3516 227.77C32.8516 230.113 35.8594 231.285 39.375 231.285ZM113.429 245.465C106.71 245.465 100.792 244.43 95.6752 242.359C90.558 240.289 86.5541 237.418 83.6635 233.746C80.7729 230.035 79.3276 225.758 79.3276 220.914V220.797C79.3276 217.125 80.1674 213.824 81.8471 210.895C83.5268 207.965 85.8315 205.523 88.7612 203.57C91.6908 201.617 95.0502 200.27 98.8393 199.527V199.176C93.9565 197.965 89.9916 195.719 86.9448 192.438C83.9369 189.117 82.433 185.191 82.433 180.66V180.543C82.433 176.168 83.7416 172.301 86.3588 168.941C88.976 165.543 92.6088 162.867 97.2573 160.914C101.945 158.961 107.335 157.984 113.429 157.984C119.523 157.984 124.894 158.961 129.542 160.914C134.191 162.867 137.824 165.543 140.441 168.941C143.097 172.301 144.425 176.168 144.425 180.543V180.66C144.425 185.191 142.902 189.117 139.855 192.438C136.847 195.719 132.902 197.965 128.019 199.176V199.527C131.808 200.27 135.167 201.617 138.097 203.57C141.027 205.523 143.312 207.965 144.953 210.895C146.632 213.824 147.472 217.125 147.472 220.797V220.914C147.472 225.758 146.027 230.035 143.136 233.746C140.285 237.418 136.3 240.289 131.183 242.359C126.066 244.43 120.148 245.465 113.429 245.465ZM113.429 232.574C116.515 232.574 119.23 232.027 121.574 230.934C123.917 229.84 125.753 228.316 127.081 226.363C128.449 224.41 129.132 222.203 129.132 219.742V219.625C129.132 217.125 128.468 214.898 127.14 212.945C125.812 210.992 123.956 209.469 121.574 208.375C119.23 207.242 116.515 206.676 113.429 206.676C110.304 206.676 107.55 207.242 105.167 208.375C102.824 209.469 100.988 210.992 99.6596 212.945C98.3315 214.898 97.6674 217.125 97.6674 219.625V219.742C97.6674 222.203 98.3315 224.41 99.6596 226.363C101.027 228.316 102.882 229.84 105.226 230.934C107.609 232.027 110.343 232.574 113.429 232.574ZM113.429 193.844C116.085 193.844 118.429 193.355 120.46 192.379C122.492 191.402 124.074 190.055 125.206 188.336C126.339 186.578 126.906 184.566 126.906 182.301V182.184C126.906 179.918 126.32 177.926 125.148 176.207C124.015 174.488 122.433 173.16 120.402 172.223C118.371 171.246 116.046 170.758 113.429 170.758C110.773 170.758 108.429 171.246 106.398 172.223C104.367 173.16 102.765 174.488 101.593 176.207C100.46 177.926 99.894 179.918 99.894 182.184V182.301C99.894 184.566 100.46 186.578 101.593 188.336C102.765 190.055 104.367 191.402 106.398 192.379C108.429 193.355 110.773 193.844 113.429 193.844Z" fill="#EEEFF4"/>
<path d="M75.7891 227.879C70.8438 227.879 66.5547 226.824 62.9219 224.715C59.3125 222.605 56.5234 219.594 54.5547 215.68C52.6094 211.742 51.6367 207.055 51.6367 201.617V201.582C51.6367 196.121 52.6211 191.445 54.5898 187.555C56.5586 183.641 59.3477 180.641 62.957 178.555C66.5664 176.445 70.8438 175.391 75.7891 175.391C79.8906 175.391 83.5469 176.188 86.7578 177.781C89.9688 179.375 92.5469 181.566 94.4922 184.355C96.4375 187.121 97.5742 190.309 97.9023 193.918L97.9375 194.234H87.6016L87.4609 193.637C87.0625 191.762 86.3477 190.133 85.3164 188.75C84.2852 187.367 82.9609 186.301 81.3438 185.551C79.75 184.777 77.8984 184.391 75.7891 184.391C73.0703 184.391 70.7148 185.082 68.7227 186.465C66.7305 187.848 65.1836 189.828 64.082 192.406C63.0039 194.961 62.4648 198.008 62.4648 201.547V201.582C62.4648 205.145 63.0039 208.227 64.082 210.828C65.1836 213.406 66.7305 215.398 68.7227 216.805C70.7383 218.188 73.0938 218.879 75.7891 218.879C77.8281 218.879 79.6445 218.504 81.2383 217.754C82.8555 217.004 84.2031 215.926 85.2812 214.52C86.3594 213.09 87.1211 211.367 87.5664 209.352L87.6367 209H97.9727L97.9375 209.387C97.6094 212.973 96.4609 216.16 94.4922 218.949C92.5469 221.738 89.9688 223.93 86.7578 225.523C83.5469 227.094 79.8906 227.879 75.7891 227.879ZM113.243 227.598C110.735 227.598 108.532 227.117 106.634 226.156C104.735 225.172 103.247 223.824 102.169 222.113C101.114 220.379 100.587 218.41 100.587 216.207V216.137C100.587 213.84 101.161 211.883 102.31 210.266C103.458 208.625 105.122 207.336 107.302 206.398C109.482 205.461 112.13 204.887 115.247 204.676L129.943 203.762V210.16L116.794 211.004C114.825 211.121 113.325 211.59 112.294 212.41C111.263 213.207 110.747 214.273 110.747 215.609V215.68C110.747 217.062 111.275 218.152 112.329 218.949C113.384 219.723 114.802 220.109 116.583 220.109C118.107 220.109 119.466 219.816 120.661 219.23C121.88 218.621 122.829 217.801 123.509 216.77C124.212 215.715 124.564 214.531 124.564 213.219V201.793C124.564 200.129 124.036 198.816 122.982 197.855C121.927 196.871 120.392 196.379 118.376 196.379C116.454 196.379 114.931 196.777 113.806 197.574C112.681 198.371 111.989 199.379 111.732 200.598L111.661 200.914H102.275L102.31 200.492C102.497 198.172 103.259 196.109 104.595 194.305C105.954 192.5 107.829 191.094 110.22 190.086C112.634 189.055 115.493 188.539 118.798 188.539C122.056 188.539 124.88 189.066 127.271 190.121C129.661 191.152 131.513 192.617 132.825 194.516C134.161 196.414 134.829 198.629 134.829 201.16V227H124.564V221.375H124.353C123.65 222.664 122.735 223.777 121.61 224.715C120.509 225.629 119.255 226.344 117.849 226.859C116.443 227.352 114.907 227.598 113.243 227.598ZM140.045 227V189.312H150.311V195.887H150.522C151.084 193.566 152.104 191.762 153.58 190.473C155.057 189.184 156.897 188.539 159.1 188.539C159.662 188.539 160.201 188.574 160.717 188.645C161.233 188.715 161.678 188.809 162.053 188.926V197.961C161.631 197.797 161.092 197.668 160.436 197.574C159.78 197.457 159.076 197.398 158.326 197.398C156.639 197.398 155.198 197.727 154.002 198.383C152.807 199.039 151.893 200 151.26 201.266C150.627 202.531 150.311 204.078 150.311 205.906V227H140.045ZM177.605 227.773C174.441 227.773 171.71 226.988 169.414 225.418C167.117 223.848 165.347 221.598 164.105 218.668C162.886 215.738 162.277 212.234 162.277 208.156V208.121C162.277 204.02 162.898 200.516 164.14 197.609C165.382 194.68 167.14 192.441 169.414 190.895C171.71 189.324 174.441 188.539 177.605 188.539C179.386 188.539 181.027 188.832 182.527 189.418C184.027 190.004 185.339 190.848 186.464 191.949C187.613 193.027 188.527 194.328 189.206 195.852H189.417V176.27H199.683V227H189.417V220.566H189.206C188.55 222.066 187.66 223.355 186.535 224.434C185.41 225.488 184.097 226.309 182.597 226.895C181.097 227.48 179.433 227.773 177.605 227.773ZM181.05 219.266C182.714 219.266 184.179 218.82 185.445 217.93C186.71 217.016 187.695 215.727 188.398 214.062C189.101 212.398 189.453 210.43 189.453 208.156V208.121C189.453 205.848 189.089 203.891 188.363 202.25C187.66 200.586 186.675 199.309 185.41 198.418C184.167 197.504 182.714 197.047 181.05 197.047C179.339 197.047 177.863 197.492 176.621 198.383C175.378 199.273 174.417 200.551 173.738 202.215C173.058 203.855 172.718 205.824 172.718 208.121V208.156C172.718 210.43 173.046 212.398 173.703 214.062C174.382 215.727 175.343 217.016 176.585 217.93C177.851 218.82 179.339 219.266 181.05 219.266Z" fill="#1B1D23"/>
</g>
<defs>
<filter id="filter0_d_29_1320" x="277" y="56" width="718.61" height="365.056" filterUnits="userSpaceOnUse" color-interpolation-filters="sRGB">
<feFlood flood-opacity="0" result="BackgroundImageFix"/>
<feColorMatrix in="SourceAlpha" type="matrix" values="0 0 0 0 0 0 0 0 0 0 0 0 0 0 0 0 0 0 127 0" result="hardAlpha"/>
<feOffset dy="6"/>
<feGaussianBlur stdDeviation="8"/>
<feComposite in2="hardAlpha" operator="out"/>
<feColorMatrix type="matrix" values="0 0 0 0 0.0666667 0 0 0 0 0.0666667 0 0 0 0 0.0666667 0 0 0 0.14 0"/>
<feBlend mode="normal" in2="BackgroundImageFix" result="effect1_dropShadow_29_1320"/>
<feBlend mode="normal" in="SourceGraphic" in2="effect1_dropShadow_29_1320" result="shape"/>
</filter>
<clipPath id="clip0_29_1320">
<rect width="1024" height="426" rx="24" fill="white"/>
</clipPath>
</defs>
</svg>
