<svg xmlns="http://www.w3.org/2000/svg" width="12" height="14" viewBox="0 0 12 14" fill="none">
  <path d="M4.99965 2.33213C4.99965 2.7597 5.26792 3.12462 5.64532 3.26774C5.87823 3.32441 6.12147 3.32443 6.3544 3.26781C6.73189 3.12474 7.00024 2.75977 7.00024 2.33213C7.00024 1.77969 6.5524 1.33184 5.99995 1.33184C5.4475 1.33184 4.99965 1.77969 4.99965 2.33213ZM4.01688 2.59805C4.00532 2.51106 3.99936 2.42229 3.99936 2.33213C3.99936 1.22724 4.89505 0.331543 5.99995 0.331543C7.10485 0.331543 8.00054 1.22724 8.00054 2.33213C8.00054 2.42231 7.99457 2.51109 7.98302 2.5981L9.90123 1.78386C10.6636 1.46028 11.547 1.81345 11.8761 2.57338C12.2064 3.33594 11.8535 4.21874 11.0885 4.54345L8.66908 5.57044V8.04927L9.91902 11.6794C10.1888 12.4629 9.77235 13.3168 8.98882 13.5866C8.2053 13.8563 7.35142 13.4399 7.08163 12.6564L6.00006 9.51525L4.91854 12.6562C4.64875 13.4397 3.79487 13.8562 3.01135 13.5864C2.22783 13.3166 1.81136 12.4627 2.08115 11.6792L3.33417 8.04017V5.57182L0.911479 4.54345C0.146533 4.21874 -0.206398 3.33594 0.123886 2.57338C0.453035 1.81345 1.33645 1.46028 2.09877 1.78386L4.01688 2.59805ZM5.34779 4.22402C5.23768 4.19427 5.12911 4.15685 5.02288 4.11176L1.70792 2.70464C1.45151 2.5958 1.15249 2.71534 1.04178 2.97095C0.932204 3.22394 1.04854 3.51494 1.30233 3.62267L3.8266 4.69416C4.13451 4.82486 4.33447 5.12697 4.33447 5.46147V8.06807C4.33447 8.16042 4.31912 8.25213 4.28905 8.33945L3.02695 12.0049C2.93702 12.2661 3.07584 12.5507 3.33701 12.6406C3.59819 12.7305 3.88282 12.5917 3.97275 12.3305L5.37871 8.24733C5.58245 7.65514 6.41844 7.65746 6.62134 8.24711L8.02743 12.3307C8.11736 12.5919 8.40198 12.7307 8.66316 12.6408C8.92433 12.5508 9.06315 12.2662 8.97322 12.005L7.7142 8.34856C7.68413 8.26124 7.66879 8.16953 7.66879 8.07717V5.46009C7.66879 5.12558 7.86875 4.82348 8.17666 4.69277L10.6977 3.62267C10.9515 3.51494 11.0678 3.22394 10.9582 2.97095C10.8475 2.71534 10.5485 2.5958 10.2921 2.70464L6.97712 4.11176C6.87074 4.15691 6.76201 4.19438 6.65174 4.22415C6.44743 4.29452 6.22815 4.33272 5.99995 4.33272C5.77161 4.33272 5.5522 4.29447 5.34779 4.22402Z" fill="#5E5E5E"/>
</svg>