<svg xmlns="http://www.w3.org/2000/svg" width="13" height="14" viewBox="0 0 13 14" fill="none">
  <path d="M7.14916 10.4138C7.14916 10.0552 6.8585 9.76454 6.49995 9.76454C6.1414 9.76454 5.85073 10.0552 5.85073 10.4138C5.85073 10.7723 6.1414 11.063 6.49995 11.063C6.8585 11.063 7.14916 10.7723 7.14916 10.4138ZM6.98066 5.30849C6.94819 5.07054 6.74405 4.88728 6.49722 4.88748C6.22794 4.88769 6.00983 5.10616 6.01005 5.37543L6.01239 8.30183L6.01689 8.36799C6.04936 8.60594 6.2535 8.7892 6.50034 8.789C6.76961 8.78879 6.98772 8.57033 6.98751 8.30105L6.98517 5.37465L6.98066 5.30849ZM7.77973 1.74097C7.2231 0.734771 5.77656 0.734784 5.21994 1.741L0.184873 10.8431C-0.354408 11.818 0.350686 13.0138 1.46478 13.0138H11.5352C12.6493 13.0138 13.3544 11.8179 12.8151 10.8431L7.77973 1.74097ZM6.07321 2.21301C6.25875 1.8776 6.74093 1.8776 6.92648 2.213L11.9619 11.3151C12.1416 11.6401 11.9066 12.0387 11.5352 12.0387H1.46478C1.09341 12.0387 0.858384 11.6401 1.03814 11.3151L6.07321 2.21301Z" fill="#5E5E5E"/>
</svg>