<svg xmlns="http://www.w3.org/2000/svg" width="13" height="12" viewBox="0 0 13 12" fill="none">
  <path d="M11.5375 0.79834C12.3452 0.79834 13 1.45312 13 2.26084V9.73882C13 10.5465 12.3452 11.2013 11.5375 11.2013H1.4625C0.654783 11.2013 0 10.5465 0 9.73882V2.26084C0 1.45312 0.654783 0.79834 1.4625 0.79834H11.5375ZM11.5375 1.77334H1.4625C1.19326 1.77334 0.975 1.9916 0.975 2.26084V9.73882C0.975 10.0081 1.19326 10.2263 1.4625 10.2263H11.5375C11.8067 10.2263 12.025 10.0081 12.025 9.73882V2.26084C12.025 1.9916 11.8067 1.77334 11.5375 1.77334ZM5.0375 6.32334C5.30674 6.32334 5.525 6.5416 5.525 6.81084V7.13112L5.51987 7.20167C5.41406 7.92508 4.80849 8.27395 3.89997 8.27395C2.99139 8.27395 2.38581 7.92472 2.28012 7.20092L2.275 7.13048V6.81084C2.275 6.5416 2.49326 6.32334 2.7625 6.32334H5.0375ZM7.31399 6.64583H10.2375C10.5067 6.64583 10.725 6.86409 10.725 7.13333C10.725 7.38013 10.5416 7.5841 10.3037 7.61638L10.2375 7.62083H7.31399C7.04475 7.62083 6.82649 7.40257 6.82649 7.13333C6.82649 6.88653 7.00989 6.68256 7.24784 6.65028L7.31399 6.64583H10.2375H7.31399ZM3.9 3.72476C4.43847 3.72476 4.87498 4.16127 4.87498 4.69974C4.87498 5.23821 4.43847 5.67472 3.9 5.67472C3.36153 5.67472 2.92502 5.23821 2.92502 4.69974C2.92502 4.16127 3.36153 3.72476 3.9 3.72476ZM7.31399 4.37334H10.2375C10.5067 4.37334 10.725 4.5916 10.725 4.86084C10.725 5.10764 10.5416 5.31161 10.3037 5.34389L10.2375 5.34834H7.31399C7.04475 5.34834 6.82649 5.13008 6.82649 4.86084C6.82649 4.61404 7.00989 4.41007 7.24784 4.37779L7.31399 4.37334H10.2375H7.31399Z" fill="#A6A6A6"/>
</svg>