<svg xmlns="http://www.w3.org/2000/svg" width="14" height="14" viewBox="0 0 14 14" fill="none">
  <path d="M4.20486 9.97804C4.59189 9.97804 4.90565 9.66429 4.90565 9.27726C4.90565 8.89022 4.59189 8.57647 4.20486 8.57647C3.81782 8.57647 3.50407 8.89022 3.50407 9.27726C3.50407 9.66429 3.81782 9.97804 4.20486 9.97804ZM10.5118 9.27726C10.5118 9.66429 10.198 9.97804 9.811 9.97804C9.42397 9.97804 9.11021 9.66429 9.11021 9.27726C9.11021 8.89022 9.42397 8.57647 9.811 8.57647C10.198 8.57647 10.5118 8.89022 10.5118 9.27726ZM6.13203 2.26936C5.84175 2.26936 5.60644 2.50468 5.60644 2.79495C5.60644 3.08523 5.84175 3.32054 6.13203 3.32054H7.884C8.17428 3.32054 8.4096 3.08523 8.4096 2.79495C8.4096 2.50468 8.17428 2.26936 7.884 2.26936H6.13203ZM4.02966 0.166992C2.57828 0.166992 1.4017 1.34357 1.4017 2.79495V5.42291H0.525592C0.235316 5.42291 0 5.65823 0 5.94851C0 6.23878 0.235316 6.4741 0.525592 6.4741H1.4017V12.606C1.4017 13.2833 1.95077 13.8324 2.62808 13.8324H3.67927C4.35658 13.8324 4.90565 13.2833 4.90565 12.606V11.73H9.11038V12.606C9.11038 13.2833 9.65946 13.8324 10.3368 13.8324H11.388C12.0653 13.8324 12.6143 13.2833 12.6143 12.606V6.4741H13.4744C13.7647 6.4741 14 6.23878 14 5.94851C14 5.65823 13.7647 5.42291 13.4744 5.42291H12.6143V2.79495C12.6143 1.34357 11.4378 0.166992 9.98637 0.166992H4.02966ZM11.5631 11.73V12.606C11.5631 12.7028 11.4847 12.7812 11.388 12.7812H10.3368C10.24 12.7812 10.1616 12.7028 10.1616 12.606V11.73H11.5631ZM11.5631 10.6788H2.45288V7.87568H11.5631V10.6788ZM2.45288 12.606V11.73H3.85446V12.606C3.85446 12.7028 3.77603 12.7812 3.67927 12.7812H2.62808C2.53132 12.7812 2.45288 12.7028 2.45288 12.606ZM2.45288 2.79495C2.45288 1.92412 3.15883 1.21818 4.02966 1.21818H9.98637C10.8572 1.21818 11.5631 1.92412 11.5631 2.79495V6.82449H2.45288V2.79495Z" fill="#A6A6A6"/>
</svg>