<svg xmlns="http://www.w3.org/2000/svg" width="14" height="14" viewBox="0 0 14 14" fill="none">
  <path d="M0.132821 0.274389L0.198412 0.198412C0.43891 -0.0420873 0.815252 -0.0639507 1.08045 0.132821L1.15643 0.198412L7 6.04168L12.8436 0.198412C13.1081 -0.0661372 13.537 -0.0661372 13.8016 0.198412C14.0661 0.46296 14.0661 0.891879 13.8016 1.15643L7.95832 7L13.8016 12.8436C14.0421 13.0841 14.064 13.4604 13.8672 13.7256L13.8016 13.8016C13.5611 14.0421 13.1847 14.064 12.9196 13.8672L12.8436 13.8016L7 7.95832L1.15643 13.8016C0.891879 14.0661 0.46296 14.0661 0.198412 13.8016C-0.0661372 13.537 -0.0661372 13.1081 0.198412 12.8436L6.04168 7L0.198412 1.15643C-0.0420873 0.915928 -0.0639507 0.539587 0.132821 0.274389L0.198412 0.198412L0.132821 0.274389Z" fill="#1F1F1F"/>
</svg>