<svg
    xmlns="http://www.w3.org/2000/svg"
    width="12"
    height="12"
    viewBox="0 0 12 12"
    fill="none"
>
    <path
    d="M2.14286 0.857143C2.85294 0.857143 3.42857 1.43278 3.42857 2.14286V3.42857H2.14286C1.43278 3.42857 0.857143 2.85294 0.857143 2.14286C0.857143 1.43278 1.43278 0.857143 2.14286 0.857143ZM4.28571 3.42857V2.14286C4.28571 0.95939 3.32632 0 2.14286 0C0.95939 0 0 0.95939 0 2.14286C0 3.32632 0.95939 4.28571 2.14286 4.28571H3.42857V7.71429H2.14286C0.95939 7.71429 0 8.67368 0 9.85714C0 11.0406 0.95939 12 2.14286 12C3.32632 12 4.28571 11.0406 4.28571 9.85714V8.57143H7.71429V9.85714C7.71429 11.0406 8.67368 12 9.85714 12C11.0406 12 12 11.0406 12 9.85714C12 8.67368 11.0406 7.71429 9.85714 7.71429H8.57143V4.28571H9.85714C11.0406 4.28571 12 3.32632 12 2.14286C12 0.95939 11.0406 0 9.85714 0C8.67368 0 7.71429 0.95939 7.71429 2.14286V3.42857H4.28571ZM4.28571 4.28571H7.71429V7.71429H4.28571V4.28571ZM8.57143 3.42857V2.14286C8.57143 1.43278 9.14706 0.857143 9.85714 0.857143C10.5672 0.857143 11.1429 1.43278 11.1429 2.14286C11.1429 2.85294 10.5672 3.42857 9.85714 3.42857H8.57143ZM8.57143 8.57143H9.85714C10.5672 8.57143 11.1429 9.14706 11.1429 9.85714C11.1429 10.5672 10.5672 11.1429 9.85714 11.1429C9.14706 11.1429 8.57143 10.5672 8.57143 9.85714V8.57143ZM3.42857 8.57143V9.85714C3.42857 10.5672 2.85294 11.1429 2.14286 11.1429C1.43278 11.1429 0.857143 10.5672 0.857143 9.85714C0.857143 9.14706 1.43278 8.57143 2.14286 8.57143H3.42857Z"
    fill="#161616"
    />
</svg>