<svg xmlns="http://www.w3.org/2000/svg" width="28" height="29" viewBox="0 0 28 29" fill="none">
  <path d="M4 7.68182C4 7.30526 4.27982 7 4.625 7H23.375C23.7202 7 24 7.30526 24 7.68182C24 8.05838 23.7202 8.36364 23.375 8.36364H4.625C4.27982 8.36364 4 8.05838 4 7.68182ZM4 14.5C4 14.1234 4.27982 13.8182 4.625 13.8182H23.375C23.7202 13.8182 24 14.1234 24 14.5C24 14.8766 23.7202 15.1818 23.375 15.1818H4.625C4.27982 15.1818 4 14.8766 4 14.5ZM4.625 20.6364C4.27982 20.6364 4 20.9416 4 21.3182C4 21.6947 4.27982 22 4.625 22H23.375C23.7202 22 24 21.6947 24 21.3182C24 20.9416 23.7202 20.6364 23.375 20.6364H4.625Z" fill="black"/>
</svg>