<svg xmlns="http://www.w3.org/2000/svg" width="32" height="32" viewBox="0 0 32 32" fill="none">
  <g clip-path="url(#clip0_487_2313)">
    <mask id="mask0_487_2313" style="mask-type:luminance" maskUnits="userSpaceOnUse" x="0" y="0" width="32" height="32">
      <path d="M32 0H0V32H32V0Z" fill="white"/>
    </mask>
    <g mask="url(#mask0_487_2313)">
      <path d="M24 0H8C3.58172 0 0 3.58172 0 8V24C0 28.4183 3.58172 32 8 32H24C28.4183 32 32 28.4183 32 24V8C32 3.58172 28.4183 0 24 0Z" fill="url(#paint0_linear_487_2313)"/>
      <path d="M8.21197 24.8H14.0022C14.3433 24.8 14.5967 24.4842 14.5229 24.1512L12.2415 13.8574C12.1248 13.331 11.39 13.2904 11.216 13.8008L7.70717 24.0945C7.58922 24.4405 7.84642 24.8 8.21197 24.8Z" fill="white"/>
      <path d="M20.2369 7.4668H13.9989C13.6575 7.4668 13.404 7.78312 13.4784 8.11632L17.1093 24.383C17.1638 24.6268 17.3801 24.8001 17.6299 24.8001H23.8679C24.2093 24.8001 24.4628 24.4838 24.3884 24.1506L20.7574 7.88394C20.703 7.64016 20.4867 7.4668 20.2369 7.4668Z" fill="white" stroke="white"/>
    </g>
  </g>
  <defs>
    <linearGradient id="paint0_linear_487_2313" x1="10.9333" y1="11.6" x2="34.8" y2="38" gradientUnits="userSpaceOnUse">
      <stop stop-color="#F2834B"/>
      <stop offset="0.4362" stop-color="#F1666D"/>
    </linearGradient>
    <clipPath id="clip0_487_2313">
      <rect width="32" height="32" fill="white"/>
    </clipPath>
  </defs>
</svg>