<svg xmlns="http://www.w3.org/2000/svg" width="32" height="32" viewBox="0 0 32 32" fill="none">
  <path d="M24 0H8C3.58172 0 0 3.58172 0 8V24C0 28.4183 3.58172 32 8 32H24C28.4183 32 32 28.4183 32 24V8C32 3.58172 28.4183 0 24 0Z" fill="url(#paint0_linear_2953_2803)"/>
  <path d="M8.21148 24.8H14.0017C14.3428 24.8 14.5963 24.4842 14.5224 24.1512L12.241 13.8574C12.1244 13.331 11.3895 13.2904 11.2155 13.8008L7.70668 24.0945C7.58873 24.4405 7.84593 24.8 8.21148 24.8Z" fill="white"/>
  <path d="M20.2364 7.4668H13.9984C13.657 7.4668 13.4035 7.78312 13.4779 8.11632L17.1089 24.383C17.1633 24.6268 17.3796 24.8001 17.6294 24.8001H23.8674C24.2088 24.8001 24.4623 24.4838 24.3879 24.1506L20.7569 7.88394C20.7025 7.64016 20.4862 7.4668 20.2364 7.4668Z" fill="white" stroke="white"/>
  <defs>
    <linearGradient id="paint0_linear_2953_2803" x1="10.9333" y1="11.6" x2="34.8" y2="38" gradientUnits="userSpaceOnUse">
      <stop stop-color="#E5421E"/>
      <stop offset="0.4362" stop-color="#D82108"/>
    </linearGradient>
  </defs>
</svg>