<svg xmlns="http://www.w3.org/2000/svg" width="129" height="32" viewBox="0 0 129 32" fill="none">
  <path d="M53.1523 14L52.1123 11.152H47.1523L46.0963 14H44.3203L48.7203 2.51202H50.6563L55.0243 14H53.1523ZM49.6483 4.43202L47.6803 9.72802H51.5843L49.6483 4.43202ZM61.0193 12.432V13.856C60.5233 14.08 60.0913 14.16 59.5793 14.16C58.0113 14.16 56.9233 13.312 56.9233 11.44V6.89602H55.0513V5.52002H56.9233V3.00802H58.5393V5.52002H61.0993V6.89602H58.5393V11.072C58.5393 12.24 59.0993 12.656 59.9633 12.656C60.3473 12.656 60.6833 12.592 61.0193 12.432ZM64.5135 14H62.8815V2.51202H64.5135V14ZM72.1325 14V12.688C71.6045 13.632 70.6605 14.16 69.4125 14.16C67.6525 14.16 66.5005 13.152 66.5005 11.6C66.5005 9.93602 67.8285 9.07202 70.3565 9.07202C70.8525 9.07202 71.2525 9.08802 71.9405 9.16802V8.54402C71.9405 7.32802 71.2845 6.64002 70.1645 6.64002C68.9805 6.64002 68.2605 7.34402 68.2125 8.52802H66.7405C66.8205 6.62402 68.1805 5.36002 70.1645 5.36002C72.2605 5.36002 73.4765 6.54402 73.4765 8.56002V14H72.1325ZM68.0365 11.552C68.0365 12.432 68.6925 13.008 69.7325 13.008C71.0925 13.008 71.9405 12.16 71.9405 10.864V10.176C71.3165 10.096 70.8685 10.08 70.4525 10.08C68.8365 10.08 68.0365 10.56 68.0365 11.552ZM77.4932 9.21602V14H75.8772V5.52002H77.3812V6.92802C77.9572 5.98402 78.9172 5.36002 80.0852 5.36002C81.8292 5.36002 82.9812 6.48002 82.9812 8.51202V14H81.3652V9.05602C81.3652 7.60002 80.7252 6.78402 79.5252 6.78402C78.4212 6.78402 77.4932 7.71202 77.4932 9.21602ZM90.1199 12.432V13.856C89.6239 14.08 89.1919 14.16 88.6799 14.16C87.1119 14.16 86.0239 13.312 86.0239 11.44V6.89602H84.1519V5.52002H86.0239V3.00802H87.6399V5.52002H90.1999V6.89602H87.6399V11.072C87.6399 12.24 88.1999 12.656 89.0639 12.656C89.4479 12.656 89.7839 12.592 90.1199 12.432ZM97.1182 14V12.688C96.5902 13.632 95.6462 14.16 94.3982 14.16C92.6382 14.16 91.4862 13.152 91.4862 11.6C91.4862 9.93602 92.8142 9.07202 95.3422 9.07202C95.8382 9.07202 96.2382 9.08802 96.9262 9.16802V8.54402C96.9262 7.32802 96.2702 6.64002 95.1502 6.64002C93.9662 6.64002 93.2462 7.34402 93.1982 8.52802H91.7262C91.8062 6.62402 93.1662 5.36002 95.1502 5.36002C97.2462 5.36002 98.4622 6.54402 98.4622 8.56002V14H97.1182ZM93.0222 11.552C93.0222 12.432 93.6782 13.008 94.7182 13.008C96.0782 13.008 96.9262 12.16 96.9262 10.864V10.176C96.3022 10.096 95.8542 10.08 95.4382 10.08C93.8222 10.08 93.0222 10.56 93.0222 11.552ZM102.98 3.96802C102.98 5.34402 101.78 6.51202 100.18 6.38402V5.52002C101.076 5.56802 101.716 5.12002 101.86 4.41602C101.732 4.46402 101.604 4.48002 101.492 4.48002C100.884 4.48002 100.452 4.03202 100.452 3.48802C100.452 2.84802 100.932 2.41602 101.636 2.41602C102.484 2.41602 102.98 3.04002 102.98 3.96802ZM111.026 11.472C111.026 13.136 109.73 14.16 107.474 14.16C105.234 14.16 103.906 13.056 103.746 11.232H105.298C105.362 12.288 106.21 12.944 107.506 12.944C108.642 12.944 109.394 12.544 109.394 11.744C109.394 11.04 108.962 10.736 107.906 10.528L106.53 10.272C104.962 9.96802 104.082 9.16802 104.082 7.88802C104.082 6.40002 105.378 5.36002 107.346 5.36002C109.378 5.36002 110.754 6.44802 110.898 8.19202H109.346C109.25 7.16802 108.498 6.57602 107.362 6.57602C106.338 6.57602 105.65 7.00802 105.65 7.74402C105.65 8.43202 106.082 8.75202 107.106 8.94402L108.546 9.21602C110.226 9.52002 111.026 10.256 111.026 11.472Z" fill="#1F1F1F"/>
  <path d="M47.6304 28.9999H46.5304V22.8099H44.1904V21.8199H49.9704V22.8099H47.6304V28.9999ZM51.6221 26.2899V28.9999H50.6121V23.6999H51.5521V24.8199C51.9221 24.0899 52.7221 23.6299 53.5921 23.6299V24.6799C52.4521 24.6199 51.6221 25.1199 51.6221 26.2899ZM57.7514 28.9999V28.1799C57.4214 28.7699 56.8314 29.0999 56.0514 29.0999C54.9514 29.0999 54.2314 28.4699 54.2314 27.4999C54.2314 26.4599 55.0614 25.9199 56.6414 25.9199C56.9514 25.9199 57.2014 25.9299 57.6314 25.9799V25.5899C57.6314 24.8299 57.2214 24.3999 56.5214 24.3999C55.7814 24.3999 55.3314 24.8399 55.3014 25.5799H54.3814C54.4314 24.3899 55.2814 23.5999 56.5214 23.5999C57.8314 23.5999 58.5914 24.3399 58.5914 25.5999V28.9999H57.7514ZM55.1914 27.4699C55.1914 28.0199 55.6014 28.3799 56.2514 28.3799C57.1014 28.3799 57.6314 27.8499 57.6314 27.0399V26.6099C57.2414 26.5599 56.9614 26.5499 56.7014 26.5499C55.6914 26.5499 55.1914 26.8499 55.1914 27.4699ZM61.1018 26.0099V28.9999H60.0918V23.6999H61.0318V24.5799C61.3918 23.9899 61.9918 23.5999 62.7218 23.5999C63.8118 23.5999 64.5318 24.2999 64.5318 25.5699V28.9999H63.5218V25.9099C63.5218 24.9999 63.1218 24.4899 62.3718 24.4899C61.6818 24.4899 61.1018 25.0699 61.1018 26.0099ZM70.2231 27.4199C70.2231 28.4599 69.4131 29.0999 68.0031 29.0999C66.6031 29.0999 65.7731 28.4099 65.6731 27.2699H66.6431C66.6831 27.9299 67.2131 28.3399 68.0231 28.3399C68.7331 28.3399 69.2031 28.0899 69.2031 27.5899C69.2031 27.1499 68.9331 26.9599 68.2731 26.8299L67.4131 26.6699C66.4331 26.4799 65.8831 25.9799 65.8831 25.1799C65.8831 24.2499 66.6931 23.5999 67.9231 23.5999C69.1931 23.5999 70.0531 24.2799 70.1431 25.3699H69.1731C69.1131 24.7299 68.6431 24.3599 67.9331 24.3599C67.2931 24.3599 66.8631 24.6299 66.8631 25.0899C66.8631 25.5199 67.1331 25.7199 67.7731 25.8399L68.6731 26.0099C69.7231 26.1999 70.2231 26.6599 70.2231 27.4199ZM72.7058 22.4699C72.7058 22.8499 72.4058 23.1399 71.9758 23.1399C71.5458 23.1399 71.2358 22.8499 71.2358 22.4699C71.2358 22.0799 71.5458 21.7999 71.9758 21.7999C72.4058 21.7999 72.7058 22.0799 72.7058 22.4699ZM72.4858 28.9999H71.4758V23.6999H72.4858V28.9999ZM77.0279 28.0199V28.9099C76.7179 29.0499 76.4479 29.0999 76.1279 29.0999C75.1479 29.0999 74.4679 28.5699 74.4679 27.3999V24.5599H73.2979V23.6999H74.4679V22.1299H75.4779V23.6999H77.0779V24.5599H75.4779V27.1699C75.4779 27.8999 75.8279 28.1599 76.3679 28.1599C76.6079 28.1599 76.8179 28.1199 77.0279 28.0199ZM83.6417 29.1499C81.6417 29.1499 80.0917 27.5199 80.0917 25.3999C80.0917 23.2899 81.6417 21.6699 83.6417 21.6699C85.4417 21.6699 86.8817 22.8699 87.1517 24.6399H85.9817C85.7817 23.4799 84.8417 22.6599 83.6517 22.6599C82.2317 22.6599 81.2317 23.8099 81.2317 25.3999C81.2317 27.0099 82.2317 28.1599 83.6517 28.1599C84.8417 28.1599 85.7817 27.3299 85.9817 26.1699H87.1517C86.8817 27.9499 85.4417 29.1499 83.6417 29.1499ZM90.5849 29.0999C89.0849 29.0999 87.9849 27.9199 87.9849 26.3499C87.9849 24.7799 89.0849 23.5999 90.5849 23.5999C92.0849 23.5999 93.1849 24.7799 93.1849 26.3499C93.1849 27.9199 92.0849 29.0999 90.5849 29.0999ZM90.5849 28.2099C91.4549 28.2099 92.1449 27.5099 92.1449 26.3499C92.1449 25.1899 91.4549 24.4999 90.5849 24.4999C89.7149 24.4999 89.0349 25.1899 89.0349 26.3499C89.0349 27.5099 89.7149 28.2099 90.5849 28.2099ZM95.3745 26.0099V28.9999H94.3645V23.6999H95.3045V24.5799C95.6645 23.9899 96.2645 23.5999 96.9945 23.5999C98.0845 23.5999 98.8045 24.2999 98.8045 25.5699V28.9999H97.7945V25.9099C97.7945 24.9999 97.3945 24.4899 96.6445 24.4899C95.9545 24.4899 95.3745 25.0699 95.3745 26.0099ZM102.385 29.1099C100.935 29.1099 99.9157 27.9699 99.9157 26.3499C99.9157 24.7499 100.955 23.5999 102.385 23.5999C103.695 23.5999 104.645 24.4699 104.835 25.8499H103.775C103.665 24.9999 103.135 24.4899 102.395 24.4899C101.525 24.4899 100.955 25.2299 100.955 26.3499C100.955 27.4799 101.525 28.2099 102.395 28.2099C103.145 28.2099 103.665 27.7099 103.785 26.8499H104.835C104.655 28.2499 103.715 29.1099 102.385 29.1099ZM108.133 29.0999C106.603 29.0999 105.573 27.9899 105.573 26.3199C105.573 24.7499 106.643 23.5999 108.103 23.5999C109.683 23.5999 110.733 24.8799 110.553 26.5999H106.603C106.683 27.6799 107.223 28.3099 108.113 28.3099C108.863 28.3099 109.383 27.8999 109.553 27.2099H110.553C110.293 28.3899 109.383 29.0999 108.133 29.0999ZM108.083 24.3599C107.273 24.3599 106.723 24.9399 106.613 25.9299H109.483C109.433 24.9499 108.903 24.3599 108.083 24.3599ZM116.837 26.3499C116.837 27.9499 115.917 29.0999 114.497 29.0999C113.777 29.0999 113.167 28.7399 112.787 28.0999V30.9299H111.777V23.6999H112.717V24.6699C113.097 23.9899 113.747 23.5999 114.497 23.5999C115.907 23.5999 116.837 24.7499 116.837 26.3499ZM115.787 26.3499C115.787 25.1599 115.157 24.4899 114.287 24.4899C113.447 24.4899 112.787 25.1599 112.787 26.3499C112.787 27.5199 113.437 28.1999 114.287 28.1999C115.157 28.1999 115.787 27.5399 115.787 26.3499ZM120.923 28.0199V28.9099C120.613 29.0499 120.343 29.0999 120.023 29.0999C119.043 29.0999 118.363 28.5699 118.363 27.3999V24.5599H117.193V23.6999H118.363V22.1299H119.373V23.6999H120.973V24.5599H119.373V27.1699C119.373 27.8999 119.723 28.1599 120.263 28.1599C120.503 28.1599 120.713 28.1199 120.923 28.0199Z" fill="#828182"/>
  <path d="M29.7256 10.5098L21.4902 2.27441C18.4577 -0.758136 13.5423 -0.758136 10.5098 2.27441L2.27441 10.5098C-0.758136 13.5423 -0.758136 18.4577 2.27441 21.4902L10.5098 29.7256C13.5423 32.7581 18.4577 32.7581 21.4902 29.7256L29.7256 21.4902C32.7581 18.4577 32.7581 13.5423 29.7256 10.5098ZM26.9805 18.7451L18.7451 26.9805C17.2296 28.496 14.7704 28.496 13.2549 26.9805L5.01953 18.7451C3.50403 17.2296 3.50403 14.7704 5.01953 13.2549L13.2549 5.01952C14.7704 3.50402 17.2296 3.50402 18.7451 5.01952L26.9805 13.2549C28.496 14.7704 28.496 17.2296 26.9805 18.7451Z" fill="url(#paint0_linear_1532_307)"/>
  <path d="M29.7256 10.5098L21.4902 2.27441C18.4577 -0.758136 13.5423 -0.758136 10.5098 2.27441L2.27441 10.5098C-0.758136 13.5423 -0.758136 18.4577 2.27441 21.4902L10.5098 29.7256C13.5423 32.7581 18.4577 32.7581 21.4902 29.7256L29.7256 21.4902C32.7581 18.4577 32.7581 13.5423 29.7256 10.5098ZM26.9805 18.7451L18.7451 26.9805C17.2296 28.496 14.7704 28.496 13.2549 26.9805L5.01953 18.7451C3.50403 17.2296 3.50403 14.7704 5.01953 13.2549L13.2549 5.01952C14.7704 3.50402 17.2296 3.50402 18.7451 5.01952L26.9805 13.2549C28.496 14.7704 28.496 17.2296 26.9805 18.7451Z" fill="url(#paint1_linear_1532_307)"/>
  <defs>
    <linearGradient id="paint0_linear_1532_307" x1="5" y1="8" x2="25.5" y2="27" gradientUnits="userSpaceOnUse">
      <stop stop-color="#F28548"/>
      <stop offset="1" stop-color="#F0636F"/>
    </linearGradient>
    <linearGradient id="paint1_linear_1532_307" x1="5" y1="8" x2="25.5" y2="27" gradientUnits="userSpaceOnUse">
      <stop stop-color="#F28548"/>
      <stop offset="1" stop-color="#F0636F"/>
    </linearGradient>
  </defs>
</svg>