<svg xmlns="http://www.w3.org/2000/svg" width="130" height="32" viewBox="0 0 130 32" fill="none">
  <mask id="mask0_1931_7708" style="mask-type:luminance" maskUnits="userSpaceOnUse" x="0" y="0" width="32" height="32">
    <path d="M32 0H0V32H32V0Z" fill="white"/>
  </mask>
  <g mask="url(#mask0_1931_7708)">
    <path d="M24 0H8C3.58172 0 0 3.58172 0 8V24C0 28.4183 3.58172 32 8 32H24C28.4183 32 32 28.4183 32 24V8C32 3.58172 28.4183 0 24 0Z" fill="url(#paint0_linear_1931_7708)"/>
    <path d="M8.21148 24.8H14.0017C14.3428 24.8 14.5963 24.4842 14.5224 24.1512L12.241 13.8574C12.1244 13.331 11.3895 13.2904 11.2155 13.8008L7.70668 24.0945C7.58873 24.4405 7.84593 24.8 8.21148 24.8Z" fill="white"/>
    <path d="M20.2364 7.4668H13.9984C13.657 7.4668 13.4035 7.78312 13.4779 8.11632L17.1089 24.383C17.1633 24.6268 17.3796 24.8001 17.6294 24.8001H23.8674C24.2088 24.8001 24.4623 24.4838 24.3879 24.1506L20.7569 7.88394C20.7025 7.64016 20.4862 7.4668 20.2364 7.4668Z" fill="white" stroke="white"/>
  </g>
  <path d="M49.2612 14.9996H47.3975L51.585 3.36328H53.6134L57.8009 14.9996H55.9373L52.6475 5.47691H52.5566L49.2612 14.9996ZM49.5737 10.4428H55.6191V11.9201H49.5737V10.4428ZM63.112 6.27237V7.636H58.3449V6.27237H63.112ZM59.6233 4.18146H61.3222V12.4371C61.3222 12.7666 61.3714 13.0148 61.4699 13.1814C61.5684 13.3443 61.6953 13.456 61.8506 13.5166C62.0097 13.5735 62.182 13.6019 62.3676 13.6019C62.504 13.6019 62.6233 13.5924 62.7256 13.5735C62.8279 13.5545 62.9074 13.5394 62.9642 13.528L63.271 14.9314C63.1726 14.9693 63.0324 15.0072 62.8506 15.0451C62.6688 15.0867 62.4415 15.1094 62.1688 15.1132C61.7218 15.1208 61.3051 15.0413 60.9188 14.8746C60.5324 14.7079 60.2199 14.4504 59.9813 14.1019C59.7426 13.7534 59.6233 13.3159 59.6233 12.7894V4.18146ZM67.1176 3.36328V14.9996H65.4187V3.36328H67.1176ZM72.1829 15.1928C71.6298 15.1928 71.1298 15.0905 70.6829 14.886C70.2359 14.6776 69.8817 14.3765 69.6204 13.9826C69.3628 13.5886 69.234 13.1057 69.234 12.5337C69.234 12.0413 69.3287 11.636 69.5181 11.3178C69.7075 10.9996 69.9632 10.7477 70.2851 10.5621C70.6071 10.3765 70.967 10.2363 71.3647 10.1416C71.7624 10.0469 72.1677 9.97502 72.5806 9.92578C73.1033 9.86517 73.5276 9.81593 73.8533 9.77805C74.1791 9.73638 74.4158 9.67009 74.5635 9.57919C74.7113 9.48828 74.7851 9.34055 74.7851 9.136V9.09623C74.7851 8.60002 74.645 8.21555 74.3647 7.94282C74.0882 7.67009 73.6753 7.53373 73.126 7.53373C72.5541 7.53373 72.1033 7.66062 71.7738 7.91441C71.448 8.16441 71.2226 8.44282 71.0976 8.74964L69.501 8.386C69.6904 7.8557 69.967 7.42767 70.3306 7.10191C70.698 6.77237 71.1204 6.53373 71.5976 6.386C72.0749 6.23449 72.5768 6.15873 73.1033 6.15873C73.4518 6.15873 73.8211 6.2004 74.2113 6.28373C74.6052 6.36328 74.9726 6.511 75.3135 6.72691C75.6582 6.94282 75.9404 7.25153 76.1601 7.65305C76.3798 8.05078 76.4897 8.56782 76.4897 9.20419V14.9996H74.8306V13.8064H74.7624C74.6526 14.0261 74.4878 14.242 74.2681 14.4541C74.0484 14.6663 73.7662 14.8424 73.4215 14.9826C73.0768 15.1227 72.6639 15.1928 72.1829 15.1928ZM72.5522 13.8291C73.0219 13.8291 73.4234 13.7363 73.7567 13.5507C74.0939 13.3651 74.3495 13.1227 74.5238 12.8235C74.7018 12.5204 74.7908 12.1966 74.7908 11.8519V10.7269C74.7302 10.7875 74.6128 10.8443 74.4385 10.8973C74.2681 10.9466 74.073 10.9901 73.8533 11.028C73.6336 11.0621 73.4196 11.0943 73.2113 11.1246C73.0029 11.1511 72.8287 11.1738 72.6885 11.1928C72.359 11.2344 72.0579 11.3045 71.7851 11.403C71.5162 11.5015 71.3003 11.6435 71.1374 11.8291C70.9783 12.011 70.8988 12.2534 70.8988 12.5564C70.8988 12.9769 71.0541 13.2951 71.3647 13.511C71.6753 13.7231 72.0711 13.8291 72.5522 13.8291ZM80.6913 9.81782V14.9996H78.9925V6.27237H80.6232V7.69282H80.7311C80.9319 7.2307 81.2463 6.85949 81.6743 6.57919C82.1061 6.29888 82.6497 6.15873 83.305 6.15873C83.8997 6.15873 84.4205 6.28373 84.8675 6.53373C85.3144 6.77994 85.661 7.14737 85.9072 7.636C86.1535 8.12464 86.2766 8.72881 86.2766 9.4485V14.9996H84.5777V9.65305C84.5777 9.02047 84.4129 8.52616 84.0834 8.17009C83.7538 7.81025 83.3012 7.63032 82.7254 7.63032C82.3315 7.63032 81.9811 7.71555 81.6743 7.886C81.3713 8.05646 81.1307 8.30646 80.9527 8.636C80.7785 8.96176 80.6913 9.3557 80.6913 9.81782ZM92.8688 6.27237V7.636H88.1018V6.27237H92.8688ZM89.3802 4.18146H91.0791V12.4371C91.0791 12.7666 91.1283 13.0148 91.2268 13.1814C91.3253 13.3443 91.4522 13.456 91.6075 13.5166C91.7666 13.5735 91.9389 13.6019 92.1245 13.6019C92.2609 13.6019 92.3802 13.5924 92.4825 13.5735C92.5847 13.5545 92.6643 13.5394 92.7211 13.528L93.0279 14.9314C92.9294 14.9693 92.7893 15.0072 92.6075 15.0451C92.4257 15.0867 92.1984 15.1094 91.9257 15.1132C91.4787 15.1208 91.062 15.0413 90.6757 14.8746C90.2893 14.7079 89.9768 14.4504 89.7382 14.1019C89.4995 13.7534 89.3802 13.3159 89.3802 12.7894V4.18146ZM97.5279 15.1928C96.9748 15.1928 96.4748 15.0905 96.0279 14.886C95.5809 14.6776 95.2267 14.3765 94.9654 13.9826C94.7078 13.5886 94.579 13.1057 94.579 12.5337C94.579 12.0413 94.6737 11.636 94.8631 11.3178C95.0525 10.9996 95.3082 10.7477 95.6301 10.5621C95.9521 10.3765 96.312 10.2363 96.7097 10.1416C97.1074 10.0469 97.5127 9.97502 97.9256 9.92578C98.4483 9.86517 98.8726 9.81593 99.1983 9.77805C99.5241 9.73638 99.7608 9.67009 99.9085 9.57919C100.056 9.48828 100.13 9.34055 100.13 9.136V9.09623C100.13 8.60002 99.99 8.21555 99.7097 7.94282C99.4332 7.67009 99.0203 7.53373 98.471 7.53373C97.8991 7.53373 97.4483 7.66062 97.1188 7.91441C96.793 8.16441 96.5676 8.44282 96.4426 8.74964L94.846 8.386C95.0354 7.8557 95.312 7.42767 95.6756 7.10191C96.043 6.77237 96.4654 6.53373 96.9426 6.386C97.4199 6.23449 97.9218 6.15873 98.4483 6.15873C98.7968 6.15873 99.1661 6.2004 99.5563 6.28373C99.9502 6.36328 100.318 6.511 100.659 6.72691C101.003 6.94282 101.286 7.25153 101.505 7.65305C101.725 8.05078 101.835 8.56782 101.835 9.20419V14.9996H100.176V13.8064H100.108C99.9976 14.0261 99.8328 14.242 99.6131 14.4541C99.3934 14.6663 99.1112 14.8424 98.7665 14.9826C98.4218 15.1227 98.0089 15.1928 97.5279 15.1928ZM97.8972 13.8291C98.3669 13.8291 98.7684 13.7363 99.1017 13.5507C99.4389 13.3651 99.6945 13.1227 99.8688 12.8235C100.047 12.5204 100.136 12.1966 100.136 11.8519V10.7269C100.075 10.7875 99.9578 10.8443 99.7835 10.8973C99.6131 10.9466 99.418 10.9901 99.1983 11.028C98.9786 11.0621 98.7646 11.0943 98.5563 11.1246C98.3479 11.1511 98.1737 11.1738 98.0335 11.1928C97.704 11.2344 97.4029 11.3045 97.1301 11.403C96.8612 11.5015 96.6453 11.6435 96.4824 11.8291C96.3233 12.011 96.2438 12.2534 96.2438 12.5564C96.2438 12.9769 96.3991 13.2951 96.7097 13.511C97.0203 13.7231 97.4161 13.8291 97.8972 13.8291ZM105.798 3.36328V4.45419C105.798 4.77616 105.737 5.11517 105.616 5.47123C105.499 5.8235 105.332 6.16252 105.116 6.48828C104.9 6.81403 104.646 7.09434 104.355 7.32919L103.514 6.72691C103.737 6.40115 103.93 6.05456 104.093 5.68714C104.26 5.31972 104.343 4.91441 104.343 4.47123V3.36328H105.798ZM113.117 8.40305L111.578 8.67578C111.513 8.47881 111.411 8.29131 111.271 8.11328C111.134 7.93525 110.949 7.78941 110.714 7.67578C110.479 7.56214 110.186 7.50532 109.833 7.50532C109.352 7.50532 108.951 7.61328 108.629 7.82919C108.307 8.04131 108.146 8.31593 108.146 8.65305C108.146 8.94472 108.254 9.17956 108.47 9.35759C108.686 9.53562 109.034 9.68146 109.515 9.79509L110.902 10.1132C111.705 10.2988 112.303 10.5848 112.697 10.9712C113.091 11.3576 113.288 11.8594 113.288 12.4769C113.288 12.9996 113.136 13.4655 112.833 13.8746C112.534 14.2799 112.116 14.5981 111.578 14.8291C111.044 15.0602 110.424 15.1757 109.72 15.1757C108.742 15.1757 107.945 14.9674 107.328 14.5507C106.71 14.1303 106.331 13.5337 106.191 12.761L107.833 12.511C107.936 12.939 108.146 13.2629 108.464 13.4826C108.782 13.6985 109.197 13.8064 109.708 13.8064C110.265 13.8064 110.71 13.6909 111.044 13.4598C111.377 13.225 111.544 12.939 111.544 12.6019C111.544 12.3291 111.441 12.1 111.237 11.9144C111.036 11.7288 110.727 11.5886 110.311 11.4939L108.833 11.1701C108.019 10.9844 107.417 10.689 107.027 10.2837C106.64 9.87843 106.447 9.36517 106.447 8.74396C106.447 8.22881 106.591 7.77805 106.879 7.39169C107.167 7.00532 107.564 6.70419 108.072 6.48828C108.58 6.26858 109.161 6.15873 109.816 6.15873C110.759 6.15873 111.502 6.36328 112.044 6.77237C112.585 7.17767 112.943 7.72123 113.117 8.40305Z" fill="#1F1F1F"/>
  <path d="M47.4404 22.6723V21.7277H53.069V22.6723H50.7998V29.0004H49.7061V22.6723H47.4404ZM53.8111 29.0004V23.5459H54.8374V24.4123H54.8942C54.9937 24.1188 55.1689 23.8879 55.4198 23.7199C55.6731 23.5494 55.9596 23.4642 56.2792 23.4642C56.3455 23.4642 56.4236 23.4665 56.5136 23.4713C56.6059 23.476 56.6781 23.4819 56.7302 23.489V24.5047C56.6876 24.4928 56.6118 24.4798 56.5029 24.4656C56.394 24.449 56.2851 24.4407 56.1762 24.4407C55.9253 24.4407 55.7015 24.494 55.505 24.6005C55.3109 24.7047 55.157 24.8503 55.0434 25.0373C54.9298 25.222 54.8729 25.4327 54.8729 25.6694V29.0004H53.8111ZM59.3376 29.1211C58.9919 29.1211 58.6794 29.0572 58.4001 28.9294C58.1207 28.7992 57.8994 28.611 57.736 28.3647C57.575 28.1185 57.4945 27.8167 57.4945 27.4592C57.4945 27.1514 57.5537 26.8981 57.6721 26.6993C57.7905 26.5004 57.9503 26.343 58.1515 26.227C58.3527 26.111 58.5776 26.0234 58.8262 25.9642C59.0748 25.905 59.3281 25.86 59.5861 25.8292C59.9128 25.7914 60.178 25.7606 60.3816 25.7369C60.5852 25.7109 60.7332 25.6694 60.8255 25.6126C60.9178 25.5558 60.964 25.4635 60.964 25.3356V25.3108C60.964 25.0006 60.8764 24.7603 60.7012 24.5899C60.5284 24.4194 60.2703 24.3342 59.9271 24.3342C59.5696 24.3342 59.2878 24.4135 59.0819 24.5721C58.8783 24.7284 58.7374 24.9024 58.6593 25.0942L57.6614 24.8669C57.7798 24.5354 57.9526 24.2679 58.1799 24.0643C58.4095 23.8584 58.6735 23.7092 58.9718 23.6169C59.2701 23.5222 59.5838 23.4748 59.9128 23.4748C60.1307 23.4748 60.3615 23.5009 60.6053 23.553C60.8515 23.6027 61.0812 23.695 61.2942 23.8299C61.5097 23.9649 61.686 24.1578 61.8234 24.4088C61.9607 24.6574 62.0293 24.9805 62.0293 25.3782V29.0004H60.9924V28.2547H60.9498C60.8811 28.392 60.7781 28.5269 60.6408 28.6595C60.5035 28.7921 60.3271 28.9022 60.1117 28.9897C59.8963 29.0773 59.6382 29.1211 59.3376 29.1211ZM59.5684 28.2689C59.8619 28.2689 60.1129 28.2109 60.3212 28.0949C60.5319 27.9789 60.6917 27.8273 60.8006 27.6403C60.9119 27.4509 60.9675 27.2485 60.9675 27.0331V26.3299C60.9297 26.3678 60.8563 26.4033 60.7474 26.4365C60.6408 26.4673 60.5189 26.4945 60.3816 26.5182C60.2443 26.5395 60.1105 26.5596 59.9803 26.5785C59.8501 26.5951 59.7412 26.6093 59.6536 26.6211C59.4476 26.6472 59.2594 26.691 59.089 26.7525C58.9209 26.8141 58.786 26.9029 58.6842 27.0189C58.5847 27.1325 58.535 27.284 58.535 27.4734C58.535 27.7362 58.6321 27.9351 58.8262 28.07C59.0203 28.2026 59.2677 28.2689 59.5684 28.2689ZM64.6554 25.7618V29.0004H63.5936V23.5459H64.6127V24.4336H64.6802C64.8057 24.1448 65.0022 23.9128 65.2697 23.7376C65.5396 23.5624 65.8793 23.4748 66.2889 23.4748C66.6606 23.4748 66.9861 23.553 67.2654 23.7092C67.5448 23.8631 67.7614 24.0927 67.9153 24.3981C68.0692 24.7035 68.1461 25.0811 68.1461 25.5309V29.0004H67.0843V25.6588C67.0843 25.2634 66.9813 24.9545 66.7754 24.7319C66.5694 24.507 66.2865 24.3946 65.9267 24.3946C65.6805 24.3946 65.4615 24.4478 65.2697 24.5544C65.0803 24.6609 64.93 24.8172 64.8187 25.0231C64.7098 25.2267 64.6554 25.4729 64.6554 25.7618ZM73.8075 24.8775L72.8451 25.048C72.8049 24.9249 72.741 24.8077 72.6534 24.6964C72.5681 24.5852 72.4521 24.494 72.3054 24.423C72.1586 24.352 71.9751 24.3165 71.7549 24.3165C71.4543 24.3165 71.2033 24.3839 71.0021 24.5189C70.8009 24.6514 70.7002 24.8231 70.7002 25.0338C70.7002 25.2161 70.7677 25.3629 70.9027 25.4741C71.0376 25.5854 71.2554 25.6765 71.5561 25.7476L72.4225 25.9464C72.9244 26.0624 73.2985 26.2412 73.5447 26.4826C73.7909 26.7241 73.914 27.0378 73.914 27.4237C73.914 27.7504 73.8193 28.0416 73.6299 28.2973C73.4429 28.5506 73.1813 28.7495 72.8451 28.8939C72.5113 29.0383 72.1242 29.1105 71.6839 29.1105C71.0731 29.1105 70.5748 28.9803 70.1889 28.7199C69.803 28.4571 69.5662 28.0842 69.4787 27.6013L70.5049 27.445C70.5689 27.7125 70.7002 27.9149 70.8991 28.0522C71.098 28.1872 71.3572 28.2547 71.6768 28.2547C72.0248 28.2547 72.303 28.1825 72.5113 28.038C72.7197 27.8913 72.8238 27.7125 72.8238 27.5018C72.8238 27.3314 72.7599 27.1881 72.6321 27.0721C72.5066 26.9561 72.3136 26.8685 72.0532 26.8093L71.1299 26.6069C70.6209 26.4909 70.2445 26.3063 70.0007 26.053C69.7592 25.7996 69.6385 25.4789 69.6385 25.0906C69.6385 24.7686 69.7284 24.4869 69.9083 24.2454C70.0883 24.004 70.3368 23.8157 70.6541 23.6808C70.9713 23.5435 71.3347 23.4748 71.7443 23.4748C72.3338 23.4748 72.7978 23.6027 73.1363 23.8584C73.4749 24.1117 73.6986 24.4514 73.8075 24.8775ZM75.2315 29.0004V23.5459H76.2932V29.0004H75.2315ZM75.7677 22.7042C75.583 22.7042 75.4244 22.6427 75.2918 22.5196C75.1616 22.3941 75.0965 22.245 75.0965 22.0721C75.0965 21.8969 75.1616 21.7478 75.2918 21.6247C75.4244 21.4992 75.583 21.4365 75.7677 21.4365C75.9523 21.4365 76.1098 21.4992 76.24 21.6247C76.3726 21.7478 76.4388 21.8969 76.4388 22.0721C76.4388 22.245 76.3726 22.3941 76.24 22.5196C76.1098 22.6427 75.9523 22.7042 75.7677 22.7042ZM80.4179 23.5459V24.3981H77.4385V23.5459H80.4179ZM78.2375 22.239H79.2992V27.3988C79.2992 27.6048 79.33 27.7599 79.3916 27.864C79.4531 27.9658 79.5324 28.0357 79.6295 28.0736C79.7289 28.1091 79.8367 28.1268 79.9527 28.1268C80.0379 28.1268 80.1125 28.1209 80.1764 28.1091C80.2403 28.0972 80.29 28.0878 80.3255 28.0807L80.5173 28.9578C80.4557 28.9815 80.3681 29.0051 80.2545 29.0288C80.1409 29.0549 79.9988 29.0691 79.8284 29.0714C79.549 29.0762 79.2886 29.0264 79.0471 28.9223C78.8056 28.8181 78.6103 28.6571 78.4612 28.4393C78.312 28.2215 78.2375 27.9481 78.2375 27.619V22.239ZM90.6646 24.0927H89.5566C89.514 23.856 89.4347 23.6477 89.3187 23.4677C89.2027 23.2878 89.0607 23.1351 88.8926 23.0096C88.7245 22.8842 88.5363 22.7895 88.3279 22.7255C88.122 22.6616 87.903 22.6297 87.671 22.6297C87.2519 22.6297 86.8767 22.735 86.5453 22.9457C86.2162 23.1564 85.9558 23.4654 85.764 23.8726C85.5746 24.2798 85.4799 24.7769 85.4799 25.364C85.4799 25.9559 85.5746 26.4554 85.764 26.8626C85.9558 27.2698 86.2174 27.5776 86.5488 27.7859C86.8803 27.9942 87.2531 28.0984 87.6674 28.0984C87.8971 28.0984 88.1149 28.0676 88.3208 28.0061C88.5292 27.9422 88.7174 27.8486 88.8855 27.7255C89.0536 27.6024 89.1956 27.4521 89.3116 27.2745C89.43 27.0946 89.5117 26.8887 89.5566 26.6566L90.6646 26.6602C90.6054 27.0177 90.4906 27.3468 90.3201 27.6474C90.152 27.9457 89.9354 28.2038 89.6703 28.4216C89.4075 28.637 89.1068 28.8039 88.7683 28.9223C88.4297 29.0406 88.0604 29.0998 87.6603 29.0998C87.0306 29.0998 86.4695 28.9507 85.9771 28.6524C85.4847 28.3517 85.0964 27.922 84.8123 27.3633C84.5306 26.8046 84.3897 26.1382 84.3897 25.364C84.3897 24.5875 84.5318 23.9211 84.8159 23.3647C85.1 22.806 85.4882 22.3775 85.9806 22.0792C86.4731 21.7786 87.033 21.6282 87.6603 21.6282C88.0462 21.6282 88.4061 21.6839 88.7399 21.7951C89.076 21.904 89.3779 22.065 89.6454 22.2781C89.9129 22.4888 90.1343 22.7468 90.3095 23.0522C90.4847 23.3553 90.603 23.7021 90.6646 24.0927ZM94.34 29.1105C93.8286 29.1105 93.3824 28.9933 93.0012 28.7589C92.62 28.5245 92.3241 28.1967 92.1134 27.7753C91.9027 27.3539 91.7974 26.8614 91.7974 26.298C91.7974 25.7322 91.9027 25.2374 92.1134 24.8136C92.3241 24.3898 92.62 24.0608 93.0012 23.8264C93.3824 23.592 93.8286 23.4748 94.34 23.4748C94.8513 23.4748 95.2976 23.592 95.6788 23.8264C96.0599 24.0608 96.3558 24.3898 96.5665 24.8136C96.7772 25.2374 96.8826 25.7322 96.8826 26.298C96.8826 26.8614 96.7772 27.3539 96.5665 27.7753C96.3558 28.1967 96.0599 28.5245 95.6788 28.7589C95.2976 28.9933 94.8513 29.1105 94.34 29.1105ZM94.3435 28.2192C94.675 28.2192 94.9496 28.1316 95.1674 27.9564C95.3852 27.7812 95.5462 27.548 95.6503 27.2568C95.7569 26.9656 95.8101 26.6448 95.8101 26.2944C95.8101 25.9464 95.7569 25.6268 95.6503 25.3356C95.5462 25.0421 95.3852 24.8065 95.1674 24.629C94.9496 24.4514 94.675 24.3626 94.3435 24.3626C94.0097 24.3626 93.7327 24.4514 93.5126 24.629C93.2948 24.8065 93.1326 25.0421 93.0261 25.3356C92.9219 25.6268 92.8698 25.9464 92.8698 26.2944C92.8698 26.6448 92.9219 26.9656 93.0261 27.2568C93.1326 27.548 93.2948 27.7812 93.5126 27.9564C93.7327 28.1316 94.0097 28.2192 94.3435 28.2192ZM99.2796 25.7618V29.0004H98.2178V23.5459H99.237V24.4336H99.3044C99.4299 24.1448 99.6264 23.9128 99.8939 23.7376C100.164 23.5624 100.503 23.4748 100.913 23.4748C101.285 23.4748 101.61 23.553 101.89 23.7092C102.169 23.8631 102.386 24.0927 102.539 24.3981C102.693 24.7035 102.77 25.0811 102.77 25.5309V29.0004H101.708V25.6588C101.708 25.2634 101.605 24.9545 101.4 24.7319C101.194 24.507 100.911 24.3946 100.551 24.3946C100.305 24.3946 100.086 24.4478 99.8939 24.5544C99.7045 24.6609 99.5542 24.8172 99.4429 25.0231C99.334 25.2267 99.2796 25.4729 99.2796 25.7618ZM106.642 29.1105C106.114 29.1105 105.659 28.9909 105.278 28.7518C104.899 28.5103 104.608 28.1777 104.405 27.754C104.201 27.3302 104.099 26.8449 104.099 26.298C104.099 25.744 104.203 25.2551 104.412 24.8314C104.62 24.4052 104.914 24.0726 105.292 23.8335C105.671 23.5944 106.117 23.4748 106.631 23.4748C107.045 23.4748 107.415 23.5518 107.739 23.7057C108.063 23.8572 108.325 24.0702 108.524 24.3449C108.725 24.6195 108.845 24.9403 108.883 25.3072H107.849C107.792 25.0515 107.662 24.8314 107.459 24.6467C107.257 24.462 106.987 24.3697 106.649 24.3697C106.353 24.3697 106.094 24.4478 105.871 24.6041C105.651 24.758 105.479 24.9781 105.356 25.2646C105.233 25.5487 105.172 25.8849 105.172 26.2731C105.172 26.6709 105.232 27.0141 105.353 27.303C105.474 27.5918 105.644 27.8155 105.864 27.9741C106.087 28.1327 106.348 28.212 106.649 28.212C106.85 28.212 107.032 28.1754 107.196 28.102C107.362 28.0262 107.5 27.9185 107.611 27.7788C107.725 27.6391 107.804 27.471 107.849 27.2745H108.883C108.845 27.6273 108.73 27.9422 108.538 28.2192C108.346 28.4961 108.09 28.7139 107.768 28.8726C107.448 29.0312 107.073 29.1105 106.642 29.1105ZM112.519 29.1105C111.982 29.1105 111.519 28.9957 111.13 28.766C110.745 28.534 110.446 28.2085 110.236 27.7895C110.027 27.3681 109.923 26.8745 109.923 26.3086C109.923 25.7499 110.027 25.2575 110.236 24.8314C110.446 24.4052 110.74 24.0726 111.116 23.8335C111.495 23.5944 111.938 23.4748 112.444 23.4748C112.752 23.4748 113.05 23.5257 113.339 23.6275C113.628 23.7293 113.887 23.8891 114.117 24.1069C114.347 24.3247 114.528 24.6076 114.66 24.9557C114.793 25.3013 114.859 25.7215 114.859 26.2163V26.5927H110.523V25.7973H113.819C113.819 25.5179 113.762 25.2705 113.648 25.0551C113.535 24.8373 113.375 24.6656 113.169 24.5402C112.965 24.4147 112.726 24.352 112.451 24.352C112.153 24.352 111.893 24.4254 111.67 24.5721C111.45 24.7165 111.28 24.9059 111.159 25.1403C111.04 25.3723 110.981 25.6245 110.981 25.8967V26.5182C110.981 26.8827 111.045 27.1929 111.173 27.4486C111.303 27.7042 111.484 27.8995 111.716 28.0345C111.948 28.1671 112.219 28.2334 112.53 28.2334C112.731 28.2334 112.914 28.2049 113.08 28.1481C113.246 28.0889 113.389 28.0013 113.51 27.8853C113.63 27.7693 113.723 27.6261 113.787 27.4557L114.792 27.6368C114.711 27.9327 114.567 28.1919 114.358 28.4145C114.152 28.6346 113.893 28.8063 113.581 28.9294C113.271 29.0501 112.917 29.1105 112.519 29.1105ZM116.187 31.0459V23.5459H117.224V24.4301H117.313C117.374 24.3165 117.463 24.1851 117.579 24.0359C117.695 23.8868 117.856 23.7566 118.062 23.6453C118.268 23.5316 118.54 23.4748 118.879 23.4748C119.319 23.4748 119.712 23.5861 120.058 23.8086C120.404 24.0312 120.675 24.352 120.871 24.771C121.07 25.19 121.169 25.6943 121.169 26.2838C121.169 26.8733 121.071 27.3787 120.875 27.8001C120.678 28.2191 120.408 28.5423 120.065 28.7696C119.722 28.9945 119.33 29.1069 118.89 29.1069C118.558 29.1069 118.287 29.0513 118.076 28.94C117.868 28.8288 117.705 28.6986 117.586 28.5494C117.468 28.4003 117.377 28.2677 117.313 28.1517H117.249V31.0459H116.187ZM117.228 26.2731C117.228 26.6566 117.283 26.9928 117.395 27.2816C117.506 27.5705 117.667 27.7966 117.878 27.9599C118.088 28.1209 118.346 28.2014 118.652 28.2014C118.969 28.2014 119.234 28.1174 119.447 27.9493C119.66 27.7788 119.821 27.548 119.93 27.2568C120.041 26.9656 120.097 26.6377 120.097 26.2731C120.097 25.9133 120.043 25.5901 119.934 25.3037C119.827 25.0172 119.666 24.7911 119.451 24.6254C119.238 24.4597 118.971 24.3768 118.652 24.3768C118.344 24.3768 118.084 24.4561 117.87 24.6147C117.66 24.7734 117.5 24.9947 117.391 25.2788C117.282 25.5629 117.228 25.8943 117.228 26.2731ZM125.055 23.5459V24.3981H122.076V23.5459H125.055ZM122.875 22.239H123.937V27.3988C123.937 27.6048 123.967 27.7599 124.029 27.864C124.091 27.9658 124.17 28.0357 124.267 28.0736C124.366 28.1091 124.474 28.1268 124.59 28.1268C124.675 28.1268 124.75 28.1209 124.814 28.1091C124.878 28.0972 124.927 28.0878 124.963 28.0807L125.155 28.9578C125.093 28.9815 125.006 29.0051 124.892 29.0288C124.778 29.0549 124.636 29.0691 124.466 29.0714C124.186 29.0762 123.926 29.0264 123.685 28.9223C123.443 28.8181 123.248 28.6571 123.099 28.4393C122.949 28.2215 122.875 27.9481 122.875 27.619V22.239Z" fill="#828182"/>
  <defs>
    <linearGradient id="paint0_linear_1931_7708" x1="10.9333" y1="11.6" x2="34.8" y2="38" gradientUnits="userSpaceOnUse">
      <stop stop-color="#F2834B"/>
      <stop offset="0.4362" stop-color="#F1666D"/>
    </linearGradient>
  </defs>
</svg>