<svg xmlns="http://www.w3.org/2000/svg" width="130" height="32" viewBox="0 0 130 32" fill="none">
  <mask id="mask0_3177_3813" style="mask-type:luminance" maskUnits="userSpaceOnUse" x="0" y="0" width="32" height="32">
    <path d="M32 0H0V32H32V0Z" fill="white"/>
  </mask>
  <g mask="url(#mask0_3177_3813)">
    <path d="M24 0H8C3.58172 0 0 3.58172 0 8V24C0 28.4183 3.58172 32 8 32H24C28.4183 32 32 28.4183 32 24V8C32 3.58172 28.4183 0 24 0Z" fill="url(#paint0_linear_3177_3813)"/>
    <path d="M8.21148 24.8H14.0017C14.3428 24.8 14.5963 24.4842 14.5224 24.1512L12.241 13.8574C12.1244 13.331 11.3895 13.2904 11.2155 13.8008L7.70668 24.0945C7.58873 24.4405 7.84593 24.8 8.21148 24.8Z" fill="white"/>
    <path d="M20.2364 7.4668H13.9984C13.657 7.4668 13.4035 7.78312 13.4779 8.11632L17.1089 24.383C17.1633 24.6268 17.3796 24.8001 17.6294 24.8001H23.8674C24.2088 24.8001 24.4623 24.4838 24.3879 24.1506L20.7569 7.88394C20.7025 7.64016 20.4862 7.4668 20.2364 7.4668Z" fill="white" stroke="white"/>
  </g>
  <path d="M48.2784 14.9999V3.36353H52.4261C53.3277 3.36353 54.0758 3.51883 54.6705 3.82944C55.2689 4.14004 55.7159 4.56997 56.0114 5.11921C56.3068 5.66466 56.4545 6.29534 56.4545 7.01125C56.4545 7.72337 56.3049 8.35027 56.0057 8.89194C55.7102 9.42981 55.2633 9.84837 54.6648 10.1476C54.0701 10.4469 53.322 10.5965 52.4205 10.5965H49.2784V9.08512H52.2614C52.8295 9.08512 53.2917 9.00368 53.6477 8.8408C54.0076 8.67792 54.2708 8.44118 54.4375 8.13057C54.6042 7.81997 54.6875 7.44686 54.6875 7.01125C54.6875 6.57186 54.6023 6.19118 54.4318 5.86921C54.2652 5.54724 54.0019 5.30103 53.642 5.13057C53.286 4.95633 52.8182 4.86921 52.2386 4.86921H50.0341V14.9999H48.2784ZM54.0227 9.74989L56.8977 14.9999H54.8977L52.0795 9.74989H54.0227ZM57.5113 3.36353H59.5056L62.5454 8.6533H62.6704L65.7102 3.36353H67.7045L63.4829 10.4317V14.9999H61.7329V10.4317L57.5113 3.36353ZM69.3976 14.9999H67.534L71.7215 3.36353H73.7499L77.9374 14.9999H76.0737L72.784 5.47716H72.6931L69.3976 14.9999ZM69.7101 10.4431H75.7556V11.9204H69.7101V10.4431Z" fill="#1F1F1F"/>
  <path d="M47.4403 22.6718V21.7272H53.0689V22.6718H50.7997V28.9999H49.706V22.6718H47.4403ZM53.811 28.9999V23.5454H54.8373V24.4118H54.8941C54.9936 24.1183 55.1688 23.8874 55.4197 23.7194C55.673 23.5489 55.9595 23.4637 56.2791 23.4637C56.3454 23.4637 56.4235 23.466 56.5135 23.4708C56.6058 23.4755 56.678 23.4814 56.7301 23.4885V24.5042C56.6875 24.4923 56.6117 24.4793 56.5028 24.4651C56.3939 24.4485 56.285 24.4402 56.1761 24.4402C55.9252 24.4402 55.7014 24.4935 55.5049 24.6C55.3108 24.7042 55.1569 24.8498 55.0433 25.0368C54.9297 25.2215 54.8728 25.4322 54.8728 25.6689V28.9999H53.811ZM59.3375 29.1206C58.9918 29.1206 58.6793 29.0567 58.4 28.9289C58.1206 28.7987 57.8993 28.6105 57.7359 28.3642C57.5749 28.118 57.4944 27.8162 57.4944 27.4587C57.4944 27.1509 57.5536 26.8976 57.672 26.6988C57.7904 26.4999 57.9502 26.3425 58.1514 26.2265C58.3526 26.1105 58.5775 26.0229 58.8261 25.9637C59.0747 25.9045 59.328 25.8595 59.586 25.8287C59.9127 25.7909 60.1779 25.7601 60.3815 25.7364C60.5851 25.7104 60.7331 25.6689 60.8254 25.6121C60.9177 25.5553 60.9639 25.463 60.9639 25.3351V25.3103C60.9639 25.0001 60.8763 24.7598 60.7011 24.5894C60.5283 24.4189 60.2702 24.3337 59.927 24.3337C59.5695 24.3337 59.2877 24.413 59.0818 24.5716C58.8782 24.7279 58.7373 24.9019 58.6592 25.0937L57.6613 24.8664C57.7797 24.5349 57.9525 24.2674 58.1798 24.0638C58.4094 23.8579 58.6734 23.7087 58.9717 23.6164C59.27 23.5217 59.5837 23.4743 59.9127 23.4743C60.1306 23.4743 60.3614 23.5004 60.6052 23.5525C60.8514 23.6022 61.0811 23.6945 61.2941 23.8294C61.5096 23.9644 61.6859 24.1573 61.8233 24.4083C61.9606 24.6569 62.0292 24.98 62.0292 25.3777V28.9999H60.9923V28.2542H60.9497C60.881 28.3915 60.778 28.5264 60.6407 28.659C60.5034 28.7916 60.327 28.9017 60.1116 28.9892C59.8962 29.0768 59.6381 29.1206 59.3375 29.1206ZM59.5683 28.2684C59.8618 28.2684 60.1128 28.2104 60.3211 28.0944C60.5318 27.9784 60.6916 27.8268 60.8005 27.6398C60.9118 27.4504 60.9674 27.248 60.9674 27.0326V26.3294C60.9296 26.3673 60.8562 26.4028 60.7473 26.436C60.6407 26.4668 60.5188 26.494 60.3815 26.5177C60.2442 26.539 60.1104 26.5591 59.9802 26.578C59.85 26.5946 59.7411 26.6088 59.6535 26.6206C59.4475 26.6467 59.2593 26.6905 59.0889 26.752C58.9208 26.8136 58.7859 26.9024 58.6841 27.0184C58.5846 27.132 58.5349 27.2835 58.5349 27.4729C58.5349 27.7357 58.632 27.9346 58.8261 28.0695C59.0202 28.2021 59.2676 28.2684 59.5683 28.2684ZM64.6553 25.7613V28.9999H63.5935V23.5454H64.6126V24.4331H64.6801C64.8056 24.1443 65.0021 23.9123 65.2696 23.7371C65.5395 23.5619 65.8792 23.4743 66.2888 23.4743C66.6605 23.4743 66.986 23.5525 67.2653 23.7087C67.5447 23.8626 67.7613 24.0922 67.9152 24.3976C68.0691 24.703 68.146 25.0806 68.146 25.5304V28.9999H67.0842V25.6583C67.0842 25.2629 66.9812 24.954 66.7753 24.7314C66.5693 24.5065 66.2864 24.3941 65.9266 24.3941C65.6804 24.3941 65.4614 24.4473 65.2696 24.5539C65.0802 24.6604 64.9299 24.8167 64.8186 25.0226C64.7097 25.2262 64.6553 25.4724 64.6553 25.7613ZM73.8074 24.877L72.845 25.0475C72.8048 24.9244 72.7409 24.8072 72.6533 24.6959C72.568 24.5847 72.452 24.4935 72.3053 24.4225C72.1585 24.3515 71.975 24.316 71.7548 24.316C71.4542 24.316 71.2032 24.3834 71.002 24.5184C70.8008 24.6509 70.7001 24.8226 70.7001 25.0333C70.7001 25.2156 70.7676 25.3624 70.9026 25.4736C71.0375 25.5849 71.2553 25.676 71.556 25.7471L72.4224 25.9459C72.9243 26.0619 73.2984 26.2407 73.5446 26.4821C73.7908 26.7236 73.9139 27.0373 73.9139 27.4232C73.9139 27.7499 73.8192 28.0411 73.6298 28.2968C73.4428 28.5501 73.1812 28.749 72.845 28.8934C72.5112 29.0378 72.1241 29.11 71.6838 29.11C71.073 29.11 70.5747 28.9798 70.1888 28.7194C69.8029 28.4566 69.5661 28.0837 69.4786 27.6008L70.5048 27.4445C70.5688 27.712 70.7001 27.9144 70.899 28.0517C71.0979 28.1867 71.3571 28.2542 71.6767 28.2542C72.0247 28.2542 72.3029 28.182 72.5112 28.0375C72.7196 27.8908 72.8237 27.712 72.8237 27.5013C72.8237 27.3309 72.7598 27.1876 72.632 27.0716C72.5065 26.9556 72.3135 26.868 72.0531 26.8088L71.1298 26.6064C70.6208 26.4904 70.2444 26.3058 70.0006 26.0525C69.7591 25.7991 69.6384 25.4784 69.6384 25.0901C69.6384 24.7681 69.7283 24.4864 69.9082 24.2449C70.0882 24.0035 70.3367 23.8152 70.654 23.6803C70.9712 23.543 71.3346 23.4743 71.7442 23.4743C72.3337 23.4743 72.7977 23.6022 73.1362 23.8579C73.4748 24.1112 73.6985 24.4509 73.8074 24.877ZM75.2314 28.9999V23.5454H76.2931V28.9999H75.2314ZM75.7676 22.7037C75.5829 22.7037 75.4243 22.6422 75.2917 22.5191C75.1615 22.3936 75.0964 22.2445 75.0964 22.0716C75.0964 21.8964 75.1615 21.7473 75.2917 21.6242C75.4243 21.4987 75.5829 21.436 75.7676 21.436C75.9522 21.436 76.1097 21.4987 76.2399 21.6242C76.3725 21.7473 76.4387 21.8964 76.4387 22.0716C76.4387 22.2445 76.3725 22.3936 76.2399 22.5191C76.1097 22.6422 75.9522 22.7037 75.7676 22.7037ZM80.4178 23.5454V24.3976H77.4384V23.5454H80.4178ZM78.2374 22.2385H79.2991V27.3983C79.2991 27.6043 79.3299 27.7594 79.3915 27.8635C79.453 27.9653 79.5323 28.0352 79.6294 28.0731C79.7288 28.1086 79.8366 28.1263 79.9526 28.1263C80.0378 28.1263 80.1124 28.1204 80.1763 28.1086C80.2402 28.0967 80.2899 28.0873 80.3254 28.0802L80.5172 28.9573C80.4556 28.981 80.368 29.0046 80.2544 29.0283C80.1408 29.0544 79.9987 29.0686 79.8283 29.0709C79.5489 29.0757 79.2885 29.0259 79.047 28.9218C78.8055 28.8176 78.6102 28.6566 78.4611 28.4388C78.3119 28.221 78.2374 27.9476 78.2374 27.6185V22.2385ZM90.6645 24.0922H89.5565C89.5139 23.8555 89.4346 23.6472 89.3186 23.4672C89.2026 23.2873 89.0606 23.1346 88.8925 23.0091C88.7244 22.8837 88.5362 22.789 88.3278 22.725C88.1219 22.6611 87.9029 22.6292 87.6709 22.6292C87.2518 22.6292 86.8766 22.7345 86.5452 22.9452C86.2161 23.1559 85.9557 23.4649 85.7639 23.8721C85.5745 24.2793 85.4798 24.7764 85.4798 25.3635C85.4798 25.9554 85.5745 26.4549 85.7639 26.8621C85.9557 27.2693 86.2173 27.5771 86.5487 27.7854C86.8802 27.9937 87.253 28.0979 87.6673 28.0979C87.897 28.0979 88.1148 28.0671 88.3207 28.0056C88.5291 27.9417 88.7173 27.8481 88.8854 27.725C89.0535 27.6019 89.1955 27.4516 89.3115 27.274C89.4299 27.0941 89.5116 26.8882 89.5565 26.6561L90.6645 26.6597C90.6053 27.0172 90.4905 27.3463 90.32 27.6469C90.1519 27.9452 89.9353 28.2033 89.6702 28.4211C89.4074 28.6365 89.1067 28.8034 88.7682 28.9218C88.4296 29.0401 88.0603 29.0993 87.6602 29.0993C87.0305 29.0993 86.4694 28.9502 85.977 28.6519C85.4846 28.3512 85.0963 27.9215 84.8122 27.3628C84.5305 26.8041 84.3896 26.1377 84.3896 25.3635C84.3896 24.587 84.5317 23.9206 84.8158 23.3642C85.0999 22.8055 85.4881 22.377 85.9805 22.0787C86.473 21.7781 87.0329 21.6277 87.6602 21.6277C88.0461 21.6277 88.406 21.6834 88.7398 21.7946C89.0759 21.9035 89.3778 22.0645 89.6453 22.2776C89.9128 22.4883 90.1342 22.7463 90.3094 23.0517C90.4846 23.3548 90.6029 23.7016 90.6645 24.0922ZM94.3399 29.11C93.8285 29.11 93.3823 28.9928 93.0011 28.7584C92.6199 28.524 92.324 28.1962 92.1133 27.7748C91.9026 27.3534 91.7973 26.8609 91.7973 26.2975C91.7973 25.7317 91.9026 25.2369 92.1133 24.8131C92.324 24.3893 92.6199 24.0603 93.0011 23.8259C93.3823 23.5915 93.8285 23.4743 94.3399 23.4743C94.8512 23.4743 95.2975 23.5915 95.6787 23.8259C96.0598 24.0603 96.3557 24.3893 96.5664 24.8131C96.7771 25.2369 96.8825 25.7317 96.8825 26.2975C96.8825 26.8609 96.7771 27.3534 96.5664 27.7748C96.3557 28.1962 96.0598 28.524 95.6787 28.7584C95.2975 28.9928 94.8512 29.11 94.3399 29.11ZM94.3434 28.2187C94.6749 28.2187 94.9495 28.1311 95.1673 27.9559C95.3851 27.7807 95.5461 27.5475 95.6502 27.2563C95.7568 26.9651 95.81 26.6443 95.81 26.2939C95.81 25.9459 95.7568 25.6263 95.6502 25.3351C95.5461 25.0416 95.3851 24.806 95.1673 24.6285C94.9495 24.4509 94.6749 24.3621 94.3434 24.3621C94.0096 24.3621 93.7326 24.4509 93.5125 24.6285C93.2947 24.806 93.1325 25.0416 93.026 25.3351C92.9218 25.6263 92.8697 25.9459 92.8697 26.2939C92.8697 26.6443 92.9218 26.9651 93.026 27.2563C93.1325 27.5475 93.2947 27.7807 93.5125 27.9559C93.7326 28.1311 94.0096 28.2187 94.3434 28.2187ZM99.2795 25.7613V28.9999H98.2177V23.5454H99.2369V24.4331H99.3043C99.4298 24.1443 99.6263 23.9123 99.8938 23.7371C100.164 23.5619 100.503 23.4743 100.913 23.4743C101.285 23.4743 101.61 23.5525 101.89 23.7087C102.169 23.8626 102.386 24.0922 102.539 24.3976C102.693 24.703 102.77 25.0806 102.77 25.5304V28.9999H101.708V25.6583C101.708 25.2629 101.605 24.954 101.4 24.7314C101.194 24.5065 100.911 24.3941 100.551 24.3941C100.305 24.3941 100.086 24.4473 99.8938 24.5539C99.7044 24.6604 99.5541 24.8167 99.4428 25.0226C99.3339 25.2262 99.2795 25.4724 99.2795 25.7613ZM106.642 29.11C106.114 29.11 105.659 28.9904 105.278 28.7513C104.899 28.5098 104.608 28.1772 104.405 27.7535C104.201 27.3297 104.099 26.8444 104.099 26.2975C104.099 25.7435 104.203 25.2546 104.412 24.8309C104.62 24.4047 104.914 24.0721 105.292 23.833C105.671 23.5939 106.117 23.4743 106.631 23.4743C107.045 23.4743 107.415 23.5513 107.739 23.7052C108.063 23.8567 108.325 24.0697 108.524 24.3444C108.725 24.619 108.845 24.9398 108.883 25.3067H107.849C107.792 25.051 107.662 24.8309 107.459 24.6462C107.257 24.4615 106.987 24.3692 106.649 24.3692C106.353 24.3692 106.094 24.4473 105.871 24.6036C105.651 24.7575 105.479 24.9776 105.356 25.2641C105.233 25.5482 105.172 25.8844 105.172 26.2726C105.172 26.6704 105.232 27.0136 105.353 27.3025C105.474 27.5913 105.644 27.815 105.864 27.9736C106.087 28.1322 106.348 28.2115 106.649 28.2115C106.85 28.2115 107.032 28.1749 107.196 28.1015C107.362 28.0257 107.5 27.918 107.611 27.7783C107.725 27.6386 107.804 27.4705 107.849 27.274H108.883C108.845 27.6268 108.73 27.9417 108.538 28.2187C108.346 28.4956 108.09 28.7134 107.768 28.8721C107.448 29.0307 107.073 29.11 106.642 29.11ZM112.519 29.11C111.982 29.11 111.519 28.9952 111.13 28.7655C110.745 28.5335 110.446 28.208 110.236 27.789C110.027 27.3676 109.923 26.874 109.923 26.3081C109.923 25.7494 110.027 25.257 110.236 24.8309C110.446 24.4047 110.74 24.0721 111.116 23.833C111.495 23.5939 111.938 23.4743 112.444 23.4743C112.752 23.4743 113.05 23.5252 113.339 23.627C113.628 23.7288 113.887 23.8886 114.117 24.1064C114.347 24.3242 114.528 24.6071 114.66 24.9552C114.793 25.3008 114.859 25.721 114.859 26.2158V26.5922H110.523V25.7968H113.819C113.819 25.5174 113.762 25.27 113.648 25.0546C113.535 24.8368 113.375 24.6651 113.169 24.5397C112.965 24.4142 112.726 24.3515 112.451 24.3515C112.153 24.3515 111.893 24.4249 111.67 24.5716C111.45 24.716 111.28 24.9054 111.159 25.1398C111.04 25.3718 110.981 25.624 110.981 25.8962V26.5177C110.981 26.8822 111.045 27.1924 111.173 27.4481C111.303 27.7037 111.484 27.899 111.716 28.034C111.948 28.1666 112.219 28.2329 112.53 28.2329C112.731 28.2329 112.914 28.2044 113.08 28.1476C113.246 28.0884 113.389 28.0008 113.51 27.8848C113.63 27.7688 113.723 27.6256 113.787 27.4552L114.792 27.6363C114.711 27.9322 114.567 28.1914 114.358 28.414C114.152 28.6341 113.893 28.8058 113.581 28.9289C113.271 29.0496 112.917 29.11 112.519 29.11ZM116.187 31.0454V23.5454H117.224V24.4296H117.313C117.374 24.316 117.463 24.1846 117.579 24.0354C117.695 23.8863 117.856 23.7561 118.062 23.6448C118.268 23.5311 118.54 23.4743 118.879 23.4743C119.319 23.4743 119.712 23.5856 120.058 23.8081C120.404 24.0307 120.675 24.3515 120.871 24.7705C121.07 25.1895 121.169 25.6938 121.169 26.2833C121.169 26.8728 121.071 27.3782 120.875 27.7996C120.678 28.2186 120.408 28.5418 120.065 28.7691C119.722 28.994 119.33 29.1064 118.89 29.1064C118.558 29.1064 118.287 29.0508 118.076 28.9395C117.868 28.8283 117.705 28.6981 117.586 28.5489C117.468 28.3998 117.377 28.2672 117.313 28.1512H117.249V31.0454H116.187ZM117.228 26.2726C117.228 26.6561 117.283 26.9923 117.395 27.2811C117.506 27.57 117.667 27.7961 117.878 27.9594C118.088 28.1204 118.346 28.2009 118.652 28.2009C118.969 28.2009 119.234 28.1169 119.447 27.9488C119.66 27.7783 119.821 27.5475 119.93 27.2563C120.041 26.9651 120.097 26.6372 120.097 26.2726C120.097 25.9128 120.043 25.5896 119.934 25.3032C119.827 25.0167 119.666 24.7906 119.451 24.6249C119.238 24.4592 118.971 24.3763 118.652 24.3763C118.344 24.3763 118.084 24.4556 117.87 24.6142C117.66 24.7729 117.5 24.9942 117.391 25.2783C117.282 25.5624 117.228 25.8938 117.228 26.2726ZM125.055 23.5454V24.3976H122.076V23.5454H125.055ZM122.875 22.2385H123.937V27.3983C123.937 27.6043 123.967 27.7594 124.029 27.8635C124.091 27.9653 124.17 28.0352 124.267 28.0731C124.366 28.1086 124.474 28.1263 124.59 28.1263C124.675 28.1263 124.75 28.1204 124.814 28.1086C124.878 28.0967 124.927 28.0873 124.963 28.0802L125.155 28.9573C125.093 28.981 125.006 29.0046 124.892 29.0283C124.778 29.0544 124.636 29.0686 124.466 29.0709C124.186 29.0757 123.926 29.0259 123.685 28.9218C123.443 28.8176 123.248 28.6566 123.099 28.4388C122.949 28.221 122.875 27.9476 122.875 27.6185V22.2385Z" fill="#373637"/>
  <defs>
    <linearGradient id="paint0_linear_3177_3813" x1="10.9333" y1="11.6" x2="34.8" y2="38" gradientUnits="userSpaceOnUse">
      <stop stop-color="#E5421E"/>
      <stop offset="0.4362" stop-color="#D82108"/>
    </linearGradient>
  </defs>
</svg>