<svg xmlns="http://www.w3.org/2000/svg" width="16" height="11" viewBox="0 0 16 11" fill="none">
  <path d="M0 0.5C0 0.223858 0.223858 0 0.5 0H15.5C15.7761 0 16 0.223858 16 0.5C16 0.776142 15.7761 1 15.5 1H0.5C0.223858 1 0 0.776142 0 0.5ZM0 5.5C0 5.22386 0.223858 5 0.5 5H15.5C15.7761 5 16 5.22386 16 5.5C16 5.77614 15.7761 6 15.5 6H0.5C0.223858 6 0 5.77614 0 5.5ZM0.5 10C0.223858 10 0 10.2239 0 10.5C0 10.7761 0.223858 11 0.5 11H15.5C15.7761 11 16 10.7761 16 10.5C16 10.2239 15.7761 10 15.5 10H0.5Z" fill="black"/>
</svg>