<svg xmlns="http://www.w3.org/2000/svg" width="12" height="12" viewBox="0 0 12 12" fill="none">
  <path d="M9.89202 -0.000976562C11.0161 -0.000976562 11.9347 0.878732 11.9967 1.98728L12 2.1069L11.9996 9.89257C11.9995 11.0567 11.0558 12.0005 9.8916 12.0005H2.10798C0.983933 12.0005 0.0653508 11.1208 0.00333694 10.0122L0 9.89258L0.000389533 2.10691C0.000525039 0.94279 0.944243 -0.000976562 2.10837 -0.000976562H9.89202ZM5.51309 4.53922L0.972899 4.53987L0.972966 9.89254L0.977618 9.99678C1.03023 10.5748 1.5162 11.0276 2.10795 11.0276L5.51309 11.0272V4.53922ZM11.0262 8.43081L6.48599 8.43146V11.0272L9.89156 11.0276C10.5184 11.0276 11.0266 10.5193 11.0267 9.8925L11.0262 8.43081ZM9.89205 0.971922L6.48599 0.971274V7.45856L11.0262 7.45791L11.027 2.10695L11.0224 2.0027C10.9698 1.42468 10.4838 0.971922 9.89205 0.971922ZM5.51309 0.971274L2.10842 0.971922L2.01535 0.975692C1.43201 1.02308 0.973358 1.51149 0.973289 2.10699L0.972899 3.56697L5.51309 3.56632V0.971274Z" fill="#A6A6A6"/>
</svg>