<svg xmlns="http://www.w3.org/2000/svg" width="13" height="16" viewBox="0 0 13 16" fill="none">
  <path d="M9.2625 1.5001C9.2625 1.14111 9.55351 0.850098 9.9125 0.850098H12.35C12.709 0.850098 13 1.14111 13 1.5001V4.7501C13 5.10908 12.709 5.4001 12.35 5.4001H11.7V14.6626C11.7 14.9318 11.4817 15.1501 11.2125 15.1501C10.9433 15.1501 10.725 14.9318 10.725 14.6626V5.4001H9.9125C9.55351 5.4001 9.2625 5.10908 9.2625 4.7501V1.5001ZM8.31957 2.1501C8.41869 2.1501 8.5165 2.157 8.6125 2.17038V3.16335C8.51861 3.13834 8.42034 3.1251 8.31957 3.1251H3.38126C2.8593 3.1251 2.40432 3.48034 2.27772 3.98671L1.76188 6.0501H10.075V7.0251H1.4625C1.19326 7.0251 0.975 7.24336 0.975 7.5126V11.2501H10.075V12.2251H9.42435L9.425 13.0355C9.425 13.1252 9.49775 13.198 9.5875 13.198H10.075V14.173H9.5875C8.95928 14.173 8.45 13.6637 8.45 13.0355L8.44935 12.2251H3.2526L3.25265 13.0355C3.25265 13.6637 2.74338 14.173 2.11515 14.173H1.1375C0.509276 14.173 0 13.6637 0 13.0355V7.5126C0 6.98295 0.281552 6.51906 0.703152 6.26243L0.83785 5.7251H0.4875C0.240698 5.7251 0.0367309 5.5417 0.00445033 5.30375L0 5.2376C0 4.9908 0.1834 4.78683 0.421349 4.75455L0.4875 4.7501H1.08095L1.33184 3.75024C1.56694 2.80983 2.4119 2.1501 3.38126 2.1501H8.31957ZM2.2776 12.2251H0.97435L0.975 13.0355C0.975 13.1252 1.04775 13.198 1.1375 13.198H2.11515C2.2049 13.198 2.27765 13.1252 2.27765 13.0355L2.2776 12.2251ZM4.71184 9.3001H6.98799C7.25723 9.3001 7.47549 9.51836 7.47549 9.7876C7.47549 10.0344 7.29209 10.2384 7.05414 10.2706L6.98799 10.2751H4.71184C4.44261 10.2751 4.22434 10.0568 4.22434 9.7876C4.22434 9.5408 4.40774 9.33683 4.64569 9.30455L4.71184 9.3001ZM9.09998 8.0001C9.45896 8.0001 9.74997 8.29111 9.74997 8.65008C9.74997 9.00906 9.45896 9.30007 9.09998 9.30007C8.74101 9.30007 8.45 9.00906 8.45 8.65008C8.45 8.29111 8.74101 8.0001 9.09998 8.0001ZM2.59998 8.0001C2.95896 8.0001 3.24997 8.29111 3.24997 8.65008C3.24997 9.00906 2.95896 9.30007 2.59998 9.30007C2.24101 9.30007 1.95 9.00906 1.95 8.65008C1.95 8.29111 2.24101 8.0001 2.59998 8.0001Z" fill="#A6A6A6"/>
</svg>