<svg xmlns="http://www.w3.org/2000/svg" width="12" height="14" viewBox="0 0 12 14" fill="none">
  <path d="M1.75736 1.87259C4.1005 -0.470552 7.8995 -0.470552 10.2426 1.87259C12.5858 4.21574 12.5858 8.01473 10.2426 10.3579L9.42473 11.1668C8.82187 11.7585 8.03967 12.5192 7.07783 13.4491C6.47679 14.0303 5.52322 14.0302 4.92227 13.449L2.51663 11.1089C2.21429 10.8121 1.96122 10.5617 1.75736 10.3579C-0.585786 8.01473 -0.585786 4.21574 1.75736 1.87259ZM9.51176 2.60347C7.57227 0.663977 4.42773 0.663977 2.48824 2.60347C0.548742 4.54296 0.548742 7.68751 2.48824 9.627L3.51295 10.6382C4.07723 11.1905 4.78661 11.8798 5.64085 12.706C5.84117 12.8997 6.15902 12.8998 6.35937 12.706L8.6987 10.4311C9.02185 10.1139 9.29289 9.84587 9.51176 9.627C11.4513 7.68751 11.4513 4.54296 9.51176 2.60347ZM6 4.23658C7.14229 4.23658 8.0683 5.16259 8.0683 6.30488C8.0683 7.44717 7.14229 8.37318 6 8.37318C4.85771 8.37318 3.9317 7.44717 3.9317 6.30488C3.9317 5.16259 4.85771 4.23658 6 4.23658ZM6 5.2702C5.42856 5.2702 4.96532 5.73344 4.96532 6.30488C4.96532 6.87632 5.42856 7.33957 6 7.33957C6.57144 7.33957 7.03468 6.87632 7.03468 6.30488C7.03468 5.73344 6.57144 5.2702 6 5.2702Z" fill="#A6A6A6"/>
</svg>