<svg xmlns="http://www.w3.org/2000/svg" width="20" height="20" viewBox="0 0 20 20" fill="currentColor">
  <path fill-rule="evenodd" clip-rule="evenodd" d="M8.65191 2.37305C6.9706 2.37305 5.35814 3.04095 4.16927 4.22982C2.9804 5.41869 2.3125 7.03114 2.3125 8.71246C2.3125 10.3938 2.9804 12.0062 4.16927 13.1951C5.35814 14.384 6.9706 15.0519 8.65191 15.0519C10.0813 15.0519 11.4609 14.5691 12.5728 13.694L16.4086 17.5303C16.7014 17.8232 17.1763 17.8233 17.4692 17.5304C17.7621 17.2375 17.7622 16.7627 17.4693 16.4697L13.6334 12.6333C14.5086 11.5214 14.9913 10.1418 14.9913 8.71246C14.9913 7.03114 14.3234 5.41869 13.1346 4.22982C11.9457 3.04095 10.3332 2.37305 8.65191 2.37305ZM12.091 12.1173C12.9878 11.2114 13.4913 9.98789 13.4913 8.71246C13.4913 7.42897 12.9815 6.19804 12.0739 5.29048C11.1663 4.38291 9.9354 3.87305 8.65191 3.87305C7.36842 3.87305 6.1375 4.38291 5.22993 5.29048C4.32237 6.19804 3.8125 7.42897 3.8125 8.71246C3.8125 9.99595 4.32237 11.2269 5.22993 12.1344C6.1375 13.042 7.36842 13.5519 8.65191 13.5519C9.92736 13.5519 11.1509 13.0484 12.0568 12.1515C12.0623 12.1456 12.0679 12.1398 12.0737 12.1341C12.0794 12.1284 12.0851 12.1228 12.091 12.1173Z" fill="currentColor"/>
</svg>