<svg xmlns="http://www.w3.org/2000/svg" width="24" height="24" viewBox="0 0 24 24" fill="none">
  <path fill-rule="evenodd" clip-rule="evenodd" d="M10.5 3.25C8.57718 3.25 6.73311 4.01384 5.37348 5.37348C4.01384 6.73311 3.25 8.57718 3.25 10.5C3.25 12.4228 4.01384 14.2669 5.37348 15.6265C6.73311 16.9862 8.57718 17.75 10.5 17.75C12.1712 17.75 13.7828 17.173 15.0687 16.1294L19.4697 20.5303C19.7626 20.8232 20.2374 20.8232 20.5303 20.5303C20.8232 20.2374 20.8232 19.7626 20.5303 19.4697L16.1294 15.0687C17.173 13.7828 17.75 12.1712 17.75 10.5C17.75 8.57718 16.9862 6.73311 15.6265 5.37348C14.2669 4.01384 12.4228 3.25 10.5 3.25ZM14.845 14.2661C15.7482 13.2242 16.25 11.888 16.25 10.5C16.25 8.97501 15.6442 7.51247 14.5659 6.43414C13.4875 5.3558 12.025 4.75 10.5 4.75C8.97501 4.75 7.51247 5.3558 6.43414 6.43414C5.3558 7.51247 4.75 8.97501 4.75 10.5C4.75 12.025 5.3558 13.4875 6.43414 14.5659C7.51247 15.6442 8.97501 16.25 10.5 16.25C11.888 16.25 13.2242 15.7482 14.2661 14.845C14.295 14.7075 14.3629 14.5765 14.4697 14.4697C14.5765 14.3629 14.7075 14.295 14.845 14.2661Z" fill="#676879"/>
</svg>