<svg xmlns="http://www.w3.org/2000/svg" width="11" height="14" viewBox="0 0 11 14" fill="none">
  <path d="M8.42181 0.46875C9.84564 0.46875 10.9999 1.62299 10.9999 3.04682V9.23418C10.9999 10.4546 10.1518 11.477 9.01284 11.7442L10.7059 12.5498C10.963 12.6723 11.0722 12.9799 10.9498 13.237C10.8376 13.4727 10.5697 13.5841 10.3278 13.5067L10.2626 13.4809L6.75798 11.8123H4.24109L0.737414 13.4809C0.48031 13.6033 0.172637 13.4941 0.0502067 13.237C-0.0722236 12.9799 0.0369508 12.6723 0.294054 12.5498L1.98686 11.7441C0.848036 11.4769 0.000120285 10.4545 0.000120285 9.23418V3.04682C0.000120285 1.62299 1.15436 0.46875 2.57819 0.46875H8.42181ZM9.96853 8.03109H1.03123L1.03135 9.23418C1.03135 10.0885 1.72389 10.781 2.57819 10.781H8.42181C9.27611 10.781 9.96865 10.0885 9.96865 9.23418L9.96853 8.03109ZM2.75006 8.71857C3.12975 8.71857 3.43755 9.02637 3.43755 9.40606C3.43755 9.78574 3.12975 10.0935 2.75006 10.0935C2.37037 10.0935 2.06258 9.78574 2.06258 9.40606C2.06258 9.02637 2.37037 8.71857 2.75006 8.71857ZM8.24994 8.71857C8.62963 8.71857 8.93742 9.02637 8.93742 9.40606C8.93742 9.78574 8.62963 10.0935 8.24994 10.0935C7.87025 10.0935 7.56245 9.78574 7.56245 9.40606C7.56245 9.02637 7.87025 8.71857 8.24994 8.71857ZM8.42181 1.49998H2.57819C1.72389 1.49998 1.03135 2.19252 1.03135 3.04682L1.03123 6.99986H9.96853L9.96865 3.04682C9.96865 2.19252 9.27611 1.49998 8.42181 1.49998ZM6.35936 2.53121C6.64412 2.53121 6.87497 2.76205 6.87497 3.04682C6.87497 3.33158 6.64412 3.56243 6.35936 3.56243H4.64064C4.35588 3.56243 4.12503 3.33158 4.12503 3.04682C4.12503 2.76205 4.35588 2.53121 4.64064 2.53121H6.35936Z" fill="#5E5E5E"/>
</svg>