<svg xmlns="http://www.w3.org/2000/svg" width="32" height="32" viewBox="0 0 32 32" fill="none">
  <path d="M6.14765 6.35949L6.24408 6.24408C6.53336 5.9548 6.9824 5.92266 7.30718 6.14765L7.42259 6.24408L16 14.8217L24.5774 6.24408C24.8667 5.9548 25.3157 5.92266 25.6405 6.14765L25.7559 6.24408C26.0452 6.53336 26.0773 6.9824 25.8523 7.30718L25.7559 7.42259L17.1783 16L25.7559 24.5774C26.0452 24.8667 26.0773 25.3157 25.8523 25.6405L25.7559 25.7559C25.4666 26.0452 25.0176 26.0773 24.6928 25.8523L24.5774 25.7559L16 17.1783L7.42259 25.7559C7.13331 26.0452 6.68427 26.0773 6.35949 25.8523L6.24408 25.7559C5.9548 25.4666 5.92266 25.0176 6.14765 24.6928L6.24408 24.5774L14.8217 16L6.24408 7.42259C5.9548 7.13331 5.92266 6.68427 6.14765 6.35949L6.24408 6.24408L6.14765 6.35949Z" fill="black"/>
</svg>