<svg width="24" height="24" viewBox="0 0 24 24" fill="none" xmlns="http://www.w3.org/2000/svg">
<path d="M15.8571 11C15.8571 13.1302 14.1302 14.8571 12 14.8571C9.86976 14.8571 8.14286 13.1302 8.14286 11C8.14286 8.86976 9.86976 7.14286 12 7.14286C14.1302 7.14286 15.8571 8.86976 15.8571 11ZM14.5714 11C14.5714 9.57984 13.4202 8.42857 12 8.42857C10.5798 8.42857 9.42857 9.57984 9.42857 11C9.42857 12.4202 10.5798 13.5714 12 13.5714C13.4202 13.5714 14.5714 12.4202 14.5714 11ZM18.364 17.3707C21.8787 13.8544 21.8787 8.15344 18.364 4.63719C14.8492 1.12094 9.15076 1.12094 5.63604 4.63719C2.12132 8.15344 2.12132 13.8544 5.63604 17.3707L7.59165 19.2978L10.2181 21.85L10.3889 22.0014C11.385 22.8088 12.8437 22.7585 13.7821 21.8503L16.9144 18.8032L18.364 17.3707ZM6.54213 5.54368C9.55643 2.52806 14.4436 2.52806 17.4579 5.54368C20.3949 8.48197 20.4702 13.1991 17.6838 16.2286L17.4579 16.4642L15.7591 18.1407L12.8912 20.9289L12.7716 21.0313C12.3162 21.3756 11.6841 21.3755 11.2287 21.0312L11.1092 20.9288L7.27667 17.1933L6.54213 16.4642L6.31621 16.2286C3.52981 13.1991 3.60512 8.48197 6.54213 5.54368Z" fill="#212121"/>
</svg>
