<svg xmlns="http://www.w3.org/2000/svg" width="113" height="32" viewBox="0 0 113 32" fill="none">
  <path d="M29.7256 10.5098L21.4902 2.27441C18.4577 -0.758136 13.5423 -0.758136 10.5098 2.27441L2.27441 10.5098C-0.758136 13.5423 -0.758136 18.4577 2.27441 21.4902L10.5098 29.7256C13.5423 32.7581 18.4577 32.7581 21.4902 29.7256L29.7256 21.4902C32.7581 18.4577 32.7581 13.5423 29.7256 10.5098ZM26.9805 18.7451L18.7451 26.9805C17.2296 28.496 14.7704 28.496 13.2549 26.9805L5.01953 18.7451C3.50402 17.2296 3.50402 14.7704 5.01953 13.2549L13.2549 5.01952C14.7704 3.50402 17.2296 3.50402 18.7451 5.01952L26.9805 13.2549C28.496 14.7704 28.496 17.2296 26.9805 18.7451Z" fill="url(#paint0_linear_463_258)"/>
  <path d="M44.8082 14H43.0482V4.09598H39.3042V2.51198H48.5522V4.09598H44.8082V14ZM51.1949 9.66398V14H49.5789V5.51998H51.0829V7.31198C51.6749 6.14398 52.955 5.40798 54.347 5.40798V7.08798C52.5229 6.99198 51.1949 7.79198 51.1949 9.66398ZM61.0018 14V12.688C60.4738 13.632 59.5298 14.16 58.2818 14.16C56.5218 14.16 55.3698 13.152 55.3698 11.6C55.3698 9.93598 56.6978 9.07198 59.2258 9.07198C59.7218 9.07198 60.1218 9.08798 60.8098 9.16798V8.54398C60.8098 7.32798 60.1538 6.63998 59.0338 6.63998C57.8498 6.63998 57.1298 7.34398 57.0818 8.52798H55.6098C55.6898 6.62398 57.0498 5.35998 59.0338 5.35998C61.1298 5.35998 62.3458 6.54398 62.3458 8.55998V14H61.0018ZM56.9058 11.552C56.9058 12.432 57.5618 13.008 58.6018 13.008C59.9618 13.008 60.8098 12.16 60.8098 10.864V10.176C60.1858 10.096 59.7378 10.08 59.3218 10.08C57.7058 10.08 56.9058 10.56 56.9058 11.552ZM66.3624 9.21598V14H64.7464V5.51998H66.2504V6.92798C66.8264 5.98398 67.7864 5.35998 68.9544 5.35998C70.6984 5.35998 71.8504 6.47998 71.8504 8.51198V14H70.2344V9.05598C70.2344 7.59998 69.5944 6.78398 68.3944 6.78398C67.2904 6.78398 66.3624 7.71198 66.3624 9.21598ZM80.9564 11.472C80.9564 13.136 79.6604 14.16 77.4044 14.16C75.1644 14.16 73.8364 13.056 73.6764 11.232H75.2284C75.2924 12.288 76.1404 12.944 77.4364 12.944C78.5724 12.944 79.3244 12.544 79.3244 11.744C79.3244 11.04 78.8924 10.736 77.8364 10.528L76.4604 10.272C74.8924 9.96798 74.0124 9.16798 74.0124 7.88798C74.0124 6.39998 75.3084 5.35998 77.2764 5.35998C79.3084 5.35998 80.6844 6.44798 80.8284 8.19198H79.2764C79.1804 7.16798 78.4284 6.57598 77.2924 6.57598C76.2684 6.57598 75.5804 7.00798 75.5804 7.74398C75.5804 8.43198 76.0124 8.75198 77.0364 8.94398L78.4764 9.21598C80.1564 9.51998 80.9564 10.256 80.9564 11.472ZM84.9288 3.55198C84.9288 4.15998 84.4488 4.62398 83.7608 4.62398C83.0728 4.62398 82.5768 4.15998 82.5768 3.55198C82.5768 2.92798 83.0728 2.47998 83.7608 2.47998C84.4488 2.47998 84.9288 2.92798 84.9288 3.55198ZM84.5768 14H82.9608V5.51998H84.5768V14ZM91.8442 12.432V13.856C91.3482 14.08 90.9162 14.16 90.4042 14.16C88.8362 14.16 87.7482 13.312 87.7482 11.44V6.89598H85.8762V5.51998H87.7482V3.00798H89.3642V5.51998H91.9242V6.89598H89.3642V11.072C89.3642 12.24 89.9242 12.656 90.7882 12.656C91.1722 12.656 91.5082 12.592 91.8442 12.432Z" fill="black"/>
  <path d="M44.7202 29L44.0702 27.22H40.9702L40.3102 29H39.2002L41.9502 21.82H43.1602L45.8902 29H44.7202ZM42.5302 23.02L41.3002 26.33H43.7402L42.5302 23.02ZM52.0098 26.35C52.0098 27.95 51.0898 29.1 49.6698 29.1C48.9498 29.1 48.3398 28.74 47.9598 28.1V30.93H46.9498V23.7H47.8898V24.67C48.2698 23.99 48.9198 23.6 49.6698 23.6C51.0798 23.6 52.0098 24.75 52.0098 26.35ZM50.9598 26.35C50.9598 25.16 50.3298 24.49 49.4598 24.49C48.6198 24.49 47.9598 25.16 47.9598 26.35C47.9598 27.52 48.6098 28.2 49.4598 28.2C50.3298 28.2 50.9598 27.54 50.9598 26.35ZM58.2438 26.35C58.2438 27.95 57.3238 29.1 55.9038 29.1C55.1838 29.1 54.5738 28.74 54.1938 28.1V30.93H53.1838V23.7H54.1238V24.67C54.5038 23.99 55.1538 23.6 55.9038 23.6C57.3138 23.6 58.2438 24.75 58.2438 26.35ZM57.1938 26.35C57.1938 25.16 56.5638 24.49 55.6938 24.49C54.8538 24.49 54.1938 25.16 54.1938 26.35C54.1938 27.52 54.8438 28.2 55.6938 28.2C56.5638 28.2 57.1938 27.54 57.1938 26.35ZM63.1476 29H62.1376V24.56H60.9676V23.7H62.1376V23.31C62.1376 22.29 62.6876 21.73 63.6876 21.73C63.9876 21.73 64.2276 21.78 64.4276 21.86V22.68C64.2676 22.61 64.0876 22.59 63.9076 22.59C63.4276 22.59 63.1476 22.81 63.1476 23.32V23.7H64.6276V24.56H63.1476V29ZM67.6214 29.1C66.1214 29.1 65.0214 27.92 65.0214 26.35C65.0214 24.78 66.1214 23.6 67.6214 23.6C69.1214 23.6 70.2214 24.78 70.2214 26.35C70.2214 27.92 69.1214 29.1 67.6214 29.1ZM67.6214 28.21C68.4914 28.21 69.1814 27.51 69.1814 26.35C69.1814 25.19 68.4914 24.5 67.6214 24.5C66.7514 24.5 66.0714 25.19 66.0714 26.35C66.0714 27.51 66.7514 28.21 67.6214 28.21ZM72.411 26.29V29H71.401V23.7H72.341V24.82C72.711 24.09 73.511 23.63 74.381 23.63V24.68C73.241 24.62 72.411 25.12 72.411 26.29ZM82.5901 29L81.9401 27.22H78.8401L78.1801 29H77.0701L79.8201 21.82H81.0301L83.7601 29H82.5901ZM80.4001 23.02L79.1701 26.33H81.6101L80.4001 23.02ZM87.507 28.02V28.91C87.197 29.05 86.927 29.1 86.607 29.1C85.627 29.1 84.947 28.57 84.947 27.4V24.56H83.777V23.7H84.947V22.13H85.957V23.7H87.557V24.56H85.957V27.17C85.957 27.9 86.307 28.16 86.847 28.16C87.087 28.16 87.297 28.12 87.507 28.02ZM89.6909 29H88.6709V21.82H89.6909V29ZM94.4528 29V28.18C94.1228 28.77 93.5328 29.1 92.7528 29.1C91.6528 29.1 90.9328 28.47 90.9328 27.5C90.9328 26.46 91.7628 25.92 93.3428 25.92C93.6528 25.92 93.9028 25.93 94.3328 25.98V25.59C94.3328 24.83 93.9228 24.4 93.2228 24.4C92.4828 24.4 92.0328 24.84 92.0028 25.58H91.0828C91.1328 24.39 91.9828 23.6 93.2228 23.6C94.5328 23.6 95.2928 24.34 95.2928 25.6V29H94.4528ZM91.8928 27.47C91.8928 28.02 92.3028 28.38 92.9528 28.38C93.8028 28.38 94.3328 27.85 94.3328 27.04V26.61C93.9428 26.56 93.6628 26.55 93.4028 26.55C92.3928 26.55 91.8928 26.85 91.8928 27.47ZM97.8032 26.01V29H96.7932V23.7H97.7332V24.58C98.0932 23.99 98.6932 23.6 99.4232 23.6C100.513 23.6 101.233 24.3 101.233 25.57V29H100.223V25.91C100.223 25 99.8232 24.49 99.0732 24.49C98.3832 24.49 97.8032 25.07 97.8032 26.01ZM105.695 28.02V28.91C105.385 29.05 105.115 29.1 104.795 29.1C103.815 29.1 103.135 28.57 103.135 27.4V24.56H101.965V23.7H103.135V22.13H104.145V23.7H105.745V24.56H104.145V27.17C104.145 27.9 104.495 28.16 105.035 28.16C105.275 28.16 105.485 28.12 105.695 28.02ZM110.069 29V28.18C109.739 28.77 109.149 29.1 108.369 29.1C107.269 29.1 106.549 28.47 106.549 27.5C106.549 26.46 107.379 25.92 108.959 25.92C109.269 25.92 109.519 25.93 109.949 25.98V25.59C109.949 24.83 109.539 24.4 108.839 24.4C108.099 24.4 107.649 24.84 107.619 25.58H106.699C106.749 24.39 107.599 23.6 108.839 23.6C110.149 23.6 110.909 24.34 110.909 25.6V29H110.069ZM107.509 27.47C107.509 28.02 107.919 28.38 108.569 28.38C109.419 28.38 109.949 27.85 109.949 27.04V26.61C109.559 26.56 109.279 26.55 109.019 26.55C108.009 26.55 107.509 26.85 107.509 27.47Z" fill="#787878"/>
  <defs>
    <linearGradient id="paint0_linear_463_258" x1="9.5" y1="7.5" x2="32" y2="27.5" gradientUnits="userSpaceOnUse">
      <stop stop-color="#F28548"/>
      <stop offset="1" stop-color="#C65854"/>
    </linearGradient>
  </defs>
</svg>