<svg width="30" height="30" viewBox="0 0 30 30" fill="none" xmlns="http://www.w3.org/2000/svg">
<g id="Group 13">
<path id="Vector" d="M15 30C23.2843 30 30 23.2843 30 15C30 6.71573 23.2843 0 15 0C6.71573 0 0 6.71573 0 15C0 23.2843 6.71573 30 15 30Z" fill="#DB422F"/>
<path id="Vector_2" d="M15 27.9545C22.1546 27.9545 27.9545 22.1546 27.9545 15C27.9545 7.84536 22.1546 2.04541 15 2.04541C7.84536 2.04541 2.04541 7.84536 2.04541 15C2.04541 22.1546 7.84536 27.9545 15 27.9545Z" fill="white"/>
<path id="Vector_3" d="M16.0842 19.3704C16.0842 19.9772 15.6137 20.4477 15.0069 20.4477C14.4001 20.4477 13.916 19.9772 13.916 19.3704C13.916 18.7636 14.4069 18.2931 15.0069 18.2931C15.6069 18.2931 16.0842 18.7636 16.0842 19.3704ZM14.1615 17.3454L14.0115 9.54541H15.9955L15.8455 17.3454H14.1615Z" fill="#DB422F"/>
</g>
</svg>
