<svg width="20" height="20" viewBox="0 0 20 20" fill="none" xmlns="http://www.w3.org/2000/svg">
<path d="M0 2.68182C0 2.30526 0.279822 2 0.625 2H19.375C19.7202 2 20 2.30526 20 2.68182C20 3.05838 19.7202 3.36364 19.375 3.36364H0.625C0.279822 3.36364 0 3.05838 0 2.68182ZM0 9.5C0 9.12344 0.279822 8.81818 0.625 8.81818H19.375C19.7202 8.81818 20 9.12344 20 9.5C20 9.87656 19.7202 10.1818 19.375 10.1818H0.625C0.279822 10.1818 0 9.87656 0 9.5ZM0.625 15.6364C0.279822 15.6364 0 15.9416 0 16.3182C0 16.6947 0.279822 17 0.625 17H19.375C19.7202 17 20 16.6947 20 16.3182C20 15.9416 19.7202 15.6364 19.375 15.6364H0.625Z" fill="white"/>
</svg>
