<svg width="113" height="32" viewBox="0 0 113 32" fill="none" xmlns="http://www.w3.org/2000/svg">
<path d="M29.7256 10.5098L21.4902 2.27441C18.4577 -0.758135 13.5423 -0.758135 10.5098 2.27441L2.27441 10.5098C-0.758135 13.5423 -0.758135 18.4577 2.27441 21.4902L10.5098 29.7256C13.5423 32.7581 18.4577 32.7581 21.4902 29.7256L29.7256 21.4902C32.7581 18.4577 32.7581 13.5423 29.7256 10.5098ZM26.9805 18.7451L18.7451 26.9805C17.2296 28.496 14.7704 28.496 13.2549 26.9805L5.01953 18.7451C3.50402 17.2296 3.50402 14.7704 5.01953 13.2549L13.2549 5.01952C14.7704 3.50402 17.2296 3.50402 18.7451 5.01952L26.9805 13.2549C28.496 14.7704 28.496 17.2296 26.9805 18.7451Z" fill="url(#paint0_linear_172_445)"/>
<path d="M48.376 10.704C48.376 12.8 46.84 14 44.456 14H40.248V2.512H44.232C46.552 2.512 47.944 3.584 47.944 5.52C47.944 6.608 47.288 7.536 46.184 8.016C47.608 8.416 48.376 9.392 48.376 10.704ZM44.12 3.92H41.864V7.376H44.12C45.512 7.376 46.264 6.72 46.264 5.648C46.264 4.576 45.512 3.92 44.12 3.92ZM44.344 8.784H41.864V12.592H44.344C45.848 12.592 46.696 11.872 46.696 10.656C46.696 9.488 45.848 8.784 44.344 8.784ZM54.0043 14.16C51.5562 14.16 49.9082 12.384 49.9082 9.712C49.9082 7.2 51.6202 5.36 53.9563 5.36C56.4843 5.36 58.1643 7.408 57.8763 10.16H51.5562C51.6842 11.888 52.5482 12.896 53.9722 12.896C55.1723 12.896 56.0043 12.24 56.2762 11.136H57.8763C57.4602 13.024 56.0043 14.16 54.0043 14.16ZM53.9243 6.576C52.6282 6.576 51.7482 7.504 51.5722 9.088H56.1642C56.0842 7.52 55.2362 6.576 53.9243 6.576ZM61.4664 14H59.8344V2.512H61.4664V14ZM68.7334 12.432V13.856C68.2374 14.08 67.8054 14.16 67.2934 14.16C65.7254 14.16 64.6374 13.312 64.6374 11.44V6.896H62.7654V5.52H64.6374V3.008H66.2534V5.52H68.8134V6.896H66.2534V11.072C66.2534 12.24 66.8134 12.656 67.6774 12.656C68.0614 12.656 68.3974 12.592 68.7334 12.432ZM77.6836 14H70.7236V2.512H72.4836V12.416H77.6836V14ZM81.4911 3.552C81.4911 4.16 81.0111 4.624 80.3231 4.624C79.6351 4.624 79.1391 4.16 79.1391 3.552C79.1391 2.928 79.6351 2.48 80.3231 2.48C81.0111 2.48 81.4911 2.928 81.4911 3.552ZM81.1391 14H79.5231V5.52H81.1391V14ZM85.2385 9.216V14H83.6225V5.52H85.1265V6.928C85.7025 5.984 86.6625 5.36 87.8305 5.36C89.5745 5.36 90.7265 6.48 90.7265 8.512V14H89.1105V9.056C89.1105 7.6 88.4705 6.784 87.2705 6.784C86.1665 6.784 85.2385 7.712 85.2385 9.216ZM96.6005 14.16C94.1525 14.16 92.5045 12.384 92.5045 9.712C92.5045 7.2 94.2165 5.36 96.5525 5.36C99.0805 5.36 100.761 7.408 100.473 10.16H94.1525C94.2805 11.888 95.1445 12.896 96.5685 12.896C97.7685 12.896 98.6005 12.24 98.8725 11.136H100.473C100.057 13.024 98.6005 14.16 96.6005 14.16ZM96.5205 6.576C95.2245 6.576 94.3445 7.504 94.1685 9.088H98.7605C98.6805 7.52 97.8325 6.576 96.5205 6.576Z" fill="#E2E2E3"/>
<path d="M44.72 29L44.07 27.22H40.97L40.31 29H39.2L41.95 21.82H43.16L45.89 29H44.72ZM42.53 23.02L41.3 26.33H43.74L42.53 23.02ZM52.0096 26.35C52.0096 27.95 51.0896 29.1 49.6696 29.1C48.9496 29.1 48.3396 28.74 47.9596 28.1V30.93H46.9496V23.7H47.8896V24.67C48.2696 23.99 48.9196 23.6 49.6696 23.6C51.0796 23.6 52.0096 24.75 52.0096 26.35ZM50.9596 26.35C50.9596 25.16 50.3296 24.49 49.4596 24.49C48.6196 24.49 47.9596 25.16 47.9596 26.35C47.9596 27.52 48.6096 28.2 49.4596 28.2C50.3296 28.2 50.9596 27.54 50.9596 26.35ZM58.2436 26.35C58.2436 27.95 57.3236 29.1 55.9036 29.1C55.1836 29.1 54.5736 28.74 54.1936 28.1V30.93H53.1836V23.7H54.1236V24.67C54.5036 23.99 55.1536 23.6 55.9036 23.6C57.3136 23.6 58.2436 24.75 58.2436 26.35ZM57.1936 26.35C57.1936 25.16 56.5636 24.49 55.6936 24.49C54.8536 24.49 54.1936 25.16 54.1936 26.35C54.1936 27.52 54.8436 28.2 55.6936 28.2C56.5636 28.2 57.1936 27.54 57.1936 26.35ZM63.1474 29H62.1374V24.56H60.9674V23.7H62.1374V23.31C62.1374 22.29 62.6874 21.73 63.6874 21.73C63.9874 21.73 64.2274 21.78 64.4274 21.86V22.68C64.2674 22.61 64.0874 22.59 63.9074 22.59C63.4274 22.59 63.1474 22.81 63.1474 23.32V23.7H64.6274V24.56H63.1474V29ZM67.6212 29.1C66.1212 29.1 65.0212 27.92 65.0212 26.35C65.0212 24.78 66.1212 23.6 67.6212 23.6C69.1212 23.6 70.2212 24.78 70.2212 26.35C70.2212 27.92 69.1212 29.1 67.6212 29.1ZM67.6212 28.21C68.4912 28.21 69.1812 27.51 69.1812 26.35C69.1812 25.19 68.4912 24.5 67.6212 24.5C66.7512 24.5 66.0712 25.19 66.0712 26.35C66.0712 27.51 66.7512 28.21 67.6212 28.21ZM72.4108 26.29V29H71.4008V23.7H72.3408V24.82C72.7108 24.09 73.5108 23.63 74.3808 23.63V24.68C73.2408 24.62 72.4108 25.12 72.4108 26.29ZM82.5899 29L81.9399 27.22H78.8399L78.1799 29H77.0699L79.8199 21.82H81.0299L83.7599 29H82.5899ZM80.3999 23.02L79.1699 26.33H81.6099L80.3999 23.02ZM87.5068 28.02V28.91C87.1968 29.05 86.9268 29.1 86.6068 29.1C85.6268 29.1 84.9468 28.57 84.9468 27.4V24.56H83.7768V23.7H84.9468V22.13H85.9568V23.7H87.5568V24.56H85.9568V27.17C85.9568 27.9 86.3068 28.16 86.8468 28.16C87.0868 28.16 87.2968 28.12 87.5068 28.02ZM89.6907 29H88.6707V21.82H89.6907V29ZM94.4526 29V28.18C94.1226 28.77 93.5326 29.1 92.7526 29.1C91.6526 29.1 90.9326 28.47 90.9326 27.5C90.9326 26.46 91.7626 25.92 93.3426 25.92C93.6526 25.92 93.9026 25.93 94.3326 25.98V25.59C94.3326 24.83 93.9226 24.4 93.2226 24.4C92.4826 24.4 92.0326 24.84 92.0026 25.58H91.0826C91.1326 24.39 91.9826 23.6 93.2226 23.6C94.5326 23.6 95.2926 24.34 95.2926 25.6V29H94.4526ZM91.8926 27.47C91.8926 28.02 92.3026 28.38 92.9526 28.38C93.8026 28.38 94.3326 27.85 94.3326 27.04V26.61C93.9426 26.56 93.6626 26.55 93.4026 26.55C92.3926 26.55 91.8926 26.85 91.8926 27.47ZM97.803 26.01V29H96.793V23.7H97.733V24.58C98.093 23.99 98.693 23.6 99.423 23.6C100.513 23.6 101.233 24.3 101.233 25.57V29H100.223V25.91C100.223 25 99.823 24.49 99.073 24.49C98.383 24.49 97.803 25.07 97.803 26.01ZM105.695 28.02V28.91C105.385 29.05 105.115 29.1 104.795 29.1C103.815 29.1 103.135 28.57 103.135 27.4V24.56H101.965V23.7H103.135V22.13H104.145V23.7H105.745V24.56H104.145V27.17C104.145 27.9 104.495 28.16 105.035 28.16C105.275 28.16 105.485 28.12 105.695 28.02ZM110.069 29V28.18C109.739 28.77 109.149 29.1 108.369 29.1C107.269 29.1 106.549 28.47 106.549 27.5C106.549 26.46 107.379 25.92 108.959 25.92C109.269 25.92 109.519 25.93 109.949 25.98V25.59C109.949 24.83 109.539 24.4 108.839 24.4C108.099 24.4 107.649 24.84 107.619 25.58H106.699C106.749 24.39 107.599 23.6 108.839 23.6C110.149 23.6 110.909 24.34 110.909 25.6V29H110.069ZM107.509 27.47C107.509 28.02 107.919 28.38 108.569 28.38C109.419 28.38 109.949 27.85 109.949 27.04V26.61C109.559 26.56 109.279 26.55 109.019 26.55C108.009 26.55 107.509 26.85 107.509 27.47Z" fill="#B0B0B0"/>
<defs>
<linearGradient id="paint0_linear_172_445" x1="9.5" y1="7.5" x2="32" y2="27.5" gradientUnits="userSpaceOnUse">
<stop stop-color="#F28548"/>
<stop offset="1" stop-color="#C65854"/>
</linearGradient>
</defs>
</svg>
