<svg width="32" height="32" viewBox="0 0 32 32" fill="none" xmlns="http://www.w3.org/2000/svg">
<path d="M29.7256 10.5098L21.4902 2.27441C18.4577 -0.758135 13.5423 -0.758135 10.5098 2.27441L2.27441 10.5098C-0.758135 13.5423 -0.758135 18.4577 2.27441 21.4902L10.5098 29.7256C13.5423 32.7581 18.4577 32.7581 21.4902 29.7256L29.7256 21.4902C32.7581 18.4577 32.7581 13.5423 29.7256 10.5098ZM26.9805 18.7451L18.7451 26.9805C17.2296 28.496 14.7704 28.496 13.2549 26.9805L5.01953 18.7451C3.50402 17.2296 3.50402 14.7704 5.01953 13.2549L13.2549 5.01952C14.7704 3.50402 17.2296 3.50402 18.7451 5.01952L26.9805 13.2549C28.496 14.7704 28.496 17.2296 26.9805 18.7451Z" fill="url(#paint0_linear_1_1221)"/>
<defs>
<linearGradient id="paint0_linear_1_1221" x1="9.5" y1="7.5" x2="32" y2="27.5" gradientUnits="userSpaceOnUse">
<stop stop-color="#F28548"/>
<stop offset="1" stop-color="#C65854"/>
</linearGradient>
</defs>
</svg>
