<svg xmlns="http://www.w3.org/2000/svg" width="20" height="16" viewBox="0 0 20 16" fill="none">
  <path d="M17.75 0C18.9926 0 20 1.00736 20 2.25V13.7546C20 14.9972 18.9926 16.0046 17.75 16.0046H2.25C1.00736 16.0046 0 14.9972 0 13.7546V2.25C0 1.00736 1.00736 0 2.25 0H17.75ZM17.75 1.5H2.25C1.83579 1.5 1.5 1.83579 1.5 2.25V13.7546C1.5 14.1688 1.83579 14.5046 2.25 14.5046H17.75C18.1642 14.5046 18.5 14.1688 18.5 13.7546V2.25C18.5 1.83579 18.1642 1.5 17.75 1.5ZM7.75 8.5C8.16421 8.5 8.5 8.83579 8.5 9.25V9.74273L8.4921 9.85128C8.32932 10.9642 7.39767 11.5009 5.99995 11.5009C4.60213 11.5009 3.67048 10.9637 3.50787 9.85013L3.5 9.74176V9.25C3.5 8.83579 3.83579 8.5 4.25 8.5H7.75ZM11.2523 8.99614H15.75C16.1642 8.99614 16.5 9.33193 16.5 9.74614C16.5 10.1258 16.2178 10.4396 15.8518 10.4893L15.75 10.4961H11.2523C10.8381 10.4961 10.5023 10.1604 10.5023 9.74614C10.5023 9.36644 10.7844 9.05265 11.1505 9.00299L11.2523 8.99614H15.75H11.2523ZM6 4.50218C6.82841 4.50218 7.49997 5.17374 7.49997 6.00216C7.49997 6.83057 6.82841 7.50213 6 7.50213C5.17159 7.50213 4.50003 6.83057 4.50003 6.00216C4.50003 5.17374 5.17159 4.50218 6 4.50218ZM11.2523 5.5H15.75C16.1642 5.5 16.5 5.83579 16.5 6.25C16.5 6.6297 16.2178 6.94349 15.8518 6.99315L15.75 7H11.2523C10.8381 7 10.5023 6.66421 10.5023 6.25C10.5023 5.8703 10.7844 5.55651 11.1505 5.50685L11.2523 5.5H15.75H11.2523Z" fill="#302F30"/>
</svg>