<svg xmlns="http://www.w3.org/2000/svg" width="20" height="18" viewBox="0 0 20 18" fill="none">
  <path d="M6.89283 0.00139642L6.94509 0L6.99593 0.00134239C7.02085 0.00277954 7.04583 0.00537068 7.07078 0.00915223L7.08864 0.0133807C7.18353 0.028625 7.27783 0.0625125 7.3677 0.115758L7.42532 0.15302L13.0583 4.11391L18.6876 0.156737C19.2072 -0.208541 19.9113 0.11978 19.9923 0.722303L20 0.838387V12.6508C20 12.8833 19.903 13.1034 19.7355 13.2598L19.646 13.3324L13.5356 17.6278C13.2391 17.8363 12.8826 17.8189 12.616 17.6535L6.94465 13.6638L1.31241 17.6241C0.792794 17.9894 0.0887287 17.6611 0.00769542 17.0586L0 16.9425V5.13008C0 4.89754 0.0970452 4.67747 0.264544 4.52108L0.354041 4.44843L6.46436 0.15302C6.53546 0.103034 6.61002 0.0660374 6.68597 0.0409537L6.82202 0.00984038L6.89283 0.00139642ZM18.3335 2.44263L13.8897 5.56657V15.3419L18.3335 12.218V2.44263ZM6.11032 2.43891L1.66645 5.56285V15.3382L6.11032 12.2143V2.43891ZM7.77937 2.43891V12.2143L12.2232 15.3382V5.56285L7.77937 2.43891Z" fill="#302F30"/>
</svg>