<svg xmlns="http://www.w3.org/2000/svg" width="20" height="22" viewBox="0 0 20 22" fill="none">
  <path d="M14.25 1C14.25 0.447715 14.6977 0 15.25 0H19C19.5523 0 20 0.447715 20 1V6C20 6.55228 19.5523 7 19 7H18V21.25C18 21.6642 17.6642 22 17.25 22C16.8358 22 16.5 21.6642 16.5 21.25V7H15.25C14.6977 7 14.25 6.55228 14.25 6V1ZM12.7993 2C12.9518 2 13.1023 2.01061 13.25 2.03121V3.55885C13.1055 3.52037 12.9544 3.5 12.7993 3.5H5.20194C4.39892 3.5 3.69895 4.04652 3.50419 4.82556L2.71058 8H15.5V9.5H2.25C1.83579 9.5 1.5 9.83579 1.5 10.25V16H15.5V17.5H14.499L14.5 18.7468C14.5 18.8848 14.6119 18.9968 14.75 18.9968H15.5V20.4968H14.75C13.7835 20.4968 13 19.7133 13 18.7468L12.999 17.5H5.004L5.00408 18.7468C5.00408 19.7133 4.22058 20.4968 3.25408 20.4968H1.75C0.783502 20.4968 0 19.7133 0 18.7468V10.25C0 9.43515 0.433157 8.72148 1.08177 8.32666L1.289 7.5H0.75C0.370304 7.5 0.0565091 7.21785 0.00684667 6.85177L0 6.75C0 6.3703 0.282154 6.05651 0.648229 6.00685L0.75 6H1.663L2.04898 4.46176C2.41068 3.01497 3.71062 2 5.20194 2H12.7993ZM3.504 17.5H1.499L1.5 18.7468C1.5 18.8848 1.61193 18.9968 1.75 18.9968H3.25408C3.39215 18.9968 3.50408 18.8848 3.50408 18.7468L3.504 17.5ZM7.24899 13H10.7507C11.165 13 11.5007 13.3358 11.5007 13.75C11.5007 14.1297 11.2186 14.4435 10.8525 14.4932L10.7507 14.5H7.24899C6.83478 14.5 6.49899 14.1642 6.49899 13.75C6.49899 13.3703 6.78115 13.0565 7.14722 13.0068L7.24899 13ZM14 11C14.5522 11 14.9999 11.4477 14.9999 12C14.9999 12.5522 14.5522 12.9999 14 12.9999C13.4477 12.9999 13 12.5522 13 12C13 11.4477 13.4477 11 14 11ZM3.99997 11C4.55225 11 4.99995 11.4477 4.99995 12C4.99995 12.5522 4.55225 12.9999 3.99997 12.9999C3.4477 12.9999 3 12.5522 3 12C3 11.4477 3.4477 11 3.99997 11Z" fill="#302F30"/>
</svg>