<svg xmlns="http://www.w3.org/2000/svg" width="18" height="18" viewBox="0 0 18 18" fill="none">
  <path d="M5.75 5.25C5.75 5.80228 5.30228 6.25 4.75 6.25C4.19772 6.25 3.75 5.80228 3.75 5.25C3.75 4.69772 4.19772 4.25 4.75 4.25C5.30228 4.25 5.75 4.69772 5.75 5.25ZM7.5 5.25C7.5 4.83579 7.83579 4.5 8.25 4.5H13.75C14.1642 4.5 14.5 4.83579 14.5 5.25C14.5 5.66421 14.1642 6 13.75 6H8.25C7.83579 6 7.5 5.66421 7.5 5.25ZM7.50006 9C7.50006 8.58579 7.83585 8.25 8.25006 8.25H13.7499C14.1642 8.25 14.4999 8.58579 14.4999 9C14.4999 9.41421 14.1642 9.75 13.7499 9.75H8.25006C7.83585 9.75 7.50006 9.41421 7.50006 9ZM8.25006 12C7.83585 12 7.50006 12.3358 7.50006 12.75C7.50006 13.1642 7.83585 13.5 8.25006 13.5H13.7499C14.1642 13.5 14.4999 13.1642 14.4999 12.75C14.4999 12.3358 14.1642 12 13.7499 12H8.25006ZM4.75 10C5.30228 10 5.75 9.55228 5.75 9C5.75 8.44772 5.30228 8 4.75 8C4.19772 8 3.75 8.44772 3.75 9C3.75 9.55228 4.19772 10 4.75 10ZM5.75 12.75C5.75 13.3023 5.30228 13.75 4.75 13.75C4.19772 13.75 3.75 13.3023 3.75 12.75C3.75 12.1977 4.19772 11.75 4.75 11.75C5.30228 11.75 5.75 12.1977 5.75 12.75ZM2.25 0C1.00736 0 0 1.00736 0 2.25V15.75C0 16.9926 1.00736 18 2.25 18H15.75C16.9926 18 18 16.9926 18 15.75V2.25C18 1.00736 16.9926 0 15.75 0H2.25ZM1.5 2.25C1.5 1.83579 1.83579 1.5 2.25 1.5H15.75C16.1642 1.5 16.5 1.83579 16.5 2.25V15.75C16.5 16.1642 16.1642 16.5 15.75 16.5H2.25C1.83579 16.5 1.5 16.1642 1.5 15.75V2.25Z" fill="#302F30"/>
</svg>