<svg width="1024" height="275" viewBox="0 0 1024 275" fill="none" xmlns="http://www.w3.org/2000/svg">
<rect width="1024" height="275" rx="24" fill="white"/>
<path d="M58.1094 81.3907C56.3281 81.3907 54.7708 81.1303 53.4375 80.6095C52.1146 80.0782 51.0729 79.323 50.3125 78.3439C49.5521 77.3543 49.125 76.1668 49.0312 74.7814L49.0156 74.5314H53.4688L53.5 74.7032C53.6042 75.2866 53.8646 75.7918 54.2812 76.2189C54.7083 76.6355 55.2604 76.9637 55.9375 77.2032C56.6146 77.4324 57.3802 77.547 58.2344 77.547C59.1094 77.547 59.8594 77.4324 60.4844 77.2032C61.1198 76.9637 61.6094 76.6303 61.9531 76.2032C62.3073 75.7657 62.4844 75.2605 62.4844 74.6876V74.672C62.4844 73.9116 62.1823 73.3178 61.5781 72.8907C60.9844 72.4532 59.9844 72.0887 58.5781 71.797L56.2031 71.3282C53.9844 70.8803 52.3125 70.1251 51.1875 69.0626C50.0625 68.0001 49.5 66.6199 49.5 64.922V64.9064C49.5 63.5314 49.8698 62.3335 50.6094 61.3126C51.349 60.2814 52.3646 59.4845 53.6562 58.922C54.9479 58.3491 56.4271 58.0626 58.0938 58.0626C59.8333 58.0626 61.3333 58.3335 62.5938 58.8751C63.8646 59.4168 64.8542 60.1824 65.5625 61.172C66.2708 62.1616 66.6615 63.3126 66.7344 64.6251L66.75 64.922H62.2969L62.2812 64.7345C62.1979 64.1407 61.974 63.6355 61.6094 63.2189C61.2448 62.7918 60.7604 62.4637 60.1562 62.2345C59.5625 62.0053 58.875 61.8907 58.0938 61.8907C57.2917 61.8907 56.599 62.0105 56.0156 62.2501C55.4323 62.4793 54.9844 62.797 54.6719 63.2032C54.3698 63.6095 54.2188 64.0835 54.2188 64.6251V64.6407C54.2188 65.3491 54.5208 65.922 55.125 66.3595C55.7292 66.797 56.6771 67.146 57.9688 67.4064L60.3594 67.8907C61.9323 68.2032 63.224 68.6355 64.2344 69.1876C65.2448 69.7397 65.9896 70.4376 66.4688 71.2814C66.9583 72.1147 67.2031 73.1199 67.2031 74.297V74.3126C67.2031 75.7605 66.8385 77.0157 66.1094 78.0782C65.3906 79.1303 64.349 79.948 62.9844 80.5314C61.6302 81.1043 60.0052 81.3907 58.1094 81.3907ZM77.3281 81.3439C75.6198 81.3439 74.151 80.9949 72.9219 80.297C71.6927 79.5887 70.7448 78.5835 70.0781 77.2814C69.4219 75.9793 69.0938 74.4376 69.0938 72.6564V72.6407C69.0938 70.8595 69.4219 69.3178 70.0781 68.0157C70.7448 66.7032 71.6771 65.6928 72.875 64.9845C74.0833 64.2657 75.5052 63.9064 77.1406 63.9064C78.776 63.9064 80.1875 64.2553 81.375 64.9532C82.5729 65.6407 83.4948 66.6147 84.1406 67.8751C84.7969 69.1355 85.125 70.6095 85.125 72.297V73.7032H71.3281V70.8282H82.9688L80.7969 73.5157V71.7657C80.7969 70.7866 80.6458 69.9689 80.3438 69.3126C80.0417 68.646 79.6198 68.146 79.0781 67.8126C78.5469 67.4793 77.9271 67.3126 77.2188 67.3126C76.5104 67.3126 75.8802 67.4845 75.3281 67.8282C74.7865 68.172 74.3594 68.6772 74.0469 69.3439C73.7448 70.0001 73.5938 70.8074 73.5938 71.7657V73.5314C73.5938 74.4585 73.7448 75.2501 74.0469 75.9064C74.3594 76.5626 74.8021 77.0678 75.375 77.422C75.9479 77.7657 76.6302 77.9376 77.4219 77.9376C78.0469 77.9376 78.5885 77.8387 79.0469 77.6407C79.5052 77.4428 79.8802 77.1928 80.1719 76.8907C80.4635 76.5887 80.6615 76.2814 80.7656 75.9689L80.7969 75.8751H84.9844L84.9375 76.047C84.8125 76.6616 84.5677 77.2814 84.2031 77.9064C83.8385 78.5314 83.3438 79.1043 82.7188 79.6251C82.1042 80.146 81.349 80.5626 80.4531 80.8751C79.5677 81.1876 78.526 81.3439 77.3281 81.3439ZM92.4688 81.2657C91.3542 81.2657 90.375 81.0522 89.5312 80.6251C88.6875 80.1876 88.026 79.5887 87.5469 78.8282C87.0781 78.0574 86.8438 77.1824 86.8438 76.2032V76.172C86.8438 75.1512 87.099 74.2814 87.6094 73.5626C88.1198 72.8335 88.8594 72.2605 89.8281 71.8439C90.7969 71.4272 91.974 71.172 93.3594 71.0782L99.8906 70.672V73.5157L94.0469 73.8907C93.1719 73.9428 92.5052 74.1512 92.0469 74.5157C91.5885 74.8699 91.3594 75.3439 91.3594 75.9376V75.9689C91.3594 76.5835 91.5938 77.0678 92.0625 77.422C92.5312 77.7657 93.1615 77.9376 93.9531 77.9376C94.6302 77.9376 95.2344 77.8074 95.7656 77.547C96.3073 77.2762 96.7292 76.9116 97.0312 76.4532C97.3438 75.9845 97.5 75.4585 97.5 74.8751V69.797C97.5 69.0574 97.2656 68.4741 96.7969 68.047C96.3281 67.6095 95.6458 67.3907 94.75 67.3907C93.8958 67.3907 93.2188 67.5678 92.7188 67.922C92.2188 68.2762 91.9115 68.7241 91.7969 69.2657L91.7656 69.4064H87.5938L87.6094 69.2189C87.6927 68.1876 88.0312 67.271 88.625 66.4689C89.2292 65.6668 90.0625 65.0418 91.125 64.5939C92.1979 64.1355 93.4688 63.9064 94.9375 63.9064C96.3854 63.9064 97.6406 64.1407 98.7031 64.6095C99.7656 65.0678 100.589 65.7189 101.172 66.5626C101.766 67.4064 102.062 68.3907 102.062 69.5157V81.0001H97.5V78.5001H97.4062C97.0938 79.073 96.6875 79.5678 96.1875 79.9845C95.6979 80.3907 95.1406 80.7085 94.5156 80.9376C93.8906 81.1564 93.2083 81.2657 92.4688 81.2657ZM105.016 81.0001V64.2501H109.578V67.172H109.672C109.922 66.1407 110.375 65.3387 111.031 64.7657C111.688 64.1928 112.505 63.9064 113.484 63.9064C113.734 63.9064 113.974 63.922 114.203 63.9532C114.432 63.9845 114.63 64.0262 114.797 64.0782V68.0939C114.609 68.021 114.37 67.9637 114.078 67.922C113.786 67.8699 113.474 67.8439 113.141 67.8439C112.391 67.8439 111.75 67.9897 111.219 68.2814C110.688 68.573 110.281 69.0001 110 69.5626C109.719 70.1251 109.578 70.8126 109.578 71.6251V81.0001H105.016ZM123.797 81.3439C122.099 81.3439 120.63 80.9897 119.391 80.2814C118.151 79.573 117.198 78.5678 116.531 77.2657C115.865 75.9532 115.531 74.4012 115.531 72.6095V72.5939C115.531 70.8022 115.865 69.2605 116.531 67.9689C117.208 66.6668 118.161 65.6668 119.391 64.9689C120.63 64.2605 122.083 63.9064 123.75 63.9064C125.271 63.9064 126.589 64.1928 127.703 64.7657C128.818 65.3282 129.688 66.0939 130.312 67.0626C130.948 68.0314 131.297 69.1199 131.359 70.3282V70.4376H127.125L127.094 70.297C126.958 69.4949 126.615 68.8282 126.062 68.297C125.51 67.7553 124.76 67.4845 123.812 67.4845C123.073 67.4845 122.427 67.6928 121.875 68.1095C121.333 68.5157 120.911 69.1043 120.609 69.8751C120.318 70.6355 120.172 71.547 120.172 72.6095V72.6251C120.172 73.7189 120.318 74.6512 120.609 75.422C120.911 76.1824 121.333 76.7657 121.875 77.172C122.427 77.5678 123.078 77.7657 123.828 77.7657C124.745 77.7657 125.479 77.5105 126.031 77.0001C126.594 76.4793 126.953 75.797 127.109 74.9532L127.125 74.8126H131.375V74.9064C131.302 76.1251 130.948 77.2189 130.312 78.1876C129.677 79.1564 128.802 79.9272 127.688 80.5001C126.583 81.0626 125.286 81.3439 123.797 81.3439ZM133.688 81.0001V58.4532H138.25V67.1407H138.344C138.781 66.0991 139.432 65.3022 140.297 64.7501C141.172 64.1876 142.234 63.9064 143.484 63.9064C144.703 63.9064 145.75 64.1772 146.625 64.7189C147.5 65.2501 148.172 66.0053 148.641 66.9845C149.12 67.9637 149.359 69.1303 149.359 70.4845V81.0001H144.797V71.422C144.797 70.2553 144.516 69.3439 143.953 68.6876C143.401 68.021 142.604 67.6876 141.562 67.6876C140.896 67.6876 140.312 67.8491 139.812 68.172C139.323 68.4845 138.938 68.922 138.656 69.4845C138.385 70.0366 138.25 70.6772 138.25 71.4064V81.0001H133.688ZM161.391 81.0001V77.4845H167.812C169.167 77.4845 170.203 77.2137 170.922 76.672C171.641 76.1199 172 75.323 172 74.2814V74.2501C172 73.5626 171.833 72.9845 171.5 72.5157C171.167 72.0366 170.672 71.6772 170.016 71.4376C169.37 71.198 168.568 71.0782 167.609 71.0782H161.391V67.8751H167.047C168.38 67.8751 169.391 67.6095 170.078 67.0782C170.776 66.5366 171.125 65.7814 171.125 64.8126V64.7814C171.125 63.8855 170.818 63.1928 170.203 62.7032C169.589 62.2032 168.729 61.9532 167.625 61.9532H161.391V58.4532H168.844C170.271 58.4532 171.5 58.6824 172.531 59.1407C173.562 59.5991 174.359 60.2553 174.922 61.1095C175.484 61.9532 175.766 62.9532 175.766 64.1095V64.1407C175.766 64.9637 175.573 65.7293 175.188 66.4376C174.812 67.1355 174.297 67.7189 173.641 68.1876C172.984 68.646 172.24 68.9324 171.406 69.047V69.1407C172.458 69.2137 173.391 69.4949 174.203 69.9845C175.016 70.4637 175.651 71.0991 176.109 71.8907C176.578 72.672 176.812 73.5574 176.812 74.547V74.5782C176.812 75.8907 176.495 77.0262 175.859 77.9845C175.234 78.9428 174.339 79.6876 173.172 80.2189C172.016 80.7397 170.63 81.0001 169.016 81.0001H161.391ZM159.031 81.0001V58.4532H163.75V81.0001H159.031ZM184.094 81.2657C182.979 81.2657 182 81.0522 181.156 80.6251C180.312 80.1876 179.651 79.5887 179.172 78.8282C178.703 78.0574 178.469 77.1824 178.469 76.2032V76.172C178.469 75.1512 178.724 74.2814 179.234 73.5626C179.745 72.8335 180.484 72.2605 181.453 71.8439C182.422 71.4272 183.599 71.172 184.984 71.0782L191.516 70.672V73.5157L185.672 73.8907C184.797 73.9428 184.13 74.1512 183.672 74.5157C183.214 74.8699 182.984 75.3439 182.984 75.9376V75.9689C182.984 76.5835 183.219 77.0678 183.688 77.422C184.156 77.7657 184.786 77.9376 185.578 77.9376C186.255 77.9376 186.859 77.8074 187.391 77.547C187.932 77.2762 188.354 76.9116 188.656 76.4532C188.969 75.9845 189.125 75.4585 189.125 74.8751V69.797C189.125 69.0574 188.891 68.4741 188.422 68.047C187.953 67.6095 187.271 67.3907 186.375 67.3907C185.521 67.3907 184.844 67.5678 184.344 67.922C183.844 68.2762 183.536 68.7241 183.422 69.2657L183.391 69.4064H179.219L179.234 69.2189C179.318 68.1876 179.656 67.271 180.25 66.4689C180.854 65.6668 181.688 65.0418 182.75 64.5939C183.823 64.1355 185.094 63.9064 186.562 63.9064C188.01 63.9064 189.266 64.1407 190.328 64.6095C191.391 65.0678 192.214 65.7189 192.797 66.5626C193.391 67.4064 193.688 68.3907 193.688 69.5157V81.0001H189.125V78.5001H189.031C188.719 79.073 188.312 79.5678 187.812 79.9845C187.323 80.3907 186.766 80.7085 186.141 80.9376C185.516 81.1564 184.833 81.2657 184.094 81.2657ZM196.641 81.0001V64.2501H201.203V67.172H201.297C201.547 66.1407 202 65.3387 202.656 64.7657C203.312 64.1928 204.13 63.9064 205.109 63.9064C205.359 63.9064 205.599 63.922 205.828 63.9532C206.057 63.9845 206.255 64.0262 206.422 64.0782V68.0939C206.234 68.021 205.995 67.9637 205.703 67.922C205.411 67.8699 205.099 67.8439 204.766 67.8439C204.016 67.8439 203.375 67.9897 202.844 68.2814C202.312 68.573 201.906 69.0001 201.625 69.5626C201.344 70.1251 201.203 70.8126 201.203 71.6251V81.0001H196.641Z" fill="#1B1D23"/>
<path d="M49.6211 46.0001V31.9083H52.1406V46.0001H49.6211ZM55.1289 46.0001V35.4044H57.5605V37.0353H57.6973C57.9577 36.4624 58.3451 36.0131 58.8594 35.6876C59.3802 35.3556 60.028 35.1896 60.8027 35.1896C61.9811 35.1896 62.8828 35.5346 63.5078 36.2247C64.1393 36.9148 64.4551 37.8881 64.4551 39.1447V46.0001H62.0234V39.6915C62.0234 38.8842 61.8477 38.2755 61.4961 37.8654C61.151 37.4487 60.6172 37.2404 59.8945 37.2404C59.4128 37.2404 58.9961 37.3478 58.6445 37.5626C58.2995 37.7775 58.0326 38.0769 57.8438 38.4611C57.6549 38.8452 57.5605 39.3009 57.5605 39.8282V46.0001H55.1289ZM67.1016 49.5157V35.4044H69.5332V37.1036H69.6699C69.8717 36.7065 70.1289 36.3712 70.4414 36.0978C70.7539 35.8178 71.1185 35.603 71.5352 35.4532C71.9518 35.297 72.4076 35.2189 72.9023 35.2189C73.7943 35.2189 74.5658 35.4435 75.2168 35.8927C75.8678 36.3354 76.3724 36.9669 76.7305 37.7872C77.0885 38.601 77.2676 39.5711 77.2676 40.6974V40.7072C77.2676 41.84 77.0885 42.8165 76.7305 43.6368C76.3789 44.4506 75.8776 45.0789 75.2266 45.5216C74.5755 45.9643 73.804 46.1857 72.9121 46.1857C72.4238 46.1857 71.9681 46.1075 71.5449 45.9513C71.1283 45.795 70.7572 45.5769 70.4316 45.297C70.1126 45.017 69.8587 44.6818 69.6699 44.2911H69.5332V49.5157H67.1016ZM72.1602 44.1349C72.707 44.1349 73.1758 43.9982 73.5664 43.7247C73.957 43.4448 74.2565 43.0509 74.4648 42.5431C74.6797 42.0288 74.7871 41.4168 74.7871 40.7072V40.6974C74.7871 39.9812 74.6797 39.3693 74.4648 38.8615C74.2565 38.3471 73.957 37.9532 73.5664 37.6798C73.1758 37.4064 72.707 37.2697 72.1602 37.2697C71.6198 37.2697 71.1478 37.4096 70.7441 37.6896C70.347 37.963 70.041 38.3569 69.8262 38.8712C69.6113 39.379 69.5039 39.9878 69.5039 40.6974V40.7072C69.5039 41.4103 69.6113 42.019 69.8262 42.5333C70.0475 43.0476 70.3568 43.4448 70.7539 43.7247C71.151 43.9982 71.6198 44.1349 72.1602 44.1349ZM83.0391 46.215C82.2513 46.215 81.5872 46.0587 81.0469 45.7462C80.5065 45.4337 80.0996 44.9845 79.8262 44.3986C79.5527 43.8061 79.416 43.0932 79.416 42.2599V35.4044H81.8477V41.713C81.8477 42.5203 82.0137 43.1323 82.3457 43.549C82.6777 43.9591 83.2051 44.1642 83.9277 44.1642C84.3118 44.1642 84.6504 44.1056 84.9434 43.9884C85.2428 43.8647 85.4935 43.6889 85.6953 43.4611C85.8971 43.2332 86.0501 42.9598 86.1543 42.6407C86.2585 42.3217 86.3105 41.9669 86.3105 41.5763V35.4044H88.7422V46.0001H86.3105V44.379H86.1738C86.0046 44.7566 85.7734 45.0822 85.4805 45.3556C85.1875 45.629 84.8359 45.8406 84.4258 45.9904C84.0156 46.1401 83.5534 46.215 83.0391 46.215ZM95.5879 46.088C94.403 46.088 93.5404 45.8634 93 45.4142C92.4661 44.9585 92.1992 44.2098 92.1992 43.1681V37.2794H90.5879V35.4044H92.1992V32.7775H94.6699V35.4044H96.8379V37.2794H94.6699V42.6896C94.6699 43.2104 94.7806 43.588 95.002 43.8224C95.2298 44.0503 95.5879 44.1642 96.0762 44.1642C96.2324 44.1642 96.3659 44.1609 96.4766 44.1544C96.5938 44.1414 96.7142 44.1316 96.8379 44.1251V45.9806C96.6751 46.0066 96.4863 46.0294 96.2715 46.049C96.0566 46.075 95.8288 46.088 95.5879 46.088Z" fill="#484848"/>
<line x1="283.5" y1="243" x2="283.5" y2="32" stroke="#DDDDDD"/>
<g filter="url(#filter0_d_48_7185)">
<rect x="384" y="110" width="540" height="56" rx="5" fill="white"/>
<rect x="384.5" y="110.5" width="539" height="55" rx="4.5" stroke="#DDDDDD"/>
<path fill-rule="evenodd" clip-rule="evenodd" d="M404.652 130.373C402.971 130.373 401.358 131.041 400.169 132.23C398.98 133.419 398.312 135.031 398.312 136.712C398.312 138.394 398.98 140.006 400.169 141.195C401.358 142.384 402.971 143.052 404.652 143.052C406.081 143.052 407.461 142.569 408.573 141.694L412.409 145.53C412.701 145.823 413.176 145.823 413.469 145.53C413.762 145.237 413.762 144.763 413.469 144.47L409.633 140.633C410.509 139.521 410.991 138.142 410.991 136.712C410.991 135.031 410.323 133.419 409.135 132.23C407.946 131.041 406.333 130.373 404.652 130.373ZM408.091 140.117C408.988 139.211 409.491 137.988 409.491 136.712C409.491 135.429 408.981 134.198 408.074 133.29C407.166 132.383 405.935 131.873 404.652 131.873C403.368 131.873 402.137 132.383 401.23 133.29C400.322 134.198 399.812 135.429 399.812 136.712C399.812 137.996 400.322 139.227 401.23 140.134C402.137 141.042 403.368 141.552 404.652 141.552C405.927 141.552 407.151 141.048 408.057 140.151C408.062 140.146 408.068 140.14 408.074 140.134C408.079 140.128 408.085 140.123 408.091 140.117Z" fill="#484848"/>
<path d="M436.195 144V134.422H432.727V132.727H441.68V134.422H438.211V144H436.195ZM442.594 144V135.461H444.539V136.773H444.672C444.818 136.315 445.078 135.958 445.453 135.703C445.833 135.448 446.305 135.32 446.867 135.32C447.013 135.32 447.156 135.331 447.297 135.352C447.443 135.367 447.562 135.388 447.656 135.414V137.156C447.5 137.12 447.341 137.094 447.18 137.078C447.023 137.057 446.859 137.047 446.688 137.047C446.255 137.047 445.878 137.128 445.555 137.289C445.232 137.451 444.982 137.682 444.805 137.984C444.628 138.281 444.539 138.633 444.539 139.039V144H442.594ZM450.273 147C450.154 147 450.029 146.997 449.898 146.992C449.773 146.987 449.651 146.979 449.531 146.969V145.477C449.609 145.487 449.701 145.492 449.805 145.492C449.909 145.497 450.01 145.5 450.109 145.5C450.51 145.5 450.831 145.411 451.07 145.234C451.315 145.062 451.49 144.784 451.594 144.398L451.695 144.008L448.641 135.461H450.766L453.016 143.023L452.484 142.133H453.156L452.641 143.023L454.891 135.461H456.938L453.875 144.188C453.63 144.896 453.349 145.456 453.031 145.867C452.714 146.279 452.331 146.57 451.883 146.742C451.44 146.914 450.904 147 450.273 147ZM466.977 144.281C466.102 144.281 465.341 144.146 464.695 143.875C464.055 143.604 463.549 143.227 463.18 142.742C462.81 142.258 462.602 141.693 462.555 141.047L462.547 140.938H464.5L464.508 141.016C464.539 141.333 464.664 141.609 464.883 141.844C465.107 142.078 465.404 142.263 465.773 142.398C466.143 142.529 466.565 142.594 467.039 142.594C467.492 142.594 467.893 142.523 468.242 142.383C468.591 142.242 468.865 142.049 469.062 141.805C469.26 141.555 469.359 141.268 469.359 140.945V140.938C469.359 140.531 469.201 140.201 468.883 139.945C468.565 139.685 468.042 139.477 467.312 139.32L466.102 139.07C464.945 138.826 464.104 138.435 463.578 137.898C463.057 137.357 462.797 136.667 462.797 135.828V135.82C462.797 135.148 462.974 134.56 463.328 134.055C463.688 133.549 464.18 133.156 464.805 132.875C465.435 132.589 466.156 132.445 466.969 132.445C467.802 132.445 468.523 132.586 469.133 132.867C469.742 133.143 470.221 133.521 470.57 134C470.919 134.479 471.115 135.021 471.156 135.625L471.164 135.727H469.242L469.227 135.633C469.18 135.336 469.057 135.078 468.859 134.859C468.667 134.635 468.409 134.458 468.086 134.328C467.763 134.198 467.385 134.133 466.953 134.133C466.542 134.133 466.174 134.198 465.852 134.328C465.529 134.453 465.273 134.63 465.086 134.859C464.904 135.089 464.812 135.365 464.812 135.688V135.695C464.812 136.091 464.966 136.419 465.273 136.68C465.586 136.94 466.094 137.143 466.797 137.289L468.008 137.547C468.799 137.714 469.443 137.935 469.938 138.211C470.432 138.487 470.794 138.831 471.023 139.242C471.258 139.648 471.375 140.138 471.375 140.711V140.719C471.375 141.448 471.195 142.078 470.836 142.609C470.482 143.141 469.974 143.552 469.312 143.844C468.656 144.135 467.878 144.281 466.977 144.281ZM477.094 144.172C476.245 144.172 475.516 143.992 474.906 143.633C474.302 143.273 473.836 142.763 473.508 142.102C473.18 141.44 473.016 140.656 473.016 139.75V139.742C473.016 138.846 473.177 138.065 473.5 137.398C473.828 136.732 474.292 136.216 474.891 135.852C475.49 135.482 476.193 135.297 477 135.297C477.812 135.297 478.51 135.477 479.094 135.836C479.682 136.19 480.135 136.688 480.453 137.328C480.771 137.969 480.93 138.719 480.93 139.578V140.219H473.992V138.914H479.977L479.055 140.133V139.359C479.055 138.792 478.969 138.32 478.797 137.945C478.625 137.57 478.385 137.289 478.078 137.102C477.776 136.914 477.424 136.82 477.023 136.82C476.622 136.82 476.266 136.919 475.953 137.117C475.646 137.31 475.401 137.596 475.219 137.977C475.042 138.352 474.953 138.812 474.953 139.359V140.141C474.953 140.667 475.042 141.117 475.219 141.492C475.396 141.862 475.646 142.148 475.969 142.352C476.297 142.549 476.685 142.648 477.133 142.648C477.482 142.648 477.781 142.599 478.031 142.5C478.286 142.396 478.492 142.273 478.648 142.133C478.805 141.987 478.914 141.849 478.977 141.719L479 141.664H480.844L480.828 141.734C480.76 142.01 480.635 142.292 480.453 142.578C480.276 142.859 480.034 143.122 479.727 143.367C479.424 143.607 479.055 143.802 478.617 143.953C478.18 144.099 477.672 144.172 477.094 144.172ZM485.203 144.141C484.667 144.141 484.185 144.036 483.758 143.828C483.336 143.62 483.003 143.326 482.758 142.945C482.518 142.56 482.398 142.107 482.398 141.586V141.57C482.398 141.065 482.523 140.63 482.773 140.266C483.023 139.896 483.391 139.607 483.875 139.398C484.359 139.19 484.948 139.068 485.641 139.031L488.797 138.836V140.117L485.914 140.305C485.367 140.336 484.964 140.451 484.703 140.648C484.443 140.846 484.312 141.122 484.312 141.477V141.492C484.312 141.857 484.451 142.141 484.727 142.344C485.008 142.547 485.365 142.648 485.797 142.648C486.188 142.648 486.536 142.57 486.844 142.414C487.151 142.258 487.393 142.047 487.57 141.781C487.747 141.51 487.836 141.206 487.836 140.867V138.164C487.836 137.737 487.701 137.411 487.43 137.188C487.159 136.958 486.758 136.844 486.227 136.844C485.784 136.844 485.422 136.922 485.141 137.078C484.859 137.229 484.669 137.445 484.57 137.727L484.562 137.758H482.727L482.734 137.688C482.797 137.208 482.984 136.789 483.297 136.43C483.609 136.07 484.023 135.792 484.539 135.594C485.055 135.396 485.648 135.297 486.32 135.297C487.06 135.297 487.685 135.411 488.195 135.641C488.706 135.865 489.094 136.193 489.359 136.625C489.625 137.052 489.758 137.565 489.758 138.164V144H487.836V142.828H487.703C487.547 143.099 487.344 143.333 487.094 143.531C486.849 143.729 486.568 143.88 486.25 143.984C485.932 144.089 485.583 144.141 485.203 144.141ZM492.094 144V135.461H494.039V136.773H494.172C494.318 136.315 494.578 135.958 494.953 135.703C495.333 135.448 495.805 135.32 496.367 135.32C496.513 135.32 496.656 135.331 496.797 135.352C496.943 135.367 497.062 135.388 497.156 135.414V137.156C497 137.12 496.841 137.094 496.68 137.078C496.523 137.057 496.359 137.047 496.188 137.047C495.755 137.047 495.378 137.128 495.055 137.289C494.732 137.451 494.482 137.682 494.305 137.984C494.128 138.281 494.039 138.633 494.039 139.039V144H492.094ZM502.195 144.172C501.336 144.172 500.602 143.995 499.992 143.641C499.383 143.286 498.917 142.776 498.594 142.109C498.271 141.443 498.109 140.646 498.109 139.719V139.703C498.109 138.781 498.271 137.992 498.594 137.336C498.917 136.68 499.383 136.177 499.992 135.828C500.602 135.474 501.333 135.297 502.188 135.297C502.922 135.297 503.552 135.424 504.078 135.68C504.609 135.93 505.029 136.279 505.336 136.727C505.648 137.169 505.841 137.688 505.914 138.281V138.312H504.078L504.07 138.289C503.982 137.872 503.779 137.531 503.461 137.266C503.148 137 502.727 136.867 502.195 136.867C501.753 136.867 501.372 136.979 501.055 137.203C500.742 137.427 500.503 137.75 500.336 138.172C500.169 138.594 500.086 139.104 500.086 139.703V139.719C500.086 140.323 500.169 140.841 500.336 141.273C500.508 141.701 500.75 142.029 501.062 142.258C501.375 142.482 501.753 142.594 502.195 142.594C502.701 142.594 503.107 142.479 503.414 142.25C503.727 142.021 503.943 141.682 504.062 141.234L504.078 141.203L505.906 141.195L505.898 141.266C505.805 141.844 505.602 142.352 505.289 142.789C504.982 143.227 504.57 143.568 504.055 143.812C503.539 144.052 502.919 144.172 502.195 144.172ZM507.844 144V132.156H509.789V136.773H509.922C510.125 136.31 510.432 135.948 510.844 135.688C511.255 135.427 511.768 135.297 512.383 135.297C513.018 135.297 513.555 135.422 513.992 135.672C514.43 135.917 514.76 136.276 514.984 136.75C515.214 137.224 515.328 137.799 515.328 138.477V144H513.383V138.93C513.383 138.263 513.242 137.763 512.961 137.43C512.685 137.096 512.253 136.93 511.664 136.93C511.279 136.93 510.945 137.016 510.664 137.188C510.383 137.359 510.167 137.602 510.016 137.914C509.865 138.227 509.789 138.596 509.789 139.023V144H507.844ZM517.648 144V135.461H519.586V144H517.648ZM518.625 134.031C518.307 134.031 518.034 133.919 517.805 133.695C517.576 133.471 517.461 133.203 517.461 132.891C517.461 132.568 517.576 132.297 517.805 132.078C518.034 131.854 518.307 131.742 518.625 131.742C518.943 131.742 519.214 131.854 519.438 132.078C519.667 132.297 519.781 132.568 519.781 132.891C519.781 133.203 519.667 133.471 519.438 133.695C519.214 133.919 518.943 134.031 518.625 134.031ZM521.984 144V135.461H523.93V136.773H524.062C524.266 136.31 524.573 135.948 524.984 135.688C525.396 135.427 525.909 135.297 526.523 135.297C527.477 135.297 528.206 135.573 528.711 136.125C529.216 136.677 529.469 137.461 529.469 138.477V144H527.523V138.93C527.523 138.263 527.383 137.763 527.102 137.43C526.826 137.096 526.393 136.93 525.805 136.93C525.419 136.93 525.086 137.016 524.805 137.188C524.523 137.359 524.307 137.602 524.156 137.914C524.005 138.227 523.93 138.596 523.93 139.023V144H521.984ZM535.438 147C534.688 147 534.039 146.901 533.492 146.703C532.951 146.505 532.523 146.224 532.211 145.859C531.898 145.5 531.708 145.081 531.641 144.602L531.648 144.578H533.586L533.602 144.602C533.664 144.872 533.854 145.094 534.172 145.266C534.495 145.443 534.927 145.531 535.469 145.531C536.135 145.531 536.651 145.383 537.016 145.086C537.385 144.789 537.57 144.367 537.57 143.82V142.18H537.438C537.276 142.487 537.065 142.747 536.805 142.961C536.549 143.174 536.255 143.336 535.922 143.445C535.594 143.549 535.232 143.602 534.836 143.602C534.117 143.602 533.495 143.43 532.969 143.086C532.443 142.737 532.036 142.255 531.75 141.641C531.469 141.026 531.328 140.315 531.328 139.508V139.492C531.328 138.669 531.471 137.945 531.758 137.32C532.044 136.695 532.451 136.206 532.977 135.852C533.508 135.497 534.141 135.32 534.875 135.32C535.271 135.32 535.633 135.383 535.961 135.508C536.294 135.633 536.586 135.81 536.836 136.039C537.091 136.268 537.299 136.544 537.461 136.867H537.562V135.461H539.508V143.789C539.508 144.445 539.341 145.013 539.008 145.492C538.68 145.977 538.211 146.349 537.602 146.609C536.992 146.87 536.271 147 535.438 147ZM535.438 142.055C535.885 142.055 536.271 141.948 536.594 141.734C536.917 141.516 537.164 141.216 537.336 140.836C537.513 140.456 537.602 140.013 537.602 139.508V139.492C537.602 138.987 537.513 138.544 537.336 138.164C537.164 137.779 536.917 137.479 536.594 137.266C536.271 137.047 535.885 136.938 535.438 136.938C534.984 136.938 534.599 137.047 534.281 137.266C533.969 137.479 533.729 137.779 533.562 138.164C533.401 138.544 533.32 138.987 533.32 139.492V139.508C533.32 140.008 533.401 140.451 533.562 140.836C533.729 141.216 533.969 141.516 534.281 141.734C534.599 141.948 534.984 142.055 535.438 142.055ZM548.945 132.727L548.258 137.422H546.258L547.609 132.727H548.945ZM551.625 144V132.727H555.852C556.971 132.727 557.924 132.945 558.711 133.383C559.503 133.82 560.107 134.456 560.523 135.289C560.945 136.122 561.156 137.128 561.156 138.305V138.32C561.156 139.523 560.948 140.549 560.531 141.398C560.115 142.242 559.51 142.888 558.719 143.336C557.932 143.779 556.977 144 555.852 144H551.625ZM553.641 142.305H555.586C556.331 142.305 556.966 142.151 557.492 141.844C558.018 141.536 558.417 141.089 558.688 140.5C558.964 139.911 559.102 139.195 559.102 138.352V138.336C559.102 137.513 558.961 136.81 558.68 136.227C558.404 135.638 558.003 135.19 557.477 134.883C556.951 134.576 556.32 134.422 555.586 134.422H553.641V142.305ZM566.953 144.172C566.104 144.172 565.372 143.995 564.758 143.641C564.143 143.281 563.669 142.771 563.336 142.109C563.008 141.448 562.844 140.656 562.844 139.734V139.719C562.844 138.807 563.01 138.021 563.344 137.359C563.677 136.693 564.148 136.182 564.758 135.828C565.372 135.474 566.104 135.297 566.953 135.297C567.802 135.297 568.531 135.474 569.141 135.828C569.755 136.182 570.229 136.69 570.562 137.352C570.896 138.013 571.062 138.802 571.062 139.719V139.734C571.062 140.656 570.896 141.448 570.562 142.109C570.234 142.771 569.763 143.281 569.148 143.641C568.539 143.995 567.807 144.172 566.953 144.172ZM566.953 142.594C567.401 142.594 567.781 142.482 568.094 142.258C568.411 142.029 568.654 141.703 568.82 141.281C568.987 140.854 569.07 140.341 569.07 139.742V139.727C569.07 139.122 568.987 138.609 568.82 138.188C568.654 137.76 568.411 137.435 568.094 137.211C567.781 136.982 567.401 136.867 566.953 136.867C566.505 136.867 566.122 136.982 565.805 137.211C565.487 137.435 565.245 137.76 565.078 138.188C564.911 138.609 564.828 139.122 564.828 139.727V139.742C564.828 140.341 564.911 140.854 565.078 141.281C565.245 141.708 565.484 142.034 565.797 142.258C566.115 142.482 566.5 142.594 566.953 142.594ZM573.016 144V135.461H574.961V136.773H575.094C575.24 136.315 575.5 135.958 575.875 135.703C576.255 135.448 576.727 135.32 577.289 135.32C577.435 135.32 577.578 135.331 577.719 135.352C577.865 135.367 577.984 135.388 578.078 135.414V137.156C577.922 137.12 577.763 137.094 577.602 137.078C577.445 137.057 577.281 137.047 577.109 137.047C576.677 137.047 576.299 137.128 575.977 137.289C575.654 137.451 575.404 137.682 575.227 137.984C575.049 138.281 574.961 138.633 574.961 139.039V144H573.016ZM581.891 144.141C581.354 144.141 580.872 144.036 580.445 143.828C580.023 143.62 579.69 143.326 579.445 142.945C579.206 142.56 579.086 142.107 579.086 141.586V141.57C579.086 141.065 579.211 140.63 579.461 140.266C579.711 139.896 580.078 139.607 580.562 139.398C581.047 139.19 581.635 139.068 582.328 139.031L585.484 138.836V140.117L582.602 140.305C582.055 140.336 581.651 140.451 581.391 140.648C581.13 140.846 581 141.122 581 141.477V141.492C581 141.857 581.138 142.141 581.414 142.344C581.695 142.547 582.052 142.648 582.484 142.648C582.875 142.648 583.224 142.57 583.531 142.414C583.839 142.258 584.081 142.047 584.258 141.781C584.435 141.51 584.523 141.206 584.523 140.867V138.164C584.523 137.737 584.388 137.411 584.117 137.188C583.846 136.958 583.445 136.844 582.914 136.844C582.471 136.844 582.109 136.922 581.828 137.078C581.547 137.229 581.357 137.445 581.258 137.727L581.25 137.758H579.414L579.422 137.688C579.484 137.208 579.672 136.789 579.984 136.43C580.297 136.07 580.711 135.792 581.227 135.594C581.742 135.396 582.336 135.297 583.008 135.297C583.747 135.297 584.372 135.411 584.883 135.641C585.393 135.865 585.781 136.193 586.047 136.625C586.312 137.052 586.445 137.565 586.445 138.164V144H584.523V142.828H584.391C584.234 143.099 584.031 143.333 583.781 143.531C583.536 143.729 583.255 143.88 582.938 143.984C582.62 144.089 582.271 144.141 581.891 144.141ZM590.812 144L587.773 135.461H589.852L591.82 142.102H591.961L593.922 135.461H595.969L592.938 144H590.812ZM597.633 144V135.461H599.57V144H597.633ZM598.609 134.031C598.292 134.031 598.018 133.919 597.789 133.695C597.56 133.471 597.445 133.203 597.445 132.891C597.445 132.568 597.56 132.297 597.789 132.078C598.018 131.854 598.292 131.742 598.609 131.742C598.927 131.742 599.198 131.854 599.422 132.078C599.651 132.297 599.766 132.568 599.766 132.891C599.766 133.203 599.651 133.471 599.422 133.695C599.198 133.919 598.927 134.031 598.609 134.031ZM602.047 144V132.156H603.992V144H602.047ZM606.516 144V132.156H608.461V144H606.516ZM614.562 144.172C613.714 144.172 612.984 143.992 612.375 143.633C611.771 143.273 611.305 142.763 610.977 142.102C610.648 141.44 610.484 140.656 610.484 139.75V139.742C610.484 138.846 610.646 138.065 610.969 137.398C611.297 136.732 611.76 136.216 612.359 135.852C612.958 135.482 613.661 135.297 614.469 135.297C615.281 135.297 615.979 135.477 616.562 135.836C617.151 136.19 617.604 136.688 617.922 137.328C618.24 137.969 618.398 138.719 618.398 139.578V140.219H611.461V138.914H617.445L616.523 140.133V139.359C616.523 138.792 616.438 138.32 616.266 137.945C616.094 137.57 615.854 137.289 615.547 137.102C615.245 136.914 614.893 136.82 614.492 136.82C614.091 136.82 613.734 136.919 613.422 137.117C613.115 137.31 612.87 137.596 612.688 137.977C612.51 138.352 612.422 138.812 612.422 139.359V140.141C612.422 140.667 612.51 141.117 612.688 141.492C612.865 141.862 613.115 142.148 613.438 142.352C613.766 142.549 614.154 142.648 614.602 142.648C614.951 142.648 615.25 142.599 615.5 142.5C615.755 142.396 615.961 142.273 616.117 142.133C616.273 141.987 616.383 141.849 616.445 141.719L616.469 141.664H618.312L618.297 141.734C618.229 142.01 618.104 142.292 617.922 142.578C617.745 142.859 617.503 143.122 617.195 143.367C616.893 143.607 616.523 143.802 616.086 143.953C615.648 144.099 615.141 144.172 614.562 144.172ZM628.727 144.281C627.852 144.281 627.091 144.146 626.445 143.875C625.805 143.604 625.299 143.227 624.93 142.742C624.56 142.258 624.352 141.693 624.305 141.047L624.297 140.938H626.25L626.258 141.016C626.289 141.333 626.414 141.609 626.633 141.844C626.857 142.078 627.154 142.263 627.523 142.398C627.893 142.529 628.315 142.594 628.789 142.594C629.242 142.594 629.643 142.523 629.992 142.383C630.341 142.242 630.615 142.049 630.812 141.805C631.01 141.555 631.109 141.268 631.109 140.945V140.938C631.109 140.531 630.951 140.201 630.633 139.945C630.315 139.685 629.792 139.477 629.062 139.32L627.852 139.07C626.695 138.826 625.854 138.435 625.328 137.898C624.807 137.357 624.547 136.667 624.547 135.828V135.82C624.547 135.148 624.724 134.56 625.078 134.055C625.438 133.549 625.93 133.156 626.555 132.875C627.185 132.589 627.906 132.445 628.719 132.445C629.552 132.445 630.273 132.586 630.883 132.867C631.492 133.143 631.971 133.521 632.32 134C632.669 134.479 632.865 135.021 632.906 135.625L632.914 135.727H630.992L630.977 135.633C630.93 135.336 630.807 135.078 630.609 134.859C630.417 134.635 630.159 134.458 629.836 134.328C629.513 134.198 629.135 134.133 628.703 134.133C628.292 134.133 627.924 134.198 627.602 134.328C627.279 134.453 627.023 134.63 626.836 134.859C626.654 135.089 626.562 135.365 626.562 135.688V135.695C626.562 136.091 626.716 136.419 627.023 136.68C627.336 136.94 627.844 137.143 628.547 137.289L629.758 137.547C630.549 137.714 631.193 137.935 631.688 138.211C632.182 138.487 632.544 138.831 632.773 139.242C633.008 139.648 633.125 140.138 633.125 140.711V140.719C633.125 141.448 632.945 142.078 632.586 142.609C632.232 143.141 631.724 143.552 631.062 143.844C630.406 144.135 629.628 144.281 628.727 144.281ZM638.547 144.039C637.568 144.039 636.862 143.859 636.43 143.5C635.997 143.141 635.781 142.552 635.781 141.734V136.969H634.453V135.461H635.781V133.367H637.758V135.461H639.555V136.969H637.758V141.273C637.758 141.695 637.846 142.005 638.023 142.203C638.206 142.396 638.497 142.492 638.898 142.492C639.039 142.492 639.154 142.49 639.242 142.484C639.336 142.474 639.44 142.464 639.555 142.453V143.953C639.419 143.979 639.263 144 639.086 144.016C638.914 144.031 638.734 144.039 638.547 144.039ZM643.828 144.141C643.292 144.141 642.81 144.036 642.383 143.828C641.961 143.62 641.628 143.326 641.383 142.945C641.143 142.56 641.023 142.107 641.023 141.586V141.57C641.023 141.065 641.148 140.63 641.398 140.266C641.648 139.896 642.016 139.607 642.5 139.398C642.984 139.19 643.573 139.068 644.266 139.031L647.422 138.836V140.117L644.539 140.305C643.992 140.336 643.589 140.451 643.328 140.648C643.068 140.846 642.938 141.122 642.938 141.477V141.492C642.938 141.857 643.076 142.141 643.352 142.344C643.633 142.547 643.99 142.648 644.422 142.648C644.812 142.648 645.161 142.57 645.469 142.414C645.776 142.258 646.018 142.047 646.195 141.781C646.372 141.51 646.461 141.206 646.461 140.867V138.164C646.461 137.737 646.326 137.411 646.055 137.188C645.784 136.958 645.383 136.844 644.852 136.844C644.409 136.844 644.047 136.922 643.766 137.078C643.484 137.229 643.294 137.445 643.195 137.727L643.188 137.758H641.352L641.359 137.688C641.422 137.208 641.609 136.789 641.922 136.43C642.234 136.07 642.648 135.792 643.164 135.594C643.68 135.396 644.273 135.297 644.945 135.297C645.685 135.297 646.31 135.411 646.82 135.641C647.331 135.865 647.719 136.193 647.984 136.625C648.25 137.052 648.383 137.565 648.383 138.164V144H646.461V142.828H646.328C646.172 143.099 645.969 143.333 645.719 143.531C645.474 143.729 645.193 143.88 644.875 143.984C644.557 144.089 644.208 144.141 643.828 144.141ZM654.078 144.039C653.099 144.039 652.393 143.859 651.961 143.5C651.529 143.141 651.312 142.552 651.312 141.734V136.969H649.984V135.461H651.312V133.367H653.289V135.461H655.086V136.969H653.289V141.273C653.289 141.695 653.378 142.005 653.555 142.203C653.737 142.396 654.029 142.492 654.43 142.492C654.57 142.492 654.685 142.49 654.773 142.484C654.867 142.474 654.971 142.464 655.086 142.453V143.953C654.951 143.979 654.794 144 654.617 144.016C654.445 144.031 654.266 144.039 654.078 144.039ZM657.055 144V135.461H658.992V144H657.055ZM658.031 134.031C657.714 134.031 657.44 133.919 657.211 133.695C656.982 133.471 656.867 133.203 656.867 132.891C656.867 132.568 656.982 132.297 657.211 132.078C657.44 131.854 657.714 131.742 658.031 131.742C658.349 131.742 658.62 131.854 658.844 132.078C659.073 132.297 659.188 132.568 659.188 132.891C659.188 133.203 659.073 133.471 658.844 133.695C658.62 133.919 658.349 134.031 658.031 134.031ZM665.078 144.172C664.229 144.172 663.497 143.995 662.883 143.641C662.268 143.281 661.794 142.771 661.461 142.109C661.133 141.448 660.969 140.656 660.969 139.734V139.719C660.969 138.807 661.135 138.021 661.469 137.359C661.802 136.693 662.273 136.182 662.883 135.828C663.497 135.474 664.229 135.297 665.078 135.297C665.927 135.297 666.656 135.474 667.266 135.828C667.88 136.182 668.354 136.69 668.688 137.352C669.021 138.013 669.188 138.802 669.188 139.719V139.734C669.188 140.656 669.021 141.448 668.688 142.109C668.359 142.771 667.888 143.281 667.273 143.641C666.664 143.995 665.932 144.172 665.078 144.172ZM665.078 142.594C665.526 142.594 665.906 142.482 666.219 142.258C666.536 142.029 666.779 141.703 666.945 141.281C667.112 140.854 667.195 140.341 667.195 139.742V139.727C667.195 139.122 667.112 138.609 666.945 138.188C666.779 137.76 666.536 137.435 666.219 137.211C665.906 136.982 665.526 136.867 665.078 136.867C664.63 136.867 664.247 136.982 663.93 137.211C663.612 137.435 663.37 137.76 663.203 138.188C663.036 138.609 662.953 139.122 662.953 139.727V139.742C662.953 140.341 663.036 140.854 663.203 141.281C663.37 141.708 663.609 142.034 663.922 142.258C664.24 142.482 664.625 142.594 665.078 142.594ZM671.141 144V135.461H673.086V136.773H673.219C673.422 136.31 673.729 135.948 674.141 135.688C674.552 135.427 675.065 135.297 675.68 135.297C676.633 135.297 677.362 135.573 677.867 136.125C678.372 136.677 678.625 137.461 678.625 138.477V144H676.68V138.93C676.68 138.263 676.539 137.763 676.258 137.43C675.982 137.096 675.549 136.93 674.961 136.93C674.576 136.93 674.242 137.016 673.961 137.188C673.68 137.359 673.464 137.602 673.312 137.914C673.161 138.227 673.086 138.596 673.086 139.023V144H671.141ZM681.023 137.422L681.703 132.727H683.711L682.359 137.422H681.023Z" fill="#888888"/>
<g clip-path="url(#clip0_48_7185)">
<rect x="863" y="127" width="49" height="22" rx="3" fill="#EBEBEB"/>
<path d="M870.143 132.857C870.853 132.857 871.429 133.433 871.429 134.143V135.429H870.143C869.433 135.429 868.857 134.853 868.857 134.143C868.857 133.433 869.433 132.857 870.143 132.857ZM872.286 135.429V134.143C872.286 132.959 871.326 132 870.143 132C868.959 132 868 132.959 868 134.143C868 135.326 868.959 136.286 870.143 136.286H871.429V139.714H870.143C868.959 139.714 868 140.674 868 141.857C868 143.041 868.959 144 870.143 144C871.326 144 872.286 143.041 872.286 141.857V140.571H875.714V141.857C875.714 143.041 876.674 144 877.857 144C879.041 144 880 143.041 880 141.857C880 140.674 879.041 139.714 877.857 139.714H876.571V136.286H877.857C879.041 136.286 880 135.326 880 134.143C880 132.959 879.041 132 877.857 132C876.674 132 875.714 132.959 875.714 134.143V135.429H872.286ZM872.286 136.286H875.714V139.714H872.286V136.286ZM876.571 135.429V134.143C876.571 133.433 877.147 132.857 877.857 132.857C878.567 132.857 879.143 133.433 879.143 134.143C879.143 134.853 878.567 135.429 877.857 135.429H876.571ZM876.571 140.571H877.857C878.567 140.571 879.143 141.147 879.143 141.857C879.143 142.567 878.567 143.143 877.857 143.143C877.147 143.143 876.571 142.567 876.571 141.857V140.571ZM871.429 140.571V141.857C871.429 142.567 870.853 143.143 870.143 143.143C869.433 143.143 868.857 142.567 868.857 141.857C868.857 141.147 869.433 140.571 870.143 140.571H871.429Z" fill="#161616"/>
<path d="M888.524 141.408H887.396V138.96H884.96V137.916H887.396V135.492H888.524V137.916H890.96V138.96H888.524V141.408Z" fill="#161616"/>
<path d="M900.764 142.5H899.444V133.884H900.764V137.868L904.412 133.884H905.936L902.096 138.108L906.032 142.5H904.376L900.764 138.504V142.5Z" fill="#161616"/>
</g>
</g>
<defs>
<filter id="filter0_d_48_7185" x="382" y="110" width="544" height="60" filterUnits="userSpaceOnUse" color-interpolation-filters="sRGB">
<feFlood flood-opacity="0" result="BackgroundImageFix"/>
<feColorMatrix in="SourceAlpha" type="matrix" values="0 0 0 0 0 0 0 0 0 0 0 0 0 0 0 0 0 0 127 0" result="hardAlpha"/>
<feOffset dy="2"/>
<feGaussianBlur stdDeviation="1"/>
<feComposite in2="hardAlpha" operator="out"/>
<feColorMatrix type="matrix" values="0 0 0 0 0.0862745 0 0 0 0 0.0862745 0 0 0 0 0.0862745 0 0 0 0.15 0"/>
<feBlend mode="normal" in2="BackgroundImageFix" result="effect1_dropShadow_48_7185"/>
<feBlend mode="normal" in="SourceGraphic" in2="effect1_dropShadow_48_7185" result="shape"/>
</filter>
<clipPath id="clip0_48_7185">
<rect width="49" height="22" fill="white" transform="translate(863 127)"/>
</clipPath>
</defs>
</svg>
