<svg width="31" height="31" viewBox="0 0 31 31" fill="none" xmlns="http://www.w3.org/2000/svg">
<g id="Group">
<path id="Vector" d="M15.5 31C24.0604 31 31 24.0604 31 15.5C31 6.93959 24.0604 0 15.5 0C6.93959 0 0 6.93959 0 15.5C0 24.0604 6.93959 31 15.5 31Z" fill="#1BA864"/>
<path id="Vector_2" d="M15.5001 28.8878C22.8939 28.8878 28.8878 22.8939 28.8878 15.5001C28.8878 8.10621 22.8939 2.1123 15.5001 2.1123C8.10621 2.1123 2.1123 8.10621 2.1123 15.5001C2.1123 22.8939 8.10621 28.8878 15.5001 28.8878Z" fill="white"/>
<path id="Vector_3" d="M13.7982 20.4002L9.64514 16.2472L11.14 14.7523L13.7982 17.4105L19.862 11.3467L21.3569 12.8416L13.7982 20.4002Z" fill="#1BA864"/>
</g>
</svg>
