<svg width="32" height="32" viewBox="0 0 32 32" fill="none" xmlns="http://www.w3.org/2000/svg">
<path d="M13.8571 6C18.1965 6 21.7143 9.51776 21.7143 13.8571C21.7143 15.7697 21.0309 17.5227 19.8951 18.8852L25.7908 24.7806C26.0697 25.0596 26.0697 25.5118 25.7908 25.7908C25.5428 26.0387 25.1579 26.0663 24.8796 25.8734L24.7806 25.7908L18.8852 19.8951C17.5227 21.0309 15.7697 21.7143 13.8571 21.7143C9.51776 21.7143 6 18.1965 6 13.8571C6 9.51776 9.51776 6 13.8571 6ZM13.8571 7.42857C10.3067 7.42857 7.42857 10.3067 7.42857 13.8571C7.42857 17.4075 10.3067 20.2857 13.8571 20.2857C17.4075 20.2857 20.2857 17.4075 20.2857 13.8571C20.2857 10.3067 17.4075 7.42857 13.8571 7.42857Z" fill="white"/>
</svg>
