<svg width="30" height="30" viewBox="0 0 30 30" fill="none" xmlns="http://www.w3.org/2000/svg">
<rect width="30" height="30" fill="#1E1E1E"/>
<g id="Advisories and Alert Card">
<path d="M-152 -476C-152 -477.105 -151.105 -478 -150 -478H1524C1525.1 -478 1526 -477.105 1526 -476V1895C1526 1896.1 1525.1 1897 1524 1897H-150C-151.105 1897 -152 1896.1 -152 1895V-476Z" fill="#404040"/>
<g id="Advisories and Alert Card_2">
<g id="Property Mode=Light, Property Action =AfterLoad">
<g clip-path="url(#clip0_1_6)">
<rect x="-16" y="-87" width="327" height="286" rx="5" fill="white"/>
<g id="Caution Banner - Elevator">
<rect x="-16" y="-12" width="327" height="56" rx="3" fill="white"/>
<g id="warning">
<g id="Group">
<g id="Group_2">
<path id="Vector" d="M0.929478 26.4046L14.4461 2.97589C14.6713 2.55752 15.2828 2.55752 15.5403 2.97589L29.089 26.4046C29.3143 26.823 29.0247 27.3379 28.5419 27.3379H1.4444C0.96166 27.3379 0.672019 26.823 0.929478 26.4046Z" fill="#FFC043"/>
</g>
<g id="Group_3">
<path id="Vector_2" d="M4.69482 24.86L14.9932 7.03101L25.2915 24.86H4.69482Z" fill="white"/>
</g>
<g id="Group_4">
<path id="Vector_3" d="M14.9932 20.5472C15.2506 20.5472 15.4759 20.6437 15.669 20.8368C15.8621 21.0299 15.9586 21.2552 15.9586 21.5127C15.9586 21.7701 15.8621 21.9954 15.669 22.1885C15.4759 22.3816 15.2506 22.4781 14.9932 22.4781C14.7357 22.4781 14.4783 22.3816 14.3174 22.1885C14.1243 21.9954 14.0277 21.7701 14.0277 21.5127C14.0277 21.2552 14.1243 21.0299 14.3174 20.8368C14.5104 20.6437 14.7357 20.5472 14.9932 20.5472ZM14.253 19.7105L14.1243 12.7913H15.8943L15.7334 19.7105H14.253Z" fill="#1A1A1A"/>
</g>
</g>
</g>
</g>
</g>
</g>
<rect x="-35.5" y="-106.5" width="1445" height="1388" rx="4.5" stroke="#9747FF" stroke-dasharray="10 5"/>
</g>
<path d="M-150 -477H1524V-479H-150V-477ZM1525 -476V1895H1527V-476H1525ZM1524 1896H-150V1898H1524V1896ZM-151 1895V-476H-153V1895H-151ZM-150 1896C-150.552 1896 -151 1895.55 -151 1895H-153C-153 1896.66 -151.657 1898 -150 1898V1896ZM1525 1895C1525 1895.55 1524.55 1896 1524 1896V1898C1525.66 1898 1527 1896.66 1527 1895H1525ZM1524 -477C1524.55 -477 1525 -476.552 1525 -476H1527C1527 -477.657 1525.66 -479 1524 -479V-477ZM-150 -479C-151.657 -479 -153 -477.657 -153 -476H-151C-151 -476.552 -150.552 -477 -150 -477V-479Z" fill="white" fill-opacity="0.1"/>
</g>
<defs>
<clipPath id="clip0_1_6">
<rect x="-16" y="-87" width="327" height="286" rx="5" fill="white"/>
</clipPath>
</defs>
</svg>
