<svg width="1024" height="426" viewBox="0 0 1024 426" fill="none" xmlns="http://www.w3.org/2000/svg">
<g clip-path="url(#clip0_29_1297)">
<rect width="1024" height="426" rx="24" fill="white"/>
<path d="M303.5 232.75H-497.5C-501.228 232.75 -504.25 235.772 -504.25 239.5V296.5C-504.25 300.228 -501.228 303.25 -497.5 303.25H303.5C307.228 303.25 310.25 300.228 310.25 296.5V239.5C310.25 235.772 307.228 232.75 303.5 232.75Z" stroke="#DDDDDD"/>
<mask id="mask0_29_1297" style="mask-type:luminance" maskUnits="userSpaceOnUse" x="219" y="251" width="74" height="34">
<path d="M293 251.5H219.5V284.5H293V251.5Z" fill="white"/>
</mask>
<g mask="url(#mask0_29_1297)">
<path d="M224 252H288.5C290.709 252 292.5 253.791 292.5 256V280C292.5 282.209 290.709 284 288.5 284H224C221.791 284 220 282.209 220 280V256C220 253.791 221.791 252 224 252Z" stroke="#DDDDDD"/>
<path d="M230.215 260.286C231.28 260.286 232.143 261.149 232.143 262.214V264.143H230.215C229.15 264.143 228.285 263.279 228.285 262.214C228.285 261.149 229.15 260.286 230.215 260.286ZM233.429 264.143V262.214C233.429 260.439 231.989 259 230.215 259C228.439 259 227 260.439 227 262.214C227 263.989 228.439 265.429 230.215 265.429H232.143V270.571H230.215C228.439 270.571 227 272.011 227 273.786C227 275.561 228.439 277 230.215 277C231.989 277 233.429 275.561 233.429 273.786V271.857H238.571V273.786C238.571 275.561 240.011 277 241.785 277C243.561 277 245 275.561 245 273.786C245 272.011 243.561 270.571 241.785 270.571H239.857V265.429H241.785C243.561 265.429 245 263.989 245 262.214C245 260.439 243.561 259 241.785 259C240.011 259 238.571 260.439 238.571 262.214V264.143H233.429ZM233.429 265.429H238.571V270.571H233.429V265.429ZM239.857 264.143V262.214C239.857 261.149 240.72 260.286 241.785 260.286C242.85 260.286 243.715 261.149 243.715 262.214C243.715 263.279 242.85 264.143 241.785 264.143H239.857ZM239.857 271.857H241.785C242.85 271.857 243.715 272.721 243.715 273.786C243.715 274.851 242.85 275.714 241.785 275.714C240.72 275.714 239.857 274.851 239.857 273.786V271.857ZM232.143 271.857V273.786C232.143 274.851 231.28 275.714 230.215 275.714C229.15 275.714 228.285 274.851 228.285 273.786C228.285 272.721 229.15 271.857 230.215 271.857H232.143Z" fill="#DDDDDD"/>
<path d="M257.786 273.112H256.094V269.44H252.44V267.874H256.094V264.238H257.786V267.874H261.44V269.44H257.786V273.112Z" fill="#DDDDDD"/>
<path d="M276.146 274.75H274.166V261.826H276.146V267.802L281.618 261.826H283.904L278.144 268.162L284.048 274.75H281.564L276.146 268.756V274.75Z" fill="#DDDDDD"/>
</g>
<g filter="url(#filter0_d_29_1297)">
<rect width="622" height="525" rx="12" transform="matrix(0.965926 0.258819 -0.707107 0.707107 423.231 37)" fill="#FEFEFE" shape-rendering="crispEdges"/>
<rect x="0.12941" y="0.482963" width="621" height="524" rx="11.5" transform="matrix(0.965926 0.258819 -0.707107 0.707107 423.577 37.108)" stroke="#E5E5E5" shape-rendering="crispEdges"/>
<rect width="32" height="32" rx="5" transform="matrix(0.965926 0.258819 -0.707107 0.707107 939.59 204.048)" fill="#F2F2F2"/>
<rect x="0.12941" y="0.482963" width="31" height="31" rx="4.5" transform="matrix(0.965926 0.258819 -0.707107 0.707107 939.936 204.156)" stroke="#F2F2F2" stroke-opacity="0.866667"/>
<path d="M942.122 213.903L942.223 213.872C942.567 213.78 942.892 213.85 942.993 214.028L943.016 214.085L944.312 218.922L952.692 216.677C953.071 216.576 953.426 216.671 953.485 216.89C953.544 217.109 953.284 217.369 952.904 217.47L944.525 219.716L945.821 224.554C945.874 224.753 945.664 224.986 945.341 225.103L945.24 225.135C944.895 225.227 944.571 225.157 944.47 224.979L944.447 224.922L943.151 220.084L934.771 222.329C934.392 222.431 934.036 222.336 933.978 222.117C933.919 221.898 934.179 221.638 934.558 221.536L942.938 219.291L941.642 214.453C941.589 214.254 941.799 214.021 942.122 213.903L942.223 213.872L942.122 213.903Z" fill="#484848"/>
</g>
<g clip-path="url(#clip1_29_1297)">
<rect x="923.5" y="378.5" width="1" height="100" transform="rotate(-90 923.5 378.5)" fill="#484848"/>
<path d="M341.867 387.316C340.438 387.316 339.203 387.055 338.164 386.531C337.125 386.008 336.32 385.277 335.75 384.34C335.188 383.402 334.906 382.312 334.906 381.07V370.09H337.93V380.812C337.93 381.594 338.082 382.277 338.387 382.863C338.699 383.441 339.148 383.895 339.734 384.223C340.32 384.543 341.031 384.703 341.867 384.703C342.703 384.703 343.414 384.543 344 384.223C344.586 383.895 345.031 383.441 345.336 382.863C345.641 382.277 345.793 381.594 345.793 380.812V370.09H348.805V381.07C348.805 382.305 348.523 383.395 347.961 384.34C347.406 385.277 346.609 386.008 345.57 386.531C344.531 387.055 343.297 387.316 341.867 387.316ZM364.164 387V372.633H359.078V370.09H372.262V372.633H367.176V387H364.164ZM382.535 387V370.09H385.547V387H382.535ZM396.746 387V370.09H399.758V384.457H407.445V387H396.746ZM417.824 387V370.09H420.836V387H417.824ZM436.172 387V372.633H431.086V370.09H444.27V372.633H439.184V387H436.172ZM459.277 387V380.332L453.348 370.09H456.652L460.73 377.426H460.836L464.914 370.09H468.219L462.289 380.332V387H459.277ZM498.621 387.316C497.012 387.316 495.613 386.961 494.426 386.25C493.246 385.539 492.332 384.527 491.684 383.215C491.043 381.902 490.723 380.344 490.723 378.539V378.527C490.723 376.723 491.043 375.168 491.684 373.863C492.332 372.551 493.246 371.543 494.426 370.84C495.613 370.129 497.012 369.773 498.621 369.773C499.918 369.773 501.078 370.023 502.102 370.523C503.133 371.023 503.973 371.715 504.621 372.598C505.27 373.48 505.668 374.496 505.816 375.645L505.828 375.762H502.863L502.805 375.562C502.648 374.914 502.379 374.355 501.996 373.887C501.621 373.41 501.148 373.043 500.578 372.785C500.008 372.52 499.355 372.387 498.621 372.387C497.645 372.387 496.793 372.637 496.066 373.137C495.348 373.637 494.789 374.348 494.391 375.27C494 376.184 493.805 377.27 493.805 378.527V378.539C493.805 379.797 494 380.887 494.391 381.809C494.789 382.73 495.352 383.445 496.078 383.953C496.805 384.453 497.656 384.703 498.633 384.703C499.352 384.703 499.992 384.578 500.555 384.328C501.125 384.07 501.605 383.703 501.996 383.227C502.387 382.742 502.668 382.16 502.84 381.48L502.863 381.375H505.828L505.816 381.492C505.676 382.641 505.281 383.652 504.633 384.527C503.984 385.402 503.145 386.086 502.113 386.578C501.09 387.07 499.926 387.316 498.621 387.316ZM516.324 387V370.09H519.336V384.457H527.023V387H516.324ZM536.207 387L542.242 370.09H544.785V373.125H543.895L539.371 387H536.207ZM539.266 382.629L540.062 380.297H547.809L548.617 382.629H539.266ZM548.512 387L543.988 373.125V370.09H545.641L551.676 387H548.512ZM567.422 387.316C566.125 387.316 564.992 387.121 564.023 386.73C563.055 386.34 562.289 385.781 561.727 385.055C561.172 384.328 560.859 383.465 560.789 382.465L560.777 382.277H563.672L563.695 382.418C563.773 382.902 563.98 383.32 564.316 383.672C564.652 384.023 565.094 384.297 565.641 384.492C566.188 384.68 566.816 384.773 567.527 384.773C568.23 384.773 568.84 384.676 569.355 384.48C569.879 384.277 570.281 383.996 570.562 383.637C570.852 383.27 570.996 382.844 570.996 382.359V382.348C570.996 381.723 570.758 381.223 570.281 380.848C569.812 380.473 569.031 380.172 567.938 379.945L566.121 379.57C564.449 379.219 563.203 378.648 562.383 377.859C561.562 377.07 561.152 376.047 561.152 374.789V374.777C561.16 373.777 561.43 372.906 561.961 372.164C562.5 371.414 563.242 370.828 564.188 370.406C565.133 369.984 566.211 369.773 567.422 369.773C568.656 369.773 569.73 369.977 570.645 370.383C571.566 370.789 572.289 371.355 572.812 372.082C573.344 372.809 573.637 373.648 573.691 374.602L573.703 374.789H570.82L570.797 374.648C570.727 374.164 570.543 373.75 570.246 373.406C569.957 373.055 569.57 372.785 569.086 372.598C568.602 372.41 568.039 372.316 567.398 372.316C566.75 372.316 566.184 372.414 565.699 372.609C565.223 372.797 564.852 373.062 564.586 373.406C564.32 373.75 564.188 374.152 564.188 374.613V374.625C564.188 375.219 564.426 375.703 564.902 376.078C565.379 376.445 566.129 376.738 567.152 376.957L568.98 377.332C570.152 377.574 571.109 377.902 571.852 378.316C572.594 378.73 573.141 379.25 573.492 379.875C573.852 380.492 574.031 381.238 574.031 382.113V382.125C574.031 383.18 573.766 384.098 573.234 384.879C572.703 385.66 571.945 386.262 570.961 386.684C569.977 387.105 568.797 387.316 567.422 387.316ZM590.422 387.316C589.125 387.316 587.992 387.121 587.023 386.73C586.055 386.34 585.289 385.781 584.727 385.055C584.172 384.328 583.859 383.465 583.789 382.465L583.777 382.277H586.672L586.695 382.418C586.773 382.902 586.98 383.32 587.316 383.672C587.652 384.023 588.094 384.297 588.641 384.492C589.188 384.68 589.816 384.773 590.527 384.773C591.23 384.773 591.84 384.676 592.355 384.48C592.879 384.277 593.281 383.996 593.562 383.637C593.852 383.27 593.996 382.844 593.996 382.359V382.348C593.996 381.723 593.758 381.223 593.281 380.848C592.812 380.473 592.031 380.172 590.938 379.945L589.121 379.57C587.449 379.219 586.203 378.648 585.383 377.859C584.562 377.07 584.152 376.047 584.152 374.789V374.777C584.16 373.777 584.43 372.906 584.961 372.164C585.5 371.414 586.242 370.828 587.188 370.406C588.133 369.984 589.211 369.773 590.422 369.773C591.656 369.773 592.73 369.977 593.645 370.383C594.566 370.789 595.289 371.355 595.812 372.082C596.344 372.809 596.637 373.648 596.691 374.602L596.703 374.789H593.82L593.797 374.648C593.727 374.164 593.543 373.75 593.246 373.406C592.957 373.055 592.57 372.785 592.086 372.598C591.602 372.41 591.039 372.316 590.398 372.316C589.75 372.316 589.184 372.414 588.699 372.609C588.223 372.797 587.852 373.062 587.586 373.406C587.32 373.75 587.188 374.152 587.188 374.613V374.625C587.188 375.219 587.426 375.703 587.902 376.078C588.379 376.445 589.129 376.738 590.152 376.957L591.98 377.332C593.152 377.574 594.109 377.902 594.852 378.316C595.594 378.73 596.141 379.25 596.492 379.875C596.852 380.492 597.031 381.238 597.031 382.113V382.125C597.031 383.18 596.766 384.098 596.234 384.879C595.703 385.66 594.945 386.262 593.961 386.684C592.977 387.105 591.797 387.316 590.422 387.316ZM632.461 387L624.246 378.035C623.637 377.371 623.148 376.797 622.781 376.312C622.422 375.82 622.164 375.371 622.008 374.965C621.852 374.551 621.77 374.137 621.762 373.723V373.711C621.762 372.961 621.961 372.297 622.359 371.719C622.758 371.133 623.305 370.672 624 370.336C624.695 370 625.488 369.832 626.379 369.832C627.262 369.832 628.043 369.996 628.723 370.324C629.41 370.645 629.949 371.094 630.34 371.672C630.73 372.242 630.926 372.906 630.926 373.664V373.676C630.926 374.285 630.781 374.859 630.492 375.398C630.203 375.93 629.742 376.445 629.109 376.945C628.484 377.438 627.656 377.941 626.625 378.457L625.207 377.004C625.98 376.637 626.598 376.289 627.059 375.961C627.527 375.633 627.867 375.297 628.078 374.953C628.289 374.609 628.395 374.234 628.395 373.828V373.816C628.395 373.434 628.309 373.098 628.137 372.809C627.965 372.52 627.727 372.293 627.422 372.129C627.125 371.965 626.777 371.883 626.379 371.883C625.996 371.883 625.648 371.969 625.336 372.141C625.031 372.305 624.789 372.535 624.609 372.832C624.438 373.121 624.352 373.453 624.352 373.828V373.84C624.352 374.137 624.422 374.434 624.562 374.73C624.703 375.02 624.926 375.344 625.23 375.703C625.535 376.062 625.934 376.508 626.426 377.039L635.812 386.941V387H632.461ZM625.758 387.305C624.594 387.305 623.574 387.105 622.699 386.707C621.824 386.309 621.145 385.754 620.66 385.043C620.184 384.332 619.945 383.504 619.945 382.559V382.547C619.945 381.57 620.211 380.707 620.742 379.957C621.273 379.199 622.094 378.523 623.203 377.93L624.668 377.133L626.168 378.691L624.844 379.441C624.094 379.855 623.555 380.297 623.227 380.766C622.898 381.227 622.734 381.742 622.734 382.312V382.324C622.734 382.871 622.871 383.352 623.145 383.766C623.426 384.18 623.816 384.504 624.316 384.738C624.816 384.965 625.395 385.078 626.051 385.078C626.676 385.078 627.254 384.992 627.785 384.82C628.316 384.648 628.793 384.406 629.215 384.094C629.645 383.781 630.012 383.41 630.316 382.98C630.77 382.371 631.109 381.652 631.336 380.824C631.562 379.996 631.676 379.059 631.676 378.012V377.496H634.207V378.117C634.207 379.508 634.016 380.758 633.633 381.867C633.258 382.977 632.707 383.934 631.98 384.738C631.262 385.543 630.379 386.172 629.332 386.625C628.285 387.078 627.094 387.305 625.758 387.305ZM665.746 387.316C664.137 387.316 662.738 386.961 661.551 386.25C660.371 385.539 659.457 384.527 658.809 383.215C658.168 381.902 657.848 380.344 657.848 378.539V378.527C657.848 376.723 658.168 375.168 658.809 373.863C659.457 372.551 660.371 371.543 661.551 370.84C662.738 370.129 664.137 369.773 665.746 369.773C667.043 369.773 668.203 370.023 669.227 370.523C670.258 371.023 671.098 371.715 671.746 372.598C672.395 373.48 672.793 374.496 672.941 375.645L672.953 375.762H669.988L669.93 375.562C669.773 374.914 669.504 374.355 669.121 373.887C668.746 373.41 668.273 373.043 667.703 372.785C667.133 372.52 666.48 372.387 665.746 372.387C664.77 372.387 663.918 372.637 663.191 373.137C662.473 373.637 661.914 374.348 661.516 375.27C661.125 376.184 660.93 377.27 660.93 378.527V378.539C660.93 379.797 661.125 380.887 661.516 381.809C661.914 382.73 662.477 383.445 663.203 383.953C663.93 384.453 664.781 384.703 665.758 384.703C666.477 384.703 667.117 384.578 667.68 384.328C668.25 384.07 668.73 383.703 669.121 383.227C669.512 382.742 669.793 382.16 669.965 381.48L669.988 381.375H672.953L672.941 381.492C672.801 382.641 672.406 383.652 671.758 384.527C671.109 385.402 670.27 386.086 669.238 386.578C668.215 387.07 667.051 387.316 665.746 387.316ZM690.867 387.316C689.219 387.316 687.793 386.961 686.59 386.25C685.395 385.531 684.469 384.52 683.812 383.215C683.164 381.902 682.84 380.348 682.84 378.551V378.527C682.84 376.73 683.168 375.18 683.824 373.875C684.48 372.562 685.406 371.551 686.602 370.84C687.805 370.129 689.227 369.773 690.867 369.773C692.508 369.773 693.926 370.133 695.121 370.852C696.324 371.562 697.25 372.57 697.898 373.875C698.555 375.18 698.883 376.73 698.883 378.527V378.551C698.883 380.348 698.555 381.902 697.898 383.215C697.25 384.52 696.328 385.531 695.133 386.25C693.938 386.961 692.516 387.316 690.867 387.316ZM690.867 384.703C691.883 384.703 692.758 384.449 693.492 383.941C694.234 383.434 694.805 382.723 695.203 381.809C695.602 380.887 695.801 379.801 695.801 378.551V378.527C695.801 377.27 695.598 376.184 695.191 375.27C694.793 374.348 694.223 373.637 693.48 373.137C692.746 372.637 691.875 372.387 690.867 372.387C689.859 372.387 688.984 372.637 688.242 373.137C687.5 373.637 686.926 374.344 686.52 375.258C686.121 376.172 685.922 377.262 685.922 378.527V378.551C685.922 379.801 686.121 380.887 686.52 381.809C686.926 382.73 687.496 383.445 688.23 383.953C688.973 384.453 689.852 384.703 690.867 384.703ZM709.496 387V370.09H712.977L718.145 383.027H718.238L723.406 370.09H726.887V387H724.168V374.965H722.762L725.832 370.559L719.223 387H717.16L710.551 370.559L713.609 374.965H712.215V387H709.496ZM739.598 381.41V378.973H743.898C744.992 378.973 745.836 378.695 746.43 378.141C747.031 377.578 747.332 376.789 747.332 375.773V375.75C747.332 374.727 747.031 373.938 746.43 373.383C745.836 372.828 744.992 372.551 743.898 372.551H739.598V370.09H744.648C745.789 370.09 746.789 370.324 747.648 370.793C748.516 371.262 749.191 371.922 749.676 372.773C750.16 373.617 750.402 374.605 750.402 375.738V375.762C750.402 376.887 750.16 377.875 749.676 378.727C749.191 379.57 748.516 380.23 747.648 380.707C746.789 381.176 745.789 381.41 744.648 381.41H739.598ZM738.098 387V370.09H741.109V387H738.098ZM768.234 387.316C766.586 387.316 765.16 386.961 763.957 386.25C762.762 385.531 761.836 384.52 761.18 383.215C760.531 381.902 760.207 380.348 760.207 378.551V378.527C760.207 376.73 760.535 375.18 761.191 373.875C761.848 372.562 762.773 371.551 763.969 370.84C765.172 370.129 766.594 369.773 768.234 369.773C769.875 369.773 771.293 370.133 772.488 370.852C773.691 371.562 774.617 372.57 775.266 373.875C775.922 375.18 776.25 376.73 776.25 378.527V378.551C776.25 380.348 775.922 381.902 775.266 383.215C774.617 384.52 773.695 385.531 772.5 386.25C771.305 386.961 769.883 387.316 768.234 387.316ZM768.234 384.703C769.25 384.703 770.125 384.449 770.859 383.941C771.602 383.434 772.172 382.723 772.57 381.809C772.969 380.887 773.168 379.801 773.168 378.551V378.527C773.168 377.27 772.965 376.184 772.559 375.27C772.16 374.348 771.59 373.637 770.848 373.137C770.113 372.637 769.242 372.387 768.234 372.387C767.227 372.387 766.352 372.637 765.609 373.137C764.867 373.637 764.293 374.344 763.887 375.258C763.488 376.172 763.289 377.262 763.289 378.527V378.551C763.289 379.801 763.488 380.887 763.887 381.809C764.293 382.73 764.863 383.445 765.598 383.953C766.34 384.453 767.219 384.703 768.234 384.703ZM786.863 387V370.09H789.559L799.297 384.035L796.578 381.914H797.902V370.09H800.891V387H798.207L788.457 373.008L791.164 375.141H789.84V387H786.863ZM812.09 387V370.09H823.023V372.633H815.102V377.203H822.59V379.629H815.102V384.457H823.023V387H812.09ZM833.871 387V370.09H836.566L846.305 384.035L843.586 381.914H844.91V370.09H847.898V387H845.215L835.465 373.008L838.172 375.141H836.848V387H833.871ZM863.234 387V372.633H858.148V370.09H871.332V372.633H866.246V387H863.234Z" fill="#484848"/>
</g>
<path d="M39.375 245.465C32.2266 245.465 26.0742 243.688 20.918 240.133C15.7617 236.578 11.7969 231.539 9.02344 225.016C6.28906 218.453 4.92188 210.699 4.92188 201.754V201.637C4.92188 192.652 6.28906 184.898 9.02344 178.375C11.7969 171.852 15.7617 166.832 20.918 163.316C26.0742 159.762 32.2266 157.984 39.375 157.984C46.5234 157.984 52.6562 159.762 57.7734 163.316C62.9297 166.832 66.8945 171.852 69.668 178.375C72.4414 184.898 73.8281 192.652 73.8281 201.637V201.754C73.8281 210.699 72.4414 218.453 69.668 225.016C66.8945 231.539 62.9297 236.578 57.7734 240.133C52.6562 243.688 46.5234 245.465 39.375 245.465ZM39.375 231.285C42.8906 231.285 45.8789 230.113 48.3398 227.77C50.8008 225.426 52.6758 222.047 53.9648 217.633C55.293 213.219 55.957 207.926 55.957 201.754V201.637C55.957 195.426 55.293 190.133 53.9648 185.758C52.6758 181.344 50.8008 177.984 48.3398 175.68C45.8789 173.336 42.8906 172.164 39.375 172.164C35.8594 172.164 32.8516 173.336 30.3516 175.68C27.8906 177.984 26.0156 181.344 24.7266 185.758C23.4375 190.133 22.793 195.426 22.793 201.637V201.754C22.793 207.926 23.4375 213.219 24.7266 217.633C26.0156 222.047 27.8906 225.426 30.3516 227.77C32.8516 230.113 35.8594 231.285 39.375 231.285ZM82.8432 244L119.23 173.863V173.512H76.2221V159.449H136.691V173.688L101.417 244H82.8432Z" fill="#EEEFF4"/>
<path d="M53.2188 227V176.27H65.4883L79.9023 212.727H80.1133L94.5273 176.27H106.797V227H97.3398V192.688H92.418L103.035 177.676L83.3477 227H76.668L56.9805 177.676L67.5977 192.688H62.6758V227H53.2188ZM130.224 227.773C126.403 227.773 123.099 226.988 120.31 225.418C117.521 223.848 115.364 221.598 113.841 218.668C112.318 215.738 111.556 212.234 111.556 208.156V208.086C111.556 204.031 112.329 200.551 113.876 197.645C115.423 194.715 117.591 192.465 120.38 190.895C123.169 189.324 126.439 188.539 130.189 188.539C133.962 188.539 137.243 189.324 140.032 190.895C142.845 192.441 145.025 194.68 146.571 197.609C148.118 200.516 148.892 204.008 148.892 208.086V208.156C148.892 212.258 148.118 215.773 146.571 218.703C145.048 221.633 142.892 223.883 140.103 225.453C137.314 227 134.021 227.773 130.224 227.773ZM130.259 219.723C131.923 219.723 133.364 219.277 134.583 218.387C135.825 217.473 136.775 216.16 137.431 214.449C138.11 212.715 138.45 210.617 138.45 208.156V208.086C138.45 205.648 138.11 203.574 137.431 201.863C136.751 200.152 135.79 198.852 134.548 197.961C133.306 197.047 131.853 196.59 130.189 196.59C128.548 196.59 127.107 197.047 125.864 197.961C124.646 198.852 123.696 200.152 123.017 201.863C122.337 203.574 121.997 205.648 121.997 208.086V208.156C121.997 210.617 122.325 212.715 122.982 214.449C123.661 216.16 124.622 217.473 125.864 218.387C127.107 219.277 128.571 219.723 130.259 219.723ZM166.729 227.773C163.565 227.773 160.834 226.988 158.537 225.418C156.241 223.848 154.471 221.598 153.229 218.668C152.01 215.738 151.401 212.234 151.401 208.156V208.121C151.401 204.02 152.022 200.516 153.264 197.609C154.506 194.68 156.264 192.441 158.537 190.895C160.834 189.324 163.565 188.539 166.729 188.539C168.51 188.539 170.151 188.832 171.651 189.418C173.151 190.004 174.463 190.848 175.588 191.949C176.737 193.027 177.651 194.328 178.33 195.852H178.541V176.27H188.807V227H178.541V220.566H178.33C177.674 222.066 176.783 223.355 175.658 224.434C174.533 225.488 173.221 226.309 171.721 226.895C170.221 227.48 168.557 227.773 166.729 227.773ZM170.174 219.266C171.838 219.266 173.303 218.82 174.569 217.93C175.834 217.016 176.819 215.727 177.522 214.062C178.225 212.398 178.576 210.43 178.576 208.156V208.121C178.576 205.848 178.213 203.891 177.487 202.25C176.783 200.586 175.799 199.309 174.533 198.418C173.291 197.504 171.838 197.047 170.174 197.047C168.463 197.047 166.987 197.492 165.744 198.383C164.502 199.273 163.541 200.551 162.862 202.215C162.182 203.855 161.842 205.824 161.842 208.121V208.156C161.842 210.43 162.17 212.398 162.826 214.062C163.506 215.727 164.467 217.016 165.709 217.93C166.975 218.82 168.463 219.266 170.174 219.266ZM205.449 227.598C202.941 227.598 200.738 227.117 198.839 226.156C196.941 225.172 195.453 223.824 194.374 222.113C193.32 220.379 192.792 218.41 192.792 216.207V216.137C192.792 213.84 193.367 211.883 194.515 210.266C195.663 208.625 197.328 207.336 199.507 206.398C201.687 205.461 204.335 204.887 207.453 204.676L222.148 203.762V210.16L208.999 211.004C207.031 211.121 205.531 211.59 204.499 212.41C203.468 213.207 202.953 214.273 202.953 215.609V215.68C202.953 217.062 203.48 218.152 204.535 218.949C205.589 219.723 207.007 220.109 208.788 220.109C210.312 220.109 211.671 219.816 212.867 219.23C214.085 218.621 215.035 217.801 215.714 216.77C216.417 215.715 216.769 214.531 216.769 213.219V201.793C216.769 200.129 216.242 198.816 215.187 197.855C214.132 196.871 212.597 196.379 210.581 196.379C208.66 196.379 207.136 196.777 206.011 197.574C204.886 198.371 204.195 199.379 203.937 200.598L203.867 200.914H194.48L194.515 200.492C194.703 198.172 195.464 196.109 196.8 194.305C198.16 192.5 200.035 191.094 202.425 190.086C204.839 189.055 207.699 188.539 211.003 188.539C214.261 188.539 217.085 189.066 219.476 190.121C221.867 191.152 223.718 192.617 225.031 194.516C226.367 196.414 227.035 198.629 227.035 201.16V227H216.769V221.375H216.558C215.855 222.664 214.941 223.777 213.816 224.715C212.714 225.629 211.46 226.344 210.054 226.859C208.648 227.352 207.113 227.598 205.449 227.598ZM232.497 227V176.27H242.762V227H232.497Z" fill="#1B1D23"/>
</g>
<defs>
<filter id="filter0_d_29_1297" x="24" y="23" width="1028.04" height="588.217" filterUnits="userSpaceOnUse" color-interpolation-filters="sRGB">
<feFlood flood-opacity="0" result="BackgroundImageFix"/>
<feColorMatrix in="SourceAlpha" type="matrix" values="0 0 0 0 0 0 0 0 0 0 0 0 0 0 0 0 0 0 127 0" result="hardAlpha"/>
<feOffset dy="14"/>
<feGaussianBlur stdDeviation="14"/>
<feComposite in2="hardAlpha" operator="out"/>
<feColorMatrix type="matrix" values="0 0 0 0 0 0 0 0 0 0 0 0 0 0 0 0 0 0 0.24 0"/>
<feBlend mode="normal" in2="BackgroundImageFix" result="effect1_dropShadow_29_1297"/>
<feBlend mode="normal" in="SourceGraphic" in2="effect1_dropShadow_29_1297" result="shape"/>
</filter>
<clipPath id="clip0_29_1297">
<rect width="1024" height="426" rx="24" fill="white"/>
</clipPath>
<clipPath id="clip1_29_1297">
<rect width="659" height="25" fill="white" transform="translate(365 366)"/>
</clipPath>
</defs>
</svg>
