<svg width="1024" height="275" viewBox="0 0 1024 275" fill="none" xmlns="http://www.w3.org/2000/svg">
<g clip-path="url(#clip0_48_7174)">
<rect width="1024" height="275" rx="24" fill="white"/>
<path d="M55.2656 81.0001V62.3439H48.75V58.4532H66.5156V62.3439H59.9844V81.0001H55.2656ZM72.7031 81.3439C70.9948 81.3439 69.526 80.9949 68.2969 80.297C67.0677 79.5887 66.1198 78.5835 65.4531 77.2814C64.7969 75.9793 64.4688 74.4376 64.4688 72.6564V72.6407C64.4688 70.8595 64.7969 69.3178 65.4531 68.0157C66.1198 66.7032 67.0521 65.6928 68.25 64.9845C69.4583 64.2657 70.8802 63.9064 72.5156 63.9064C74.151 63.9064 75.5625 64.2553 76.75 64.9532C77.9479 65.6407 78.8698 66.6147 79.5156 67.8751C80.1719 69.1355 80.5 70.6095 80.5 72.297V73.7032H66.7031V70.8282H78.3438L76.1719 73.5157V71.7657C76.1719 70.7866 76.0208 69.9689 75.7188 69.3126C75.4167 68.646 74.9948 68.146 74.4531 67.8126C73.9219 67.4793 73.3021 67.3126 72.5938 67.3126C71.8854 67.3126 71.2552 67.4845 70.7031 67.8282C70.1615 68.172 69.7344 68.6772 69.4219 69.3439C69.1198 70.0001 68.9688 70.8074 68.9688 71.7657V73.5314C68.9688 74.4585 69.1198 75.2501 69.4219 75.9064C69.7344 76.5626 70.1771 77.0678 70.75 77.422C71.3229 77.7657 72.0052 77.9376 72.7969 77.9376C73.4219 77.9376 73.9635 77.8387 74.4219 77.6407C74.8802 77.4428 75.2552 77.1928 75.5469 76.8907C75.8385 76.5887 76.0365 76.2814 76.1406 75.9689L76.1719 75.8751H80.3594L80.3125 76.047C80.1875 76.6616 79.9427 77.2814 79.5781 77.9064C79.2135 78.5314 78.7188 79.1043 78.0938 79.6251C77.4792 80.146 76.724 80.5626 75.8281 80.8751C74.9427 81.1876 73.901 81.3439 72.7031 81.3439ZM81.5 81.0001L86.75 72.6564L81.5312 64.2501H86.6719L89.6875 69.9064H89.7812L92.75 64.2501H97.7188L92.4844 72.5314L97.6719 81.0001H92.7188L89.5312 75.1876H89.4375L86.2969 81.0001H81.5ZM106.203 81.3439C104.349 81.3439 102.974 80.9532 102.078 80.172C101.182 79.3907 100.734 78.1043 100.734 76.3126V67.6876H98.4062V64.2501H100.734V60.1564H105.344V64.2501H108.406V67.6876H105.344V75.8126C105.344 76.5939 105.516 77.1407 105.859 77.4532C106.214 77.7553 106.734 77.9064 107.422 77.9064C107.63 77.9064 107.812 77.9012 107.969 77.8907C108.125 77.8699 108.271 77.8491 108.406 77.8282V81.172C108.156 81.2137 107.844 81.2501 107.469 81.2814C107.104 81.323 106.682 81.3439 106.203 81.3439Z" fill="#1B1D23"/>
<path d="M49.6211 46.0001V31.9083H52.1406V46.0001H49.6211ZM55.1289 46.0001V35.4044H57.5605V37.0353H57.6973C57.9577 36.4624 58.3451 36.0131 58.8594 35.6876C59.3802 35.3556 60.028 35.1896 60.8027 35.1896C61.9811 35.1896 62.8828 35.5346 63.5078 36.2247C64.1393 36.9148 64.4551 37.8881 64.4551 39.1447V46.0001H62.0234V39.6915C62.0234 38.8842 61.8477 38.2755 61.4961 37.8654C61.151 37.4487 60.6172 37.2404 59.8945 37.2404C59.4128 37.2404 58.9961 37.3478 58.6445 37.5626C58.2995 37.7775 58.0326 38.0769 57.8438 38.4611C57.6549 38.8452 57.5605 39.3009 57.5605 39.8282V46.0001H55.1289ZM67.1016 49.5157V35.4044H69.5332V37.1036H69.6699C69.8717 36.7065 70.1289 36.3712 70.4414 36.0978C70.7539 35.8178 71.1185 35.603 71.5352 35.4532C71.9518 35.297 72.4076 35.2189 72.9023 35.2189C73.7943 35.2189 74.5658 35.4435 75.2168 35.8927C75.8678 36.3354 76.3724 36.9669 76.7305 37.7872C77.0885 38.601 77.2676 39.5711 77.2676 40.6974V40.7072C77.2676 41.84 77.0885 42.8165 76.7305 43.6368C76.3789 44.4506 75.8776 45.0789 75.2266 45.5216C74.5755 45.9643 73.804 46.1857 72.9121 46.1857C72.4238 46.1857 71.9681 46.1075 71.5449 45.9513C71.1283 45.795 70.7572 45.5769 70.4316 45.297C70.1126 45.017 69.8587 44.6818 69.6699 44.2911H69.5332V49.5157H67.1016ZM72.1602 44.1349C72.707 44.1349 73.1758 43.9982 73.5664 43.7247C73.957 43.4448 74.2565 43.0509 74.4648 42.5431C74.6797 42.0288 74.7871 41.4168 74.7871 40.7072V40.6974C74.7871 39.9812 74.6797 39.3693 74.4648 38.8615C74.2565 38.3471 73.957 37.9532 73.5664 37.6798C73.1758 37.4064 72.707 37.2697 72.1602 37.2697C71.6198 37.2697 71.1478 37.4096 70.7441 37.6896C70.347 37.963 70.041 38.3569 69.8262 38.8712C69.6113 39.379 69.5039 39.9878 69.5039 40.6974V40.7072C69.5039 41.4103 69.6113 42.019 69.8262 42.5333C70.0475 43.0476 70.3568 43.4448 70.7539 43.7247C71.151 43.9982 71.6198 44.1349 72.1602 44.1349ZM83.0391 46.215C82.2513 46.215 81.5872 46.0587 81.0469 45.7462C80.5065 45.4337 80.0996 44.9845 79.8262 44.3986C79.5527 43.8061 79.416 43.0932 79.416 42.2599V35.4044H81.8477V41.713C81.8477 42.5203 82.0137 43.1323 82.3457 43.549C82.6777 43.9591 83.2051 44.1642 83.9277 44.1642C84.3118 44.1642 84.6504 44.1056 84.9434 43.9884C85.2428 43.8647 85.4935 43.6889 85.6953 43.4611C85.8971 43.2332 86.0501 42.9598 86.1543 42.6407C86.2585 42.3217 86.3105 41.9669 86.3105 41.5763V35.4044H88.7422V46.0001H86.3105V44.379H86.1738C86.0046 44.7566 85.7734 45.0822 85.4805 45.3556C85.1875 45.629 84.8359 45.8406 84.4258 45.9904C84.0156 46.1401 83.5534 46.215 83.0391 46.215ZM95.5879 46.088C94.403 46.088 93.5404 45.8634 93 45.4142C92.4661 44.9585 92.1992 44.2098 92.1992 43.1681V37.2794H90.5879V35.4044H92.1992V32.7775H94.6699V35.4044H96.8379V37.2794H94.6699V42.6896C94.6699 43.2104 94.7806 43.588 95.002 43.8224C95.2298 44.0503 95.5879 44.1642 96.0762 44.1642C96.2324 44.1642 96.3659 44.1609 96.4766 44.1544C96.5938 44.1414 96.7142 44.1316 96.8379 44.1251V45.9806C96.6751 46.0066 96.4863 46.0294 96.2715 46.049C96.0566 46.075 95.8288 46.088 95.5879 46.088Z" fill="#484848"/>
<line x1="283.5" y1="230" x2="283.5" y2="19" stroke="#DDDDDD"/>
<rect x="338" y="30" width="361" height="61" rx="6" fill="white"/>
<rect x="338" y="30" width="361" height="61" rx="6" stroke="#DDDDDD"/>
<path d="M351.391 66.5V55.2266H353.406V64.8047H358.57V66.5H351.391ZM362.875 66.6406C362.339 66.6406 361.857 66.5365 361.43 66.3281C361.008 66.1198 360.674 65.8255 360.43 65.4453C360.19 65.0599 360.07 64.6068 360.07 64.0859V64.0703C360.07 63.5651 360.195 63.1302 360.445 62.7656C360.695 62.3958 361.062 62.1068 361.547 61.8984C362.031 61.6901 362.62 61.5677 363.312 61.5312L366.469 61.3359V62.6172L363.586 62.8047C363.039 62.8359 362.635 62.9505 362.375 63.1484C362.115 63.3464 361.984 63.6224 361.984 63.9766V63.9922C361.984 64.3568 362.122 64.6406 362.398 64.8438C362.68 65.0469 363.036 65.1484 363.469 65.1484C363.859 65.1484 364.208 65.0703 364.516 64.9141C364.823 64.7578 365.065 64.5469 365.242 64.2812C365.419 64.0104 365.508 63.7057 365.508 63.3672V60.6641C365.508 60.237 365.372 59.9115 365.102 59.6875C364.831 59.4583 364.43 59.3438 363.898 59.3438C363.456 59.3438 363.094 59.4219 362.812 59.5781C362.531 59.7292 362.341 59.9453 362.242 60.2266L362.234 60.2578H360.398L360.406 60.1875C360.469 59.7083 360.656 59.2891 360.969 58.9297C361.281 58.5703 361.695 58.2917 362.211 58.0938C362.727 57.8958 363.32 57.7969 363.992 57.7969C364.732 57.7969 365.357 57.9115 365.867 58.1406C366.378 58.3646 366.766 58.6927 367.031 59.125C367.297 59.5521 367.43 60.0651 367.43 60.6641V66.5H365.508V65.3281H365.375C365.219 65.599 365.016 65.8333 364.766 66.0312C364.521 66.2292 364.24 66.3802 363.922 66.4844C363.604 66.5885 363.255 66.6406 362.875 66.6406ZM374.516 66.6406C374.115 66.6406 373.747 66.5833 373.414 66.4688C373.081 66.349 372.786 66.1797 372.531 65.9609C372.281 65.737 372.078 65.4714 371.922 65.1641H371.789V66.5H369.844V54.6562H371.789V59.3203H371.922C372.073 59.013 372.276 58.7474 372.531 58.5234C372.786 58.2995 373.083 58.1276 373.422 58.0078C373.76 57.8828 374.125 57.8203 374.516 57.8203C375.234 57.8203 375.854 58 376.375 58.3594C376.901 58.7135 377.307 59.2214 377.594 59.8828C377.88 60.5391 378.023 61.3203 378.023 62.2266V62.2422C378.023 63.138 377.878 63.9167 377.586 64.5781C377.299 65.2396 376.893 65.75 376.367 66.1094C375.846 66.4635 375.229 66.6406 374.516 66.6406ZM373.906 65C374.349 65 374.729 64.8906 375.047 64.6719C375.365 64.4479 375.609 64.1302 375.781 63.7188C375.953 63.3073 376.039 62.8151 376.039 62.2422V62.2266C376.039 61.6536 375.953 61.1615 375.781 60.75C375.609 60.3333 375.365 60.0156 375.047 59.7969C374.729 59.5729 374.349 59.4609 373.906 59.4609C373.469 59.4609 373.089 59.5729 372.766 59.7969C372.443 60.0208 372.193 60.3385 372.016 60.75C371.844 61.1615 371.758 61.6536 371.758 62.2266V62.2422C371.758 62.8099 371.844 63.3021 372.016 63.7188C372.193 64.1302 372.44 64.4479 372.758 64.6719C373.081 64.8906 373.464 65 373.906 65ZM383.625 66.6719C382.776 66.6719 382.047 66.4922 381.438 66.1328C380.833 65.7734 380.367 65.263 380.039 64.6016C379.711 63.9401 379.547 63.1562 379.547 62.25V62.2422C379.547 61.3464 379.708 60.5651 380.031 59.8984C380.359 59.2318 380.823 58.7161 381.422 58.3516C382.021 57.9818 382.724 57.7969 383.531 57.7969C384.344 57.7969 385.042 57.9766 385.625 58.3359C386.214 58.6901 386.667 59.1875 386.984 59.8281C387.302 60.4688 387.461 61.2188 387.461 62.0781V62.7188H380.523V61.4141H386.508L385.586 62.6328V61.8594C385.586 61.2917 385.5 60.8203 385.328 60.4453C385.156 60.0703 384.917 59.7891 384.609 59.6016C384.307 59.4141 383.956 59.3203 383.555 59.3203C383.154 59.3203 382.797 59.4193 382.484 59.6172C382.177 59.8099 381.932 60.0964 381.75 60.4766C381.573 60.8516 381.484 61.3125 381.484 61.8594V62.6406C381.484 63.1667 381.573 63.6172 381.75 63.9922C381.927 64.362 382.177 64.6484 382.5 64.8516C382.828 65.0495 383.216 65.1484 383.664 65.1484C384.013 65.1484 384.312 65.099 384.562 65C384.818 64.8958 385.023 64.7734 385.18 64.6328C385.336 64.487 385.445 64.349 385.508 64.2188L385.531 64.1641H387.375L387.359 64.2344C387.292 64.5104 387.167 64.7917 386.984 65.0781C386.807 65.3594 386.565 65.6224 386.258 65.8672C385.956 66.1068 385.586 66.3021 385.148 66.4531C384.711 66.599 384.203 66.6719 383.625 66.6719ZM389.484 66.5V54.6562H391.43V66.5H389.484Z" fill="#484848"/>
<rect x="473" y="107" width="361" height="61" rx="6" fill="white"/>
<rect x="473" y="107" width="361" height="61" rx="6" stroke="#DDDDDD"/>
<path d="M486.061 127.5V119.045H487.373V126.363H491.34V127.5H486.061ZM494.598 127.605C494.195 127.605 493.834 127.529 493.514 127.377C493.197 127.221 492.947 127 492.764 126.715C492.58 126.43 492.488 126.096 492.488 125.713V125.701C492.488 125.318 492.58 124.992 492.764 124.723C492.951 124.453 493.221 124.242 493.572 124.09C493.928 123.934 494.357 123.84 494.861 123.809L497.211 123.668V124.564L495.037 124.705C494.6 124.732 494.277 124.826 494.07 124.986C493.863 125.143 493.76 125.363 493.76 125.648V125.66C493.76 125.949 493.871 126.178 494.094 126.346C494.316 126.51 494.598 126.592 494.938 126.592C495.254 126.592 495.535 126.529 495.781 126.404C496.031 126.275 496.227 126.104 496.367 125.889C496.508 125.67 496.578 125.424 496.578 125.15V123.146C496.578 122.795 496.469 122.527 496.25 122.344C496.035 122.156 495.715 122.062 495.289 122.062C494.934 122.062 494.643 122.125 494.416 122.25C494.193 122.375 494.045 122.551 493.971 122.777L493.959 122.795H492.734L492.74 122.754C492.791 122.402 492.93 122.098 493.156 121.84C493.387 121.578 493.688 121.375 494.059 121.23C494.434 121.086 494.861 121.014 495.342 121.014C495.877 121.014 496.33 121.1 496.701 121.271C497.076 121.439 497.359 121.684 497.551 122.004C497.746 122.32 497.844 122.701 497.844 123.146V127.5H496.578V126.598H496.484C496.359 126.812 496.203 126.996 496.016 127.148C495.828 127.297 495.615 127.41 495.377 127.488C495.139 127.566 494.879 127.605 494.598 127.605ZM503.023 127.605C502.727 127.605 502.453 127.562 502.203 127.477C501.953 127.387 501.73 127.26 501.535 127.096C501.344 126.928 501.188 126.729 501.066 126.498H500.967V127.5H499.695V118.641H500.967V122.145H501.066C501.18 121.914 501.334 121.717 501.529 121.553C501.725 121.385 501.949 121.256 502.203 121.166C502.457 121.072 502.73 121.025 503.023 121.025C503.562 121.025 504.029 121.16 504.424 121.43C504.818 121.695 505.123 122.074 505.338 122.566C505.553 123.059 505.66 123.641 505.66 124.312V124.324C505.66 124.992 505.551 125.572 505.332 126.064C505.117 126.557 504.812 126.938 504.418 127.207C504.023 127.473 503.559 127.605 503.023 127.605ZM502.66 126.516C503.016 126.516 503.32 126.428 503.574 126.252C503.828 126.076 504.021 125.824 504.154 125.496C504.291 125.168 504.359 124.777 504.359 124.324V124.312C504.359 123.855 504.291 123.465 504.154 123.141C504.021 122.812 503.828 122.561 503.574 122.385C503.32 122.205 503.016 122.115 502.66 122.115C502.309 122.115 502.004 122.205 501.746 122.385C501.488 122.561 501.291 122.812 501.154 123.141C501.018 123.469 500.949 123.859 500.949 124.312V124.324C500.949 124.773 501.018 125.164 501.154 125.496C501.291 125.824 501.488 126.076 501.746 126.252C502.004 126.428 502.309 126.516 502.66 126.516ZM509.844 127.623C509.223 127.623 508.689 127.49 508.244 127.225C507.799 126.955 507.455 126.574 507.213 126.082C506.975 125.59 506.855 125.008 506.855 124.336V124.33C506.855 123.666 506.975 123.086 507.213 122.59C507.455 122.094 507.795 121.707 508.232 121.43C508.674 121.152 509.189 121.014 509.779 121.014C510.373 121.014 510.883 121.146 511.309 121.412C511.738 121.678 512.068 122.051 512.299 122.531C512.529 123.008 512.645 123.566 512.645 124.207V124.652H507.5V123.744H512.012L511.402 124.588V124.078C511.402 123.625 511.332 123.25 511.191 122.953C511.055 122.652 510.865 122.428 510.623 122.279C510.381 122.131 510.102 122.057 509.785 122.057C509.469 122.057 509.186 122.135 508.936 122.291C508.689 122.443 508.494 122.67 508.35 122.971C508.209 123.271 508.139 123.641 508.139 124.078V124.588C508.139 125.006 508.209 125.363 508.35 125.66C508.49 125.957 508.689 126.184 508.947 126.34C509.209 126.496 509.518 126.574 509.873 126.574C510.146 126.574 510.381 126.537 510.576 126.463C510.775 126.385 510.938 126.289 511.062 126.176C511.191 126.062 511.279 125.951 511.326 125.842L511.35 125.795H512.58L512.568 125.848C512.514 126.059 512.418 126.27 512.281 126.48C512.145 126.688 511.963 126.877 511.736 127.049C511.514 127.221 511.244 127.359 510.928 127.465C510.615 127.57 510.254 127.623 509.844 127.623ZM514.215 127.5V118.641H515.486V127.5H514.215Z" fill="#484848"/>
<path d="M487.398 145.773V144.148H490.398C491.122 144.148 491.685 143.964 492.086 143.594C492.487 143.219 492.688 142.693 492.688 142.016V142C492.688 141.318 492.487 140.792 492.086 140.422C491.685 140.052 491.122 139.867 490.398 139.867H487.398V138.227H490.891C491.656 138.227 492.326 138.383 492.898 138.695C493.471 139.008 493.919 139.448 494.242 140.016C494.565 140.578 494.727 141.237 494.727 141.992V142.008C494.727 142.758 494.565 143.417 494.242 143.984C493.919 144.547 493.471 144.987 492.898 145.305C492.326 145.617 491.656 145.773 490.891 145.773H487.398ZM486.391 149.5V138.227H488.406V149.5H486.391ZM496.828 149.5V137.656H498.773V149.5H496.828ZM503.547 149.641C503.01 149.641 502.529 149.536 502.102 149.328C501.68 149.12 501.346 148.826 501.102 148.445C500.862 148.06 500.742 147.607 500.742 147.086V147.07C500.742 146.565 500.867 146.13 501.117 145.766C501.367 145.396 501.734 145.107 502.219 144.898C502.703 144.69 503.292 144.568 503.984 144.531L507.141 144.336V145.617L504.258 145.805C503.711 145.836 503.307 145.951 503.047 146.148C502.786 146.346 502.656 146.622 502.656 146.977V146.992C502.656 147.357 502.794 147.641 503.07 147.844C503.352 148.047 503.708 148.148 504.141 148.148C504.531 148.148 504.88 148.07 505.188 147.914C505.495 147.758 505.737 147.547 505.914 147.281C506.091 147.01 506.18 146.706 506.18 146.367V143.664C506.18 143.237 506.044 142.911 505.773 142.688C505.503 142.458 505.102 142.344 504.57 142.344C504.128 142.344 503.766 142.422 503.484 142.578C503.203 142.729 503.013 142.945 502.914 143.227L502.906 143.258H501.07L501.078 143.188C501.141 142.708 501.328 142.289 501.641 141.93C501.953 141.57 502.367 141.292 502.883 141.094C503.398 140.896 503.992 140.797 504.664 140.797C505.404 140.797 506.029 140.911 506.539 141.141C507.049 141.365 507.438 141.693 507.703 142.125C507.969 142.552 508.102 143.065 508.102 143.664V149.5H506.18V148.328H506.047C505.891 148.599 505.688 148.833 505.438 149.031C505.193 149.229 504.911 149.38 504.594 149.484C504.276 149.589 503.927 149.641 503.547 149.641ZM514.102 149.672C513.242 149.672 512.508 149.495 511.898 149.141C511.289 148.786 510.823 148.276 510.5 147.609C510.177 146.943 510.016 146.146 510.016 145.219V145.203C510.016 144.281 510.177 143.492 510.5 142.836C510.823 142.18 511.289 141.677 511.898 141.328C512.508 140.974 513.24 140.797 514.094 140.797C514.828 140.797 515.458 140.924 515.984 141.18C516.516 141.43 516.935 141.779 517.242 142.227C517.555 142.669 517.747 143.188 517.82 143.781V143.812H515.984L515.977 143.789C515.888 143.372 515.685 143.031 515.367 142.766C515.055 142.5 514.633 142.367 514.102 142.367C513.659 142.367 513.279 142.479 512.961 142.703C512.648 142.927 512.409 143.25 512.242 143.672C512.076 144.094 511.992 144.604 511.992 145.203V145.219C511.992 145.823 512.076 146.341 512.242 146.773C512.414 147.201 512.656 147.529 512.969 147.758C513.281 147.982 513.659 148.094 514.102 148.094C514.607 148.094 515.013 147.979 515.32 147.75C515.633 147.521 515.849 147.182 515.969 146.734L515.984 146.703L517.812 146.695L517.805 146.766C517.711 147.344 517.508 147.852 517.195 148.289C516.888 148.727 516.477 149.068 515.961 149.312C515.445 149.552 514.826 149.672 514.102 149.672ZM523.328 149.672C522.479 149.672 521.75 149.492 521.141 149.133C520.536 148.773 520.07 148.263 519.742 147.602C519.414 146.94 519.25 146.156 519.25 145.25V145.242C519.25 144.346 519.411 143.565 519.734 142.898C520.062 142.232 520.526 141.716 521.125 141.352C521.724 140.982 522.427 140.797 523.234 140.797C524.047 140.797 524.745 140.977 525.328 141.336C525.917 141.69 526.37 142.188 526.688 142.828C527.005 143.469 527.164 144.219 527.164 145.078V145.719H520.227V144.414H526.211L525.289 145.633V144.859C525.289 144.292 525.203 143.82 525.031 143.445C524.859 143.07 524.62 142.789 524.312 142.602C524.01 142.414 523.659 142.32 523.258 142.32C522.857 142.32 522.5 142.419 522.188 142.617C521.88 142.81 521.635 143.096 521.453 143.477C521.276 143.852 521.188 144.312 521.188 144.859V145.641C521.188 146.167 521.276 146.617 521.453 146.992C521.63 147.362 521.88 147.648 522.203 147.852C522.531 148.049 522.919 148.148 523.367 148.148C523.716 148.148 524.016 148.099 524.266 148C524.521 147.896 524.727 147.773 524.883 147.633C525.039 147.487 525.148 147.349 525.211 147.219L525.234 147.164H527.078L527.062 147.234C526.995 147.51 526.87 147.792 526.688 148.078C526.51 148.359 526.268 148.622 525.961 148.867C525.659 149.107 525.289 149.302 524.852 149.453C524.414 149.599 523.906 149.672 523.328 149.672ZM529.188 149.5V137.656H531.133V142.273H531.266C531.469 141.81 531.776 141.448 532.188 141.188C532.599 140.927 533.112 140.797 533.727 140.797C534.362 140.797 534.898 140.922 535.336 141.172C535.773 141.417 536.104 141.776 536.328 142.25C536.557 142.724 536.672 143.299 536.672 143.977V149.5H534.727V144.43C534.727 143.763 534.586 143.263 534.305 142.93C534.029 142.596 533.596 142.43 533.008 142.43C532.622 142.43 532.289 142.516 532.008 142.688C531.727 142.859 531.51 143.102 531.359 143.414C531.208 143.727 531.133 144.096 531.133 144.523V149.5H529.188ZM542.656 149.672C541.807 149.672 541.076 149.495 540.461 149.141C539.846 148.781 539.372 148.271 539.039 147.609C538.711 146.948 538.547 146.156 538.547 145.234V145.219C538.547 144.307 538.714 143.521 539.047 142.859C539.38 142.193 539.852 141.682 540.461 141.328C541.076 140.974 541.807 140.797 542.656 140.797C543.505 140.797 544.234 140.974 544.844 141.328C545.458 141.682 545.932 142.19 546.266 142.852C546.599 143.513 546.766 144.302 546.766 145.219V145.234C546.766 146.156 546.599 146.948 546.266 147.609C545.938 148.271 545.466 148.781 544.852 149.141C544.242 149.495 543.51 149.672 542.656 149.672ZM542.656 148.094C543.104 148.094 543.484 147.982 543.797 147.758C544.115 147.529 544.357 147.203 544.523 146.781C544.69 146.354 544.773 145.841 544.773 145.242V145.227C544.773 144.622 544.69 144.109 544.523 143.688C544.357 143.26 544.115 142.935 543.797 142.711C543.484 142.482 543.104 142.367 542.656 142.367C542.208 142.367 541.826 142.482 541.508 142.711C541.19 142.935 540.948 143.26 540.781 143.688C540.615 144.109 540.531 144.622 540.531 145.227V145.242C540.531 145.841 540.615 146.354 540.781 146.781C540.948 147.208 541.188 147.534 541.5 147.758C541.818 147.982 542.203 148.094 542.656 148.094ZM548.797 149.5V137.656H550.742V149.5H548.797ZM556.266 149.641C555.557 149.641 554.94 149.464 554.414 149.109C553.888 148.75 553.482 148.24 553.195 147.578C552.909 146.917 552.766 146.138 552.766 145.242V145.227C552.766 144.32 552.906 143.539 553.188 142.883C553.474 142.221 553.878 141.714 554.398 141.359C554.924 141 555.547 140.82 556.266 140.82C556.656 140.82 557.021 140.883 557.359 141.008C557.698 141.128 557.995 141.299 558.25 141.523C558.51 141.747 558.714 142.013 558.859 142.32H559V137.656H560.938V149.5H559V148.164H558.859C558.703 148.471 558.497 148.737 558.242 148.961C557.992 149.18 557.701 149.349 557.367 149.469C557.034 149.583 556.667 149.641 556.266 149.641ZM556.875 148C557.318 148 557.698 147.891 558.016 147.672C558.339 147.448 558.586 147.13 558.758 146.719C558.935 146.302 559.023 145.81 559.023 145.242V145.227C559.023 144.654 558.935 144.161 558.758 143.75C558.586 143.339 558.339 143.021 558.016 142.797C557.698 142.573 557.318 142.461 556.875 142.461C556.438 142.461 556.057 142.573 555.734 142.797C555.417 143.016 555.172 143.333 555 143.75C554.828 144.161 554.742 144.654 554.742 145.227V145.242C554.742 145.815 554.828 146.307 555 146.719C555.172 147.13 555.417 147.448 555.734 147.672C556.052 147.891 556.432 148 556.875 148ZM567.047 149.672C566.198 149.672 565.469 149.492 564.859 149.133C564.255 148.773 563.789 148.263 563.461 147.602C563.133 146.94 562.969 146.156 562.969 145.25V145.242C562.969 144.346 563.13 143.565 563.453 142.898C563.781 142.232 564.245 141.716 564.844 141.352C565.443 140.982 566.146 140.797 566.953 140.797C567.766 140.797 568.464 140.977 569.047 141.336C569.635 141.69 570.089 142.188 570.406 142.828C570.724 143.469 570.883 144.219 570.883 145.078V145.719H563.945V144.414H569.93L569.008 145.633V144.859C569.008 144.292 568.922 143.82 568.75 143.445C568.578 143.07 568.339 142.789 568.031 142.602C567.729 142.414 567.378 142.32 566.977 142.32C566.576 142.32 566.219 142.419 565.906 142.617C565.599 142.81 565.354 143.096 565.172 143.477C564.995 143.852 564.906 144.312 564.906 144.859V145.641C564.906 146.167 564.995 146.617 565.172 146.992C565.349 147.362 565.599 147.648 565.922 147.852C566.25 148.049 566.638 148.148 567.086 148.148C567.435 148.148 567.734 148.099 567.984 148C568.24 147.896 568.445 147.773 568.602 147.633C568.758 147.487 568.867 147.349 568.93 147.219L568.953 147.164H570.797L570.781 147.234C570.714 147.51 570.589 147.792 570.406 148.078C570.229 148.359 569.987 148.622 569.68 148.867C569.378 149.107 569.008 149.302 568.57 149.453C568.133 149.599 567.625 149.672 567.047 149.672ZM572.828 149.5V140.961H574.773V142.273H574.906C575.052 141.815 575.312 141.458 575.688 141.203C576.068 140.948 576.539 140.82 577.102 140.82C577.247 140.82 577.391 140.831 577.531 140.852C577.677 140.867 577.797 140.888 577.891 140.914V142.656C577.734 142.62 577.576 142.594 577.414 142.578C577.258 142.557 577.094 142.547 576.922 142.547C576.49 142.547 576.112 142.628 575.789 142.789C575.466 142.951 575.216 143.182 575.039 143.484C574.862 143.781 574.773 144.133 574.773 144.539V149.5H572.828ZM586.742 149.5V139.922H583.273V138.227H592.227V139.922H588.758V149.5H586.742ZM596.281 149.672C595.432 149.672 594.703 149.492 594.094 149.133C593.49 148.773 593.023 148.263 592.695 147.602C592.367 146.94 592.203 146.156 592.203 145.25V145.242C592.203 144.346 592.365 143.565 592.688 142.898C593.016 142.232 593.479 141.716 594.078 141.352C594.677 140.982 595.38 140.797 596.188 140.797C597 140.797 597.698 140.977 598.281 141.336C598.87 141.69 599.323 142.188 599.641 142.828C599.958 143.469 600.117 144.219 600.117 145.078V145.719H593.18V144.414H599.164L598.242 145.633V144.859C598.242 144.292 598.156 143.82 597.984 143.445C597.812 143.07 597.573 142.789 597.266 142.602C596.964 142.414 596.612 142.32 596.211 142.32C595.81 142.32 595.453 142.419 595.141 142.617C594.833 142.81 594.589 143.096 594.406 143.477C594.229 143.852 594.141 144.312 594.141 144.859V145.641C594.141 146.167 594.229 146.617 594.406 146.992C594.583 147.362 594.833 147.648 595.156 147.852C595.484 148.049 595.872 148.148 596.32 148.148C596.669 148.148 596.969 148.099 597.219 148C597.474 147.896 597.68 147.773 597.836 147.633C597.992 147.487 598.102 147.349 598.164 147.219L598.188 147.164H600.031L600.016 147.234C599.948 147.51 599.823 147.792 599.641 148.078C599.464 148.359 599.221 148.622 598.914 148.867C598.612 149.107 598.242 149.302 597.805 149.453C597.367 149.599 596.859 149.672 596.281 149.672ZM601.07 149.5L603.836 145.266L601.047 140.961H603.289L604.992 143.922H605.125L606.812 140.961H608.945L606.18 145.18L608.977 149.5H606.789L605.039 146.531H604.906L603.156 149.5H601.07ZM614.047 149.539C613.068 149.539 612.362 149.359 611.93 149C611.497 148.641 611.281 148.052 611.281 147.234V142.469H609.953V140.961H611.281V138.867H613.258V140.961H615.055V142.469H613.258V146.773C613.258 147.195 613.346 147.505 613.523 147.703C613.706 147.896 613.997 147.992 614.398 147.992C614.539 147.992 614.654 147.99 614.742 147.984C614.836 147.974 614.94 147.964 615.055 147.953V149.453C614.919 149.479 614.763 149.5 614.586 149.516C614.414 149.531 614.234 149.539 614.047 149.539Z" fill="#888888"/>
<rect x="633" y="184" width="361" height="61" rx="6" fill="white"/>
<rect x="633" y="184" width="361" height="61" rx="6" stroke="#DDDDDD"/>
<path d="M646.061 204.5V196.045H647.373V203.363H651.34V204.5H646.061ZM654.598 204.605C654.195 204.605 653.834 204.529 653.514 204.377C653.197 204.221 652.947 204 652.764 203.715C652.58 203.43 652.488 203.096 652.488 202.713V202.701C652.488 202.318 652.58 201.992 652.764 201.723C652.951 201.453 653.221 201.242 653.572 201.09C653.928 200.934 654.357 200.84 654.861 200.809L657.211 200.668V201.564L655.037 201.705C654.6 201.732 654.277 201.826 654.07 201.986C653.863 202.143 653.76 202.363 653.76 202.648V202.66C653.76 202.949 653.871 203.178 654.094 203.346C654.316 203.51 654.598 203.592 654.938 203.592C655.254 203.592 655.535 203.529 655.781 203.404C656.031 203.275 656.227 203.104 656.367 202.889C656.508 202.67 656.578 202.424 656.578 202.15V200.146C656.578 199.795 656.469 199.527 656.25 199.344C656.035 199.156 655.715 199.062 655.289 199.062C654.934 199.062 654.643 199.125 654.416 199.25C654.193 199.375 654.045 199.551 653.971 199.777L653.959 199.795H652.734L652.74 199.754C652.791 199.402 652.93 199.098 653.156 198.84C653.387 198.578 653.688 198.375 654.059 198.23C654.434 198.086 654.861 198.014 655.342 198.014C655.877 198.014 656.33 198.1 656.701 198.271C657.076 198.439 657.359 198.684 657.551 199.004C657.746 199.32 657.844 199.701 657.844 200.146V204.5H656.578V203.598H656.484C656.359 203.812 656.203 203.996 656.016 204.148C655.828 204.297 655.615 204.41 655.377 204.488C655.139 204.566 654.879 204.605 654.598 204.605ZM663.023 204.605C662.727 204.605 662.453 204.562 662.203 204.477C661.953 204.387 661.73 204.26 661.535 204.096C661.344 203.928 661.188 203.729 661.066 203.498H660.967V204.5H659.695V195.641H660.967V199.145H661.066C661.18 198.914 661.334 198.717 661.529 198.553C661.725 198.385 661.949 198.256 662.203 198.166C662.457 198.072 662.73 198.025 663.023 198.025C663.562 198.025 664.029 198.16 664.424 198.43C664.818 198.695 665.123 199.074 665.338 199.566C665.553 200.059 665.66 200.641 665.66 201.312V201.324C665.66 201.992 665.551 202.572 665.332 203.064C665.117 203.557 664.812 203.938 664.418 204.207C664.023 204.473 663.559 204.605 663.023 204.605ZM662.66 203.516C663.016 203.516 663.32 203.428 663.574 203.252C663.828 203.076 664.021 202.824 664.154 202.496C664.291 202.168 664.359 201.777 664.359 201.324V201.312C664.359 200.855 664.291 200.465 664.154 200.141C664.021 199.812 663.828 199.561 663.574 199.385C663.32 199.205 663.016 199.115 662.66 199.115C662.309 199.115 662.004 199.205 661.746 199.385C661.488 199.561 661.291 199.812 661.154 200.141C661.018 200.469 660.949 200.859 660.949 201.312V201.324C660.949 201.773 661.018 202.164 661.154 202.496C661.291 202.824 661.488 203.076 661.746 203.252C662.004 203.428 662.309 203.516 662.66 203.516ZM669.844 204.623C669.223 204.623 668.689 204.49 668.244 204.225C667.799 203.955 667.455 203.574 667.213 203.082C666.975 202.59 666.855 202.008 666.855 201.336V201.33C666.855 200.666 666.975 200.086 667.213 199.59C667.455 199.094 667.795 198.707 668.232 198.43C668.674 198.152 669.189 198.014 669.779 198.014C670.373 198.014 670.883 198.146 671.309 198.412C671.738 198.678 672.068 199.051 672.299 199.531C672.529 200.008 672.645 200.566 672.645 201.207V201.652H667.5V200.744H672.012L671.402 201.588V201.078C671.402 200.625 671.332 200.25 671.191 199.953C671.055 199.652 670.865 199.428 670.623 199.279C670.381 199.131 670.102 199.057 669.785 199.057C669.469 199.057 669.186 199.135 668.936 199.291C668.689 199.443 668.494 199.67 668.35 199.971C668.209 200.271 668.139 200.641 668.139 201.078V201.588C668.139 202.006 668.209 202.363 668.35 202.66C668.49 202.957 668.689 203.184 668.947 203.34C669.209 203.496 669.518 203.574 669.873 203.574C670.146 203.574 670.381 203.537 670.576 203.463C670.775 203.385 670.938 203.289 671.062 203.176C671.191 203.062 671.279 202.951 671.326 202.842L671.35 202.795H672.58L672.568 202.848C672.514 203.059 672.418 203.27 672.281 203.48C672.145 203.688 671.963 203.877 671.736 204.049C671.514 204.221 671.244 204.359 670.928 204.465C670.615 204.57 670.254 204.623 669.844 204.623ZM674.215 204.5V195.641H675.486V204.5H674.215Z" fill="#484848"/>
<path d="M646.391 226.5V215.227H648.406V226.5H646.391ZM650.984 226.5V217.961H652.93V219.273H653.062C653.266 218.81 653.573 218.448 653.984 218.188C654.396 217.927 654.909 217.797 655.523 217.797C656.477 217.797 657.206 218.073 657.711 218.625C658.216 219.177 658.469 219.961 658.469 220.977V226.5H656.523V221.43C656.523 220.763 656.383 220.263 656.102 219.93C655.826 219.596 655.393 219.43 654.805 219.43C654.419 219.43 654.086 219.516 653.805 219.688C653.523 219.859 653.307 220.102 653.156 220.414C653.005 220.727 652.93 221.096 652.93 221.523V226.5H650.984ZM660.766 229.336V217.961H662.711V219.297H662.844C663 218.99 663.203 218.727 663.453 218.508C663.708 218.289 664.003 218.12 664.336 218C664.669 217.88 665.036 217.82 665.438 217.82C666.151 217.82 666.768 218 667.289 218.359C667.815 218.719 668.221 219.229 668.508 219.891C668.799 220.547 668.945 221.326 668.945 222.227V222.242C668.945 223.148 668.802 223.93 668.516 224.586C668.229 225.242 667.823 225.75 667.297 226.109C666.776 226.464 666.156 226.641 665.438 226.641C665.047 226.641 664.682 226.581 664.344 226.461C664.005 226.336 663.708 226.161 663.453 225.938C663.198 225.714 662.995 225.448 662.844 225.141H662.711V229.336H660.766ZM664.828 225C665.271 225 665.651 224.891 665.969 224.672C666.286 224.448 666.531 224.13 666.703 223.719C666.875 223.302 666.961 222.81 666.961 222.242V222.227C666.961 221.648 666.875 221.154 666.703 220.742C666.531 220.331 666.286 220.016 665.969 219.797C665.651 219.573 665.271 219.461 664.828 219.461C664.385 219.461 664.003 219.573 663.68 219.797C663.362 220.016 663.115 220.331 662.938 220.742C662.766 221.154 662.68 221.646 662.68 222.219V222.234C662.68 222.807 662.766 223.302 662.938 223.719C663.115 224.13 663.365 224.448 663.688 224.672C664.01 224.891 664.391 225 664.828 225ZM673.734 226.672C673.099 226.672 672.565 226.549 672.133 226.305C671.701 226.055 671.375 225.693 671.156 225.219C670.938 224.74 670.828 224.161 670.828 223.484V217.961H672.773V223.039C672.773 223.701 672.904 224.198 673.164 224.531C673.424 224.865 673.849 225.031 674.438 225.031C674.75 225.031 675.026 224.984 675.266 224.891C675.51 224.792 675.714 224.651 675.875 224.469C676.036 224.286 676.159 224.068 676.242 223.812C676.326 223.552 676.367 223.26 676.367 222.938V217.961H678.312V226.5H676.367V225.203H676.234C676.104 225.505 675.922 225.768 675.688 225.992C675.453 226.211 675.172 226.38 674.844 226.5C674.516 226.615 674.146 226.672 673.734 226.672ZM684.047 226.539C683.068 226.539 682.362 226.359 681.93 226C681.497 225.641 681.281 225.052 681.281 224.234V219.469H679.953V217.961H681.281V215.867H683.258V217.961H685.055V219.469H683.258V223.773C683.258 224.195 683.346 224.505 683.523 224.703C683.706 224.896 683.997 224.992 684.398 224.992C684.539 224.992 684.654 224.99 684.742 224.984C684.836 224.974 684.94 224.964 685.055 224.953V226.453C684.919 226.479 684.763 226.5 684.586 226.516C684.414 226.531 684.234 226.539 684.047 226.539ZM694.531 226.5L690.633 215.227H692.852L695.641 224.172H695.773L698.57 215.227H700.789L696.883 226.5H694.531ZM703.953 226.641C703.417 226.641 702.935 226.536 702.508 226.328C702.086 226.12 701.753 225.826 701.508 225.445C701.268 225.06 701.148 224.607 701.148 224.086V224.07C701.148 223.565 701.273 223.13 701.523 222.766C701.773 222.396 702.141 222.107 702.625 221.898C703.109 221.69 703.698 221.568 704.391 221.531L707.547 221.336V222.617L704.664 222.805C704.117 222.836 703.714 222.951 703.453 223.148C703.193 223.346 703.062 223.622 703.062 223.977V223.992C703.062 224.357 703.201 224.641 703.477 224.844C703.758 225.047 704.115 225.148 704.547 225.148C704.938 225.148 705.286 225.07 705.594 224.914C705.901 224.758 706.143 224.547 706.32 224.281C706.497 224.01 706.586 223.706 706.586 223.367V220.664C706.586 220.237 706.451 219.911 706.18 219.688C705.909 219.458 705.508 219.344 704.977 219.344C704.534 219.344 704.172 219.422 703.891 219.578C703.609 219.729 703.419 219.945 703.32 220.227L703.312 220.258H701.477L701.484 220.188C701.547 219.708 701.734 219.289 702.047 218.93C702.359 218.57 702.773 218.292 703.289 218.094C703.805 217.896 704.398 217.797 705.07 217.797C705.81 217.797 706.435 217.911 706.945 218.141C707.456 218.365 707.844 218.693 708.109 219.125C708.375 219.552 708.508 220.065 708.508 220.664V226.5H706.586V225.328H706.453C706.297 225.599 706.094 225.833 705.844 226.031C705.599 226.229 705.318 226.38 705 226.484C704.682 226.589 704.333 226.641 703.953 226.641ZM710.922 226.5V214.656H712.867V226.5H710.922ZM718.141 226.672C717.505 226.672 716.971 226.549 716.539 226.305C716.107 226.055 715.781 225.693 715.562 225.219C715.344 224.74 715.234 224.161 715.234 223.484V217.961H717.18V223.039C717.18 223.701 717.31 224.198 717.57 224.531C717.831 224.865 718.255 225.031 718.844 225.031C719.156 225.031 719.432 224.984 719.672 224.891C719.917 224.792 720.12 224.651 720.281 224.469C720.443 224.286 720.565 224.068 720.648 223.812C720.732 223.552 720.773 223.26 720.773 222.938V217.961H722.719V226.5H720.773V225.203H720.641C720.51 225.505 720.328 225.768 720.094 225.992C719.859 226.211 719.578 226.38 719.25 226.5C718.922 226.615 718.552 226.672 718.141 226.672ZM728.75 226.672C727.901 226.672 727.172 226.492 726.562 226.133C725.958 225.773 725.492 225.263 725.164 224.602C724.836 223.94 724.672 223.156 724.672 222.25V222.242C724.672 221.346 724.833 220.565 725.156 219.898C725.484 219.232 725.948 218.716 726.547 218.352C727.146 217.982 727.849 217.797 728.656 217.797C729.469 217.797 730.167 217.977 730.75 218.336C731.339 218.69 731.792 219.188 732.109 219.828C732.427 220.469 732.586 221.219 732.586 222.078V222.719H725.648V221.414H731.633L730.711 222.633V221.859C730.711 221.292 730.625 220.82 730.453 220.445C730.281 220.07 730.042 219.789 729.734 219.602C729.432 219.414 729.081 219.32 728.68 219.32C728.279 219.32 727.922 219.419 727.609 219.617C727.302 219.81 727.057 220.096 726.875 220.477C726.698 220.852 726.609 221.312 726.609 221.859V222.641C726.609 223.167 726.698 223.617 726.875 223.992C727.052 224.362 727.302 224.648 727.625 224.852C727.953 225.049 728.341 225.148 728.789 225.148C729.138 225.148 729.438 225.099 729.688 225C729.943 224.896 730.148 224.773 730.305 224.633C730.461 224.487 730.57 224.349 730.633 224.219L730.656 224.164H732.5L732.484 224.234C732.417 224.51 732.292 224.792 732.109 225.078C731.932 225.359 731.69 225.622 731.383 225.867C731.081 226.107 730.711 226.302 730.273 226.453C729.836 226.599 729.328 226.672 728.75 226.672Z" fill="#111111"/>
</g>
<defs>
<clipPath id="clip0_48_7174">
<rect width="1024" height="275" rx="24" fill="white"/>
</clipPath>
</defs>
</svg>
