<svg width="1024" height="548" viewBox="0 0 1024 548" fill="none" xmlns="http://www.w3.org/2000/svg">
<g clip-path="url(#clip0_56_7680)">
<rect width="1024" height="548" rx="24" fill="white"/>
<mask id="path-2-inside-1_56_7680" fill="white">
<path d="M46 32H284V516H46V32Z"/>
</mask>
<path d="M283 32V516H285V32H283Z" fill="#DDDDDD" mask="url(#path-2-inside-1_56_7680)"/>
<path d="M46.4375 81L54.3125 58.4531H58.4688V62.8281H57.0312L51.3906 81H46.4375ZM50.6719 75.5312L51.8281 72H62.3438L63.5 75.5312H50.6719ZM62.7656 81L57.125 62.8281V58.4531H59.8594L67.7188 81H62.7656ZM69.6406 81V64.25H74.2031V67H74.2969C74.7344 66.0417 75.3802 65.2865 76.2344 64.7344C77.0885 64.1823 78.1458 63.9062 79.4062 63.9062C81.25 63.9062 82.6719 64.4635 83.6719 65.5781C84.6823 66.6823 85.1875 68.2188 85.1875 70.1875V81H80.625V71.125C80.625 70.0312 80.3646 69.1875 79.8438 68.5938C79.3333 67.9896 78.5677 67.6875 77.5469 67.6875C76.8698 67.6875 76.2812 67.8438 75.7812 68.1562C75.2812 68.4583 74.8906 68.8854 74.6094 69.4375C74.3385 69.9896 74.2031 70.6354 74.2031 71.375V81H69.6406ZM93.0625 81.2656C91.9479 81.2656 90.9688 81.0521 90.125 80.625C89.2812 80.1875 88.6198 79.5885 88.1406 78.8281C87.6719 78.0573 87.4375 77.1823 87.4375 76.2031V76.1719C87.4375 75.151 87.6927 74.2812 88.2031 73.5625C88.7135 72.8333 89.4531 72.2604 90.4219 71.8438C91.3906 71.4271 92.5677 71.1719 93.9531 71.0781L100.484 70.6719V73.5156L94.6406 73.8906C93.7656 73.9427 93.099 74.151 92.6406 74.5156C92.1823 74.8698 91.9531 75.3438 91.9531 75.9375V75.9688C91.9531 76.5833 92.1875 77.0677 92.6562 77.4219C93.125 77.7656 93.7552 77.9375 94.5469 77.9375C95.224 77.9375 95.8281 77.8073 96.3594 77.5469C96.901 77.276 97.3229 76.9115 97.625 76.4531C97.9375 75.9844 98.0938 75.4583 98.0938 74.875V69.7969C98.0938 69.0573 97.8594 68.474 97.3906 68.0469C96.9219 67.6094 96.2396 67.3906 95.3438 67.3906C94.4896 67.3906 93.8125 67.5677 93.3125 67.9219C92.8125 68.276 92.5052 68.724 92.3906 69.2656L92.3594 69.4062H88.1875L88.2031 69.2188C88.2865 68.1875 88.625 67.2708 89.2188 66.4688C89.8229 65.6667 90.6562 65.0417 91.7188 64.5938C92.7917 64.1354 94.0625 63.9062 95.5312 63.9062C96.9792 63.9062 98.2344 64.1406 99.2969 64.6094C100.359 65.0677 101.182 65.7188 101.766 66.5625C102.359 67.4062 102.656 68.3906 102.656 69.5156V81H98.0938V78.5H98C97.6875 79.0729 97.2812 79.5677 96.7812 79.9844C96.2917 80.3906 95.7344 80.7083 95.1094 80.9375C94.4844 81.1562 93.8021 81.2656 93.0625 81.2656ZM112.266 81.3438C110.411 81.3438 109.036 80.9531 108.141 80.1719C107.245 79.3906 106.797 78.1042 106.797 76.3125V67.6875H104.469V64.25H106.797V60.1562H111.406V64.25H114.469V67.6875H111.406V75.8125C111.406 76.5938 111.578 77.1406 111.922 77.4531C112.276 77.7552 112.797 77.9062 113.484 77.9062C113.693 77.9062 113.875 77.901 114.031 77.8906C114.188 77.8698 114.333 77.849 114.469 77.8281V81.1719C114.219 81.2135 113.906 81.25 113.531 81.2812C113.167 81.3229 112.745 81.3438 112.266 81.3438ZM124.453 81.3438C122.755 81.3438 121.286 80.9948 120.047 80.2969C118.807 79.599 117.849 78.599 117.172 77.2969C116.495 75.9948 116.156 74.4375 116.156 72.625V72.5938C116.156 70.7917 116.5 69.2448 117.188 67.9531C117.875 66.651 118.839 65.651 120.078 64.9531C121.318 64.2552 122.771 63.9062 124.438 63.9062C126.115 63.9062 127.573 64.2552 128.812 64.9531C130.062 65.6406 131.031 66.6354 131.719 67.9375C132.406 69.2292 132.75 70.7812 132.75 72.5938V72.625C132.75 74.4479 132.406 76.0104 131.719 77.3125C131.042 78.6146 130.083 79.6146 128.844 80.3125C127.604 81 126.141 81.3438 124.453 81.3438ZM124.469 77.7656C125.208 77.7656 125.849 77.5677 126.391 77.1719C126.943 76.7656 127.365 76.1823 127.656 75.4219C127.958 74.651 128.109 73.7188 128.109 72.625V72.5938C128.109 71.5104 127.958 70.5885 127.656 69.8281C127.354 69.0677 126.927 68.4896 126.375 68.0938C125.823 67.6875 125.177 67.4844 124.438 67.4844C123.708 67.4844 123.068 67.6875 122.516 68.0938C121.974 68.4896 121.552 69.0677 121.25 69.8281C120.948 70.5885 120.797 71.5104 120.797 72.5938V72.625C120.797 73.7188 120.943 74.651 121.234 75.4219C121.536 76.1823 121.964 76.7656 122.516 77.1719C123.068 77.5677 123.719 77.7656 124.469 77.7656ZM135.109 81V64.25H139.672V67.0625H139.766C140.109 66.1042 140.693 65.3385 141.516 64.7656C142.349 64.1927 143.328 63.9062 144.453 63.9062C145.234 63.9062 145.938 64.0417 146.562 64.3125C147.188 64.5833 147.714 64.974 148.141 65.4844C148.578 65.9948 148.885 66.6198 149.062 67.3594H149.156C149.406 66.651 149.781 66.0417 150.281 65.5312C150.792 65.0104 151.391 64.6094 152.078 64.3281C152.776 64.0469 153.536 63.9062 154.359 63.9062C155.453 63.9062 156.411 64.1406 157.234 64.6094C158.057 65.0781 158.698 65.7344 159.156 66.5781C159.615 67.4219 159.844 68.4115 159.844 69.5469V81H155.281V70.6875C155.281 70.0417 155.172 69.4948 154.953 69.0469C154.745 68.599 154.438 68.2604 154.031 68.0312C153.635 67.8021 153.141 67.6875 152.547 67.6875C151.974 67.6875 151.469 67.8177 151.031 68.0781C150.604 68.3385 150.271 68.7031 150.031 69.1719C149.792 69.6406 149.672 70.1875 149.672 70.8125V81H145.281V70.5469C145.281 69.9427 145.172 69.4271 144.953 69C144.734 68.5729 144.422 68.25 144.016 68.0312C143.62 67.8021 143.141 67.6875 142.578 67.6875C142.005 67.6875 141.5 67.8229 141.062 68.0938C140.625 68.3646 140.281 68.7396 140.031 69.2188C139.792 69.6979 139.672 70.2552 139.672 70.8906V81H135.109ZM165.266 86.5156C164.818 86.5156 164.385 86.4948 163.969 86.4531C163.552 86.4115 163.208 86.3646 162.938 86.3125V82.9219C163.104 82.9531 163.318 82.9844 163.578 83.0156C163.839 83.0573 164.135 83.0781 164.469 83.0781C165.156 83.0781 165.698 82.9635 166.094 82.7344C166.49 82.5052 166.786 82.1094 166.984 81.5469L167.188 81L161.266 64.25H166.281L170.062 78.25L169.453 77.3438H170.312L169.703 78.25L173.484 64.25H178.297L172.547 81.2969C172.109 82.6094 171.557 83.6458 170.891 84.4062C170.234 85.1667 169.443 85.7083 168.516 86.0312C167.589 86.3542 166.505 86.5156 165.266 86.5156Z" fill="#1B1D23"/>
<path d="M53.5586 46.3223C52.224 46.3223 51.0684 46.026 50.0918 45.4336C49.1217 44.8346 48.373 43.985 47.8457 42.8848C47.3184 41.7845 47.0547 40.4759 47.0547 38.959V38.9492C47.0547 37.4258 47.3184 36.1172 47.8457 35.0234C48.373 33.9232 49.1217 33.0768 50.0918 32.4844C51.0618 31.8854 52.2142 31.5859 53.5488 31.5859C54.623 31.5859 55.5898 31.7943 56.4492 32.2109C57.3086 32.6276 58.0085 33.207 58.5488 33.9492C59.0892 34.6849 59.4147 35.5312 59.5254 36.4883V36.5762H57.0547L57.0352 36.498C56.918 35.9447 56.6966 35.4629 56.3711 35.0527C56.0456 34.6426 55.6419 34.3268 55.1602 34.1055C54.6849 33.8776 54.1478 33.7637 53.5488 33.7637C52.748 33.7637 52.0514 33.9753 51.459 34.3984C50.873 34.8151 50.4206 35.4108 50.1016 36.1855C49.7826 36.9603 49.623 37.8783 49.623 38.9395V38.959C49.623 40.0202 49.7826 40.9414 50.1016 41.7227C50.4206 42.4974 50.873 43.0964 51.459 43.5195C52.0514 43.9362 52.7513 44.1445 53.5586 44.1445C54.1576 44.1445 54.6947 44.0404 55.1699 43.832C55.6517 43.6237 56.0521 43.3275 56.3711 42.9434C56.6966 42.5527 56.9212 42.0938 57.0449 41.5664L57.0645 41.498H59.5352L59.5254 41.5859C59.4017 42.5299 59.0729 43.3568 58.5391 44.0664C58.0052 44.776 57.3118 45.3294 56.459 45.7266C55.6061 46.1237 54.6393 46.3223 53.5586 46.3223ZM61.9668 46V31.3613H64.3984V37.0645H64.5449C64.7988 36.4785 65.1862 36.0195 65.707 35.6875C66.2279 35.3555 66.8757 35.1895 67.6504 35.1895C68.4316 35.1895 69.0957 35.349 69.6426 35.668C70.1895 35.987 70.6061 36.446 70.8926 37.0449C71.179 37.6439 71.3223 38.3633 71.3223 39.2031V46H68.8906V39.75C68.8906 38.9232 68.7116 38.2982 68.3535 37.875C67.9954 37.4518 67.4551 37.2402 66.7324 37.2402C66.2572 37.2402 65.8438 37.3477 65.4922 37.5625C65.1471 37.7773 64.877 38.0801 64.6816 38.4707C64.4928 38.8548 64.3984 39.3105 64.3984 39.8379V46H61.9668ZM76.918 46.1758C76.2409 46.1758 75.6387 46.0456 75.1113 45.7852C74.584 45.5247 74.1706 45.1569 73.8711 44.6816C73.5716 44.1999 73.4219 43.64 73.4219 43.002V42.9824C73.4219 42.3509 73.5781 41.8105 73.8906 41.3613C74.2031 40.9056 74.6589 40.5475 75.2578 40.2871C75.8568 40.0267 76.5827 39.8704 77.4355 39.8184L81.3906 39.584V41.1855L77.7871 41.4199C77.123 41.4525 76.6283 41.5957 76.3027 41.8496C75.9837 42.097 75.8242 42.4355 75.8242 42.8652V42.8848C75.8242 43.334 75.9935 43.6855 76.332 43.9395C76.6771 44.1934 77.1165 44.3203 77.6504 44.3203C78.1387 44.3203 78.5716 44.2227 78.9492 44.0273C79.3268 43.832 79.6263 43.5684 79.8477 43.2363C80.069 42.8978 80.1797 42.5202 80.1797 42.1035V38.793C80.1797 38.2591 80.0104 37.849 79.6719 37.5625C79.3333 37.2695 78.8418 37.123 78.1973 37.123C77.6309 37.123 77.1719 37.2272 76.8203 37.4355C76.4753 37.6374 76.2441 37.9173 76.127 38.2754L76.1172 38.3242H73.832L73.8418 38.2363C73.9199 37.6309 74.1478 37.1003 74.5254 36.6445C74.9095 36.1888 75.4206 35.834 76.0586 35.5801C76.7031 35.3197 77.4518 35.1895 78.3047 35.1895C79.2096 35.1895 79.9811 35.3327 80.6191 35.6191C81.2572 35.9056 81.7454 36.3158 82.084 36.8496C82.4225 37.377 82.5918 38.0117 82.5918 38.7539V46H80.1797V44.5059H80.0332C79.8379 44.8509 79.584 45.1504 79.2715 45.4043C78.9655 45.6517 78.6139 45.8438 78.2168 45.9805C77.8197 46.1107 77.3867 46.1758 76.918 46.1758ZM85.2773 46V35.4043H87.709V37.0742H87.8457C88.0215 36.4883 88.3405 36.0326 88.8027 35.707C89.265 35.3815 89.8314 35.2188 90.502 35.2188C90.6842 35.2188 90.8568 35.2318 91.0195 35.2578C91.1888 35.2773 91.3288 35.3001 91.4395 35.3262V37.5137C91.2637 37.4681 91.0781 37.4355 90.8828 37.416C90.694 37.39 90.4954 37.377 90.2871 37.377C89.7663 37.377 89.3105 37.4779 88.9199 37.6797C88.5358 37.875 88.2363 38.1582 88.0215 38.5293C87.8132 38.8939 87.709 39.3333 87.709 39.8477V46H85.2773ZM97.6309 46.0879C96.446 46.0879 95.5833 45.8633 95.043 45.4141C94.5091 44.9583 94.2422 44.2096 94.2422 43.168V37.2793H92.6309V35.4043H94.2422V32.7773H96.7129V35.4043H98.8809V37.2793H96.7129V42.6895C96.7129 43.2103 96.8236 43.5879 97.0449 43.8223C97.2728 44.0501 97.6309 44.1641 98.1191 44.1641C98.2754 44.1641 98.4089 44.1608 98.5195 44.1543C98.6367 44.1413 98.7572 44.1315 98.8809 44.125V45.9805C98.7181 46.0065 98.5293 46.0293 98.3145 46.0488C98.0996 46.0749 97.8717 46.0879 97.6309 46.0879Z" fill="#484848"/>
<rect x="558" y="74" width="192" height="51" rx="8" fill="#1F1F1F"/>
<path d="M625.734 101.273V99.6484H628.734C629.458 99.6484 630.021 99.4635 630.422 99.0938C630.823 98.7188 631.023 98.1927 631.023 97.5156V97.5C631.023 96.8177 630.823 96.2917 630.422 95.9219C630.021 95.5521 629.458 95.3672 628.734 95.3672H625.734V93.7266H629.227C629.992 93.7266 630.661 93.8828 631.234 94.1953C631.807 94.5078 632.255 94.9479 632.578 95.5156C632.901 96.0781 633.062 96.737 633.062 97.4922V97.5078C633.062 98.2578 632.901 98.9167 632.578 99.4844C632.255 100.047 631.807 100.487 631.234 100.805C630.661 101.117 629.992 101.273 629.227 101.273H625.734ZM624.727 105V93.7266H626.742V105H624.727ZM635.086 105V96.4609H637.031V97.7734H637.164C637.31 97.3151 637.57 96.9583 637.945 96.7031C638.326 96.4479 638.797 96.3203 639.359 96.3203C639.505 96.3203 639.648 96.3307 639.789 96.3516C639.935 96.3672 640.055 96.388 640.148 96.4141V98.1562C639.992 98.1198 639.833 98.0938 639.672 98.0781C639.516 98.0573 639.352 98.0469 639.18 98.0469C638.747 98.0469 638.37 98.1276 638.047 98.2891C637.724 98.4505 637.474 98.6823 637.297 98.9844C637.12 99.2812 637.031 99.6328 637.031 100.039V105H635.086ZM641.75 105V96.4609H643.688V105H641.75ZM642.727 95.0312C642.409 95.0312 642.135 94.9193 641.906 94.6953C641.677 94.4714 641.562 94.2031 641.562 93.8906C641.562 93.5677 641.677 93.2969 641.906 93.0781C642.135 92.8542 642.409 92.7422 642.727 92.7422C643.044 92.7422 643.315 92.8542 643.539 93.0781C643.768 93.2969 643.883 93.5677 643.883 93.8906C643.883 94.2031 643.768 94.4714 643.539 94.6953C643.315 94.9193 643.044 95.0312 642.727 95.0312ZM646.086 105V96.4609H648.031V97.7891H648.164C648.346 97.3151 648.641 96.9479 649.047 96.6875C649.458 96.4271 649.945 96.2969 650.508 96.2969C650.893 96.2969 651.24 96.3594 651.547 96.4844C651.859 96.6094 652.128 96.7865 652.352 97.0156C652.576 97.2448 652.747 97.5182 652.867 97.8359H653.008C653.148 97.5286 653.344 97.2604 653.594 97.0312C653.849 96.7969 654.146 96.6172 654.484 96.4922C654.828 96.362 655.198 96.2969 655.594 96.2969C656.167 96.2969 656.656 96.4115 657.062 96.6406C657.474 96.8646 657.789 97.1875 658.008 97.6094C658.232 98.0312 658.344 98.5365 658.344 99.125V105H656.398V99.6016C656.398 99.2266 656.341 98.9167 656.227 98.6719C656.117 98.4271 655.948 98.2422 655.719 98.1172C655.49 97.9922 655.201 97.9297 654.852 97.9297C654.513 97.9297 654.219 98.0078 653.969 98.1641C653.719 98.3151 653.523 98.5208 653.383 98.7812C653.247 99.0417 653.18 99.3359 653.18 99.6641V105H651.234V99.4609C651.234 99.1432 651.172 98.8698 651.047 98.6406C650.927 98.4115 650.75 98.237 650.516 98.1172C650.286 97.9922 650.013 97.9297 649.695 97.9297C649.378 97.9297 649.091 98.013 648.836 98.1797C648.586 98.3411 648.388 98.5651 648.242 98.8516C648.102 99.1328 648.031 99.4505 648.031 99.8047V105H646.086ZM662.961 105.141C662.424 105.141 661.943 105.036 661.516 104.828C661.094 104.62 660.76 104.326 660.516 103.945C660.276 103.56 660.156 103.107 660.156 102.586V102.57C660.156 102.065 660.281 101.63 660.531 101.266C660.781 100.896 661.148 100.607 661.633 100.398C662.117 100.19 662.706 100.068 663.398 100.031L666.555 99.8359V101.117L663.672 101.305C663.125 101.336 662.721 101.451 662.461 101.648C662.201 101.846 662.07 102.122 662.07 102.477V102.492C662.07 102.857 662.208 103.141 662.484 103.344C662.766 103.547 663.122 103.648 663.555 103.648C663.945 103.648 664.294 103.57 664.602 103.414C664.909 103.258 665.151 103.047 665.328 102.781C665.505 102.51 665.594 102.206 665.594 101.867V99.1641C665.594 98.737 665.458 98.4115 665.188 98.1875C664.917 97.9583 664.516 97.8438 663.984 97.8438C663.542 97.8438 663.18 97.9219 662.898 98.0781C662.617 98.2292 662.427 98.4453 662.328 98.7266L662.32 98.7578H660.484L660.492 98.6875C660.555 98.2083 660.742 97.7891 661.055 97.4297C661.367 97.0703 661.781 96.7917 662.297 96.5938C662.812 96.3958 663.406 96.2969 664.078 96.2969C664.818 96.2969 665.443 96.4115 665.953 96.6406C666.464 96.8646 666.852 97.1927 667.117 97.625C667.383 98.0521 667.516 98.5651 667.516 99.1641V105H665.594V103.828H665.461C665.305 104.099 665.102 104.333 664.852 104.531C664.607 104.729 664.326 104.88 664.008 104.984C663.69 105.089 663.341 105.141 662.961 105.141ZM669.852 105V96.4609H671.797V97.7734H671.93C672.076 97.3151 672.336 96.9583 672.711 96.7031C673.091 96.4479 673.562 96.3203 674.125 96.3203C674.271 96.3203 674.414 96.3307 674.555 96.3516C674.701 96.3672 674.82 96.388 674.914 96.4141V98.1562C674.758 98.1198 674.599 98.0938 674.438 98.0781C674.281 98.0573 674.117 98.0469 673.945 98.0469C673.513 98.0469 673.135 98.1276 672.812 98.2891C672.49 98.4505 672.24 98.6823 672.062 98.9844C671.885 99.2812 671.797 99.6328 671.797 100.039V105H669.852ZM677.531 108C677.411 108 677.286 107.997 677.156 107.992C677.031 107.987 676.909 107.979 676.789 107.969V106.477C676.867 106.487 676.958 106.492 677.062 106.492C677.167 106.497 677.268 106.5 677.367 106.5C677.768 106.5 678.089 106.411 678.328 106.234C678.573 106.062 678.747 105.784 678.852 105.398L678.953 105.008L675.898 96.4609H678.023L680.273 104.023L679.742 103.133H680.414L679.898 104.023L682.148 96.4609H684.195L681.133 105.188C680.888 105.896 680.607 106.456 680.289 106.867C679.971 107.279 679.589 107.57 679.141 107.742C678.698 107.914 678.161 108 677.531 108Z" fill="white"/>
<rect x="559" y="235" width="190" height="49" rx="7" stroke="#020013" stroke-width="2"/>
<path d="M617.203 265.281C616.328 265.281 615.568 265.146 614.922 264.875C614.281 264.604 613.776 264.227 613.406 263.742C613.036 263.258 612.828 262.693 612.781 262.047L612.773 261.938H614.727L614.734 262.016C614.766 262.333 614.891 262.609 615.109 262.844C615.333 263.078 615.63 263.263 616 263.398C616.37 263.529 616.792 263.594 617.266 263.594C617.719 263.594 618.12 263.523 618.469 263.383C618.818 263.242 619.091 263.049 619.289 262.805C619.487 262.555 619.586 262.268 619.586 261.945V261.938C619.586 261.531 619.427 261.201 619.109 260.945C618.792 260.685 618.268 260.477 617.539 260.32L616.328 260.07C615.172 259.826 614.331 259.435 613.805 258.898C613.284 258.357 613.023 257.667 613.023 256.828V256.82C613.023 256.148 613.201 255.56 613.555 255.055C613.914 254.549 614.406 254.156 615.031 253.875C615.661 253.589 616.383 253.445 617.195 253.445C618.029 253.445 618.75 253.586 619.359 253.867C619.969 254.143 620.448 254.521 620.797 255C621.146 255.479 621.341 256.021 621.383 256.625L621.391 256.727H619.469L619.453 256.633C619.406 256.336 619.284 256.078 619.086 255.859C618.893 255.635 618.635 255.458 618.312 255.328C617.99 255.198 617.612 255.133 617.18 255.133C616.768 255.133 616.401 255.198 616.078 255.328C615.755 255.453 615.5 255.63 615.312 255.859C615.13 256.089 615.039 256.365 615.039 256.688V256.695C615.039 257.091 615.193 257.419 615.5 257.68C615.812 257.94 616.32 258.143 617.023 258.289L618.234 258.547C619.026 258.714 619.669 258.935 620.164 259.211C620.659 259.487 621.021 259.831 621.25 260.242C621.484 260.648 621.602 261.138 621.602 261.711V261.719C621.602 262.448 621.422 263.078 621.062 263.609C620.708 264.141 620.201 264.552 619.539 264.844C618.883 265.135 618.104 265.281 617.203 265.281ZM627.32 265.172C626.471 265.172 625.742 264.992 625.133 264.633C624.529 264.273 624.062 263.763 623.734 263.102C623.406 262.44 623.242 261.656 623.242 260.75V260.742C623.242 259.846 623.404 259.065 623.727 258.398C624.055 257.732 624.518 257.216 625.117 256.852C625.716 256.482 626.419 256.297 627.227 256.297C628.039 256.297 628.737 256.477 629.32 256.836C629.909 257.19 630.362 257.688 630.68 258.328C630.997 258.969 631.156 259.719 631.156 260.578V261.219H624.219V259.914H630.203L629.281 261.133V260.359C629.281 259.792 629.195 259.32 629.023 258.945C628.852 258.57 628.612 258.289 628.305 258.102C628.003 257.914 627.651 257.82 627.25 257.82C626.849 257.82 626.492 257.919 626.18 258.117C625.872 258.31 625.628 258.596 625.445 258.977C625.268 259.352 625.18 259.812 625.18 260.359V261.141C625.18 261.667 625.268 262.117 625.445 262.492C625.622 262.862 625.872 263.148 626.195 263.352C626.523 263.549 626.911 263.648 627.359 263.648C627.708 263.648 628.008 263.599 628.258 263.5C628.513 263.396 628.719 263.273 628.875 263.133C629.031 262.987 629.141 262.849 629.203 262.719L629.227 262.664H631.07L631.055 262.734C630.987 263.01 630.862 263.292 630.68 263.578C630.503 263.859 630.26 264.122 629.953 264.367C629.651 264.607 629.281 264.802 628.844 264.953C628.406 265.099 627.898 265.172 627.32 265.172ZM636.766 265.172C635.906 265.172 635.172 264.995 634.562 264.641C633.953 264.286 633.487 263.776 633.164 263.109C632.841 262.443 632.68 261.646 632.68 260.719V260.703C632.68 259.781 632.841 258.992 633.164 258.336C633.487 257.68 633.953 257.177 634.562 256.828C635.172 256.474 635.904 256.297 636.758 256.297C637.492 256.297 638.122 256.424 638.648 256.68C639.18 256.93 639.599 257.279 639.906 257.727C640.219 258.169 640.411 258.688 640.484 259.281V259.312H638.648L638.641 259.289C638.552 258.872 638.349 258.531 638.031 258.266C637.719 258 637.297 257.867 636.766 257.867C636.323 257.867 635.943 257.979 635.625 258.203C635.312 258.427 635.073 258.75 634.906 259.172C634.74 259.594 634.656 260.104 634.656 260.703V260.719C634.656 261.323 634.74 261.841 634.906 262.273C635.078 262.701 635.32 263.029 635.633 263.258C635.945 263.482 636.323 263.594 636.766 263.594C637.271 263.594 637.677 263.479 637.984 263.25C638.297 263.021 638.513 262.682 638.633 262.234L638.648 262.203L640.477 262.195L640.469 262.266C640.375 262.844 640.172 263.352 639.859 263.789C639.552 264.227 639.141 264.568 638.625 264.812C638.109 265.052 637.49 265.172 636.766 265.172ZM646.023 265.172C645.174 265.172 644.443 264.995 643.828 264.641C643.214 264.281 642.74 263.771 642.406 263.109C642.078 262.448 641.914 261.656 641.914 260.734V260.719C641.914 259.807 642.081 259.021 642.414 258.359C642.747 257.693 643.219 257.182 643.828 256.828C644.443 256.474 645.174 256.297 646.023 256.297C646.872 256.297 647.602 256.474 648.211 256.828C648.826 257.182 649.299 257.69 649.633 258.352C649.966 259.013 650.133 259.802 650.133 260.719V260.734C650.133 261.656 649.966 262.448 649.633 263.109C649.305 263.771 648.833 264.281 648.219 264.641C647.609 264.995 646.878 265.172 646.023 265.172ZM646.023 263.594C646.471 263.594 646.852 263.482 647.164 263.258C647.482 263.029 647.724 262.703 647.891 262.281C648.057 261.854 648.141 261.341 648.141 260.742V260.727C648.141 260.122 648.057 259.609 647.891 259.188C647.724 258.76 647.482 258.435 647.164 258.211C646.852 257.982 646.471 257.867 646.023 257.867C645.576 257.867 645.193 257.982 644.875 258.211C644.557 258.435 644.315 258.76 644.148 259.188C643.982 259.609 643.898 260.122 643.898 260.727V260.742C643.898 261.341 643.982 261.854 644.148 262.281C644.315 262.708 644.555 263.034 644.867 263.258C645.185 263.482 645.57 263.594 646.023 263.594ZM652.086 265V256.461H654.031V257.773H654.164C654.367 257.31 654.674 256.948 655.086 256.688C655.497 256.427 656.01 256.297 656.625 256.297C657.578 256.297 658.307 256.573 658.812 257.125C659.318 257.677 659.57 258.461 659.57 259.477V265H657.625V259.93C657.625 259.263 657.484 258.763 657.203 258.43C656.927 258.096 656.495 257.93 655.906 257.93C655.521 257.93 655.188 258.016 654.906 258.188C654.625 258.359 654.409 258.602 654.258 258.914C654.107 259.227 654.031 259.596 654.031 260.023V265H652.086ZM664.945 265.141C664.237 265.141 663.62 264.964 663.094 264.609C662.568 264.25 662.161 263.74 661.875 263.078C661.589 262.417 661.445 261.638 661.445 260.742V260.727C661.445 259.82 661.586 259.039 661.867 258.383C662.154 257.721 662.557 257.214 663.078 256.859C663.604 256.5 664.227 256.32 664.945 256.32C665.336 256.32 665.701 256.383 666.039 256.508C666.378 256.628 666.674 256.799 666.93 257.023C667.19 257.247 667.393 257.513 667.539 257.82H667.68V253.156H669.617V265H667.68V263.664H667.539C667.383 263.971 667.177 264.237 666.922 264.461C666.672 264.68 666.38 264.849 666.047 264.969C665.714 265.083 665.346 265.141 664.945 265.141ZM665.555 263.5C665.997 263.5 666.378 263.391 666.695 263.172C667.018 262.948 667.266 262.63 667.438 262.219C667.615 261.802 667.703 261.31 667.703 260.742V260.727C667.703 260.154 667.615 259.661 667.438 259.25C667.266 258.839 667.018 258.521 666.695 258.297C666.378 258.073 665.997 257.961 665.555 257.961C665.117 257.961 664.737 258.073 664.414 258.297C664.096 258.516 663.852 258.833 663.68 259.25C663.508 259.661 663.422 260.154 663.422 260.727V260.742C663.422 261.315 663.508 261.807 663.68 262.219C663.852 262.63 664.096 262.948 664.414 263.172C664.732 263.391 665.112 263.5 665.555 263.5ZM674.398 265.141C673.862 265.141 673.38 265.036 672.953 264.828C672.531 264.62 672.198 264.326 671.953 263.945C671.714 263.56 671.594 263.107 671.594 262.586V262.57C671.594 262.065 671.719 261.63 671.969 261.266C672.219 260.896 672.586 260.607 673.07 260.398C673.555 260.19 674.143 260.068 674.836 260.031L677.992 259.836V261.117L675.109 261.305C674.562 261.336 674.159 261.451 673.898 261.648C673.638 261.846 673.508 262.122 673.508 262.477V262.492C673.508 262.857 673.646 263.141 673.922 263.344C674.203 263.547 674.56 263.648 674.992 263.648C675.383 263.648 675.732 263.57 676.039 263.414C676.346 263.258 676.589 263.047 676.766 262.781C676.943 262.51 677.031 262.206 677.031 261.867V259.164C677.031 258.737 676.896 258.411 676.625 258.188C676.354 257.958 675.953 257.844 675.422 257.844C674.979 257.844 674.617 257.922 674.336 258.078C674.055 258.229 673.865 258.445 673.766 258.727L673.758 258.758H671.922L671.93 258.688C671.992 258.208 672.18 257.789 672.492 257.43C672.805 257.07 673.219 256.792 673.734 256.594C674.25 256.396 674.844 256.297 675.516 256.297C676.255 256.297 676.88 256.411 677.391 256.641C677.901 256.865 678.289 257.193 678.555 257.625C678.82 258.052 678.953 258.565 678.953 259.164V265H677.031V263.828H676.898C676.742 264.099 676.539 264.333 676.289 264.531C676.044 264.729 675.763 264.88 675.445 264.984C675.128 265.089 674.779 265.141 674.398 265.141ZM681.289 265V256.461H683.234V257.773H683.367C683.513 257.315 683.773 256.958 684.148 256.703C684.529 256.448 685 256.32 685.562 256.32C685.708 256.32 685.852 256.331 685.992 256.352C686.138 256.367 686.258 256.388 686.352 256.414V258.156C686.195 258.12 686.036 258.094 685.875 258.078C685.719 258.057 685.555 258.047 685.383 258.047C684.951 258.047 684.573 258.128 684.25 258.289C683.927 258.451 683.677 258.682 683.5 258.984C683.323 259.281 683.234 259.633 683.234 260.039V265H681.289ZM688.969 268C688.849 268 688.724 267.997 688.594 267.992C688.469 267.987 688.346 267.979 688.227 267.969V266.477C688.305 266.487 688.396 266.492 688.5 266.492C688.604 266.497 688.706 266.5 688.805 266.5C689.206 266.5 689.526 266.411 689.766 266.234C690.01 266.062 690.185 265.784 690.289 265.398L690.391 265.008L687.336 256.461H689.461L691.711 264.023L691.18 263.133H691.852L691.336 264.023L693.586 256.461H695.633L692.57 265.188C692.326 265.896 692.044 266.456 691.727 266.867C691.409 267.279 691.026 267.57 690.578 267.742C690.135 267.914 689.599 268 688.969 268Z" fill="#111111"/>
<rect x="544" y="74" width="3" height="51" fill="#0066CC"/>
<rect x="543" y="73" width="5" height="53" stroke="#0066CC" stroke-opacity="0.33" stroke-width="2"/>
<rect x="558" y="138" width="192" height="3" fill="#0066CC"/>
<rect x="557" y="137" width="194" height="5" stroke="#0066CC" stroke-opacity="0.33" stroke-width="2"/>
<circle cx="559" cy="259" r="6" fill="#0066CC"/>
<circle cx="559" cy="259" r="9" fill="#0066CC" fill-opacity="0.33"/>
<rect x="534" y="258" width="24" height="3" fill="#0066CC"/>
<rect x="533" y="257" width="26" height="5" stroke="#0066CC" stroke-opacity="0.33" stroke-width="2"/>
<path d="M401.864 256V254.749H404.845C405.537 254.749 406.062 254.61 406.417 254.332C406.772 254.054 406.95 253.651 406.95 253.122V253.108C406.95 252.753 406.868 252.457 406.704 252.22C406.54 251.983 406.294 251.805 405.966 251.687C405.642 251.563 405.239 251.502 404.756 251.502H401.864V250.333H404.448C405.127 250.333 405.64 250.21 405.986 249.964C406.333 249.713 406.506 249.349 406.506 248.87V248.856C406.506 248.392 406.349 248.032 406.034 247.776C405.72 247.517 405.278 247.387 404.708 247.387H401.864V246.136H405.07C405.686 246.136 406.214 246.236 406.656 246.437C407.103 246.637 407.445 246.922 407.682 247.291C407.919 247.656 408.037 248.089 408.037 248.59V248.604C408.037 248.95 407.96 249.273 407.805 249.574C407.65 249.87 407.442 250.121 407.183 250.326C406.923 250.531 406.629 250.661 406.301 250.716V250.832C406.747 250.878 407.137 251.007 407.47 251.222C407.802 251.436 408.062 251.714 408.249 252.056C408.436 252.393 408.529 252.776 408.529 253.204V253.218C408.529 253.792 408.393 254.289 408.119 254.708C407.85 255.123 407.465 255.442 406.964 255.665C406.463 255.888 405.861 256 405.159 256H401.864ZM401.099 256V246.136H402.63V256H401.099ZM413.465 256.144C412.74 256.144 412.114 255.989 411.585 255.679C411.061 255.369 410.658 254.927 410.375 254.353C410.092 253.774 409.951 253.088 409.951 252.295V252.281C409.951 251.484 410.092 250.798 410.375 250.224C410.662 249.649 411.068 249.207 411.592 248.897C412.12 248.588 412.745 248.433 413.465 248.433C414.189 248.433 414.814 248.588 415.338 248.897C415.862 249.203 416.265 249.645 416.548 250.224C416.835 250.798 416.979 251.484 416.979 252.281V252.295C416.979 253.088 416.835 253.774 416.548 254.353C416.265 254.927 415.862 255.369 415.338 255.679C414.818 255.989 414.194 256.144 413.465 256.144ZM413.465 254.899C413.889 254.899 414.249 254.797 414.545 254.592C414.841 254.382 415.067 254.084 415.222 253.696C415.377 253.309 415.454 252.842 415.454 252.295V252.281C415.454 251.73 415.377 251.26 415.222 250.873C415.067 250.486 414.841 250.189 414.545 249.984C414.249 249.775 413.889 249.67 413.465 249.67C413.041 249.67 412.681 249.775 412.385 249.984C412.089 250.189 411.861 250.486 411.701 250.873C411.546 251.26 411.469 251.73 411.469 252.281V252.295C411.469 252.842 411.546 253.309 411.701 253.696C411.861 254.084 412.089 254.382 412.385 254.592C412.681 254.797 413.041 254.899 413.465 254.899ZM418.742 256V248.576H420.226V249.697H420.342C420.474 249.301 420.706 248.993 421.039 248.774C421.376 248.556 421.791 248.446 422.283 248.446C422.406 248.446 422.527 248.453 422.646 248.467C422.764 248.48 422.86 248.496 422.933 248.515V249.882C422.8 249.854 422.668 249.834 422.536 249.82C422.409 249.807 422.274 249.8 422.133 249.8C421.755 249.8 421.422 249.873 421.135 250.019C420.852 250.164 420.629 250.369 420.465 250.634C420.305 250.894 420.226 251.203 420.226 251.563V256H418.742ZM426.877 256.123C426.257 256.123 425.715 255.968 425.25 255.658C424.79 255.344 424.432 254.899 424.177 254.325C423.926 253.751 423.801 253.074 423.801 252.295V252.281C423.801 251.497 423.926 250.818 424.177 250.244C424.427 249.67 424.783 249.228 425.243 248.918C425.703 248.604 426.248 248.446 426.877 248.446C427.219 248.446 427.538 248.501 427.834 248.61C428.13 248.715 428.392 248.866 428.62 249.062C428.848 249.253 429.028 249.483 429.16 249.752H429.27V245.664H430.76V256H429.27V254.831H429.16C429.014 255.1 428.83 255.332 428.606 255.528C428.383 255.72 428.126 255.868 427.834 255.973C427.542 256.073 427.223 256.123 426.877 256.123ZM427.301 254.852C427.711 254.852 428.066 254.749 428.367 254.544C428.668 254.339 428.898 254.045 429.058 253.662C429.217 253.275 429.297 252.819 429.297 252.295V252.281C429.297 251.753 429.215 251.297 429.051 250.914C428.891 250.531 428.661 250.237 428.36 250.032C428.064 249.823 427.711 249.718 427.301 249.718C426.891 249.718 426.535 249.823 426.234 250.032C425.938 250.237 425.71 250.531 425.551 250.914C425.396 251.292 425.318 251.748 425.318 252.281V252.295C425.318 252.824 425.396 253.279 425.551 253.662C425.71 254.045 425.938 254.339 426.234 254.544C426.535 254.749 426.891 254.852 427.301 254.852ZM436.078 256.144C435.354 256.144 434.731 255.989 434.212 255.679C433.692 255.364 433.291 254.92 433.009 254.346C432.731 253.771 432.592 253.092 432.592 252.309V252.302C432.592 251.527 432.731 250.85 433.009 250.271C433.291 249.693 433.688 249.242 434.198 248.918C434.713 248.594 435.315 248.433 436.003 248.433C436.696 248.433 437.29 248.588 437.787 248.897C438.288 249.207 438.674 249.643 438.942 250.203C439.211 250.759 439.346 251.411 439.346 252.158V252.678H433.344V251.618H438.607L437.896 252.603V252.008C437.896 251.479 437.814 251.042 437.65 250.695C437.491 250.344 437.27 250.082 436.987 249.909C436.705 249.736 436.379 249.649 436.01 249.649C435.641 249.649 435.31 249.741 435.019 249.923C434.731 250.101 434.504 250.365 434.335 250.716C434.171 251.067 434.089 251.497 434.089 252.008V252.603C434.089 253.09 434.171 253.507 434.335 253.854C434.499 254.2 434.731 254.464 435.032 254.646C435.338 254.829 435.698 254.92 436.112 254.92C436.431 254.92 436.705 254.877 436.933 254.79C437.165 254.699 437.354 254.587 437.5 254.455C437.65 254.323 437.753 254.193 437.808 254.065L437.835 254.011H439.271L439.257 254.072C439.193 254.318 439.081 254.564 438.922 254.811C438.762 255.052 438.55 255.273 438.286 255.474C438.026 255.674 437.712 255.836 437.343 255.959C436.978 256.082 436.557 256.144 436.078 256.144ZM441.109 256V248.576H442.593V249.697H442.709C442.841 249.301 443.074 248.993 443.406 248.774C443.743 248.556 444.158 248.446 444.65 248.446C444.773 248.446 444.894 248.453 445.013 248.467C445.131 248.48 445.227 248.496 445.3 248.515V249.882C445.168 249.854 445.035 249.834 444.903 249.82C444.776 249.807 444.641 249.8 444.5 249.8C444.122 249.8 443.789 249.873 443.502 250.019C443.219 250.164 442.996 250.369 442.832 250.634C442.673 250.894 442.593 251.203 442.593 251.563V256H441.109ZM453.216 256V247.462H450.112V246.136H457.851V247.462H454.747V256H453.216ZM459.621 256V245.664H461.104V249.697H461.221C461.403 249.301 461.672 248.991 462.027 248.768C462.383 248.544 462.832 248.433 463.374 248.433C463.925 248.433 464.393 248.54 464.775 248.754C465.158 248.968 465.45 249.283 465.65 249.697C465.851 250.107 465.951 250.606 465.951 251.194V256H464.461V251.543C464.461 250.923 464.331 250.463 464.071 250.162C463.816 249.857 463.415 249.704 462.868 249.704C462.508 249.704 462.196 249.784 461.932 249.943C461.667 250.098 461.462 250.322 461.316 250.613C461.175 250.9 461.104 251.244 461.104 251.646V256H459.621ZM468.036 256V248.576H469.526V256H468.036ZM468.788 247.25C468.533 247.25 468.314 247.159 468.132 246.977C467.95 246.794 467.858 246.576 467.858 246.32C467.858 246.065 467.95 245.849 468.132 245.671C468.314 245.489 468.533 245.397 468.788 245.397C469.043 245.397 469.262 245.489 469.444 245.671C469.627 245.849 469.718 246.065 469.718 246.32C469.718 246.576 469.627 246.794 469.444 246.977C469.262 247.159 469.043 247.25 468.788 247.25ZM474.804 256.144C474.084 256.144 473.462 255.989 472.938 255.679C472.418 255.364 472.017 254.918 471.734 254.339C471.452 253.76 471.311 253.07 471.311 252.268V252.254C471.311 251.465 471.45 250.786 471.728 250.217C472.01 249.647 472.411 249.207 472.931 248.897C473.455 248.588 474.077 248.433 474.797 248.433C475.421 248.433 475.957 248.542 476.403 248.761C476.854 248.975 477.212 249.271 477.477 249.649C477.745 250.023 477.914 250.449 477.982 250.928L477.989 250.962H476.561L476.554 250.948C476.472 250.584 476.283 250.281 475.986 250.039C475.69 249.793 475.296 249.67 474.804 249.67C474.394 249.67 474.04 249.775 473.744 249.984C473.448 250.189 473.22 250.486 473.061 250.873C472.906 251.26 472.828 251.721 472.828 252.254V252.268C472.828 252.814 472.908 253.284 473.067 253.676C473.227 254.068 473.455 254.371 473.751 254.585C474.047 254.795 474.398 254.899 474.804 254.899C475.269 254.899 475.645 254.797 475.932 254.592C476.223 254.387 476.428 254.084 476.547 253.683L476.561 253.648L477.982 253.642L477.969 253.703C477.882 254.186 477.707 254.61 477.442 254.975C477.178 255.339 476.825 255.626 476.383 255.836C475.945 256.041 475.419 256.144 474.804 256.144ZM479.732 256V245.664H481.216V256H479.732ZM484.408 256L481.742 252.521L482.843 251.598L486.22 256H484.408ZM481.072 253.45L481.011 251.7H481.332L484.271 248.576H486.015L482.665 251.967L482.091 252.438L481.072 253.45ZM487.566 256V248.576H489.05V249.697H489.166C489.348 249.301 489.617 248.991 489.973 248.768C490.328 248.544 490.777 248.433 491.319 248.433C492.153 248.433 492.791 248.672 493.233 249.15C493.675 249.629 493.896 250.31 493.896 251.194V256H492.406V251.543C492.406 250.923 492.276 250.463 492.017 250.162C491.761 249.857 491.36 249.704 490.813 249.704C490.453 249.704 490.141 249.784 489.877 249.943C489.613 250.098 489.408 250.322 489.262 250.613C489.12 250.9 489.05 251.244 489.05 251.646V256H487.566ZM499.078 256.144C498.354 256.144 497.731 255.989 497.212 255.679C496.692 255.364 496.291 254.92 496.009 254.346C495.731 253.771 495.592 253.092 495.592 252.309V252.302C495.592 251.527 495.731 250.85 496.009 250.271C496.291 249.693 496.688 249.242 497.198 248.918C497.713 248.594 498.315 248.433 499.003 248.433C499.696 248.433 500.29 248.588 500.787 248.897C501.288 249.207 501.674 249.643 501.942 250.203C502.211 250.759 502.346 251.411 502.346 252.158V252.678H496.344V251.618H501.607L500.896 252.603V252.008C500.896 251.479 500.814 251.042 500.65 250.695C500.491 250.344 500.27 250.082 499.987 249.909C499.705 249.736 499.379 249.649 499.01 249.649C498.641 249.649 498.31 249.741 498.019 249.923C497.731 250.101 497.504 250.365 497.335 250.716C497.171 251.067 497.089 251.497 497.089 252.008V252.603C497.089 253.09 497.171 253.507 497.335 253.854C497.499 254.2 497.731 254.464 498.032 254.646C498.338 254.829 498.698 254.92 499.112 254.92C499.431 254.92 499.705 254.877 499.933 254.79C500.165 254.699 500.354 254.587 500.5 254.455C500.65 254.323 500.753 254.193 500.808 254.065L500.835 254.011H502.271L502.257 254.072C502.193 254.318 502.081 254.564 501.922 254.811C501.762 255.052 501.55 255.273 501.286 255.474C501.026 255.674 500.712 255.836 500.343 255.959C499.978 256.082 499.557 256.144 499.078 256.144ZM506.81 256.144C506.213 256.144 505.693 256.057 505.251 255.884C504.809 255.706 504.458 255.462 504.198 255.152C503.938 254.838 503.786 254.473 503.74 254.059V254.045H505.23V254.059C505.326 254.337 505.508 254.562 505.777 254.735C506.046 254.909 506.402 254.995 506.844 254.995C507.149 254.995 507.416 254.952 507.644 254.865C507.876 254.779 508.058 254.658 508.19 254.503C508.323 254.348 508.389 254.17 508.389 253.97V253.956C508.389 253.724 508.295 253.528 508.108 253.368C507.922 253.209 507.614 253.079 507.186 252.979L505.996 252.705C505.531 252.6 505.146 252.457 504.841 252.274C504.535 252.092 504.31 251.869 504.164 251.604C504.018 251.336 503.945 251.021 503.945 250.661V250.654C503.945 250.221 504.068 249.839 504.314 249.506C504.561 249.169 504.9 248.907 505.333 248.72C505.771 248.528 506.27 248.433 506.83 248.433C507.395 248.433 507.887 248.521 508.307 248.699C508.73 248.872 509.065 249.114 509.312 249.424C509.558 249.729 509.703 250.085 509.749 250.49V250.497H508.327V250.483C508.259 250.224 508.095 250.007 507.835 249.834C507.58 249.661 507.243 249.574 506.823 249.574C506.554 249.574 506.315 249.618 506.105 249.704C505.896 249.786 505.729 249.902 505.606 250.053C505.488 250.199 505.429 250.372 505.429 250.572V250.586C505.429 250.741 505.467 250.878 505.545 250.996C505.627 251.11 505.755 251.213 505.928 251.304C506.101 251.39 506.324 251.468 506.598 251.536L507.78 251.803C508.491 251.971 509.02 252.215 509.366 252.534C509.717 252.853 509.893 253.282 509.893 253.819V253.833C509.893 254.289 509.758 254.692 509.489 255.043C509.22 255.389 508.854 255.66 508.389 255.856C507.928 256.048 507.402 256.144 506.81 256.144ZM514.22 256.144C513.623 256.144 513.103 256.057 512.661 255.884C512.219 255.706 511.868 255.462 511.608 255.152C511.349 254.838 511.196 254.473 511.15 254.059V254.045H512.641V254.059C512.736 254.337 512.919 254.562 513.188 254.735C513.456 254.909 513.812 254.995 514.254 254.995C514.559 254.995 514.826 254.952 515.054 254.865C515.286 254.779 515.468 254.658 515.601 254.503C515.733 254.348 515.799 254.17 515.799 253.97V253.956C515.799 253.724 515.705 253.528 515.519 253.368C515.332 253.209 515.024 253.079 514.596 252.979L513.406 252.705C512.941 252.6 512.556 252.457 512.251 252.274C511.946 252.092 511.72 251.869 511.574 251.604C511.428 251.336 511.355 251.021 511.355 250.661V250.654C511.355 250.221 511.479 249.839 511.725 249.506C511.971 249.169 512.31 248.907 512.743 248.72C513.181 248.528 513.68 248.433 514.24 248.433C514.805 248.433 515.298 248.521 515.717 248.699C516.141 248.872 516.476 249.114 516.722 249.424C516.968 249.729 517.114 250.085 517.159 250.49V250.497H515.737V250.483C515.669 250.224 515.505 250.007 515.245 249.834C514.99 249.661 514.653 249.574 514.233 249.574C513.965 249.574 513.725 249.618 513.516 249.704C513.306 249.786 513.14 249.902 513.017 250.053C512.898 250.199 512.839 250.372 512.839 250.572V250.586C512.839 250.741 512.878 250.878 512.955 250.996C513.037 251.11 513.165 251.213 513.338 251.304C513.511 251.39 513.734 251.468 514.008 251.536L515.19 251.803C515.901 251.971 516.43 252.215 516.776 252.534C517.127 252.853 517.303 253.282 517.303 253.819V253.833C517.303 254.289 517.168 254.692 516.899 255.043C516.631 255.389 516.264 255.66 515.799 255.856C515.339 256.048 514.812 256.144 514.22 256.144Z" fill="#484848"/>
<path d="M487.783 277V275.655L492.002 271.234C492.564 270.654 493.001 270.174 493.312 269.793C493.628 269.412 493.848 269.072 493.971 268.773C494.094 268.475 494.155 268.155 494.155 267.815V267.798C494.155 267.382 494.064 267.013 493.883 266.69C493.707 266.368 493.452 266.113 493.118 265.926C492.784 265.738 492.386 265.645 491.923 265.645C491.454 265.645 491.038 265.744 490.675 265.943C490.317 266.137 490.039 266.406 489.84 266.752C489.641 267.098 489.541 267.502 489.541 267.965V267.991L487.678 267.982L487.669 267.965C487.675 267.191 487.862 266.509 488.231 265.917C488.601 265.319 489.113 264.854 489.77 264.52C490.426 264.18 491.179 264.01 492.028 264.01C492.819 264.01 493.522 264.165 494.138 264.476C494.759 264.786 495.245 265.211 495.597 265.75C495.954 266.289 496.133 266.91 496.133 267.613V267.631C496.133 268.111 496.045 268.577 495.869 269.028C495.699 269.479 495.397 269.975 494.964 270.514C494.536 271.053 493.938 271.703 493.171 272.465L489.954 275.664L490.473 274.759V275.664L489.963 275.312H496.335V277H487.783ZM498.875 280.173V267.464H500.782V268.976H500.923C501.11 268.624 501.348 268.325 501.635 268.079C501.922 267.827 502.253 267.637 502.628 267.508C503.003 267.373 503.413 267.306 503.858 267.306C504.661 267.306 505.358 267.508 505.95 267.912C506.542 268.316 506.999 268.888 507.321 269.626C507.644 270.358 507.805 271.226 507.805 272.228V272.245C507.805 273.247 507.644 274.117 507.321 274.855C506.999 275.588 506.542 276.156 505.95 276.561C505.364 276.965 504.667 277.167 503.858 277.167C503.419 277.167 503.009 277.1 502.628 276.965C502.247 276.824 501.91 276.628 501.617 276.376C501.33 276.124 501.099 275.828 500.923 275.488H500.782V280.173H498.875ZM503.313 275.523C503.847 275.523 504.301 275.392 504.676 275.128C505.057 274.864 505.35 274.486 505.555 273.994C505.76 273.502 505.862 272.919 505.862 272.245V272.228C505.862 271.542 505.76 270.956 505.555 270.47C505.35 269.978 505.057 269.6 504.676 269.336C504.301 269.072 503.847 268.94 503.313 268.94C502.786 268.94 502.329 269.072 501.942 269.336C501.562 269.6 501.269 269.978 501.063 270.47C500.858 270.956 500.756 271.539 500.756 272.219V272.236C500.756 272.91 500.858 273.496 501.063 273.994C501.269 274.486 501.562 274.864 501.942 275.128C502.329 275.392 502.786 275.523 503.313 275.523ZM508.842 277L512.006 272.254L508.815 267.464H511.03L513.087 270.874H513.228L515.258 267.464H517.367L514.221 272.175L517.402 277H515.231L513.148 273.563H513.008L510.925 277H508.842Z" fill="black"/>
<path d="M442.524 94V84.1357H444.295L447.433 91.9971H447.549L450.687 84.1357H452.457V94H451.056V86.7676H450.297L451.896 84.4092L448.055 94H446.92L443.085 84.4092L444.678 86.7676H443.926V94H442.524ZM456.791 94.123C456.322 94.123 455.9 94.0342 455.526 93.8564C455.157 93.6742 454.866 93.4167 454.651 93.084C454.437 92.7513 454.33 92.3617 454.33 91.915V91.9014C454.33 91.4548 454.437 91.0742 454.651 90.7598C454.87 90.4453 455.185 90.1992 455.595 90.0215C456.009 89.8392 456.511 89.7298 457.099 89.6934L459.84 89.5293V90.5752L457.304 90.7393C456.793 90.7712 456.417 90.8805 456.176 91.0674C455.934 91.2497 455.813 91.5072 455.813 91.8398V91.8535C455.813 92.1908 455.943 92.4574 456.203 92.6533C456.463 92.8447 456.791 92.9404 457.188 92.9404C457.557 92.9404 457.885 92.8675 458.172 92.7217C458.464 92.5713 458.691 92.3708 458.855 92.1201C459.02 91.8649 459.102 91.5778 459.102 91.2588V88.9209C459.102 88.5107 458.974 88.1986 458.719 87.9844C458.468 87.7656 458.094 87.6562 457.598 87.6562C457.183 87.6562 456.843 87.7292 456.579 87.875C456.319 88.0208 456.146 88.2259 456.06 88.4902L456.046 88.5107H454.617L454.624 88.4629C454.683 88.0527 454.845 87.6973 455.109 87.3965C455.378 87.0911 455.729 86.8542 456.162 86.6855C456.6 86.5169 457.099 86.4326 457.659 86.4326C458.284 86.4326 458.812 86.5329 459.245 86.7334C459.683 86.9294 460.013 87.2142 460.236 87.5879C460.464 87.957 460.578 88.4014 460.578 88.9209V94H459.102V92.9473H458.992C458.846 93.1979 458.664 93.4121 458.445 93.5898C458.227 93.763 457.978 93.8952 457.7 93.9863C457.422 94.0775 457.119 94.123 456.791 94.123ZM462.096 94L464.563 90.3018L462.075 86.5762H463.798L465.397 89.2285H465.514L467.093 86.5762H468.733L466.286 90.2402L468.761 94H467.072L465.452 91.3271H465.336L463.716 94H462.096ZM474.284 94V84.1357H475.815V88.3057H480.874V84.1357H482.412V94H480.874V89.6318H475.815V94H474.284ZM487.84 94.1436C487.115 94.1436 486.493 93.9886 485.974 93.6787C485.454 93.3643 485.053 92.9199 484.771 92.3457C484.493 91.7715 484.354 91.0924 484.354 90.3086V90.3018C484.354 89.527 484.493 88.8503 484.771 88.2715C485.053 87.6927 485.45 87.2415 485.96 86.918C486.475 86.5944 487.076 86.4326 487.765 86.4326C488.457 86.4326 489.052 86.5876 489.549 86.8975C490.05 87.2074 490.435 87.6426 490.704 88.2031C490.973 88.7591 491.107 89.4108 491.107 90.1582V90.6777H485.105V89.6182H490.369L489.658 90.6025V90.0078C489.658 89.4792 489.576 89.0417 489.412 88.6953C489.253 88.3444 489.032 88.0824 488.749 87.9092C488.466 87.736 488.141 87.6494 487.771 87.6494C487.402 87.6494 487.072 87.7406 486.78 87.9229C486.493 88.1006 486.265 88.3649 486.097 88.7158C485.933 89.0667 485.851 89.4974 485.851 90.0078V90.6025C485.851 91.0902 485.933 91.5072 486.097 91.8535C486.261 92.1999 486.493 92.4642 486.794 92.6465C487.099 92.8288 487.459 92.9199 487.874 92.9199C488.193 92.9199 488.466 92.8766 488.694 92.79C488.927 92.6989 489.116 92.5872 489.262 92.4551C489.412 92.3229 489.515 92.193 489.569 92.0654L489.597 92.0107H491.032L491.019 92.0723C490.955 92.3184 490.843 92.5645 490.684 92.8105C490.524 93.0521 490.312 93.2731 490.048 93.4736C489.788 93.6742 489.474 93.8359 489.104 93.959C488.74 94.082 488.318 94.1436 487.84 94.1436ZM492.892 94V86.5762H494.382V94H492.892ZM493.644 85.25C493.388 85.25 493.17 85.1589 492.987 84.9766C492.805 84.7943 492.714 84.5755 492.714 84.3203C492.714 84.0651 492.805 83.8486 492.987 83.6709C493.17 83.4886 493.388 83.3975 493.644 83.3975C493.899 83.3975 494.118 83.4886 494.3 83.6709C494.482 83.8486 494.573 84.0651 494.573 84.3203C494.573 84.5755 494.482 84.7943 494.3 84.9766C494.118 85.1589 493.899 85.25 493.644 85.25ZM499.673 96.6182C499.044 96.6182 498.497 96.5316 498.032 96.3584C497.572 96.1852 497.207 95.9437 496.938 95.6338C496.67 95.3239 496.506 94.9639 496.446 94.5537L496.453 94.54H497.957L497.964 94.5537C498.028 94.8089 498.208 95.0186 498.504 95.1826C498.8 95.3467 499.197 95.4287 499.693 95.4287C500.304 95.4287 500.78 95.2897 501.122 95.0117C501.468 94.7337 501.642 94.3441 501.642 93.8428V92.3867H501.525C501.38 92.651 501.193 92.8789 500.965 93.0703C500.737 93.2572 500.477 93.3984 500.186 93.4941C499.894 93.5898 499.577 93.6377 499.235 93.6377C498.606 93.6377 498.06 93.4873 497.595 93.1865C497.134 92.8812 496.779 92.4619 496.528 91.9287C496.282 91.391 496.159 90.7734 496.159 90.0762V90.0625C496.159 89.3561 496.285 88.7318 496.535 88.1895C496.786 87.6426 497.144 87.2165 497.608 86.9111C498.073 86.6012 498.627 86.4463 499.27 86.4463C499.616 86.4463 499.933 86.501 500.22 86.6104C500.511 86.7197 500.769 86.8747 500.992 87.0752C501.215 87.2757 501.4 87.515 501.546 87.793H501.635V86.5762H503.118V93.8496C503.118 94.4102 502.977 94.8978 502.694 95.3125C502.416 95.7272 502.02 96.0485 501.505 96.2764C500.99 96.5042 500.379 96.6182 499.673 96.6182ZM499.652 92.4072C500.072 92.4072 500.432 92.3092 500.732 92.1133C501.033 91.9128 501.263 91.637 501.423 91.2861C501.587 90.9352 501.669 90.5296 501.669 90.0693V90.0557C501.669 89.5999 501.587 89.1943 501.423 88.8389C501.263 88.4834 501.033 88.2054 500.732 88.0049C500.432 87.8044 500.072 87.7041 499.652 87.7041C499.233 87.7041 498.875 87.8044 498.579 88.0049C498.287 88.2054 498.064 88.4834 497.909 88.8389C497.754 89.1898 497.677 89.5954 497.677 90.0557V90.0693C497.677 90.5296 497.754 90.9352 497.909 91.2861C498.064 91.637 498.287 91.9128 498.579 92.1133C498.875 92.3092 499.233 92.4072 499.652 92.4072ZM505.326 94V83.6641H506.81V87.6973H506.926C507.108 87.3008 507.377 86.9909 507.732 86.7676C508.088 86.5443 508.537 86.4326 509.079 86.4326C509.631 86.4326 510.098 86.5397 510.48 86.7539C510.863 86.9681 511.155 87.2826 511.355 87.6973C511.556 88.1074 511.656 88.6064 511.656 89.1943V94H510.166V89.543C510.166 88.9232 510.036 88.4629 509.776 88.1621C509.521 87.8568 509.12 87.7041 508.573 87.7041C508.213 87.7041 507.901 87.7839 507.637 87.9434C507.372 88.0983 507.167 88.3216 507.021 88.6133C506.88 88.9004 506.81 89.2445 506.81 89.6455V94H505.326ZM516.523 94.0479C515.712 94.0479 515.124 93.8929 514.76 93.583C514.4 93.2686 514.22 92.7559 514.22 92.0449V87.7451H513.058V86.5762H514.22V84.7031H515.737V86.5762H517.33V87.7451H515.737V91.6826C515.737 92.0837 515.817 92.373 515.977 92.5508C516.136 92.724 516.4 92.8105 516.77 92.8105C516.879 92.8105 516.972 92.8083 517.05 92.8037C517.132 92.7992 517.225 92.7923 517.33 92.7832V93.9727C517.212 93.9909 517.084 94.0068 516.947 94.0205C516.811 94.0387 516.669 94.0479 516.523 94.0479Z" fill="#484848"/>
<path d="M480.119 115.308C479.48 115.308 478.865 115.188 478.273 114.947C477.682 114.707 477.151 114.332 476.683 113.822C476.22 113.312 475.851 112.647 475.575 111.827C475.306 111.007 475.171 110.014 475.171 108.848V108.83C475.171 107.4 475.37 106.179 475.769 105.165C476.173 104.146 476.747 103.366 477.491 102.827C478.241 102.288 479.141 102.019 480.189 102.019C480.939 102.019 481.613 102.156 482.211 102.432C482.814 102.701 483.315 103.079 483.714 103.565C484.118 104.046 484.388 104.608 484.522 105.253L484.549 105.35H482.589L482.554 105.262C482.437 104.939 482.267 104.661 482.044 104.427C481.821 104.192 481.555 104.011 481.244 103.882C480.934 103.753 480.579 103.688 480.181 103.688C479.466 103.688 478.883 103.896 478.432 104.312C477.986 104.729 477.655 105.285 477.438 105.982C477.222 106.68 477.096 107.45 477.061 108.294C477.055 108.37 477.052 108.449 477.052 108.531C477.052 108.613 477.052 108.695 477.052 108.777L477.438 110.896C477.438 111.411 477.556 111.877 477.79 112.293C478.03 112.709 478.35 113.04 478.748 113.286C479.152 113.526 479.604 113.646 480.102 113.646C480.594 113.646 481.042 113.526 481.446 113.286C481.851 113.046 482.17 112.724 482.404 112.319C482.645 111.909 482.765 111.452 482.765 110.948V110.931C482.765 110.409 482.65 109.949 482.422 109.551C482.193 109.146 481.88 108.83 481.481 108.602C481.089 108.367 480.635 108.25 480.119 108.25C479.615 108.25 479.161 108.364 478.757 108.593C478.353 108.821 478.03 109.135 477.79 109.533C477.556 109.926 477.438 110.377 477.438 110.887V110.896H476.911V108.593H477.219C477.377 108.247 477.605 107.928 477.904 107.635C478.209 107.342 478.584 107.107 479.029 106.932C479.475 106.75 479.984 106.659 480.559 106.659C481.367 106.659 482.082 106.844 482.703 107.213C483.33 107.576 483.819 108.074 484.171 108.707C484.528 109.34 484.707 110.061 484.707 110.869V110.887C484.707 111.742 484.511 112.501 484.118 113.163C483.726 113.825 483.184 114.35 482.492 114.736C481.801 115.117 481.01 115.308 480.119 115.308ZM491.668 115.308C490.689 115.308 489.849 115.038 489.146 114.499C488.448 113.96 487.912 113.192 487.537 112.196C487.162 111.2 486.975 110.022 486.975 108.663V108.646C486.975 107.286 487.162 106.111 487.537 105.121C487.912 104.125 488.448 103.357 489.146 102.818C489.849 102.279 490.689 102.01 491.668 102.01C492.646 102.01 493.484 102.279 494.182 102.818C494.885 103.357 495.424 104.125 495.799 105.121C496.174 106.111 496.361 107.286 496.361 108.646V108.663C496.361 110.022 496.174 111.2 495.799 112.196C495.424 113.192 494.885 113.96 494.182 114.499C493.484 115.038 492.646 115.308 491.668 115.308ZM491.668 113.664C492.236 113.664 492.723 113.462 493.127 113.058C493.531 112.653 493.839 112.079 494.05 111.335C494.267 110.585 494.375 109.694 494.375 108.663V108.646C494.375 107.614 494.267 106.727 494.05 105.982C493.839 105.238 493.531 104.667 493.127 104.269C492.723 103.864 492.236 103.662 491.668 103.662C491.1 103.662 490.613 103.864 490.209 104.269C489.811 104.667 489.503 105.238 489.286 105.982C489.075 106.727 488.97 107.614 488.97 108.646V108.663C488.97 109.694 489.075 110.585 489.286 111.335C489.503 112.079 489.811 112.653 490.209 113.058C490.613 113.462 491.1 113.664 491.668 113.664ZM498.875 118.173V105.464H500.782V106.976H500.923C501.11 106.624 501.348 106.325 501.635 106.079C501.922 105.827 502.253 105.637 502.628 105.508C503.003 105.373 503.413 105.306 503.858 105.306C504.661 105.306 505.358 105.508 505.95 105.912C506.542 106.316 506.999 106.888 507.321 107.626C507.644 108.358 507.805 109.226 507.805 110.228V110.245C507.805 111.247 507.644 112.117 507.321 112.855C506.999 113.588 506.542 114.156 505.95 114.561C505.364 114.965 504.667 115.167 503.858 115.167C503.419 115.167 503.009 115.1 502.628 114.965C502.247 114.824 501.91 114.628 501.617 114.376C501.33 114.124 501.099 113.828 500.923 113.488H500.782V118.173H498.875ZM503.313 113.523C503.847 113.523 504.301 113.392 504.676 113.128C505.057 112.864 505.35 112.486 505.555 111.994C505.76 111.502 505.862 110.919 505.862 110.245V110.228C505.862 109.542 505.76 108.956 505.555 108.47C505.35 107.978 505.057 107.6 504.676 107.336C504.301 107.072 503.847 106.94 503.313 106.94C502.786 106.94 502.329 107.072 501.942 107.336C501.562 107.6 501.269 107.978 501.063 108.47C500.858 108.956 500.756 109.539 500.756 110.219V110.236C500.756 110.91 500.858 111.496 501.063 111.994C501.269 112.486 501.562 112.864 501.942 113.128C502.329 113.392 502.786 113.523 503.313 113.523ZM508.842 115L512.006 110.254L508.815 105.464H511.03L513.087 108.874H513.228L515.258 105.464H517.367L514.221 110.175L517.402 115H515.231L513.148 111.563H513.008L510.925 115H508.842Z" fill="black"/>
<path d="M620.585 164V154.136H622.355L625.493 161.997H625.609L628.747 154.136H630.518V164H629.116V156.768H628.357L629.957 154.409L626.115 164H624.98L621.146 154.409L622.738 156.768H621.986V164H620.585ZM632.835 164V156.576H634.325V164H632.835ZM633.587 155.25C633.332 155.25 633.113 155.159 632.931 154.977C632.748 154.794 632.657 154.576 632.657 154.32C632.657 154.065 632.748 153.849 632.931 153.671C633.113 153.489 633.332 153.397 633.587 153.397C633.842 153.397 634.061 153.489 634.243 153.671C634.425 153.849 634.517 154.065 634.517 154.32C634.517 154.576 634.425 154.794 634.243 154.977C634.061 155.159 633.842 155.25 633.587 155.25ZM636.479 164V156.576H637.962V157.697H638.078C638.26 157.301 638.529 156.991 638.885 156.768C639.24 156.544 639.689 156.433 640.231 156.433C641.065 156.433 641.703 156.672 642.146 157.15C642.588 157.629 642.809 158.31 642.809 159.194V164H641.318V159.543C641.318 158.923 641.188 158.463 640.929 158.162C640.674 157.857 640.272 157.704 639.726 157.704C639.366 157.704 639.053 157.784 638.789 157.943C638.525 158.098 638.32 158.322 638.174 158.613C638.033 158.9 637.962 159.244 637.962 159.646V164H636.479ZM650.889 164L648.229 154.136H649.829L651.641 161.799H651.729L653.787 154.136H655.216L657.287 161.799H657.376L659.181 154.136H660.773L658.114 164H656.665L654.546 156.631H654.457L652.338 164H650.889ZM662.476 164V156.576H663.966V164H662.476ZM663.228 155.25C662.972 155.25 662.754 155.159 662.571 154.977C662.389 154.794 662.298 154.576 662.298 154.32C662.298 154.065 662.389 153.849 662.571 153.671C662.754 153.489 662.972 153.397 663.228 153.397C663.483 153.397 663.701 153.489 663.884 153.671C664.066 153.849 664.157 154.065 664.157 154.32C664.157 154.576 664.066 154.794 663.884 154.977C663.701 155.159 663.483 155.25 663.228 155.25ZM668.826 164.123C668.206 164.123 667.664 163.968 667.199 163.658C666.739 163.344 666.381 162.899 666.126 162.325C665.875 161.751 665.75 161.074 665.75 160.295V160.281C665.75 159.497 665.875 158.818 666.126 158.244C666.377 157.67 666.732 157.228 667.192 156.918C667.653 156.604 668.197 156.446 668.826 156.446C669.168 156.446 669.487 156.501 669.783 156.61C670.079 156.715 670.341 156.866 670.569 157.062C670.797 157.253 670.977 157.483 671.109 157.752H671.219V153.664H672.709V164H671.219V162.831H671.109C670.964 163.1 670.779 163.332 670.556 163.528C670.332 163.72 670.075 163.868 669.783 163.973C669.492 164.073 669.173 164.123 668.826 164.123ZM669.25 162.852C669.66 162.852 670.016 162.749 670.316 162.544C670.617 162.339 670.847 162.045 671.007 161.662C671.166 161.275 671.246 160.819 671.246 160.295V160.281C671.246 159.753 671.164 159.297 671 158.914C670.84 158.531 670.61 158.237 670.31 158.032C670.013 157.823 669.66 157.718 669.25 157.718C668.84 157.718 668.484 157.823 668.184 158.032C667.887 158.237 667.66 158.531 667.5 158.914C667.345 159.292 667.268 159.748 667.268 160.281V160.295C667.268 160.824 667.345 161.279 667.5 161.662C667.66 162.045 667.887 162.339 668.184 162.544C668.484 162.749 668.84 162.852 669.25 162.852ZM677.713 164.048C676.902 164.048 676.314 163.893 675.949 163.583C675.589 163.269 675.409 162.756 675.409 162.045V157.745H674.247V156.576H675.409V154.703H676.927V156.576H678.52V157.745H676.927V161.683C676.927 162.084 677.007 162.373 677.166 162.551C677.326 162.724 677.59 162.811 677.959 162.811C678.068 162.811 678.162 162.808 678.239 162.804C678.321 162.799 678.415 162.792 678.52 162.783V163.973C678.401 163.991 678.273 164.007 678.137 164.021C678 164.039 677.859 164.048 677.713 164.048ZM680.324 164V153.664H681.808V157.697H681.924C682.106 157.301 682.375 156.991 682.73 156.768C683.086 156.544 683.535 156.433 684.077 156.433C684.629 156.433 685.096 156.54 685.479 156.754C685.861 156.968 686.153 157.283 686.354 157.697C686.554 158.107 686.654 158.606 686.654 159.194V164H685.164V159.543C685.164 158.923 685.034 158.463 684.774 158.162C684.519 157.857 684.118 157.704 683.571 157.704C683.211 157.704 682.899 157.784 682.635 157.943C682.37 158.098 682.165 158.322 682.02 158.613C681.878 158.9 681.808 159.244 681.808 159.646V164H680.324Z" fill="#484848"/>
<path d="M631.967 185V174.348H631.826L628.636 176.624V174.69L631.976 172.317H633.944V185H631.967ZM641.863 172.01C642.502 172.01 643.117 172.13 643.709 172.37C644.301 172.61 644.828 172.985 645.291 173.495C645.76 174.005 646.129 174.67 646.398 175.49C646.674 176.311 646.812 177.304 646.812 178.47V178.487C646.812 179.917 646.609 181.142 646.205 182.161C645.807 183.175 645.232 183.951 644.482 184.49C643.738 185.029 642.842 185.299 641.793 185.299C641.043 185.299 640.366 185.164 639.763 184.895C639.165 184.619 638.667 184.238 638.269 183.752C637.87 183.266 637.601 182.703 637.46 182.064L637.434 181.968H639.394L639.429 182.056C639.552 182.372 639.722 182.65 639.938 182.891C640.161 183.125 640.428 183.307 640.738 183.436C641.055 183.564 641.409 183.629 641.802 183.629C642.517 183.629 643.097 183.421 643.542 183.005C643.993 182.589 644.327 182.032 644.544 181.335C644.767 180.632 644.893 179.861 644.922 179.023C644.928 178.941 644.931 178.859 644.931 178.777C644.931 178.695 644.931 178.616 644.931 178.54L644.544 176.422C644.544 175.906 644.424 175.44 644.184 175.024C643.949 174.608 643.633 174.28 643.234 174.04C642.836 173.794 642.385 173.671 641.881 173.671C641.395 173.671 640.949 173.791 640.545 174.031C640.141 174.271 639.818 174.597 639.578 175.007C639.338 175.411 639.218 175.865 639.218 176.369V176.387C639.218 176.908 639.332 177.371 639.561 177.775C639.789 178.174 640.103 178.49 640.501 178.725C640.899 178.953 641.354 179.067 641.863 179.067C642.373 179.067 642.827 178.953 643.226 178.725C643.63 178.496 643.949 178.186 644.184 177.793C644.424 177.395 644.544 176.94 644.544 176.431V176.422H645.071V178.725H644.764C644.611 179.064 644.383 179.384 644.078 179.683C643.773 179.976 643.398 180.213 642.953 180.395C642.508 180.57 641.998 180.658 641.424 180.658C640.621 180.658 639.906 180.477 639.279 180.113C638.658 179.744 638.169 179.243 637.812 178.61C637.454 177.972 637.275 177.251 637.275 176.448V176.431C637.275 175.575 637.472 174.816 637.864 174.154C638.257 173.486 638.799 172.962 639.49 172.581C640.188 172.2 640.979 172.01 641.863 172.01ZM649.272 185V183.655L653.491 179.234C654.054 178.654 654.49 178.174 654.801 177.793C655.117 177.412 655.337 177.072 655.46 176.773C655.583 176.475 655.645 176.155 655.645 175.815V175.798C655.645 175.382 655.554 175.013 655.372 174.69C655.196 174.368 654.941 174.113 654.607 173.926C654.273 173.738 653.875 173.645 653.412 173.645C652.943 173.645 652.527 173.744 652.164 173.943C651.807 174.137 651.528 174.406 651.329 174.752C651.13 175.098 651.03 175.502 651.03 175.965V175.991L649.167 175.982L649.158 175.965C649.164 175.191 649.352 174.509 649.721 173.917C650.09 173.319 650.603 172.854 651.259 172.52C651.915 172.18 652.668 172.01 653.518 172.01C654.309 172.01 655.012 172.165 655.627 172.476C656.248 172.786 656.734 173.211 657.086 173.75C657.443 174.289 657.622 174.91 657.622 175.613V175.631C657.622 176.111 657.534 176.577 657.358 177.028C657.188 177.479 656.887 177.975 656.453 178.514C656.025 179.053 655.428 179.703 654.66 180.465L651.443 183.664L651.962 182.759V183.664L651.452 183.312H657.824V185H649.272ZM660.364 188.173V175.464H662.271V176.976H662.412C662.6 176.624 662.837 176.325 663.124 176.079C663.411 175.827 663.742 175.637 664.117 175.508C664.492 175.373 664.902 175.306 665.348 175.306C666.15 175.306 666.848 175.508 667.439 175.912C668.031 176.316 668.488 176.888 668.811 177.626C669.133 178.358 669.294 179.226 669.294 180.228V180.245C669.294 181.247 669.133 182.117 668.811 182.855C668.488 183.588 668.031 184.156 667.439 184.561C666.854 184.965 666.156 185.167 665.348 185.167C664.908 185.167 664.498 185.1 664.117 184.965C663.736 184.824 663.399 184.628 663.106 184.376C662.819 184.124 662.588 183.828 662.412 183.488H662.271V188.173H660.364ZM664.803 183.523C665.336 183.523 665.79 183.392 666.165 183.128C666.546 182.864 666.839 182.486 667.044 181.994C667.249 181.502 667.352 180.919 667.352 180.245V180.228C667.352 179.542 667.249 178.956 667.044 178.47C666.839 177.978 666.546 177.6 666.165 177.336C665.79 177.072 665.336 176.94 664.803 176.94C664.275 176.94 663.818 177.072 663.432 177.336C663.051 177.6 662.758 177.978 662.553 178.47C662.348 178.956 662.245 179.539 662.245 180.219V180.236C662.245 180.91 662.348 181.496 662.553 181.994C662.758 182.486 663.051 182.864 663.432 183.128C663.818 183.392 664.275 183.523 664.803 183.523ZM670.331 185L673.495 180.254L670.305 175.464H672.52L674.576 178.874H674.717L676.747 175.464H678.856L675.71 180.175L678.892 185H676.721L674.638 181.563H674.497L672.414 185H670.331Z" fill="black"/>
<rect x="559" y="379" width="190" height="49" rx="7" fill="#DDDDDD"/>
<rect x="559" y="379" width="190" height="49" rx="7" stroke="#DDDDDD" stroke-width="2"/>
<path d="M621.117 409V397.727H625.344C626.464 397.727 627.417 397.945 628.203 398.383C628.995 398.82 629.599 399.456 630.016 400.289C630.438 401.122 630.648 402.128 630.648 403.305V403.32C630.648 404.523 630.44 405.549 630.023 406.398C629.607 407.242 629.003 407.888 628.211 408.336C627.424 408.779 626.469 409 625.344 409H621.117ZM623.133 407.305H625.078C625.823 407.305 626.458 407.151 626.984 406.844C627.51 406.536 627.909 406.089 628.18 405.5C628.456 404.911 628.594 404.195 628.594 403.352V403.336C628.594 402.513 628.453 401.81 628.172 401.227C627.896 400.638 627.495 400.19 626.969 399.883C626.443 399.576 625.812 399.422 625.078 399.422H623.133V407.305ZM632.781 409V400.461H634.719V409H632.781ZM633.758 399.031C633.44 399.031 633.167 398.919 632.938 398.695C632.708 398.471 632.594 398.203 632.594 397.891C632.594 397.568 632.708 397.297 632.938 397.078C633.167 396.854 633.44 396.742 633.758 396.742C634.076 396.742 634.346 396.854 634.57 397.078C634.799 397.297 634.914 397.568 634.914 397.891C634.914 398.203 634.799 398.471 634.57 398.695C634.346 398.919 634.076 399.031 633.758 399.031ZM640.344 409.172C639.62 409.172 638.995 409.07 638.469 408.867C637.948 408.659 637.536 408.372 637.234 408.008C636.932 407.638 636.753 407.211 636.695 406.727V406.711H638.625L638.633 406.727C638.737 407.023 638.932 407.266 639.219 407.453C639.505 407.641 639.891 407.734 640.375 407.734C640.698 407.734 640.982 407.69 641.227 407.602C641.471 407.508 641.664 407.38 641.805 407.219C641.945 407.057 642.016 406.87 642.016 406.656V406.641C642.016 406.391 641.914 406.182 641.711 406.016C641.508 405.844 641.172 405.706 640.703 405.602L639.32 405.289C638.779 405.169 638.331 405.003 637.977 404.789C637.622 404.576 637.357 404.312 637.18 404C637.008 403.688 636.922 403.323 636.922 402.906V402.898C636.922 402.383 637.065 401.93 637.352 401.539C637.643 401.148 638.047 400.844 638.562 400.625C639.078 400.406 639.672 400.297 640.344 400.297C641.036 400.297 641.633 400.401 642.133 400.609C642.633 400.818 643.023 401.104 643.305 401.469C643.586 401.833 643.747 402.247 643.789 402.711V402.727H641.961L641.953 402.703C641.88 402.432 641.706 402.203 641.43 402.016C641.159 401.823 640.794 401.727 640.336 401.727C640.049 401.727 639.792 401.771 639.562 401.859C639.339 401.948 639.161 402.073 639.031 402.234C638.906 402.391 638.844 402.576 638.844 402.789V402.797C638.844 402.964 638.885 403.109 638.969 403.234C639.057 403.359 639.195 403.469 639.383 403.562C639.57 403.656 639.818 403.74 640.125 403.812L641.508 404.117C642.346 404.305 642.966 404.583 643.367 404.953C643.768 405.323 643.969 405.82 643.969 406.445V406.461C643.969 407.003 643.812 407.477 643.5 407.883C643.188 408.289 642.758 408.607 642.211 408.836C641.664 409.06 641.042 409.172 640.344 409.172ZM648.258 409.141C647.721 409.141 647.24 409.036 646.812 408.828C646.391 408.62 646.057 408.326 645.812 407.945C645.573 407.56 645.453 407.107 645.453 406.586V406.57C645.453 406.065 645.578 405.63 645.828 405.266C646.078 404.896 646.445 404.607 646.93 404.398C647.414 404.19 648.003 404.068 648.695 404.031L651.852 403.836V405.117L648.969 405.305C648.422 405.336 648.018 405.451 647.758 405.648C647.497 405.846 647.367 406.122 647.367 406.477V406.492C647.367 406.857 647.505 407.141 647.781 407.344C648.062 407.547 648.419 407.648 648.852 407.648C649.242 407.648 649.591 407.57 649.898 407.414C650.206 407.258 650.448 407.047 650.625 406.781C650.802 406.51 650.891 406.206 650.891 405.867V403.164C650.891 402.737 650.755 402.411 650.484 402.188C650.214 401.958 649.812 401.844 649.281 401.844C648.839 401.844 648.477 401.922 648.195 402.078C647.914 402.229 647.724 402.445 647.625 402.727L647.617 402.758H645.781L645.789 402.688C645.852 402.208 646.039 401.789 646.352 401.43C646.664 401.07 647.078 400.792 647.594 400.594C648.109 400.396 648.703 400.297 649.375 400.297C650.115 400.297 650.74 400.411 651.25 400.641C651.76 400.865 652.148 401.193 652.414 401.625C652.68 402.052 652.812 402.565 652.812 403.164V409H650.891V407.828H650.758C650.602 408.099 650.398 408.333 650.148 408.531C649.904 408.729 649.622 408.88 649.305 408.984C648.987 409.089 648.638 409.141 648.258 409.141ZM659.898 409.141C659.497 409.141 659.13 409.083 658.797 408.969C658.464 408.849 658.169 408.68 657.914 408.461C657.664 408.237 657.461 407.971 657.305 407.664H657.172V409H655.227V397.156H657.172V401.82H657.305C657.456 401.513 657.659 401.247 657.914 401.023C658.169 400.799 658.466 400.628 658.805 400.508C659.143 400.383 659.508 400.32 659.898 400.32C660.617 400.32 661.237 400.5 661.758 400.859C662.284 401.214 662.69 401.721 662.977 402.383C663.263 403.039 663.406 403.82 663.406 404.727V404.742C663.406 405.638 663.26 406.417 662.969 407.078C662.682 407.74 662.276 408.25 661.75 408.609C661.229 408.964 660.612 409.141 659.898 409.141ZM659.289 407.5C659.732 407.5 660.112 407.391 660.43 407.172C660.747 406.948 660.992 406.63 661.164 406.219C661.336 405.807 661.422 405.315 661.422 404.742V404.727C661.422 404.154 661.336 403.661 661.164 403.25C660.992 402.833 660.747 402.516 660.43 402.297C660.112 402.073 659.732 401.961 659.289 401.961C658.852 401.961 658.471 402.073 658.148 402.297C657.826 402.521 657.576 402.839 657.398 403.25C657.227 403.661 657.141 404.154 657.141 404.727V404.742C657.141 405.31 657.227 405.802 657.398 406.219C657.576 406.63 657.823 406.948 658.141 407.172C658.464 407.391 658.846 407.5 659.289 407.5ZM665.43 409V397.156H667.375V409H665.43ZM673.477 409.172C672.628 409.172 671.898 408.992 671.289 408.633C670.685 408.273 670.219 407.763 669.891 407.102C669.562 406.44 669.398 405.656 669.398 404.75V404.742C669.398 403.846 669.56 403.065 669.883 402.398C670.211 401.732 670.674 401.216 671.273 400.852C671.872 400.482 672.576 400.297 673.383 400.297C674.195 400.297 674.893 400.477 675.477 400.836C676.065 401.19 676.518 401.688 676.836 402.328C677.154 402.969 677.312 403.719 677.312 404.578V405.219H670.375V403.914H676.359L675.438 405.133V404.359C675.438 403.792 675.352 403.32 675.18 402.945C675.008 402.57 674.768 402.289 674.461 402.102C674.159 401.914 673.807 401.82 673.406 401.82C673.005 401.82 672.648 401.919 672.336 402.117C672.029 402.31 671.784 402.596 671.602 402.977C671.424 403.352 671.336 403.812 671.336 404.359V405.141C671.336 405.667 671.424 406.117 671.602 406.492C671.779 406.862 672.029 407.148 672.352 407.352C672.68 407.549 673.068 407.648 673.516 407.648C673.865 407.648 674.164 407.599 674.414 407.5C674.669 407.396 674.875 407.273 675.031 407.133C675.188 406.987 675.297 406.849 675.359 406.719L675.383 406.664H677.227L677.211 406.734C677.143 407.01 677.018 407.292 676.836 407.578C676.659 407.859 676.417 408.122 676.109 408.367C675.807 408.607 675.438 408.802 675 408.953C674.562 409.099 674.055 409.172 673.477 409.172ZM682.336 409.141C681.628 409.141 681.01 408.964 680.484 408.609C679.958 408.25 679.552 407.74 679.266 407.078C678.979 406.417 678.836 405.638 678.836 404.742V404.727C678.836 403.82 678.977 403.039 679.258 402.383C679.544 401.721 679.948 401.214 680.469 400.859C680.995 400.5 681.617 400.32 682.336 400.32C682.727 400.32 683.091 400.383 683.43 400.508C683.768 400.628 684.065 400.799 684.32 401.023C684.581 401.247 684.784 401.513 684.93 401.82H685.07V397.156H687.008V409H685.07V407.664H684.93C684.773 407.971 684.568 408.237 684.312 408.461C684.062 408.68 683.771 408.849 683.438 408.969C683.104 409.083 682.737 409.141 682.336 409.141ZM682.945 407.5C683.388 407.5 683.768 407.391 684.086 407.172C684.409 406.948 684.656 406.63 684.828 406.219C685.005 405.802 685.094 405.31 685.094 404.742V404.727C685.094 404.154 685.005 403.661 684.828 403.25C684.656 402.839 684.409 402.521 684.086 402.297C683.768 402.073 683.388 401.961 682.945 401.961C682.508 401.961 682.128 402.073 681.805 402.297C681.487 402.516 681.242 402.833 681.07 403.25C680.898 403.661 680.812 404.154 680.812 404.727V404.742C680.812 405.315 680.898 405.807 681.07 406.219C681.242 406.63 681.487 406.948 681.805 407.172C682.122 407.391 682.503 407.5 682.945 407.5Z" fill="#484848"/>
<circle cx="610" cy="403" r="6" fill="#0066CC"/>
<circle cx="610" cy="403" r="9" fill="#0066CC" fill-opacity="0.33"/>
<rect x="534" y="402" width="75" height="3" fill="#0066CC"/>
<rect x="533" y="401" width="77" height="5" stroke="#0066CC" stroke-opacity="0.33" stroke-width="2"/>
<path d="M452.86 398V388.136H459.02V389.462H454.392V392.579H458.63V393.871H454.392V398H452.86ZM463.982 398.144C463.258 398.144 462.631 397.989 462.103 397.679C461.578 397.369 461.175 396.927 460.893 396.353C460.61 395.774 460.469 395.088 460.469 394.295V394.281C460.469 393.484 460.61 392.798 460.893 392.224C461.18 391.649 461.585 391.207 462.109 390.897C462.638 390.588 463.262 390.433 463.982 390.433C464.707 390.433 465.331 390.588 465.855 390.897C466.38 391.203 466.783 391.645 467.065 392.224C467.353 392.798 467.496 393.484 467.496 394.281V394.295C467.496 395.088 467.353 395.774 467.065 396.353C466.783 396.927 466.38 397.369 465.855 397.679C465.336 397.989 464.712 398.144 463.982 398.144ZM463.982 396.899C464.406 396.899 464.766 396.797 465.062 396.592C465.359 396.382 465.584 396.084 465.739 395.696C465.894 395.309 465.972 394.842 465.972 394.295V394.281C465.972 393.73 465.894 393.26 465.739 392.873C465.584 392.486 465.359 392.189 465.062 391.984C464.766 391.775 464.406 391.67 463.982 391.67C463.559 391.67 463.199 391.775 462.902 391.984C462.606 392.189 462.378 392.486 462.219 392.873C462.064 393.26 461.986 393.73 461.986 394.281V394.295C461.986 394.842 462.064 395.309 462.219 395.696C462.378 396.084 462.606 396.382 462.902 396.592C463.199 396.797 463.559 396.899 463.982 396.899ZM469.26 398V390.576H470.743V391.697H470.859C471.042 391.301 471.311 390.991 471.666 390.768C472.021 390.544 472.47 390.433 473.013 390.433C473.847 390.433 474.485 390.672 474.927 391.15C475.369 391.629 475.59 392.31 475.59 393.194V398H474.1V393.543C474.1 392.923 473.97 392.463 473.71 392.162C473.455 391.857 473.054 391.704 472.507 391.704C472.147 391.704 471.835 391.784 471.57 391.943C471.306 392.098 471.101 392.322 470.955 392.613C470.814 392.9 470.743 393.244 470.743 393.646V398H469.26ZM480.457 398.048C479.646 398.048 479.058 397.893 478.693 397.583C478.333 397.269 478.153 396.756 478.153 396.045V391.745H476.991V390.576H478.153V388.703H479.671V390.576H481.264V391.745H479.671V395.683C479.671 396.084 479.751 396.373 479.91 396.551C480.07 396.724 480.334 396.811 480.703 396.811C480.812 396.811 480.906 396.808 480.983 396.804C481.065 396.799 481.159 396.792 481.264 396.783V397.973C481.145 397.991 481.018 398.007 480.881 398.021C480.744 398.039 480.603 398.048 480.457 398.048ZM490.321 398.239C489.578 398.239 488.931 398.123 488.38 397.891C487.828 397.654 487.393 397.326 487.074 396.906C486.755 396.487 486.573 396.002 486.527 395.45L486.521 395.361H488.031L488.038 395.437C488.07 395.733 488.186 395.99 488.387 396.209C488.592 396.428 488.865 396.599 489.207 396.722C489.553 396.845 489.948 396.906 490.39 396.906C490.804 396.906 491.174 396.84 491.497 396.708C491.821 396.576 492.074 396.394 492.256 396.161C492.443 395.929 492.536 395.662 492.536 395.361V395.354C492.536 394.976 492.393 394.662 492.105 394.411C491.818 394.16 491.349 393.965 490.697 393.823L489.617 393.598C488.619 393.383 487.892 393.044 487.437 392.579C486.981 392.11 486.753 391.51 486.753 390.781V390.774C486.757 390.205 486.91 389.703 487.211 389.271C487.516 388.838 487.938 388.5 488.476 388.259C489.013 388.017 489.631 387.896 490.328 387.896C491.025 387.896 491.634 388.017 492.153 388.259C492.677 388.496 493.09 388.819 493.391 389.229C493.696 389.64 493.867 390.102 493.903 390.617L493.91 390.706H492.413L492.399 390.617C492.358 390.348 492.247 390.109 492.064 389.899C491.887 389.69 491.647 389.526 491.347 389.407C491.05 389.284 490.704 389.225 490.308 389.229C489.925 389.229 489.583 389.289 489.282 389.407C488.981 389.521 488.742 389.688 488.564 389.906C488.391 390.125 488.305 390.389 488.305 390.699V390.706C488.305 391.071 488.444 391.376 488.722 391.622C489.004 391.864 489.462 392.053 490.096 392.189L491.176 392.429C491.864 392.575 492.422 392.768 492.851 393.01C493.279 393.251 493.591 393.55 493.787 393.905C493.988 394.256 494.088 394.675 494.088 395.163V395.17C494.088 395.799 493.933 396.343 493.623 396.804C493.318 397.259 492.882 397.613 492.317 397.863C491.752 398.114 491.087 398.239 490.321 398.239ZM495.954 398V390.576H497.444V398H495.954ZM496.706 389.25C496.451 389.25 496.232 389.159 496.05 388.977C495.868 388.794 495.776 388.576 495.776 388.32C495.776 388.065 495.868 387.849 496.05 387.671C496.232 387.489 496.451 387.397 496.706 387.397C496.961 387.397 497.18 387.489 497.362 387.671C497.545 387.849 497.636 388.065 497.636 388.32C497.636 388.576 497.545 388.794 497.362 388.977C497.18 389.159 496.961 389.25 496.706 389.25ZM499.427 398V397.036L503.528 391.861V391.745H499.454V390.576H505.278V391.602L501.272 396.708V396.824H505.326V398H499.427ZM510.221 398.144C509.496 398.144 508.874 397.989 508.354 397.679C507.835 397.364 507.434 396.92 507.151 396.346C506.873 395.771 506.734 395.092 506.734 394.309V394.302C506.734 393.527 506.873 392.85 507.151 392.271C507.434 391.693 507.83 391.242 508.341 390.918C508.856 390.594 509.457 390.433 510.146 390.433C510.838 390.433 511.433 390.588 511.93 390.897C512.431 391.207 512.816 391.643 513.085 392.203C513.354 392.759 513.488 393.411 513.488 394.158V394.678H507.486V393.618H512.75L512.039 394.603V394.008C512.039 393.479 511.957 393.042 511.793 392.695C511.633 392.344 511.412 392.082 511.13 391.909C510.847 391.736 510.521 391.649 510.152 391.649C509.783 391.649 509.453 391.741 509.161 391.923C508.874 392.101 508.646 392.365 508.478 392.716C508.313 393.067 508.231 393.497 508.231 394.008V394.603C508.231 395.09 508.313 395.507 508.478 395.854C508.642 396.2 508.874 396.464 509.175 396.646C509.48 396.829 509.84 396.92 510.255 396.92C510.574 396.92 510.847 396.877 511.075 396.79C511.308 396.699 511.497 396.587 511.643 396.455C511.793 396.323 511.896 396.193 511.95 396.065L511.978 396.011H513.413L513.399 396.072C513.336 396.318 513.224 396.564 513.064 396.811C512.905 397.052 512.693 397.273 512.429 397.474C512.169 397.674 511.854 397.836 511.485 397.959C511.121 398.082 510.699 398.144 510.221 398.144Z" fill="#484848"/>
<path d="M481.569 419V408.348H481.429L478.238 410.624V408.69L481.578 406.317H483.547V419H481.569ZM491.809 419.308C491.17 419.308 490.555 419.188 489.963 418.947C489.371 418.707 488.841 418.332 488.372 417.822C487.909 417.312 487.54 416.647 487.265 415.827C486.995 415.007 486.86 414.014 486.86 412.848V412.83C486.86 411.4 487.06 410.179 487.458 409.165C487.862 408.146 488.437 407.366 489.181 406.827C489.931 406.288 490.83 406.019 491.879 406.019C492.629 406.019 493.303 406.156 493.9 406.432C494.504 406.701 495.005 407.079 495.403 407.565C495.808 408.046 496.077 408.608 496.212 409.253L496.238 409.35H494.278L494.243 409.262C494.126 408.939 493.956 408.661 493.733 408.427C493.511 408.192 493.244 408.011 492.934 407.882C492.623 407.753 492.269 407.688 491.87 407.688C491.155 407.688 490.572 407.896 490.121 408.312C489.676 408.729 489.345 409.285 489.128 409.982C488.911 410.68 488.785 411.45 488.75 412.294C488.744 412.37 488.741 412.449 488.741 412.531C488.741 412.613 488.741 412.695 488.741 412.777L489.128 414.896C489.128 415.411 489.245 415.877 489.479 416.293C489.72 416.709 490.039 417.04 490.438 417.286C490.842 417.526 491.293 417.646 491.791 417.646C492.283 417.646 492.731 417.526 493.136 417.286C493.54 417.046 493.859 416.724 494.094 416.319C494.334 415.909 494.454 415.452 494.454 414.948V414.931C494.454 414.409 494.34 413.949 494.111 413.551C493.883 413.146 493.569 412.83 493.171 412.602C492.778 412.367 492.324 412.25 491.809 412.25C491.305 412.25 490.851 412.364 490.446 412.593C490.042 412.821 489.72 413.135 489.479 413.533C489.245 413.926 489.128 414.377 489.128 414.887V414.896H488.601V412.593H488.908C489.066 412.247 489.295 411.928 489.594 411.635C489.898 411.342 490.273 411.107 490.719 410.932C491.164 410.75 491.674 410.659 492.248 410.659C493.057 410.659 493.771 410.844 494.393 411.213C495.02 411.576 495.509 412.074 495.86 412.707C496.218 413.34 496.396 414.061 496.396 414.869V414.887C496.396 415.742 496.2 416.501 495.808 417.163C495.415 417.825 494.873 418.35 494.182 418.736C493.49 419.117 492.699 419.308 491.809 419.308ZM498.875 422.173V409.464H500.782V410.976H500.923C501.11 410.624 501.348 410.325 501.635 410.079C501.922 409.827 502.253 409.637 502.628 409.508C503.003 409.373 503.413 409.306 503.858 409.306C504.661 409.306 505.358 409.508 505.95 409.912C506.542 410.316 506.999 410.888 507.321 411.626C507.644 412.358 507.805 413.226 507.805 414.228V414.245C507.805 415.247 507.644 416.117 507.321 416.855C506.999 417.588 506.542 418.156 505.95 418.561C505.364 418.965 504.667 419.167 503.858 419.167C503.419 419.167 503.009 419.1 502.628 418.965C502.247 418.824 501.91 418.628 501.617 418.376C501.33 418.124 501.099 417.828 500.923 417.488H500.782V422.173H498.875ZM503.313 417.523C503.847 417.523 504.301 417.392 504.676 417.128C505.057 416.864 505.35 416.486 505.555 415.994C505.76 415.502 505.862 414.919 505.862 414.245V414.228C505.862 413.542 505.76 412.956 505.555 412.47C505.35 411.978 505.057 411.6 504.676 411.336C504.301 411.072 503.847 410.94 503.313 410.94C502.786 410.94 502.329 411.072 501.942 411.336C501.562 411.6 501.269 411.978 501.063 412.47C500.858 412.956 500.756 413.539 500.756 414.219V414.236C500.756 414.91 500.858 415.496 501.063 415.994C501.269 416.486 501.562 416.864 501.942 417.128C502.329 417.392 502.786 417.523 503.313 417.523ZM508.842 419L512.006 414.254L508.815 409.464H511.03L513.087 412.874H513.228L515.258 409.464H517.367L514.221 414.175L517.402 419H515.231L513.148 415.563H513.008L510.925 419H508.842Z" fill="black"/>
</g>
<defs>
<clipPath id="clip0_56_7680">
<rect width="1024" height="548" rx="24" fill="white"/>
</clipPath>
</defs>
</svg>
