<svg width="1024" height="426" viewBox="0 0 1024 426" fill="none" xmlns="http://www.w3.org/2000/svg">
<g clip-path="url(#clip0_29_1220)">
<rect width="1024" height="426" rx="24" fill="white"/>
<path d="M303.5 232.75H-497.5C-501.228 232.75 -504.25 235.772 -504.25 239.5V296.5C-504.25 300.228 -501.228 303.25 -497.5 303.25H303.5C307.228 303.25 310.25 300.228 310.25 296.5V239.5C310.25 235.772 307.228 232.75 303.5 232.75Z" stroke="#DDDDDD"/>
<mask id="mask0_29_1220" style="mask-type:luminance" maskUnits="userSpaceOnUse" x="219" y="251" width="74" height="34">
<path d="M293 251.5H219.5V284.5H293V251.5Z" fill="white"/>
</mask>
<g mask="url(#mask0_29_1220)">
<path d="M224 252H288.5C290.709 252 292.5 253.791 292.5 256V280C292.5 282.209 290.709 284 288.5 284H224C221.791 284 220 282.209 220 280V256C220 253.791 221.791 252 224 252Z" stroke="#DDDDDD"/>
<path d="M230.215 260.286C231.28 260.286 232.143 261.149 232.143 262.214V264.143H230.215C229.15 264.143 228.285 263.279 228.285 262.214C228.285 261.149 229.15 260.286 230.215 260.286ZM233.429 264.143V262.214C233.429 260.439 231.989 259 230.215 259C228.439 259 227 260.439 227 262.214C227 263.989 228.439 265.429 230.215 265.429H232.143V270.571H230.215C228.439 270.571 227 272.011 227 273.786C227 275.561 228.439 277 230.215 277C231.989 277 233.429 275.561 233.429 273.786V271.857H238.571V273.786C238.571 275.561 240.011 277 241.785 277C243.561 277 245 275.561 245 273.786C245 272.011 243.561 270.571 241.785 270.571H239.857V265.429H241.785C243.561 265.429 245 263.989 245 262.214C245 260.439 243.561 259 241.785 259C240.011 259 238.571 260.439 238.571 262.214V264.143H233.429ZM233.429 265.429H238.571V270.571H233.429V265.429ZM239.857 264.143V262.214C239.857 261.149 240.72 260.286 241.785 260.286C242.85 260.286 243.715 261.149 243.715 262.214C243.715 263.279 242.85 264.143 241.785 264.143H239.857ZM239.857 271.857H241.785C242.85 271.857 243.715 272.721 243.715 273.786C243.715 274.851 242.85 275.714 241.785 275.714C240.72 275.714 239.857 274.851 239.857 273.786V271.857ZM232.143 271.857V273.786C232.143 274.851 231.28 275.714 230.215 275.714C229.15 275.714 228.285 274.851 228.285 273.786C228.285 272.721 229.15 271.857 230.215 271.857H232.143Z" fill="#DDDDDD"/>
<path d="M257.786 273.112H256.094V269.44H252.44V267.874H256.094V264.238H257.786V267.874H261.44V269.44H257.786V273.112Z" fill="#DDDDDD"/>
<path d="M276.146 274.75H274.166V261.826H276.146V267.802L281.618 261.826H283.904L278.144 268.162L284.048 274.75H281.564L276.146 268.756V274.75Z" fill="#DDDDDD"/>
</g>
<rect x="923.5" y="378.5" width="1" height="100" transform="rotate(-90 923.5 378.5)" fill="#484848"/>
<path d="M665.746 387.316C664.137 387.316 662.738 386.961 661.551 386.25C660.371 385.539 659.457 384.527 658.809 383.215C658.168 381.902 657.848 380.344 657.848 378.539V378.527C657.848 376.723 658.168 375.168 658.809 373.863C659.457 372.551 660.371 371.543 661.551 370.84C662.738 370.129 664.137 369.773 665.746 369.773C667.043 369.773 668.203 370.023 669.227 370.523C670.258 371.023 671.098 371.715 671.746 372.598C672.395 373.48 672.793 374.496 672.941 375.645L672.953 375.762H669.988L669.93 375.562C669.773 374.914 669.504 374.355 669.121 373.887C668.746 373.41 668.273 373.043 667.703 372.785C667.133 372.52 666.48 372.387 665.746 372.387C664.77 372.387 663.918 372.637 663.191 373.137C662.473 373.637 661.914 374.348 661.516 375.27C661.125 376.184 660.93 377.27 660.93 378.527V378.539C660.93 379.797 661.125 380.887 661.516 381.809C661.914 382.73 662.477 383.445 663.203 383.953C663.93 384.453 664.781 384.703 665.758 384.703C666.477 384.703 667.117 384.578 667.68 384.328C668.25 384.07 668.73 383.703 669.121 383.227C669.512 382.742 669.793 382.16 669.965 381.48L669.988 381.375H672.953L672.941 381.492C672.801 382.641 672.406 383.652 671.758 384.527C671.109 385.402 670.27 386.086 669.238 386.578C668.215 387.07 667.051 387.316 665.746 387.316ZM690.867 387.316C689.219 387.316 687.793 386.961 686.59 386.25C685.395 385.531 684.469 384.52 683.812 383.215C683.164 381.902 682.84 380.348 682.84 378.551V378.527C682.84 376.73 683.168 375.18 683.824 373.875C684.48 372.562 685.406 371.551 686.602 370.84C687.805 370.129 689.227 369.773 690.867 369.773C692.508 369.773 693.926 370.133 695.121 370.852C696.324 371.562 697.25 372.57 697.898 373.875C698.555 375.18 698.883 376.73 698.883 378.527V378.551C698.883 380.348 698.555 381.902 697.898 383.215C697.25 384.52 696.328 385.531 695.133 386.25C693.938 386.961 692.516 387.316 690.867 387.316ZM690.867 384.703C691.883 384.703 692.758 384.449 693.492 383.941C694.234 383.434 694.805 382.723 695.203 381.809C695.602 380.887 695.801 379.801 695.801 378.551V378.527C695.801 377.27 695.598 376.184 695.191 375.27C694.793 374.348 694.223 373.637 693.48 373.137C692.746 372.637 691.875 372.387 690.867 372.387C689.859 372.387 688.984 372.637 688.242 373.137C687.5 373.637 686.926 374.344 686.52 375.258C686.121 376.172 685.922 377.262 685.922 378.527V378.551C685.922 379.801 686.121 380.887 686.52 381.809C686.926 382.73 687.496 383.445 688.23 383.953C688.973 384.453 689.852 384.703 690.867 384.703ZM709.496 387V370.09H712.977L718.145 383.027H718.238L723.406 370.09H726.887V387H724.168V374.965H722.762L725.832 370.559L719.223 387H717.16L710.551 370.559L713.609 374.965H712.215V387H709.496ZM739.598 381.41V378.973H743.898C744.992 378.973 745.836 378.695 746.43 378.141C747.031 377.578 747.332 376.789 747.332 375.773V375.75C747.332 374.727 747.031 373.938 746.43 373.383C745.836 372.828 744.992 372.551 743.898 372.551H739.598V370.09H744.648C745.789 370.09 746.789 370.324 747.648 370.793C748.516 371.262 749.191 371.922 749.676 372.773C750.16 373.617 750.402 374.605 750.402 375.738V375.762C750.402 376.887 750.16 377.875 749.676 378.727C749.191 379.57 748.516 380.23 747.648 380.707C746.789 381.176 745.789 381.41 744.648 381.41H739.598ZM738.098 387V370.09H741.109V387H738.098ZM768.234 387.316C766.586 387.316 765.16 386.961 763.957 386.25C762.762 385.531 761.836 384.52 761.18 383.215C760.531 381.902 760.207 380.348 760.207 378.551V378.527C760.207 376.73 760.535 375.18 761.191 373.875C761.848 372.562 762.773 371.551 763.969 370.84C765.172 370.129 766.594 369.773 768.234 369.773C769.875 369.773 771.293 370.133 772.488 370.852C773.691 371.562 774.617 372.57 775.266 373.875C775.922 375.18 776.25 376.73 776.25 378.527V378.551C776.25 380.348 775.922 381.902 775.266 383.215C774.617 384.52 773.695 385.531 772.5 386.25C771.305 386.961 769.883 387.316 768.234 387.316ZM768.234 384.703C769.25 384.703 770.125 384.449 770.859 383.941C771.602 383.434 772.172 382.723 772.57 381.809C772.969 380.887 773.168 379.801 773.168 378.551V378.527C773.168 377.27 772.965 376.184 772.559 375.27C772.16 374.348 771.59 373.637 770.848 373.137C770.113 372.637 769.242 372.387 768.234 372.387C767.227 372.387 766.352 372.637 765.609 373.137C764.867 373.637 764.293 374.344 763.887 375.258C763.488 376.172 763.289 377.262 763.289 378.527V378.551C763.289 379.801 763.488 380.887 763.887 381.809C764.293 382.73 764.863 383.445 765.598 383.953C766.34 384.453 767.219 384.703 768.234 384.703ZM786.863 387V370.09H789.559L799.297 384.035L796.578 381.914H797.902V370.09H800.891V387H798.207L788.457 373.008L791.164 375.141H789.84V387H786.863ZM812.09 387V370.09H823.023V372.633H815.102V377.203H822.59V379.629H815.102V384.457H823.023V387H812.09ZM833.871 387V370.09H836.566L846.305 384.035L843.586 381.914H844.91V370.09H847.898V387H845.215L835.465 373.008L838.172 375.141H836.848V387H833.871ZM863.234 387V372.633H858.148V370.09H871.332V372.633H866.246V387H863.234Z" fill="#484848"/>
<path d="M39.375 245.465C32.2266 245.465 26.0742 243.688 20.918 240.133C15.7617 236.578 11.7969 231.539 9.02344 225.016C6.28906 218.453 4.92188 210.699 4.92188 201.754V201.637C4.92188 192.652 6.28906 184.898 9.02344 178.375C11.7969 171.852 15.7617 166.832 20.918 163.316C26.0742 159.762 32.2266 157.984 39.375 157.984C46.5234 157.984 52.6562 159.762 57.7734 163.316C62.9297 166.832 66.8945 171.852 69.668 178.375C72.4414 184.898 73.8281 192.652 73.8281 201.637V201.754C73.8281 210.699 72.4414 218.453 69.668 225.016C66.8945 231.539 62.9297 236.578 57.7734 240.133C52.6562 243.688 46.5234 245.465 39.375 245.465ZM39.375 231.285C42.8906 231.285 45.8789 230.113 48.3398 227.77C50.8008 225.426 52.6758 222.047 53.9648 217.633C55.293 213.219 55.957 207.926 55.957 201.754V201.637C55.957 195.426 55.293 190.133 53.9648 185.758C52.6758 181.344 50.8008 177.984 48.3398 175.68C45.8789 173.336 42.8906 172.164 39.375 172.164C35.8594 172.164 32.8516 173.336 30.3516 175.68C27.8906 177.984 26.0156 181.344 24.7266 185.758C23.4375 190.133 22.793 195.426 22.793 201.637V201.754C22.793 207.926 23.4375 213.219 24.7266 217.633C26.0156 222.047 27.8906 225.426 30.3516 227.77C32.8516 230.113 35.8594 231.285 39.375 231.285ZM112.316 245.465C106.183 245.465 100.812 244.371 96.2026 242.184C91.5932 239.996 87.9408 237.027 85.2455 233.277C82.5502 229.527 81.0268 225.309 80.6752 220.621L80.6166 219.742H96.9643L97.0815 220.152C97.5112 222.262 98.4096 224.176 99.7768 225.895C101.183 227.613 102.96 228.98 105.109 229.996C107.257 230.973 109.679 231.461 112.374 231.461C115.46 231.461 118.175 230.816 120.519 229.527C122.902 228.199 124.757 226.383 126.085 224.078C127.453 221.773 128.136 219.117 128.136 216.109V215.992C128.136 213.023 127.453 210.406 126.085 208.141C124.757 205.836 122.902 204.039 120.519 202.75C118.175 201.461 115.48 200.816 112.433 200.816C110.285 200.816 108.292 201.129 106.456 201.754C104.621 202.34 102.98 203.219 101.535 204.391C100.714 205.055 99.9526 205.777 99.2494 206.559C98.5463 207.34 97.9604 208.18 97.4916 209.078H82.0815L85.9487 159.449H139.914V173.512H100.011L97.9604 197.301H98.3119C99.4838 195.387 101.007 193.766 102.882 192.438C104.796 191.07 106.964 190.016 109.386 189.273C111.847 188.531 114.503 188.16 117.355 188.16C122.746 188.16 127.511 189.352 131.652 191.734C135.792 194.078 139.054 197.32 141.437 201.461C143.82 205.602 145.011 210.328 145.011 215.641V215.758C145.011 221.656 143.624 226.832 140.851 231.285C138.117 235.738 134.289 239.215 129.367 241.715C124.445 244.215 118.761 245.465 112.316 245.465Z" fill="#EEEFF4"/>
<path d="M71.7461 217.879C67.7383 217.879 64.2344 217.293 61.2344 216.121C58.2578 214.926 55.9141 213.227 54.2031 211.023C52.4922 208.797 51.5312 206.125 51.3203 203.008L51.2852 202.445H61.3047L61.375 202.832C61.6094 204.145 62.1953 205.281 63.1328 206.242C64.0938 207.18 65.3359 207.918 66.8594 208.457C68.3828 208.973 70.1055 209.23 72.0273 209.23C73.9961 209.23 75.6836 208.973 77.0898 208.457C78.5195 207.918 79.6211 207.168 80.3945 206.207C81.1914 205.223 81.5898 204.086 81.5898 202.797V202.762C81.5898 201.051 80.9102 199.715 79.5508 198.754C78.2148 197.77 75.9648 196.949 72.8008 196.293L67.457 195.238C62.4648 194.23 58.7031 192.531 56.1719 190.141C53.6406 187.75 52.375 184.645 52.375 180.824V180.789C52.375 177.695 53.207 175 54.8711 172.703C56.5352 170.383 58.8203 168.59 61.7266 167.324C64.6328 166.035 67.9609 165.391 71.7109 165.391C75.625 165.391 79 166 81.8359 167.219C84.6953 168.438 86.9219 170.16 88.5156 172.387C90.1094 174.613 90.9883 177.203 91.1523 180.156L91.1875 180.824H81.168L81.1328 180.402C80.9453 179.066 80.4414 177.93 79.6211 176.992C78.8008 176.031 77.7109 175.293 76.3516 174.777C75.0156 174.262 73.4688 174.004 71.7109 174.004C69.9062 174.004 68.3477 174.273 67.0352 174.812C65.7227 175.328 64.7148 176.043 64.0117 176.957C63.332 177.871 62.9922 178.938 62.9922 180.156V180.191C62.9922 181.785 63.6719 183.074 65.0312 184.059C66.3906 185.043 68.5234 185.828 71.4297 186.414L76.8086 187.504C80.3477 188.207 83.2539 189.18 85.5273 190.422C87.8008 191.664 89.4766 193.234 90.5547 195.133C91.6562 197.008 92.207 199.27 92.207 201.918V201.953C92.207 205.211 91.3867 208.035 89.7461 210.426C88.1289 212.793 85.7852 214.633 82.7148 215.945C79.668 217.234 76.0117 217.879 71.7461 217.879ZM96.755 217V166.27H107.021V217H96.755ZM120.45 217L108.814 200.336L115.318 192.531L132.298 217H120.45ZM105.755 205.891V194.395H107.232L119.958 179.312H131.595L114.193 199.105H111.907L105.755 205.891ZM149.116 217.773C145.272 217.773 141.967 216.988 139.201 215.418C136.436 213.824 134.303 211.562 132.803 208.633C131.326 205.703 130.588 202.234 130.588 198.227V198.191C130.588 194.184 131.326 190.715 132.803 187.785C134.303 184.832 136.401 182.559 139.096 180.965C141.815 179.348 145.014 178.539 148.694 178.539C152.373 178.539 155.549 179.324 158.221 180.895C160.916 182.441 162.991 184.633 164.444 187.469C165.92 190.305 166.658 193.621 166.658 197.418V200.582H135.616V194.113H161.807L156.92 200.16V196.223C156.92 194.02 156.58 192.18 155.901 190.703C155.221 189.203 154.272 188.078 153.053 187.328C151.858 186.578 150.463 186.203 148.869 186.203C147.276 186.203 145.858 186.59 144.616 187.363C143.397 188.137 142.436 189.273 141.733 190.773C141.053 192.25 140.713 194.066 140.713 196.223V200.195C140.713 202.281 141.053 204.062 141.733 205.539C142.436 207.016 143.432 208.152 144.721 208.949C146.01 209.723 147.545 210.109 149.326 210.109C150.733 210.109 151.951 209.887 152.983 209.441C154.014 208.996 154.858 208.434 155.514 207.754C156.17 207.074 156.616 206.383 156.85 205.68L156.92 205.469H166.342L166.237 205.855C165.955 207.238 165.405 208.633 164.584 210.039C163.764 211.445 162.651 212.734 161.244 213.906C159.862 215.078 158.162 216.016 156.147 216.719C154.155 217.422 151.811 217.773 149.116 217.773ZM170.785 217V166.27H181.05V217H170.785ZM203.704 217.773C199.86 217.773 196.555 216.988 193.79 215.418C191.024 213.824 188.891 211.562 187.391 208.633C185.915 205.703 185.176 202.234 185.176 198.227V198.191C185.176 194.184 185.915 190.715 187.391 187.785C188.891 184.832 190.989 182.559 193.684 180.965C196.403 179.348 199.602 178.539 203.282 178.539C206.962 178.539 210.137 179.324 212.809 180.895C215.504 182.441 217.579 184.633 219.032 187.469C220.508 190.305 221.247 193.621 221.247 197.418V200.582H190.204V194.113H216.395L211.508 200.16V196.223C211.508 194.02 211.169 192.18 210.489 190.703C209.809 189.203 208.86 188.078 207.641 187.328C206.446 186.578 205.051 186.203 203.458 186.203C201.864 186.203 200.446 186.59 199.204 187.363C197.985 188.137 197.024 189.273 196.321 190.773C195.641 192.25 195.301 194.066 195.301 196.223V200.195C195.301 202.281 195.641 204.062 196.321 205.539C197.024 207.016 198.02 208.152 199.309 208.949C200.598 209.723 202.133 210.109 203.915 210.109C205.321 210.109 206.54 209.887 207.571 209.441C208.602 208.996 209.446 208.434 210.102 207.754C210.758 207.074 211.204 206.383 211.438 205.68L211.508 205.469H220.93L220.825 205.855C220.544 207.238 219.993 208.633 219.172 210.039C218.352 211.445 217.239 212.734 215.833 213.906C214.45 215.078 212.751 216.016 210.735 216.719C208.743 217.422 206.399 217.773 203.704 217.773ZM240.103 217.773C235.931 217.773 232.838 216.895 230.822 215.137C228.806 213.379 227.799 210.484 227.799 206.453V187.047H222.56V179.312H227.799V170.102H238.17V179.312H245.06V187.047H238.17V205.328C238.17 207.086 238.556 208.316 239.33 209.02C240.127 209.699 241.299 210.039 242.845 210.039C243.314 210.039 243.724 210.027 244.076 210.004C244.427 209.957 244.756 209.91 245.06 209.863V217.387C244.498 217.48 243.795 217.562 242.951 217.633C242.131 217.727 241.181 217.773 240.103 217.773ZM266.097 217.773C262.276 217.773 258.972 216.988 256.182 215.418C253.393 213.848 251.237 211.598 249.714 208.668C248.19 205.738 247.429 202.234 247.429 198.156V198.086C247.429 194.031 248.202 190.551 249.749 187.645C251.296 184.715 253.464 182.465 256.253 180.895C259.042 179.324 262.311 178.539 266.061 178.539C269.835 178.539 273.116 179.324 275.905 180.895C278.718 182.441 280.897 184.68 282.444 187.609C283.991 190.516 284.765 194.008 284.765 198.086V198.156C284.765 202.258 283.991 205.773 282.444 208.703C280.921 211.633 278.765 213.883 275.975 215.453C273.186 217 269.893 217.773 266.097 217.773ZM266.132 209.723C267.796 209.723 269.237 209.277 270.456 208.387C271.698 207.473 272.647 206.16 273.304 204.449C273.983 202.715 274.323 200.617 274.323 198.156V198.086C274.323 195.648 273.983 193.574 273.304 191.863C272.624 190.152 271.663 188.852 270.421 187.961C269.179 187.047 267.725 186.59 266.061 186.59C264.421 186.59 262.979 187.047 261.737 187.961C260.518 188.852 259.569 190.152 258.89 191.863C258.21 193.574 257.87 195.648 257.87 198.086V198.156C257.87 200.617 258.198 202.715 258.854 204.449C259.534 206.16 260.495 207.473 261.737 208.387C262.979 209.277 264.444 209.723 266.132 209.723ZM288.645 217V179.312H298.91V185.5H299.121C300.105 183.344 301.559 181.645 303.48 180.402C305.402 179.16 307.781 178.539 310.617 178.539C314.766 178.539 317.965 179.793 320.215 182.301C322.488 184.785 323.625 188.242 323.625 192.672V217H313.359V194.781C313.359 192.32 312.773 190.422 311.602 189.086C310.453 187.727 308.73 187.047 306.434 187.047C304.91 187.047 303.586 187.398 302.461 188.102C301.336 188.781 300.457 189.742 299.824 190.984C299.215 192.227 298.91 193.68 298.91 195.344V217H288.645ZM53.2188 289V238.27H63.8359V280.246H86.0195V289H53.2188ZM106.81 289.773C102.989 289.773 99.6847 288.988 96.8956 287.418C94.1066 285.848 91.9503 283.598 90.4269 280.668C88.9035 277.738 88.1417 274.234 88.1417 270.156V270.086C88.1417 266.031 88.9152 262.551 90.4621 259.645C92.0089 256.715 94.1769 254.465 96.966 252.895C99.755 251.324 103.025 250.539 106.775 250.539C110.548 250.539 113.829 251.324 116.618 252.895C119.431 254.441 121.61 256.68 123.157 259.609C124.704 262.516 125.478 266.008 125.478 270.086V270.156C125.478 274.258 124.704 277.773 123.157 280.703C121.634 283.633 119.478 285.883 116.689 287.453C113.9 289 110.607 289.773 106.81 289.773ZM106.845 281.723C108.509 281.723 109.95 281.277 111.169 280.387C112.411 279.473 113.36 278.16 114.017 276.449C114.696 274.715 115.036 272.617 115.036 270.156V270.086C115.036 267.648 114.696 265.574 114.017 263.863C113.337 262.152 112.376 260.852 111.134 259.961C109.892 259.047 108.439 258.59 106.775 258.59C105.134 258.59 103.693 259.047 102.45 259.961C101.232 260.852 100.282 262.152 99.6027 263.863C98.923 265.574 98.5831 267.648 98.5831 270.086V270.156C98.5831 272.617 98.9113 274.715 99.5675 276.449C100.247 278.16 101.208 279.473 102.45 280.387C103.693 281.277 105.157 281.723 106.845 281.723ZM140.573 289.598C138.065 289.598 135.862 289.117 133.963 288.156C132.065 287.172 130.576 285.824 129.498 284.113C128.444 282.379 127.916 280.41 127.916 278.207V278.137C127.916 275.84 128.491 273.883 129.639 272.266C130.787 270.625 132.451 269.336 134.631 268.398C136.811 267.461 139.459 266.887 142.576 266.676L157.272 265.762V272.16L144.123 273.004C142.155 273.121 140.655 273.59 139.623 274.41C138.592 275.207 138.076 276.273 138.076 277.609V277.68C138.076 279.062 138.604 280.152 139.658 280.949C140.713 281.723 142.131 282.109 143.912 282.109C145.436 282.109 146.795 281.816 147.991 281.23C149.209 280.621 150.158 279.801 150.838 278.77C151.541 277.715 151.893 276.531 151.893 275.219V263.793C151.893 262.129 151.366 260.816 150.311 259.855C149.256 258.871 147.721 258.379 145.705 258.379C143.783 258.379 142.26 258.777 141.135 259.574C140.01 260.371 139.319 261.379 139.061 262.598L138.991 262.914H129.604L129.639 262.492C129.826 260.172 130.588 258.109 131.924 256.305C133.283 254.5 135.158 253.094 137.549 252.086C139.963 251.055 142.823 250.539 146.127 250.539C149.385 250.539 152.209 251.066 154.6 252.121C156.991 253.152 158.842 254.617 160.155 256.516C161.491 258.414 162.158 260.629 162.158 263.16V289H151.893V283.375H151.682C150.979 284.664 150.065 285.777 148.94 286.715C147.838 287.629 146.584 288.344 145.178 288.859C143.772 289.352 142.237 289.598 140.573 289.598ZM181.331 289.773C178.167 289.773 175.437 288.988 173.14 287.418C170.843 285.848 169.074 283.598 167.831 280.668C166.613 277.738 166.003 274.234 166.003 270.156V270.121C166.003 266.02 166.624 262.516 167.867 259.609C169.109 256.68 170.867 254.441 173.14 252.895C175.437 251.324 178.167 250.539 181.331 250.539C183.113 250.539 184.753 250.832 186.253 251.418C187.753 252.004 189.066 252.848 190.191 253.949C191.339 255.027 192.253 256.328 192.933 257.852H193.144V238.27H203.41V289H193.144V282.566H192.933C192.277 284.066 191.386 285.355 190.261 286.434C189.136 287.488 187.824 288.309 186.324 288.895C184.824 289.48 183.16 289.773 181.331 289.773ZM184.777 281.266C186.441 281.266 187.906 280.82 189.171 279.93C190.437 279.016 191.421 277.727 192.124 276.062C192.828 274.398 193.179 272.43 193.179 270.156V270.121C193.179 267.848 192.816 265.891 192.089 264.25C191.386 262.586 190.402 261.309 189.136 260.418C187.894 259.504 186.441 259.047 184.777 259.047C183.066 259.047 181.589 259.492 180.347 260.383C179.105 261.273 178.144 262.551 177.464 264.215C176.785 265.855 176.445 267.824 176.445 270.121V270.156C176.445 272.43 176.773 274.398 177.429 276.062C178.109 277.727 179.07 279.016 180.312 279.93C181.578 280.82 183.066 281.266 184.777 281.266ZM225.993 289.773C222.149 289.773 218.844 288.988 216.079 287.418C213.313 285.824 211.18 283.562 209.68 280.633C208.204 277.703 207.465 274.234 207.465 270.227V270.191C207.465 266.184 208.204 262.715 209.68 259.785C211.18 256.832 213.278 254.559 215.973 252.965C218.692 251.348 221.891 250.539 225.571 250.539C229.251 250.539 232.426 251.324 235.098 252.895C237.794 254.441 239.868 256.633 241.321 259.469C242.797 262.305 243.536 265.621 243.536 269.418V272.582H212.493V266.113H238.684L233.797 272.16V268.223C233.797 266.02 233.458 264.18 232.778 262.703C232.098 261.203 231.149 260.078 229.93 259.328C228.735 258.578 227.34 258.203 225.747 258.203C224.153 258.203 222.735 258.59 221.493 259.363C220.274 260.137 219.313 261.273 218.61 262.773C217.93 264.25 217.59 266.066 217.59 268.223V272.195C217.59 274.281 217.93 276.062 218.61 277.539C219.313 279.016 220.309 280.152 221.598 280.949C222.887 281.723 224.422 282.109 226.204 282.109C227.61 282.109 228.829 281.887 229.86 281.441C230.891 280.996 231.735 280.434 232.391 279.754C233.047 279.074 233.493 278.383 233.727 277.68L233.797 277.469H243.219L243.114 277.855C242.833 279.238 242.282 280.633 241.462 282.039C240.641 283.445 239.528 284.734 238.122 285.906C236.739 287.078 235.04 288.016 233.024 288.719C231.032 289.422 228.688 289.773 225.993 289.773ZM247.416 289V251.312H257.681V257.887H257.892C258.455 255.566 259.474 253.762 260.951 252.473C262.427 251.184 264.267 250.539 266.47 250.539C267.033 250.539 267.572 250.574 268.088 250.645C268.603 250.715 269.049 250.809 269.424 250.926V259.961C269.002 259.797 268.463 259.668 267.806 259.574C267.15 259.457 266.447 259.398 265.697 259.398C264.009 259.398 262.568 259.727 261.373 260.383C260.177 261.039 259.263 262 258.631 263.266C257.998 264.531 257.681 266.078 257.681 267.906V289H247.416Z" fill="#1B1D23"/>
<g clip-path="url(#clip1_29_1220)">
<g filter="url(#filter0_d_29_1220)">
<path d="M731.834 56.0548L596.719 19.8315L256.199 360.535L391.313 396.759L731.834 56.0548Z" fill="white"/>
<mask id="mask1_29_1220" style="mask-type:luminance" maskUnits="userSpaceOnUse" x="256" y="19" width="476" height="378">
<path d="M731.834 56.0548L596.719 19.8315L256.199 360.535L391.313 396.759L731.834 56.0548Z" fill="white"/>
</mask>
<g mask="url(#mask1_29_1220)">
<mask id="mask2_29_1220" style="mask-type:luminance" maskUnits="userSpaceOnUse" x="446" y="73" width="232" height="135">
<path d="M541.083 75.4987C542.506 74.0753 545.234 73.3438 547.177 73.8648L675.255 108.201C677.198 108.723 677.619 110.299 676.197 111.722L582.438 205.531C581.016 206.955 578.287 207.686 576.344 207.166L448.267 172.829C446.323 172.308 445.901 170.732 447.324 169.308L541.083 75.4987Z" fill="white"/>
</mask>
<g mask="url(#mask2_29_1220)">
<mask id="mask3_29_1220" style="mask-type:luminance" maskUnits="userSpaceOnUse" x="532" y="76" width="147" height="58">
<path d="M678.773 109.145L557.029 76.5061L532.302 101.247L654.045 133.886L678.773 109.145Z" fill="white"/>
</mask>
<g mask="url(#mask3_29_1220)">
<path d="M564.737 89.7732L559.811 88.4526C558.645 88.14 557.008 88.5789 556.155 89.4329L552.176 93.4139C551.322 94.2679 551.576 95.2136 552.742 95.5262L557.668 96.8469C558.834 97.1594 560.471 96.7205 561.324 95.8665L565.303 91.8855C566.157 91.0315 565.903 90.0858 564.737 89.7732Z" fill="url(#paint0_linear_29_1220)"/>
<path d="M644.424 111.373L580.386 94.2046C579.22 93.892 577.582 94.3309 576.729 95.1849L573.123 98.793C572.269 99.647 572.523 100.593 573.689 100.905L637.727 118.074C638.893 118.386 640.53 117.947 641.384 117.093L644.99 113.485C645.843 112.631 645.59 111.686 644.424 111.373Z" fill="url(#paint1_linear_29_1220)"/>
</g>
<mask id="mask4_29_1220" style="mask-type:luminance" maskUnits="userSpaceOnUse" x="507" y="101" width="148" height="58">
<path d="M654.045 133.886L532.302 101.247L507.574 125.988L629.318 158.627L654.045 133.886Z" fill="white"/>
</mask>
<g mask="url(#mask4_29_1220)">
<path d="M540.01 114.514L535.084 113.193C533.918 112.881 532.281 113.32 531.427 114.174L527.448 118.155C526.595 119.009 526.848 119.955 528.014 120.267L532.94 121.588C534.106 121.9 535.743 121.461 536.597 120.607L540.576 116.626C541.429 115.772 541.176 114.827 540.01 114.514Z" fill="url(#paint2_linear_29_1220)"/>
<path d="M619.697 136.114L555.658 118.946C554.492 118.633 552.855 119.072 552.001 119.926L548.395 123.534C547.542 124.388 547.795 125.334 548.961 125.646L613 142.815C614.165 143.127 615.803 142.688 616.656 141.834L620.262 138.226C621.116 137.372 620.863 136.426 619.697 136.114Z" fill="url(#paint3_linear_29_1220)"/>
</g>
<mask id="mask5_29_1220" style="mask-type:luminance" maskUnits="userSpaceOnUse" x="482" y="125" width="148" height="59">
<path d="M629.318 158.627L507.574 125.988L482.847 150.729L604.59 183.368L629.318 158.627Z" fill="white"/>
</mask>
<g mask="url(#mask5_29_1220)">
<path d="M515.282 139.255L510.356 137.934C509.19 137.622 507.553 138.061 506.7 138.915L502.721 142.896C501.867 143.75 502.12 144.695 503.286 145.008L508.212 146.329C509.378 146.641 511.016 146.202 511.869 145.348L515.848 141.367C516.702 140.513 516.448 139.568 515.282 139.255Z" fill="url(#paint4_linear_29_1220)"/>
<path d="M594.968 160.855L530.93 143.686C529.764 143.374 528.126 143.813 527.273 144.667L523.667 148.275C522.813 149.129 523.066 150.074 524.232 150.387L588.271 167.555C589.437 167.868 591.074 167.429 591.928 166.575L595.534 162.967C596.387 162.113 596.134 161.167 594.968 160.855Z" fill="url(#paint5_linear_29_1220)"/>
</g>
<mask id="mask6_29_1220" style="mask-type:luminance" maskUnits="userSpaceOnUse" x="458" y="150" width="147" height="59">
<path d="M604.59 183.368L482.847 150.729L458.119 175.47L579.863 208.109L604.59 183.368Z" fill="white"/>
</mask>
<g mask="url(#mask6_29_1220)">
<path d="M490.555 163.997L485.629 162.676C484.463 162.363 482.826 162.802 481.972 163.656L477.993 167.637C477.14 168.491 477.393 169.437 478.559 169.75L483.485 171.07C484.651 171.383 486.288 170.944 487.142 170.09L491.12 166.109C491.974 165.255 491.721 164.309 490.555 163.997Z" fill="url(#paint6_linear_29_1220)"/>
<path d="M570.241 185.596L506.202 168.428C505.036 168.115 503.399 168.554 502.545 169.408L498.939 173.016C498.086 173.87 498.339 174.816 499.505 175.129L563.543 192.297C564.709 192.61 566.347 192.171 567.2 191.317L570.806 187.709C571.66 186.855 571.406 185.909 570.241 185.596Z" fill="url(#paint7_linear_29_1220)"/>
</g>
</g>
<mask id="mask7_29_1220" style="mask-type:luminance" maskUnits="userSpaceOnUse" x="581" y="46" width="40" height="23">
<path d="M620.448 52.3348L597.929 46.2976L581.444 62.7915L603.963 68.8288L620.448 52.3348Z" fill="white"/>
</mask>
<g mask="url(#mask7_29_1220)">
<path d="M614.818 50.8254L603.559 47.8068C600.45 46.9733 596.083 48.1437 593.808 50.421L585.565 58.668C583.289 60.9453 583.964 63.4673 587.074 64.3008L598.333 67.3195C601.443 68.153 605.808 66.9826 608.084 64.7053L616.327 56.4582C618.603 54.1809 617.927 51.659 614.818 50.8254Z" fill="url(#paint8_linear_29_1220)"/>
<path d="M590.932 60.6296L595.006 61.722C595.246 61.7863 595.587 61.6714 595.707 61.4859L599.404 55.7496C599.593 55.4563 599.097 55.2967 598.712 55.5269L590.94 60.1708C590.678 60.3268 590.675 60.5606 590.932 60.6296Z" fill="white"/>
<path d="M608.323 53.9641L603.934 52.7872C603.693 52.7228 603.352 52.838 603.233 53.0238L597.407 62.0932C597.321 62.2292 597.383 62.3593 597.559 62.4064L601.949 63.5833C602.19 63.6477 602.53 63.5325 602.65 63.3468L608.475 54.2773C608.562 54.1414 608.499 54.0112 608.323 53.9641Z" fill="white" stroke="white"/>
</g>
<path d="M624.176 63.1375L630.171 57.1396L633.09 57.9221C633.724 58.0923 634.17 58.3134 634.429 58.5857C634.69 58.8588 634.783 59.1647 634.708 59.5035C634.635 59.8404 634.415 60.1934 634.045 60.5624C633.679 60.9294 633.25 61.2243 632.761 61.4471C632.276 61.6685 631.746 61.8 631.17 61.8413C630.598 61.8833 629.994 61.8193 629.36 61.6492L627.149 61.0564L627.927 60.2774L630.027 60.8402C630.426 60.9474 630.793 60.9926 631.128 60.9758C631.465 60.9598 631.772 60.8874 632.05 60.7587C632.327 60.6301 632.578 60.4535 632.802 60.2289C633.028 60.0025 633.164 59.7902 633.21 59.5921C633.259 59.3947 633.201 59.2181 633.035 59.0624C632.874 58.9054 632.59 58.7722 632.182 58.6629L630.63 58.247L625.412 63.4687L624.176 63.1375ZM630.923 61.5152L630.242 64.7636L628.835 64.3863L629.556 61.1486L630.923 61.5152ZM636.668 58.8816L638.072 59.2578L637.486 62.5578L637.574 62.5814L642.438 60.4284L643.841 60.8047L637.23 63.6514L634.876 66.006L633.644 65.6758L635.998 63.3212L636.668 58.8816ZM639.039 67.1219L637.726 66.7703L646.668 61.5625L648.096 61.9452L645.048 68.733L643.736 68.3814L646.327 62.8524L646.263 62.8353L639.039 67.1219ZM641.606 64.832L645.86 65.9726L645.099 66.7341L640.845 65.5935L641.606 64.832Z" fill="#1F1F1F"/>
<path d="M619.634 66.9337L620.121 66.4468L624.081 67.5087L623.595 67.9956L621.999 67.5674L618.738 70.8292L617.968 70.6229L621.229 67.3611L619.634 66.9337ZM620.858 71.3974L623.668 68.5858L624.39 68.7795L623.943 69.2261L623.983 69.2369C624.205 69.1043 624.446 69.0183 624.709 68.979C624.976 68.939 625.222 68.9491 625.446 69.0094C625.493 69.0219 625.547 69.0379 625.608 69.0572C625.67 69.0771 625.718 69.0938 625.751 69.1073L625.227 69.6308C625.203 69.6166 625.157 69.5956 625.088 69.5678C625.02 69.5387 624.947 69.5139 624.87 69.4933C624.694 69.446 624.509 69.4312 624.316 69.4491C624.126 69.4661 623.942 69.5122 623.766 69.5871C623.591 69.6609 623.443 69.7587 623.321 69.8807L621.604 71.5977L620.858 71.3974ZM624.684 72.5022C624.441 72.437 624.254 72.3451 624.123 72.2265C623.994 72.1067 623.935 71.9679 623.947 71.8102C623.961 71.6529 624.06 71.4821 624.243 71.2979C624.402 71.1392 624.574 71.0198 624.76 70.9397C624.946 70.8595 625.139 70.8085 625.34 70.7867C625.542 70.7649 625.745 70.7622 625.951 70.7785C626.156 70.7949 626.357 70.8195 626.555 70.8523C626.805 70.8945 627.007 70.9286 627.162 70.9548C627.319 70.9798 627.444 70.9864 627.538 70.9745C627.633 70.9626 627.713 70.9238 627.779 70.8579L627.792 70.845C627.952 70.6852 628.013 70.5448 627.978 70.4239C627.944 70.3034 627.807 70.2108 627.565 70.1461C627.313 70.0786 627.074 70.0663 626.848 70.1093C626.624 70.1514 626.435 70.2145 626.282 70.2986L625.697 69.9932C625.95 69.8446 626.21 69.7394 626.475 69.6774C626.742 69.6145 627.005 69.5874 627.262 69.5961C627.521 69.6036 627.766 69.6384 627.998 69.7004C628.151 69.7415 628.3 69.7985 628.445 69.8713C628.593 69.9434 628.706 70.0343 628.787 70.1441C628.869 70.2543 628.894 70.387 628.861 70.5422C628.829 70.6963 628.711 70.8758 628.507 71.0808L626.641 72.9478L625.911 72.7522L626.296 72.3678L626.265 72.3598C626.146 72.4176 626.004 72.4677 625.839 72.5102C625.674 72.5526 625.493 72.5761 625.297 72.5806C625.1 72.585 624.896 72.5589 624.684 72.5022ZM625.286 72.1065C625.493 72.1619 625.699 72.1793 625.905 72.1588C626.113 72.1388 626.304 72.0908 626.477 72.015C626.653 71.9383 626.796 71.8445 626.907 71.7335L627.269 71.371C627.223 71.3834 627.153 71.3879 627.059 71.3844C626.969 71.3802 626.869 71.3712 626.76 71.3575C626.653 71.3426 626.548 71.3277 626.446 71.3129C626.347 71.2969 626.262 71.2836 626.194 71.2732C626.036 71.2478 625.881 71.2349 625.729 71.2344C625.579 71.2344 625.439 71.2548 625.308 71.2954C625.179 71.3352 625.066 71.4038 624.968 71.5015C624.833 71.637 624.799 71.7577 624.866 71.864C624.934 71.9689 625.074 72.0498 625.286 72.1065ZM630.157 71.7739L628.488 73.4433L627.742 73.243L630.552 70.4314L631.269 70.6237L630.811 71.0814L630.859 71.094C631.096 70.9689 631.354 70.8864 631.632 70.8465C631.913 70.8071 632.197 70.8261 632.485 70.9034C632.746 70.9735 632.935 71.0752 633.051 71.2084C633.169 71.3404 633.203 71.4996 633.153 71.6861C633.105 71.8726 632.965 72.0817 632.732 72.3136L630.945 74.1018L630.198 73.9015L631.919 72.1791C632.123 71.9753 632.21 71.7967 632.179 71.6431C632.15 71.4883 632.009 71.3769 631.756 71.3091C631.583 71.2627 631.401 71.2488 631.212 71.2675C631.023 71.2867 630.837 71.3388 630.652 71.424C630.471 71.5084 630.306 71.6251 630.157 71.7739ZM637.053 73.0448L636.288 72.9512C636.323 72.8801 636.339 72.8076 636.334 72.7337C636.332 72.6603 636.297 72.5914 636.23 72.5271C636.164 72.4628 636.053 72.4099 635.898 72.3684C635.686 72.3117 635.475 72.2991 635.264 72.3307C635.054 72.3611 634.895 72.4306 634.786 72.5392C634.692 72.6331 634.664 72.7215 634.701 72.8043C634.739 72.8871 634.846 72.9752 635.021 73.0685L635.528 73.3345C635.821 73.489 635.992 73.6517 636.041 73.8226C636.09 73.9935 636.015 74.1784 635.816 74.3773C635.648 74.5457 635.431 74.6779 635.166 74.774C634.905 74.8693 634.618 74.9224 634.307 74.9334C633.998 74.9449 633.688 74.9091 633.378 74.826C632.949 74.7107 632.664 74.5496 632.528 74.3426C632.391 74.1344 632.417 73.8975 632.604 73.6321L633.406 73.7451C633.314 73.8951 633.302 74.0242 633.371 74.1325C633.441 74.2396 633.589 74.3232 633.814 74.3835C634.059 74.4492 634.292 74.4644 634.513 74.4294C634.735 74.393 634.9 74.3205 635.009 74.2119C635.097 74.124 635.126 74.0382 635.096 73.9543C635.067 73.8708 634.976 73.7892 634.823 73.7096L634.278 73.4311C633.98 73.2752 633.81 73.109 633.769 72.9325C633.73 72.7564 633.81 72.5683 634.009 72.3681C634.175 72.2022 634.384 72.0739 634.635 71.9834C634.886 71.8929 635.158 71.8427 635.45 71.833C635.745 71.8221 636.035 71.8553 636.324 71.9325C636.738 72.0438 636.999 72.1972 637.106 72.3929C637.214 72.5873 637.196 72.8046 637.053 73.0448ZM635.931 75.4386L638.741 72.6271L639.489 72.8274L636.679 75.6389L635.931 75.4386ZM639.552 72.2945C639.422 72.2596 639.342 72.198 639.312 72.1095C639.285 72.0202 639.317 71.9311 639.406 71.842C639.496 71.7517 639.618 71.6871 639.774 71.6483C639.932 71.6086 640.075 71.6062 640.206 71.641C640.335 71.6758 640.414 71.7379 640.441 71.8271C640.471 71.9156 640.44 72.005 640.35 72.0952C640.261 72.1843 640.138 72.2487 639.98 72.2884C639.825 72.3273 639.682 72.3293 639.552 72.2945ZM642.391 73.6056L641.952 74.0449L639.855 73.4828L640.295 73.0434L642.391 73.6056ZM641.53 72.5206L642.277 72.721L639.619 75.3805C639.513 75.4867 639.455 75.5724 639.444 75.6377C639.435 75.7018 639.455 75.7528 639.504 75.7906C639.556 75.8276 639.622 75.8571 639.704 75.879C639.763 75.895 639.819 75.9061 639.87 75.912C639.921 75.918 639.962 75.9225 639.99 75.9255L639.673 76.4138C639.618 76.4144 639.543 76.4101 639.452 76.4009C639.358 76.3928 639.251 76.3734 639.13 76.3425C638.931 76.2922 638.773 76.2174 638.657 76.1182C638.54 76.0189 638.486 75.8991 638.493 75.7587C638.5 75.6183 638.589 75.4633 638.758 75.2937L641.53 72.5206ZM649.32 75.8206L648.54 75.6116C648.633 75.4815 648.684 75.3592 648.695 75.2445C648.706 75.13 648.684 75.0244 648.631 74.928C648.577 74.8317 648.494 74.7473 648.38 74.6751C648.268 74.6033 648.131 74.5455 647.968 74.5018C647.672 74.4227 647.354 74.4062 647.012 74.4523C646.672 74.4988 646.33 74.6089 645.985 74.7826C645.642 74.9568 645.319 75.1951 645.017 75.4978C644.712 75.8028 644.521 76.0782 644.444 76.3238C644.37 76.5698 644.396 76.7778 644.522 76.9477C644.647 77.1176 644.856 77.2417 645.147 77.3198C645.309 77.3632 645.478 77.3884 645.655 77.3956C645.834 77.4019 646.015 77.3892 646.196 77.3574C646.379 77.3257 646.556 77.275 646.729 77.2054C646.905 77.135 647.069 77.0442 647.219 76.9331L647.997 77.144C647.772 77.3171 647.522 77.465 647.246 77.5879C646.975 77.7099 646.689 77.802 646.39 77.8643C646.094 77.9257 645.797 77.955 645.498 77.9522C645.198 77.9493 644.908 77.9102 644.626 77.8347C644.183 77.7159 643.865 77.5331 643.673 77.2865C643.481 77.0386 643.429 76.7439 643.517 76.4023C643.606 76.0612 643.851 75.6911 644.25 75.2921C644.65 74.8918 645.093 74.5752 645.579 74.342C646.067 74.1075 646.561 73.9599 647.061 73.8991C647.562 73.837 648.034 73.8652 648.475 73.9836C648.747 74.0564 648.971 74.1529 649.149 74.2732C649.33 74.3928 649.46 74.5327 649.538 74.693C649.618 74.8521 649.64 75.0269 649.606 75.2174C649.573 75.4066 649.478 75.6077 649.32 75.8206ZM649.322 79.1004C648.962 79.0039 648.709 78.8593 648.561 78.6666C648.413 78.4739 648.374 78.249 648.443 77.9921C648.512 77.7351 648.691 77.4615 648.981 77.171C649.272 76.8794 649.602 76.6442 649.968 76.4655C650.335 76.2869 650.713 76.1731 651.102 76.1242C651.491 76.0753 651.865 76.0991 652.225 76.1955C652.585 76.292 652.839 76.4367 652.986 76.6293C653.134 76.822 653.172 77.0475 653.102 77.3057C653.032 77.5639 652.851 77.8388 652.56 78.1304C652.27 78.4208 651.942 78.6547 651.576 78.8322C651.211 79.0097 650.834 79.1229 650.445 79.1718C650.056 79.2206 649.682 79.1968 649.322 79.1004ZM649.783 78.6416C650.016 78.7042 650.255 78.7108 650.499 78.6616C650.742 78.6124 650.976 78.5226 651.199 78.3921C651.424 78.2621 651.626 78.1069 651.807 77.9262C651.986 77.7468 652.114 77.5721 652.189 77.4019C652.267 77.2309 652.275 77.0791 652.213 76.9465C652.151 76.8139 652.003 76.7163 651.77 76.6538C651.535 76.5908 651.295 76.5843 651.048 76.6343C650.803 76.6848 650.568 76.7756 650.342 76.9068C650.118 77.0372 649.917 77.1921 649.738 77.3715C649.557 77.5521 649.429 77.7273 649.352 77.897C649.277 78.0672 649.271 78.218 649.334 78.3494C649.398 78.4812 649.548 78.5786 649.783 78.6416ZM654.523 78.3062L652.855 79.9756L652.107 79.7753L654.917 76.9637L655.635 77.156L655.177 77.6137L655.225 77.6263C655.461 77.5012 655.719 77.4187 655.998 77.3788C656.278 77.3394 656.562 77.3584 656.851 77.4357C657.112 77.5058 657.301 77.6075 657.417 77.7407C657.534 77.8727 657.568 78.0319 657.52 78.2184C657.471 78.4049 657.33 78.614 657.098 78.8459L655.311 80.6342L654.564 80.4338L656.285 78.7114C656.489 78.5076 656.575 78.329 656.545 78.1754C656.516 78.0206 656.375 77.9092 656.122 77.8414C655.949 77.795 655.767 77.7811 655.577 77.7998C655.389 77.819 655.203 77.8712 655.018 77.9563C654.837 78.0407 654.672 78.1574 654.523 78.3062ZM657.979 81.4213C657.607 81.3217 657.349 81.1743 657.204 80.9792C657.062 80.7832 657.028 80.5568 657.104 80.3C657.179 80.0431 657.356 79.7738 657.638 79.4919C657.924 79.2064 658.249 78.9741 658.614 78.7949C658.98 78.6146 659.358 78.4985 659.747 78.4468C660.137 78.3949 660.513 78.4175 660.874 78.5145C661.166 78.5926 661.387 78.702 661.535 78.8424C661.685 78.9817 661.76 79.1409 661.758 79.32C661.758 79.4995 661.677 79.6874 661.515 79.8837L660.788 79.6887C660.88 79.5462 660.901 79.4082 660.853 79.2746C660.807 79.1414 660.665 79.043 660.426 78.979C660.218 78.9233 659.995 78.9146 659.758 78.9532C659.524 78.9909 659.29 79.0721 659.055 79.1965C658.822 79.3197 658.606 79.4813 658.406 79.6814C658.201 79.8864 658.067 80.0748 658.003 80.2464C657.939 80.4181 657.944 80.5656 658.017 80.6888C658.092 80.8126 658.235 80.9029 658.447 80.9596C658.588 80.9975 658.735 81.013 658.888 81.006C659.044 80.9982 659.197 80.9688 659.347 80.9178C659.499 80.8673 659.641 80.7956 659.774 80.7028L660.501 80.8977C660.293 81.0724 660.05 81.213 659.772 81.3197C659.495 81.4262 659.202 81.49 658.894 81.5111C658.587 81.5325 658.282 81.5026 657.979 81.4213ZM662.114 82.5301C661.736 82.4287 661.47 82.2822 661.315 82.0906C661.163 81.8982 661.121 81.6741 661.188 81.4184C661.259 81.1619 661.44 80.8878 661.731 80.5962C662.019 80.3082 662.346 80.074 662.712 79.8937C663.08 79.7138 663.458 79.5978 663.846 79.5455C664.236 79.4937 664.609 79.5156 664.965 79.6112C665.182 79.6693 665.366 79.7518 665.517 79.8587C665.668 79.9657 665.767 80.0969 665.817 80.2526C665.866 80.4081 665.848 80.5882 665.762 80.7926C665.677 80.9957 665.507 81.2248 665.252 81.4798L665.058 81.6738L662.007 80.8558L662.417 80.4458L664.736 81.0675C664.88 80.9236 664.967 80.7853 664.999 80.6528C665.031 80.5191 665.007 80.4005 664.927 80.297C664.848 80.1939 664.712 80.1165 664.519 80.0646C664.309 80.0084 664.087 79.9971 663.856 80.0308C663.626 80.0636 663.408 80.1291 663.203 80.2271C663 80.3244 662.828 80.4432 662.688 80.5835L662.368 80.9038C662.18 81.0917 662.066 81.2637 662.023 81.4195C661.983 81.5759 662.01 81.7107 662.104 81.8241C662.199 81.9362 662.356 82.0215 662.574 82.08C662.715 82.118 662.859 82.138 663.005 82.1399C663.153 82.1407 663.298 82.1225 663.443 82.0856C663.588 82.0485 663.727 81.9921 663.859 81.9163L664.473 82.1993C664.264 82.3366 664.029 82.4429 663.768 82.5184C663.51 82.593 663.239 82.6325 662.955 82.6371C662.675 82.6408 662.394 82.6051 662.114 82.5301ZM663.699 84.2197L667.562 80.354L668.293 80.5496L667.837 81.0053L667.899 81.0221C668.001 80.9752 668.131 80.9241 668.29 80.8692C668.448 80.8141 668.629 80.7774 668.831 80.759C669.034 80.7392 669.256 80.7613 669.494 80.8251C669.803 80.9082 670.023 81.0397 670.151 81.2196C670.28 81.3995 670.305 81.616 670.228 81.8691C670.152 82.1226 669.962 82.4013 669.659 82.7052C669.355 83.009 669.025 83.251 668.67 83.4311C668.316 83.6101 667.96 83.7257 667.6 83.7781C667.243 83.8292 666.91 83.8133 666.599 83.7302C666.366 83.6676 666.204 83.5878 666.113 83.4907C666.024 83.3941 665.976 83.2961 665.97 83.1969C665.963 83.0977 665.968 83.0122 665.982 82.9403L665.937 82.9283L664.447 84.42L663.699 84.2197ZM666.89 81.9559C666.693 82.1536 666.559 82.3374 666.488 82.5073C666.417 82.6772 666.414 82.824 666.478 82.948C666.544 83.0707 666.684 83.161 666.899 83.2185C667.122 83.2784 667.352 83.2851 667.589 83.2387C667.826 83.191 668.059 83.1024 668.285 82.9728C668.513 82.8437 668.722 82.6852 668.909 82.4973C669.095 82.3118 669.223 82.135 669.294 81.9668C669.366 81.7991 669.369 81.6521 669.303 81.5261C669.239 81.4005 669.094 81.3075 668.869 81.2472C668.652 81.1892 668.428 81.1809 668.196 81.2225C667.967 81.2645 667.74 81.3484 667.517 81.4743C667.294 81.6002 667.085 81.7607 666.89 81.9559ZM673.803 82.027L673.365 82.4663L671.268 81.9042L671.706 81.4649L673.803 82.027ZM672.942 80.9421L673.69 81.1424L671.031 83.8019C670.925 83.9081 670.867 83.9938 670.856 84.0592C670.847 84.1232 670.867 84.1742 670.916 84.212C670.968 84.2491 671.035 84.2786 671.116 84.3004C671.176 84.3165 671.231 84.3275 671.282 84.3335C671.333 84.3394 671.374 84.344 671.402 84.347L671.085 84.8353C671.03 84.8359 670.956 84.8315 670.864 84.8223C670.77 84.8143 670.663 84.7948 670.542 84.7639C670.343 84.7136 670.185 84.6389 670.069 84.5396C669.953 84.4404 669.898 84.3205 669.905 84.1802C669.913 84.0398 670.001 83.8847 670.171 83.7151L672.942 80.9421Z" fill="#373637"/>
</g>
</g>
<g filter="url(#filter1_d_29_1220)">
<mask id="mask8_29_1220" style="mask-type:luminance" maskUnits="userSpaceOnUse" x="663" y="75" width="278" height="127">
<path d="M937.962 128.674L738.809 75.2822C735.7 74.4486 731.334 75.619 729.058 77.8964L664.663 142.326C662.387 144.603 663.062 147.125 666.172 147.959L865.324 201.35C868.434 202.184 872.799 201.014 875.075 198.736L939.47 134.307C941.746 132.029 941.071 129.507 937.962 128.674Z" fill="white"/>
</mask>
<g mask="url(#mask8_29_1220)">
<path d="M937.962 128.674L738.809 75.2822C735.7 74.4486 731.334 75.619 729.058 77.8964L664.663 142.326C662.387 144.603 663.062 147.125 666.172 147.959L865.324 201.35C868.434 202.184 872.799 201.014 875.075 198.736L939.47 134.307C941.746 132.029 941.071 129.507 937.962 128.674Z" fill="white"/>
<path d="M853.819 121.801L739.816 91.2371C738.65 90.9245 737.013 91.3634 736.16 92.2174L730.493 97.8872C729.639 98.7412 729.893 99.687 731.059 99.9995L845.061 130.563C846.227 130.876 847.864 130.437 848.718 129.583L854.385 123.913C855.238 123.059 854.985 122.113 853.819 121.801Z" fill="url(#paint9_linear_29_1220)"/>
<path d="M891.106 158.593L718.694 112.37C717.528 112.058 715.891 112.497 715.038 113.351L711.947 116.443C711.093 117.297 711.346 118.243 712.512 118.556L884.924 164.778C886.09 165.091 887.727 164.652 888.58 163.798L891.671 160.705C892.525 159.851 892.272 158.905 891.106 158.593Z" fill="url(#paint10_linear_29_1220)"/>
<path d="M880.803 168.902L708.391 122.679C707.225 122.367 705.588 122.805 704.735 123.659L701.644 126.752C700.79 127.606 701.044 128.552 702.21 128.864L874.621 175.087C875.787 175.399 877.424 174.96 878.278 174.106L881.369 171.014C882.222 170.16 881.969 169.214 880.803 168.902Z" fill="url(#paint11_linear_29_1220)"/>
<path d="M870.5 179.21L698.088 132.988C696.922 132.675 695.285 133.114 694.432 133.968L691.341 137.061C690.487 137.915 690.74 138.86 691.906 139.173L864.318 185.395C865.484 185.708 867.121 185.269 867.974 184.415L871.065 181.322C871.919 180.468 871.666 179.523 870.5 179.21Z" fill="url(#paint12_linear_29_1220)"/>
</g>
</g>
<g filter="url(#filter2_d_29_1220)">
<mask id="mask9_29_1220" style="mask-type:luminance" maskUnits="userSpaceOnUse" x="507" y="271" width="239" height="89">
<path d="M742.901 325.487L543.748 272.095C540.639 271.262 536.273 272.432 533.997 274.71L508.755 299.966C506.478 302.243 507.154 304.765 510.263 305.599L709.416 358.99C712.525 359.824 716.891 358.654 719.167 356.376L744.41 331.12C746.686 328.842 746.011 326.321 742.901 325.487Z" fill="white"/>
</mask>
<g mask="url(#mask9_29_1220)">
<path d="M742.901 325.487L543.748 272.095C540.639 271.262 536.273 272.432 533.997 274.71L508.755 299.966C506.478 302.243 507.154 304.765 510.263 305.599L709.416 358.99C712.525 359.824 716.891 358.654 719.167 356.376L744.41 331.12C746.686 328.842 746.011 326.321 742.901 325.487Z" fill="white"/>
<path d="M549.681 289.371L544.755 288.05C543.589 287.738 541.952 288.177 541.098 289.031L537.119 293.012C536.266 293.866 536.519 294.811 537.685 295.124L542.611 296.445C543.777 296.757 545.414 296.318 546.268 295.464L550.246 291.483C551.1 290.629 550.847 289.684 549.681 289.371Z" fill="url(#paint13_linear_29_1220)"/>
<path d="M717.167 334.273L570.793 295.031C569.627 294.719 567.99 295.158 567.136 296.012L561.469 301.681C560.616 302.535 560.869 303.481 562.035 303.794L708.409 343.036C709.575 343.348 711.212 342.909 712.066 342.055L717.732 336.386C718.586 335.532 718.333 334.586 717.167 334.273Z" fill="url(#paint14_linear_29_1220)"/>
</g>
</g>
<g filter="url(#filter3_d_29_1220)">
<mask id="mask10_29_1220" style="mask-type:luminance" maskUnits="userSpaceOnUse" x="555" y="166" width="462" height="187">
<path d="M1013.35 266.047L644.379 167.128C641.27 166.295 636.904 167.465 634.628 169.743L556.839 247.574C554.563 249.851 555.238 252.373 558.347 253.206L927.316 352.125C930.425 352.958 934.791 351.788 937.067 349.51L1014.86 271.679C1017.13 269.402 1016.46 266.88 1013.35 266.047Z" fill="white"/>
</mask>
<g mask="url(#mask10_29_1220)">
<path d="M1013.35 266.047L644.379 167.128C641.27 166.295 636.904 167.465 634.628 169.743L556.839 247.574C554.563 249.851 555.238 252.373 558.347 253.206L927.316 352.125C930.425 352.958 934.791 351.788 937.067 349.51L1014.86 271.679C1017.13 269.402 1016.46 266.88 1013.35 266.047Z" fill="white"/>
<path d="M987.613 274.832L645.385 183.083C644.219 182.771 642.582 183.21 641.728 184.064L583.515 242.308C582.662 243.162 582.915 244.108 584.081 244.42L926.309 336.169C927.475 336.482 929.112 336.043 929.965 335.189L988.178 276.945C989.032 276.091 988.779 275.145 987.613 274.832Z" fill="url(#paint15_linear_29_1220)"/>
</g>
</g>
</g>
</g>
<defs>
<filter id="filter0_d_29_1220" x="242.199" y="11.8315" width="503.634" height="404.927" filterUnits="userSpaceOnUse" color-interpolation-filters="sRGB">
<feFlood flood-opacity="0" result="BackgroundImageFix"/>
<feColorMatrix in="SourceAlpha" type="matrix" values="0 0 0 0 0 0 0 0 0 0 0 0 0 0 0 0 0 0 127 0" result="hardAlpha"/>
<feOffset dy="6"/>
<feGaussianBlur stdDeviation="7"/>
<feComposite in2="hardAlpha" operator="out"/>
<feColorMatrix type="matrix" values="0 0 0 0 0.282353 0 0 0 0 0.282353 0 0 0 0 0.282353 0 0 0 0.14 0"/>
<feBlend mode="normal" in2="BackgroundImageFix" result="effect1_dropShadow_29_1220"/>
<feBlend mode="normal" in="SourceGraphic" in2="effect1_dropShadow_29_1220" result="shape"/>
</filter>
<filter id="filter1_d_29_1220" x="649.315" y="67.0135" width="305.502" height="154.606" filterUnits="userSpaceOnUse" color-interpolation-filters="sRGB">
<feFlood flood-opacity="0" result="BackgroundImageFix"/>
<feColorMatrix in="SourceAlpha" type="matrix" values="0 0 0 0 0 0 0 0 0 0 0 0 0 0 0 0 0 0 127 0" result="hardAlpha"/>
<feOffset dy="6"/>
<feGaussianBlur stdDeviation="7"/>
<feComposite in2="hardAlpha" operator="out"/>
<feColorMatrix type="matrix" values="0 0 0 0 0.282353 0 0 0 0 0.282353 0 0 0 0 0.282353 0 0 0 0.14 0"/>
<feBlend mode="normal" in2="BackgroundImageFix" result="effect1_dropShadow_29_1220"/>
<feBlend mode="normal" in="SourceGraphic" in2="effect1_dropShadow_29_1220" result="shape"/>
</filter>
<filter id="filter2_d_29_1220" x="493.407" y="263.827" width="266.351" height="115.432" filterUnits="userSpaceOnUse" color-interpolation-filters="sRGB">
<feFlood flood-opacity="0" result="BackgroundImageFix"/>
<feColorMatrix in="SourceAlpha" type="matrix" values="0 0 0 0 0 0 0 0 0 0 0 0 0 0 0 0 0 0 127 0" result="hardAlpha"/>
<feOffset dy="6"/>
<feGaussianBlur stdDeviation="7"/>
<feComposite in2="hardAlpha" operator="out"/>
<feColorMatrix type="matrix" values="0 0 0 0 0.282353 0 0 0 0 0.282353 0 0 0 0 0.282353 0 0 0 0.14 0"/>
<feBlend mode="normal" in2="BackgroundImageFix" result="effect1_dropShadow_29_1220"/>
<feBlend mode="normal" in="SourceGraphic" in2="effect1_dropShadow_29_1220" result="shape"/>
</filter>
<filter id="filter3_d_29_1220" x="541.491" y="158.86" width="488.713" height="213.534" filterUnits="userSpaceOnUse" color-interpolation-filters="sRGB">
<feFlood flood-opacity="0" result="BackgroundImageFix"/>
<feColorMatrix in="SourceAlpha" type="matrix" values="0 0 0 0 0 0 0 0 0 0 0 0 0 0 0 0 0 0 127 0" result="hardAlpha"/>
<feOffset dy="6"/>
<feGaussianBlur stdDeviation="7"/>
<feComposite in2="hardAlpha" operator="out"/>
<feColorMatrix type="matrix" values="0 0 0 0 0.282353 0 0 0 0 0.282353 0 0 0 0 0.282353 0 0 0 0.14 0"/>
<feBlend mode="normal" in2="BackgroundImageFix" result="effect1_dropShadow_29_1220"/>
<feBlend mode="normal" in="SourceGraphic" in2="effect1_dropShadow_29_1220" result="shape"/>
</filter>
<linearGradient id="paint0_linear_29_1220" x1="557.702" y1="88.7772" x2="562.022" y2="98.497" gradientUnits="userSpaceOnUse">
<stop stop-color="#CACACA"/>
<stop offset="1" stop-color="#E6E6E6"/>
</linearGradient>
<linearGradient id="paint1_linear_29_1220" x1="639.621" y1="117.732" x2="602.224" y2="73.4954" gradientUnits="userSpaceOnUse">
<stop stop-color="#E5E5E5"/>
<stop offset="1" stop-color="#CBCBCB"/>
</linearGradient>
<linearGradient id="paint2_linear_29_1220" x1="532.975" y1="113.518" x2="537.294" y2="123.238" gradientUnits="userSpaceOnUse">
<stop stop-color="#CACACA"/>
<stop offset="1" stop-color="#E6E6E6"/>
</linearGradient>
<linearGradient id="paint3_linear_29_1220" x1="614.894" y1="142.473" x2="577.497" y2="98.2363" gradientUnits="userSpaceOnUse">
<stop stop-color="#E5E5E5"/>
<stop offset="1" stop-color="#CBCBCB"/>
</linearGradient>
<linearGradient id="paint4_linear_29_1220" x1="508.247" y1="138.259" x2="512.567" y2="147.979" gradientUnits="userSpaceOnUse">
<stop stop-color="#CACACA"/>
<stop offset="1" stop-color="#E6E6E6"/>
</linearGradient>
<linearGradient id="paint5_linear_29_1220" x1="590.165" y1="167.214" x2="552.768" y2="122.977" gradientUnits="userSpaceOnUse">
<stop stop-color="#E5E5E5"/>
<stop offset="1" stop-color="#CBCBCB"/>
</linearGradient>
<linearGradient id="paint6_linear_29_1220" x1="483.52" y1="163.001" x2="487.839" y2="172.72" gradientUnits="userSpaceOnUse">
<stop stop-color="#CACACA"/>
<stop offset="1" stop-color="#E6E6E6"/>
</linearGradient>
<linearGradient id="paint7_linear_29_1220" x1="565.438" y1="191.955" x2="528.041" y2="147.719" gradientUnits="userSpaceOnUse">
<stop stop-color="#E5E5E5"/>
<stop offset="1" stop-color="#CBCBCB"/>
</linearGradient>
<linearGradient id="paint8_linear_29_1220" x1="599.647" y1="54.3393" x2="603.883" y2="72.2028" gradientUnits="userSpaceOnUse">
<stop stop-color="#E5421E"/>
<stop offset="0.4362" stop-color="#D82108"/>
</linearGradient>
<linearGradient id="paint9_linear_29_1220" x1="846.513" y1="129.841" x2="784.826" y2="53.0109" gradientUnits="userSpaceOnUse">
<stop stop-color="#E5E5E5"/>
<stop offset="1" stop-color="#CBCBCB"/>
</linearGradient>
<linearGradient id="paint10_linear_29_1220" x1="885.359" y1="164.111" x2="812.147" y2="50.4626" gradientUnits="userSpaceOnUse">
<stop stop-color="#E5E5E5"/>
<stop offset="1" stop-color="#CBCBCB"/>
</linearGradient>
<linearGradient id="paint11_linear_29_1220" x1="875.056" y1="174.419" x2="801.845" y2="60.7712" gradientUnits="userSpaceOnUse">
<stop stop-color="#E5E5E5"/>
<stop offset="1" stop-color="#CBCBCB"/>
</linearGradient>
<linearGradient id="paint12_linear_29_1220" x1="864.753" y1="184.728" x2="791.542" y2="71.0799" gradientUnits="userSpaceOnUse">
<stop stop-color="#E5E5E5"/>
<stop offset="1" stop-color="#CBCBCB"/>
</linearGradient>
<linearGradient id="paint13_linear_29_1220" x1="542.646" y1="288.375" x2="546.965" y2="298.095" gradientUnits="userSpaceOnUse">
<stop stop-color="#CACACA"/>
<stop offset="1" stop-color="#E6E6E6"/>
</linearGradient>
<linearGradient id="paint14_linear_29_1220" x1="709.44" y1="342.201" x2="635.097" y2="244.262" gradientUnits="userSpaceOnUse">
<stop stop-color="#E5E5E5"/>
<stop offset="1" stop-color="#CBCBCB"/>
</linearGradient>
<linearGradient id="paint15_linear_29_1220" x1="930.051" y1="329.395" x2="727.382" y2="106.574" gradientUnits="userSpaceOnUse">
<stop stop-color="#E5E5E5"/>
<stop offset="1" stop-color="#CBCBCB"/>
</linearGradient>
<clipPath id="clip0_29_1220">
<rect width="1024" height="426" rx="24" fill="white"/>
</clipPath>
<clipPath id="clip1_29_1220">
<rect width="781" height="398" fill="white" transform="translate(246 14)"/>
</clipPath>
</defs>
</svg>
