<svg width="1024" height="275" viewBox="0 0 1024 275" fill="none" xmlns="http://www.w3.org/2000/svg">
<g clip-path="url(#clip0_36_2319)">
<rect width="1024" height="275" rx="24" fill="white"/>
<line x1="283.5" y1="243" x2="283.5" y2="32" stroke="#DDDDDD"/>
<g filter="url(#filter0_d_36_2319)">
<rect x="379" y="54" width="549" height="167" rx="8" fill="white"/>
<rect x="403" y="78" width="501" height="119" rx="3" fill="url(#paint0_linear_36_2319)"/>
</g>
<path d="M49.875 81.0001V58.4532H54.5938V81.0001H49.875ZM57.9531 81.0001V64.2501H62.5156V67.0626H62.6094C62.9531 66.1043 63.5365 65.3387 64.3594 64.7657C65.1927 64.1928 66.1719 63.9064 67.2969 63.9064C68.0781 63.9064 68.7812 64.0418 69.4062 64.3126C70.0312 64.5835 70.5573 64.9741 70.9844 65.4845C71.4219 65.9949 71.7292 66.6199 71.9062 67.3595H72C72.25 66.6512 72.625 66.0418 73.125 65.5314C73.6354 65.0105 74.2344 64.6095 74.9219 64.3282C75.6198 64.047 76.3802 63.9064 77.2031 63.9064C78.2969 63.9064 79.2552 64.1407 80.0781 64.6095C80.901 65.0782 81.5417 65.7345 82 66.5782C82.4583 67.422 82.6875 68.4116 82.6875 69.547V81.0001H78.125V70.6876C78.125 70.0418 78.0156 69.4949 77.7969 69.047C77.5885 68.5991 77.2812 68.2605 76.875 68.0314C76.4792 67.8022 75.9844 67.6876 75.3906 67.6876C74.8177 67.6876 74.3125 67.8178 73.875 68.0782C73.4479 68.3387 73.1146 68.7032 72.875 69.172C72.6354 69.6407 72.5156 70.1876 72.5156 70.8126V81.0001H68.125V70.547C68.125 69.9428 68.0156 69.4272 67.7969 69.0001C67.5781 68.573 67.2656 68.2501 66.8594 68.0314C66.4635 67.8022 65.9844 67.6876 65.4219 67.6876C64.849 67.6876 64.3438 67.823 63.9062 68.0939C63.4688 68.3647 63.125 68.7397 62.875 69.2189C62.6354 69.698 62.5156 70.2553 62.5156 70.8907V81.0001H57.9531ZM90.5625 81.2657C89.4479 81.2657 88.4688 81.0522 87.625 80.6251C86.7812 80.1876 86.1198 79.5887 85.6406 78.8282C85.1719 78.0574 84.9375 77.1824 84.9375 76.2032V76.172C84.9375 75.1512 85.1927 74.2814 85.7031 73.5626C86.2135 72.8335 86.9531 72.2605 87.9219 71.8439C88.8906 71.4272 90.0677 71.172 91.4531 71.0782L97.9844 70.672V73.5157L92.1406 73.8907C91.2656 73.9428 90.599 74.1512 90.1406 74.5157C89.6823 74.8699 89.4531 75.3439 89.4531 75.9376V75.9689C89.4531 76.5835 89.6875 77.0678 90.1562 77.422C90.625 77.7657 91.2552 77.9376 92.0469 77.9376C92.724 77.9376 93.3281 77.8074 93.8594 77.547C94.401 77.2762 94.8229 76.9116 95.125 76.4532C95.4375 75.9845 95.5938 75.4585 95.5938 74.8751V69.797C95.5938 69.0574 95.3594 68.4741 94.8906 68.047C94.4219 67.6095 93.7396 67.3907 92.8438 67.3907C91.9896 67.3907 91.3125 67.5678 90.8125 67.922C90.3125 68.2762 90.0052 68.7241 89.8906 69.2657L89.8594 69.4064H85.6875L85.7031 69.2189C85.7865 68.1876 86.125 67.271 86.7188 66.4689C87.3229 65.6668 88.1562 65.0418 89.2188 64.5939C90.2917 64.1355 91.5625 63.9064 93.0312 63.9064C94.4792 63.9064 95.7344 64.1407 96.7969 64.6095C97.8594 65.0678 98.6823 65.7189 99.2656 66.5626C99.8594 67.4064 100.156 68.3907 100.156 69.5157V81.0001H95.5938V78.5001H95.5C95.1875 79.073 94.7812 79.5678 94.2812 79.9845C93.7917 80.3907 93.2344 80.7085 92.6094 80.9376C91.9844 81.1564 91.3021 81.2657 90.5625 81.2657ZM110.938 86.8126C109.406 86.8126 108.068 86.5991 106.922 86.172C105.786 85.7553 104.88 85.1876 104.203 84.4689C103.536 83.7501 103.13 82.9428 102.984 82.047L102.969 81.9064H107.406L107.453 82.0157C107.641 82.422 108.031 82.7814 108.625 83.0939C109.219 83.4064 109.99 83.5626 110.938 83.5626C112.115 83.5626 113.01 83.2814 113.625 82.7189C114.24 82.1564 114.547 81.4064 114.547 80.4689V77.9064H114.453C114.161 78.4897 113.766 78.9949 113.266 79.422C112.766 79.8491 112.177 80.1824 111.5 80.422C110.833 80.6512 110.094 80.7657 109.281 80.7657C107.885 80.7657 106.677 80.4324 105.656 79.7657C104.646 79.0991 103.865 78.146 103.312 76.9064C102.771 75.6564 102.5 74.1668 102.5 72.4376V72.422C102.5 70.6407 102.776 69.1147 103.328 67.8439C103.891 66.573 104.682 65.5991 105.703 64.922C106.724 64.2449 107.943 63.9064 109.359 63.9064C110.151 63.9064 110.875 64.0366 111.531 64.297C112.188 64.5574 112.76 64.9272 113.25 65.4064C113.75 65.8855 114.151 66.4532 114.453 67.1095H114.547V64.2501H119.109V80.5314C119.109 81.771 118.776 82.8595 118.109 83.797C117.453 84.7449 116.51 85.4845 115.281 86.0157C114.062 86.547 112.615 86.8126 110.938 86.8126ZM110.859 77.422C111.609 77.422 112.26 77.2241 112.812 76.8282C113.365 76.4324 113.792 75.8699 114.094 75.1407C114.406 74.4116 114.562 73.547 114.562 72.547V72.5314C114.562 71.5314 114.406 70.672 114.094 69.9532C113.792 69.2241 113.359 68.6668 112.797 68.2814C112.245 67.8855 111.599 67.6876 110.859 67.6876C110.109 67.6876 109.453 67.8855 108.891 68.2814C108.328 68.6668 107.896 69.2189 107.594 69.9376C107.292 70.6564 107.141 71.521 107.141 72.5314V72.547C107.141 73.547 107.292 74.4116 107.594 75.1407C107.896 75.8699 108.328 76.4324 108.891 76.8282C109.453 77.2241 110.109 77.422 110.859 77.422ZM129.734 81.3439C128.026 81.3439 126.557 80.9949 125.328 80.297C124.099 79.5887 123.151 78.5835 122.484 77.2814C121.828 75.9793 121.5 74.4376 121.5 72.6564V72.6407C121.5 70.8595 121.828 69.3178 122.484 68.0157C123.151 66.7032 124.083 65.6928 125.281 64.9845C126.49 64.2657 127.911 63.9064 129.547 63.9064C131.182 63.9064 132.594 64.2553 133.781 64.9532C134.979 65.6407 135.901 66.6147 136.547 67.8751C137.203 69.1355 137.531 70.6095 137.531 72.297V73.7032H123.734V70.8282H135.375L133.203 73.5157V71.7657C133.203 70.7866 133.052 69.9689 132.75 69.3126C132.448 68.646 132.026 68.146 131.484 67.8126C130.953 67.4793 130.333 67.3126 129.625 67.3126C128.917 67.3126 128.286 67.4845 127.734 67.8282C127.193 68.172 126.766 68.6772 126.453 69.3439C126.151 70.0001 126 70.8074 126 71.7657V73.5314C126 74.4585 126.151 75.2501 126.453 75.9064C126.766 76.5626 127.208 77.0678 127.781 77.422C128.354 77.7657 129.036 77.9376 129.828 77.9376C130.453 77.9376 130.995 77.8387 131.453 77.6407C131.911 77.4428 132.286 77.1928 132.578 76.8907C132.87 76.5887 133.068 76.2814 133.172 75.9689L133.203 75.8751H137.391L137.344 76.047C137.219 76.6616 136.974 77.2814 136.609 77.9064C136.245 78.5314 135.75 79.1043 135.125 79.6251C134.51 80.146 133.755 80.5626 132.859 80.8751C131.974 81.1876 130.932 81.3439 129.734 81.3439Z" fill="#1B1D23"/>
<path d="M54.5234 46.3224C53.4362 46.3224 52.4889 46.1564 51.6816 45.8243C50.8809 45.4923 50.2461 45.0236 49.7773 44.4181C49.3151 43.8126 49.0547 43.0997 48.9961 42.2794L48.9863 42.1427H51.4277L51.4375 42.2501C51.4831 42.6473 51.6426 42.9923 51.916 43.2853C52.196 43.5782 52.5638 43.8061 53.0195 43.9689C53.4818 44.1316 54.0091 44.213 54.6016 44.213C55.181 44.213 55.6855 44.1284 56.1152 43.9591C56.5514 43.7833 56.89 43.5424 57.1309 43.2365C57.3783 42.924 57.502 42.5691 57.502 42.172V42.1622C57.502 41.6479 57.3034 41.2312 56.9062 40.9122C56.5156 40.5932 55.8646 40.3361 54.9531 40.1407L53.4395 39.8282C52.0072 39.5288 50.959 39.0437 50.2949 38.3732C49.6309 37.7026 49.2988 36.8432 49.2988 35.795V35.7853C49.3053 34.9454 49.5299 34.213 49.9727 33.588C50.4219 32.9565 51.0371 32.465 51.8184 32.1134C52.6061 31.7618 53.5078 31.5861 54.5234 31.5861C55.5586 31.5861 56.457 31.7586 57.2188 32.1036C57.9805 32.4487 58.5794 32.9207 59.0156 33.5197C59.4518 34.1186 59.6992 34.8022 59.7578 35.5704L59.7676 35.7072H57.3555L57.3359 35.59C57.2773 35.2124 57.1243 34.8836 56.877 34.6036C56.6361 34.3172 56.3138 34.0958 55.9102 33.9396C55.5065 33.7768 55.0378 33.6954 54.5039 33.6954C53.9766 33.6954 53.5111 33.7768 53.1074 33.9396C52.7103 34.0958 52.3978 34.3172 52.1699 34.6036C51.9421 34.8901 51.8281 35.2319 51.8281 35.629V35.6388C51.8281 36.1336 52.0202 36.5405 52.4043 36.8595C52.7949 37.1785 53.4264 37.4292 54.2988 37.6115L55.8125 37.9337C56.8021 38.142 57.6061 38.4187 58.2246 38.7638C58.8431 39.1088 59.2988 39.5385 59.5918 40.0529C59.8848 40.5672 60.0312 41.1824 60.0312 41.8986V41.9083C60.0312 42.8133 59.8066 43.5978 59.3574 44.2618C58.9147 44.9194 58.2799 45.4272 57.4531 45.7853C56.6328 46.1434 55.6562 46.3224 54.5234 46.3224ZM62.4922 46.0001V31.3615H64.9238V46.0001H62.4922ZM69.1621 46.0001L65.5977 41.1857L67.3457 39.6329L72.0527 46.0001H69.1621ZM64.6797 42.5333L64.6113 39.7599H65.0605L68.9863 35.4044H71.7988L67.1113 40.3556L66.1543 41.0197L64.6797 42.5333ZM77.6973 46.215C76.6491 46.215 75.7441 45.9936 74.9824 45.5509C74.2272 45.1017 73.6445 44.4669 73.2344 43.6466C72.8307 42.8263 72.6289 41.853 72.6289 40.7267V40.7169C72.6289 39.6036 72.8307 38.6336 73.2344 37.8068C73.6445 36.9799 74.2207 36.3387 74.9629 35.8829C75.7051 35.4207 76.5807 35.1896 77.5898 35.1896C78.5924 35.1896 79.4583 35.4109 80.1875 35.8536C80.9232 36.2963 81.4863 36.9181 81.877 37.7189C82.2741 38.5131 82.4727 39.4441 82.4727 40.5118V41.3126H73.8496V39.6818H81.291L80.1289 41.2052V40.2384C80.1289 39.5353 80.0215 38.9526 79.8066 38.4904C79.5918 38.0281 79.2956 37.6798 78.918 37.4454C78.5469 37.2111 78.1139 37.0939 77.6191 37.0939C77.1243 37.0939 76.6849 37.2143 76.3008 37.4552C75.9167 37.6961 75.6107 38.0509 75.3828 38.5197C75.1615 38.9884 75.0508 39.5613 75.0508 40.2384V41.2052C75.0508 41.8562 75.1582 42.4129 75.373 42.8751C75.5944 43.3374 75.9069 43.6922 76.3105 43.9396C76.7207 44.187 77.2025 44.3107 77.7559 44.3107C78.1855 44.3107 78.5566 44.2488 78.8691 44.1251C79.1816 43.9949 79.4355 43.8387 79.6309 43.6564C79.8262 43.4676 79.9629 43.2853 80.041 43.1095L80.0703 43.0411H82.3652L82.3457 43.129C82.2611 43.4871 82.1048 43.8484 81.877 44.213C81.6491 44.5711 81.3464 44.9031 80.9688 45.2091C80.5911 45.5086 80.1289 45.7527 79.582 45.9415C79.0417 46.1238 78.4134 46.215 77.6973 46.215ZM84.7871 46.0001V31.3615H87.2188V46.0001H84.7871ZM94.6113 46.215C93.5632 46.215 92.6582 45.9936 91.8965 45.5509C91.1413 45.1017 90.5586 44.4669 90.1484 43.6466C89.7448 42.8263 89.543 41.853 89.543 40.7267V40.7169C89.543 39.6036 89.7448 38.6336 90.1484 37.8068C90.5586 36.9799 91.1348 36.3387 91.877 35.8829C92.6191 35.4207 93.4948 35.1896 94.5039 35.1896C95.5065 35.1896 96.3724 35.4109 97.1016 35.8536C97.8372 36.2963 98.4004 36.9181 98.791 37.7189C99.1882 38.5131 99.3867 39.4441 99.3867 40.5118V41.3126H90.7637V39.6818H98.2051L97.043 41.2052V40.2384C97.043 39.5353 96.9355 38.9526 96.7207 38.4904C96.5059 38.0281 96.2096 37.6798 95.832 37.4454C95.4609 37.2111 95.028 37.0939 94.5332 37.0939C94.0384 37.0939 93.599 37.2143 93.2148 37.4552C92.8307 37.6961 92.5247 38.0509 92.2969 38.5197C92.0755 38.9884 91.9648 39.5613 91.9648 40.2384V41.2052C91.9648 41.8562 92.0723 42.4129 92.2871 42.8751C92.5085 43.3374 92.821 43.6922 93.2246 43.9396C93.6348 44.187 94.1165 44.3107 94.6699 44.3107C95.0996 44.3107 95.4707 44.2488 95.7832 44.1251C96.0957 43.9949 96.3496 43.8387 96.5449 43.6564C96.7402 43.4676 96.877 43.2853 96.9551 43.1095L96.9844 43.0411H99.2793L99.2598 43.129C99.1751 43.4871 99.0189 43.8484 98.791 44.213C98.5632 44.5711 98.2604 44.9031 97.8828 45.2091C97.5052 45.5086 97.043 45.7527 96.4961 45.9415C95.9557 46.1238 95.3275 46.215 94.6113 46.215ZM105.725 46.088C104.54 46.088 103.677 45.8634 103.137 45.4142C102.603 44.9585 102.336 44.2098 102.336 43.1681V37.2794H100.725V35.4044H102.336V32.7775H104.807V35.4044H106.975V37.2794H104.807V42.6896C104.807 43.2104 104.917 43.588 105.139 43.8224C105.367 44.0503 105.725 44.1642 106.213 44.1642C106.369 44.1642 106.503 44.1609 106.613 44.1544C106.73 44.1414 106.851 44.1316 106.975 44.1251V45.9806C106.812 46.0066 106.623 46.0294 106.408 46.049C106.193 46.075 105.965 46.088 105.725 46.088ZM113.713 46.215C112.665 46.215 111.757 45.9936 110.988 45.5509C110.227 45.1082 109.637 44.4767 109.221 43.6564C108.811 42.8295 108.605 41.8465 108.605 40.7072V40.6876C108.605 39.5548 108.814 38.5782 109.23 37.7579C109.647 36.9311 110.236 36.2963 110.998 35.8536C111.766 35.4109 112.671 35.1896 113.713 35.1896C114.761 35.1896 115.666 35.4109 116.428 35.8536C117.189 36.2963 117.779 36.9279 118.195 37.7482C118.612 38.5685 118.82 39.5483 118.82 40.6876V40.7072C118.82 41.8465 118.612 42.8295 118.195 43.6564C117.785 44.4767 117.199 45.1082 116.438 45.5509C115.676 45.9936 114.768 46.215 113.713 46.215ZM113.713 44.2423C114.266 44.2423 114.738 44.1023 115.129 43.8224C115.52 43.5424 115.819 43.1388 116.027 42.6115C116.236 42.0841 116.34 41.4493 116.34 40.7072V40.6876C116.34 39.9454 116.236 39.3139 116.027 38.7931C115.819 38.2657 115.52 37.8621 115.129 37.5822C114.738 37.3022 114.266 37.1622 113.713 37.1622C113.166 37.1622 112.697 37.3022 112.307 37.5822C111.916 37.8621 111.617 38.2657 111.408 38.7931C111.2 39.3139 111.096 39.9454 111.096 40.6876V40.7072C111.096 41.4559 111.2 42.0939 111.408 42.6212C111.617 43.1486 111.916 43.5522 112.307 43.8322C112.697 44.1056 113.166 44.2423 113.713 44.2423ZM121.047 46.0001V35.4044H123.479V37.0353H123.615C123.876 36.4624 124.263 36.0131 124.777 35.6876C125.298 35.3556 125.946 35.1896 126.721 35.1896C127.899 35.1896 128.801 35.5346 129.426 36.2247C130.057 36.9148 130.373 37.8881 130.373 39.1447V46.0001H127.941V39.6915C127.941 38.8842 127.766 38.2755 127.414 37.8654C127.069 37.4487 126.535 37.2404 125.812 37.2404C125.331 37.2404 124.914 37.3478 124.562 37.5626C124.217 37.7775 123.951 38.0769 123.762 38.4611C123.573 38.8452 123.479 39.3009 123.479 39.8282V46.0001H121.047ZM138.293 46.0001V31.9083H140.812V43.881H147.258V46.0001H138.293ZM153.674 46.215C152.626 46.215 151.717 45.9936 150.949 45.5509C150.188 45.1082 149.598 44.4767 149.182 43.6564C148.771 42.8295 148.566 41.8465 148.566 40.7072V40.6876C148.566 39.5548 148.775 38.5782 149.191 37.7579C149.608 36.9311 150.197 36.2963 150.959 35.8536C151.727 35.4109 152.632 35.1896 153.674 35.1896C154.722 35.1896 155.627 35.4109 156.389 35.8536C157.15 36.2963 157.74 36.9279 158.156 37.7482C158.573 38.5685 158.781 39.5483 158.781 40.6876V40.7072C158.781 41.8465 158.573 42.8295 158.156 43.6564C157.746 44.4767 157.16 45.1082 156.398 45.5509C155.637 45.9936 154.729 46.215 153.674 46.215ZM153.674 44.2423C154.227 44.2423 154.699 44.1023 155.09 43.8224C155.48 43.5424 155.78 43.1388 155.988 42.6115C156.197 42.0841 156.301 41.4493 156.301 40.7072V40.6876C156.301 39.9454 156.197 39.3139 155.988 38.7931C155.78 38.2657 155.48 37.8621 155.09 37.5822C154.699 37.3022 154.227 37.1622 153.674 37.1622C153.127 37.1622 152.658 37.3022 152.268 37.5822C151.877 37.8621 151.577 38.2657 151.369 38.7931C151.161 39.3139 151.057 39.9454 151.057 40.6876V40.7072C151.057 41.4559 151.161 42.0939 151.369 42.6212C151.577 43.1486 151.877 43.5522 152.268 43.8322C152.658 44.1056 153.127 44.2423 153.674 44.2423ZM163.957 46.1759C163.28 46.1759 162.678 46.0457 162.15 45.7853C161.623 45.5249 161.21 45.157 160.91 44.6818C160.611 44.2 160.461 43.6401 160.461 43.0021V42.9825C160.461 42.351 160.617 41.8107 160.93 41.3615C161.242 40.9057 161.698 40.5476 162.297 40.2872C162.896 40.0268 163.622 39.8706 164.475 39.8185L168.43 39.5841V41.1857L164.826 41.42C164.162 41.4526 163.667 41.5958 163.342 41.8497C163.023 42.0971 162.863 42.4357 162.863 42.8654V42.8849C162.863 43.3341 163.033 43.6857 163.371 43.9396C163.716 44.1935 164.156 44.3204 164.689 44.3204C165.178 44.3204 165.611 44.2228 165.988 44.0275C166.366 43.8322 166.665 43.5685 166.887 43.2365C167.108 42.8979 167.219 42.5203 167.219 42.1036V38.7931C167.219 38.2592 167.049 37.8491 166.711 37.5626C166.372 37.2697 165.881 37.1232 165.236 37.1232C164.67 37.1232 164.211 37.2273 163.859 37.4357C163.514 37.6375 163.283 37.9174 163.166 38.2755L163.156 38.3243H160.871L160.881 38.2365C160.959 37.631 161.187 37.1004 161.564 36.6447C161.949 36.1889 162.46 35.8341 163.098 35.5802C163.742 35.3198 164.491 35.1896 165.344 35.1896C166.249 35.1896 167.02 35.3328 167.658 35.6193C168.296 35.9057 168.785 36.3159 169.123 36.8497C169.462 37.3771 169.631 38.0118 169.631 38.754V46.0001H167.219V44.506H167.072C166.877 44.851 166.623 45.1505 166.311 45.4044C166.005 45.6518 165.653 45.8439 165.256 45.9806C164.859 46.1108 164.426 46.1759 163.957 46.1759ZM176.174 46.1857C175.282 46.1857 174.51 45.9643 173.859 45.5216C173.208 45.0724 172.704 44.4376 172.346 43.6173C171.988 42.797 171.809 41.8269 171.809 40.7072V40.6974C171.809 39.5646 171.984 38.5913 172.336 37.7775C172.694 36.9572 173.199 36.3256 173.85 35.8829C174.501 35.4402 175.272 35.2189 176.164 35.2189C176.652 35.2189 177.108 35.297 177.531 35.4532C177.954 35.6095 178.326 35.8276 178.645 36.1075C178.964 36.3875 179.217 36.726 179.406 37.1232H179.543V31.3615H181.975V46.0001H179.543V44.3107H179.406C179.211 44.7013 178.954 45.0366 178.635 45.3165C178.322 45.5965 177.958 45.8113 177.541 45.9611C177.124 46.1108 176.669 46.1857 176.174 46.1857ZM176.916 44.1349C177.463 44.1349 177.935 43.9982 178.332 43.7247C178.729 43.4448 179.035 43.0476 179.25 42.5333C179.465 42.019 179.572 41.4135 179.572 40.7169V40.6974C179.572 39.9878 179.462 39.379 179.24 38.8712C179.025 38.3569 178.719 37.963 178.322 37.6896C177.925 37.4096 177.456 37.2697 176.916 37.2697C176.376 37.2697 175.907 37.4096 175.51 37.6896C175.119 37.963 174.816 38.3536 174.602 38.8615C174.393 39.3693 174.289 39.9812 174.289 40.6974V40.7072C174.289 41.4168 174.393 42.0288 174.602 42.5431C174.816 43.0574 175.119 43.4513 175.51 43.7247C175.907 43.9982 176.376 44.1349 176.916 44.1349ZM189.357 46.215C188.309 46.215 187.404 45.9936 186.643 45.5509C185.887 45.1017 185.305 44.4669 184.895 43.6466C184.491 42.8263 184.289 41.853 184.289 40.7267V40.7169C184.289 39.6036 184.491 38.6336 184.895 37.8068C185.305 36.9799 185.881 36.3387 186.623 35.8829C187.365 35.4207 188.241 35.1896 189.25 35.1896C190.253 35.1896 191.118 35.4109 191.848 35.8536C192.583 36.2963 193.146 36.9181 193.537 37.7189C193.934 38.5131 194.133 39.4441 194.133 40.5118V41.3126H185.51V39.6818H192.951L191.789 41.2052V40.2384C191.789 39.5353 191.682 38.9526 191.467 38.4904C191.252 38.0281 190.956 37.6798 190.578 37.4454C190.207 37.2111 189.774 37.0939 189.279 37.0939C188.785 37.0939 188.345 37.2143 187.961 37.4552C187.577 37.6961 187.271 38.0509 187.043 38.5197C186.822 38.9884 186.711 39.5613 186.711 40.2384V41.2052C186.711 41.8562 186.818 42.4129 187.033 42.8751C187.255 43.3374 187.567 43.6922 187.971 43.9396C188.381 44.187 188.863 44.3107 189.416 44.3107C189.846 44.3107 190.217 44.2488 190.529 44.1251C190.842 43.9949 191.096 43.8387 191.291 43.6564C191.486 43.4676 191.623 43.2853 191.701 43.1095L191.73 43.0411H194.025L194.006 43.129C193.921 43.4871 193.765 43.8484 193.537 44.213C193.309 44.5711 193.007 44.9031 192.629 45.2091C192.251 45.5086 191.789 45.7527 191.242 45.9415C190.702 46.1238 190.074 46.215 189.357 46.215ZM196.359 46.0001V35.4044H198.791V37.0743H198.928C199.104 36.4884 199.423 36.0327 199.885 35.7072C200.347 35.3816 200.913 35.2189 201.584 35.2189C201.766 35.2189 201.939 35.2319 202.102 35.2579C202.271 35.2775 202.411 35.3003 202.521 35.3263V37.5138C202.346 37.4682 202.16 37.4357 201.965 37.4161C201.776 37.3901 201.577 37.3771 201.369 37.3771C200.848 37.3771 200.393 37.478 200.002 37.6798C199.618 37.8751 199.318 38.1583 199.104 38.5294C198.895 38.894 198.791 39.3335 198.791 39.8478V46.0001H196.359Z" fill="#484848"/>
</g>
<defs>
<filter id="filter0_d_36_2319" x="365" y="46" width="577" height="195" filterUnits="userSpaceOnUse" color-interpolation-filters="sRGB">
<feFlood flood-opacity="0" result="BackgroundImageFix"/>
<feColorMatrix in="SourceAlpha" type="matrix" values="0 0 0 0 0 0 0 0 0 0 0 0 0 0 0 0 0 0 127 0" result="hardAlpha"/>
<feOffset dy="6"/>
<feGaussianBlur stdDeviation="7"/>
<feComposite in2="hardAlpha" operator="out"/>
<feColorMatrix type="matrix" values="0 0 0 0 0.282353 0 0 0 0 0.282353 0 0 0 0 0.282353 0 0 0 0.14 0"/>
<feBlend mode="normal" in2="BackgroundImageFix" result="effect1_dropShadow_36_2319"/>
<feBlend mode="normal" in="SourceGraphic" in2="effect1_dropShadow_36_2319" result="shape"/>
</filter>
<linearGradient id="paint0_linear_36_2319" x1="897.494" y1="185.1" x2="399.172" y2="156.42" gradientUnits="userSpaceOnUse">
<stop stop-color="#E5E5E5"/>
<stop offset="1" stop-color="#CBCBCB"/>
</linearGradient>
<clipPath id="clip0_36_2319">
<rect width="1024" height="275" rx="24" fill="white"/>
</clipPath>
</defs>
</svg>
