<svg width="1024" height="275" viewBox="0 0 1024 275" fill="none" xmlns="http://www.w3.org/2000/svg">
<rect width="1024" height="275" rx="24" fill="white"/>
<line x1="283.5" y1="243" x2="283.5" y2="32" stroke="#DDDDDD"/>
<g filter="url(#filter0_d_35_2274)">
<rect x="505" y="56" width="299" height="164" rx="8" fill="white"/>
<rect x="529" y="80" width="251" height="17" rx="3" fill="url(#paint0_linear_35_2274)"/>
<rect x="529" y="113" width="251" height="17" rx="3" fill="url(#paint1_linear_35_2274)"/>
<rect x="529" y="146" width="251" height="17" rx="3" fill="url(#paint2_linear_35_2274)"/>
<rect x="529" y="179" width="251" height="17" rx="3" fill="url(#paint3_linear_35_2274)"/>
</g>
<path d="M59.9062 81.3907C57.7083 81.3907 55.8021 80.922 54.1875 79.9845C52.5833 79.047 51.3438 77.7085 50.4688 75.9689C49.6042 74.2189 49.1719 72.1355 49.1719 69.7189V69.7032C49.1719 67.2762 49.6094 65.198 50.4844 63.4689C51.3594 61.7293 52.599 60.396 54.2031 59.4689C55.8073 58.5314 57.7083 58.0626 59.9062 58.0626C61.7292 58.0626 63.3542 58.4168 64.7812 59.1251C66.2083 59.8335 67.3542 60.8074 68.2188 62.047C69.0833 63.2762 69.5885 64.6928 69.7344 66.297L69.75 66.4376H65.1562L65.0938 66.172C64.9167 65.3387 64.599 64.6147 64.1406 64.0001C63.6823 63.3855 63.0938 62.9116 62.375 62.5782C61.6667 62.2345 60.8438 62.0626 59.9062 62.0626C58.6979 62.0626 57.651 62.3699 56.7656 62.9845C55.8802 63.5991 55.1927 64.4793 54.7031 65.6251C54.224 66.7605 53.9844 68.1147 53.9844 69.6876V69.7032C53.9844 71.2866 54.224 72.6564 54.7031 73.8126C55.1927 74.9585 55.8802 75.8439 56.7656 76.4689C57.6615 77.0835 58.7083 77.3907 59.9062 77.3907C60.8125 77.3907 61.6198 77.2241 62.3281 76.8907C63.0469 76.5574 63.6458 76.0782 64.125 75.4532C64.6042 74.8178 64.9427 74.0522 65.1406 73.1564L65.1719 73.0001H69.7656L69.75 73.172C69.6042 74.7657 69.0938 76.1824 68.2188 77.422C67.3542 78.6616 66.2083 79.6355 64.7812 80.3439C63.3542 81.0418 61.7292 81.3907 59.9062 81.3907ZM77.1875 81.2657C76.0729 81.2657 75.0938 81.0522 74.25 80.6251C73.4062 80.1876 72.7448 79.5887 72.2656 78.8282C71.7969 78.0574 71.5625 77.1824 71.5625 76.2032V76.172C71.5625 75.1512 71.8177 74.2814 72.3281 73.5626C72.8385 72.8335 73.5781 72.2605 74.5469 71.8439C75.5156 71.4272 76.6927 71.172 78.0781 71.0782L84.6094 70.672V73.5157L78.7656 73.8907C77.8906 73.9428 77.224 74.1512 76.7656 74.5157C76.3073 74.8699 76.0781 75.3439 76.0781 75.9376V75.9689C76.0781 76.5835 76.3125 77.0678 76.7812 77.422C77.25 77.7657 77.8802 77.9376 78.6719 77.9376C79.349 77.9376 79.9531 77.8074 80.4844 77.547C81.026 77.2762 81.4479 76.9116 81.75 76.4532C82.0625 75.9845 82.2188 75.4585 82.2188 74.8751V69.797C82.2188 69.0574 81.9844 68.4741 81.5156 68.047C81.0469 67.6095 80.3646 67.3907 79.4688 67.3907C78.6146 67.3907 77.9375 67.5678 77.4375 67.922C76.9375 68.2762 76.6302 68.7241 76.5156 69.2657L76.4844 69.4064H72.3125L72.3281 69.2189C72.4115 68.1876 72.75 67.271 73.3438 66.4689C73.9479 65.6668 74.7812 65.0418 75.8438 64.5939C76.9167 64.1355 78.1875 63.9064 79.6562 63.9064C81.1042 63.9064 82.3594 64.1407 83.4219 64.6095C84.4844 65.0678 85.3073 65.7189 85.8906 66.5626C86.4844 67.4064 86.7812 68.3907 86.7812 69.5157V81.0001H82.2188V78.5001H82.125C81.8125 79.073 81.4062 79.5678 80.9062 79.9845C80.4167 80.3907 79.8594 80.7085 79.2344 80.9376C78.6094 81.1564 77.9271 81.2657 77.1875 81.2657ZM89.7344 81.0001V64.2501H94.2969V67.172H94.3906C94.6406 66.1407 95.0938 65.3387 95.75 64.7657C96.4062 64.1928 97.224 63.9064 98.2031 63.9064C98.4531 63.9064 98.6927 63.922 98.9219 63.9532C99.151 63.9845 99.349 64.0262 99.5156 64.0782V68.0939C99.3281 68.021 99.0885 67.9637 98.7969 67.922C98.5052 67.8699 98.1927 67.8439 97.8594 67.8439C97.1094 67.8439 96.4688 67.9897 95.9375 68.2814C95.4062 68.573 95 69.0001 94.7188 69.5626C94.4375 70.1251 94.2969 70.8126 94.2969 71.6251V81.0001H89.7344ZM107.062 81.3439C105.656 81.3439 104.443 80.9949 103.422 80.297C102.401 79.5991 101.615 78.5991 101.062 77.297C100.521 75.9949 100.25 74.4376 100.25 72.6251V72.6095C100.25 70.7866 100.526 69.2293 101.078 67.9376C101.63 66.6355 102.411 65.6407 103.422 64.9532C104.443 64.2553 105.656 63.9064 107.062 63.9064C107.854 63.9064 108.583 64.0366 109.25 64.297C109.917 64.5574 110.5 64.9324 111 65.422C111.51 65.9012 111.917 66.4793 112.219 67.1564H112.312V58.4532H116.875V81.0001H112.312V78.1407H112.219C111.927 78.8074 111.531 79.3803 111.031 79.8595C110.531 80.3282 109.948 80.6928 109.281 80.9532C108.615 81.2137 107.875 81.3439 107.062 81.3439ZM108.594 77.5626C109.333 77.5626 109.984 77.3647 110.547 76.9689C111.109 76.5626 111.547 75.9897 111.859 75.2501C112.172 74.5105 112.328 73.6355 112.328 72.6251V72.6095C112.328 71.5991 112.167 70.7293 111.844 70.0001C111.531 69.2605 111.094 68.6928 110.531 68.297C109.979 67.8907 109.333 67.6876 108.594 67.6876C107.833 67.6876 107.177 67.8855 106.625 68.2814C106.073 68.6772 105.646 69.2449 105.344 69.9845C105.042 70.7137 104.891 71.5887 104.891 72.6095V72.6251C104.891 73.6355 105.036 74.5105 105.328 75.2501C105.63 75.9897 106.057 76.5626 106.609 76.9689C107.172 77.3647 107.833 77.5626 108.594 77.5626Z" fill="#1B1D23"/>
<path d="M54.5234 46.3224C53.4362 46.3224 52.4889 46.1564 51.6816 45.8243C50.8809 45.4923 50.2461 45.0236 49.7773 44.4181C49.3151 43.8126 49.0547 43.0997 48.9961 42.2794L48.9863 42.1427H51.4277L51.4375 42.2501C51.4831 42.6473 51.6426 42.9923 51.916 43.2853C52.196 43.5782 52.5638 43.8061 53.0195 43.9689C53.4818 44.1316 54.0091 44.213 54.6016 44.213C55.181 44.213 55.6855 44.1284 56.1152 43.9591C56.5514 43.7833 56.89 43.5424 57.1309 43.2365C57.3783 42.924 57.502 42.5691 57.502 42.172V42.1622C57.502 41.6479 57.3034 41.2312 56.9062 40.9122C56.5156 40.5932 55.8646 40.3361 54.9531 40.1407L53.4395 39.8282C52.0072 39.5288 50.959 39.0437 50.2949 38.3732C49.6309 37.7026 49.2988 36.8432 49.2988 35.795V35.7853C49.3053 34.9454 49.5299 34.213 49.9727 33.588C50.4219 32.9565 51.0371 32.465 51.8184 32.1134C52.6061 31.7618 53.5078 31.5861 54.5234 31.5861C55.5586 31.5861 56.457 31.7586 57.2188 32.1036C57.9805 32.4487 58.5794 32.9207 59.0156 33.5197C59.4518 34.1186 59.6992 34.8022 59.7578 35.5704L59.7676 35.7072H57.3555L57.3359 35.59C57.2773 35.2124 57.1243 34.8836 56.877 34.6036C56.6361 34.3172 56.3138 34.0958 55.9102 33.9396C55.5065 33.7768 55.0378 33.6954 54.5039 33.6954C53.9766 33.6954 53.5111 33.7768 53.1074 33.9396C52.7103 34.0958 52.3978 34.3172 52.1699 34.6036C51.9421 34.8901 51.8281 35.2319 51.8281 35.629V35.6388C51.8281 36.1336 52.0202 36.5405 52.4043 36.8595C52.7949 37.1785 53.4264 37.4292 54.2988 37.6115L55.8125 37.9337C56.8021 38.142 57.6061 38.4187 58.2246 38.7638C58.8431 39.1088 59.2988 39.5385 59.5918 40.0529C59.8848 40.5672 60.0312 41.1824 60.0312 41.8986V41.9083C60.0312 42.8133 59.8066 43.5978 59.3574 44.2618C58.9147 44.9194 58.2799 45.4272 57.4531 45.7853C56.6328 46.1434 55.6562 46.3224 54.5234 46.3224ZM62.4922 46.0001V31.3615H64.9238V46.0001H62.4922ZM69.1621 46.0001L65.5977 41.1857L67.3457 39.6329L72.0527 46.0001H69.1621ZM64.6797 42.5333L64.6113 39.7599H65.0605L68.9863 35.4044H71.7988L67.1113 40.3556L66.1543 41.0197L64.6797 42.5333ZM77.6973 46.215C76.6491 46.215 75.7441 45.9936 74.9824 45.5509C74.2272 45.1017 73.6445 44.4669 73.2344 43.6466C72.8307 42.8263 72.6289 41.853 72.6289 40.7267V40.7169C72.6289 39.6036 72.8307 38.6336 73.2344 37.8068C73.6445 36.9799 74.2207 36.3387 74.9629 35.8829C75.7051 35.4207 76.5807 35.1896 77.5898 35.1896C78.5924 35.1896 79.4583 35.4109 80.1875 35.8536C80.9232 36.2963 81.4863 36.9181 81.877 37.7189C82.2741 38.5131 82.4727 39.4441 82.4727 40.5118V41.3126H73.8496V39.6818H81.291L80.1289 41.2052V40.2384C80.1289 39.5353 80.0215 38.9526 79.8066 38.4904C79.5918 38.0281 79.2956 37.6798 78.918 37.4454C78.5469 37.2111 78.1139 37.0939 77.6191 37.0939C77.1243 37.0939 76.6849 37.2143 76.3008 37.4552C75.9167 37.6961 75.6107 38.0509 75.3828 38.5197C75.1615 38.9884 75.0508 39.5613 75.0508 40.2384V41.2052C75.0508 41.8562 75.1582 42.4129 75.373 42.8751C75.5944 43.3374 75.9069 43.6922 76.3105 43.9396C76.7207 44.187 77.2025 44.3107 77.7559 44.3107C78.1855 44.3107 78.5566 44.2488 78.8691 44.1251C79.1816 43.9949 79.4355 43.8387 79.6309 43.6564C79.8262 43.4676 79.9629 43.2853 80.041 43.1095L80.0703 43.0411H82.3652L82.3457 43.129C82.2611 43.4871 82.1048 43.8484 81.877 44.213C81.6491 44.5711 81.3464 44.9031 80.9688 45.2091C80.5911 45.5086 80.1289 45.7527 79.582 45.9415C79.0417 46.1238 78.4134 46.215 77.6973 46.215ZM84.7871 46.0001V31.3615H87.2188V46.0001H84.7871ZM94.6113 46.215C93.5632 46.215 92.6582 45.9936 91.8965 45.5509C91.1413 45.1017 90.5586 44.4669 90.1484 43.6466C89.7448 42.8263 89.543 41.853 89.543 40.7267V40.7169C89.543 39.6036 89.7448 38.6336 90.1484 37.8068C90.5586 36.9799 91.1348 36.3387 91.877 35.8829C92.6191 35.4207 93.4948 35.1896 94.5039 35.1896C95.5065 35.1896 96.3724 35.4109 97.1016 35.8536C97.8372 36.2963 98.4004 36.9181 98.791 37.7189C99.1882 38.5131 99.3867 39.4441 99.3867 40.5118V41.3126H90.7637V39.6818H98.2051L97.043 41.2052V40.2384C97.043 39.5353 96.9355 38.9526 96.7207 38.4904C96.5059 38.0281 96.2096 37.6798 95.832 37.4454C95.4609 37.2111 95.028 37.0939 94.5332 37.0939C94.0384 37.0939 93.599 37.2143 93.2148 37.4552C92.8307 37.6961 92.5247 38.0509 92.2969 38.5197C92.0755 38.9884 91.9648 39.5613 91.9648 40.2384V41.2052C91.9648 41.8562 92.0723 42.4129 92.2871 42.8751C92.5085 43.3374 92.821 43.6922 93.2246 43.9396C93.6348 44.187 94.1165 44.3107 94.6699 44.3107C95.0996 44.3107 95.4707 44.2488 95.7832 44.1251C96.0957 43.9949 96.3496 43.8387 96.5449 43.6564C96.7402 43.4676 96.877 43.2853 96.9551 43.1095L96.9844 43.0411H99.2793L99.2598 43.129C99.1751 43.4871 99.0189 43.8484 98.791 44.213C98.5632 44.5711 98.2604 44.9031 97.8828 45.2091C97.5052 45.5086 97.043 45.7527 96.4961 45.9415C95.9557 46.1238 95.3275 46.215 94.6113 46.215ZM105.725 46.088C104.54 46.088 103.677 45.8634 103.137 45.4142C102.603 44.9585 102.336 44.2098 102.336 43.1681V37.2794H100.725V35.4044H102.336V32.7775H104.807V35.4044H106.975V37.2794H104.807V42.6896C104.807 43.2104 104.917 43.588 105.139 43.8224C105.367 44.0503 105.725 44.1642 106.213 44.1642C106.369 44.1642 106.503 44.1609 106.613 44.1544C106.73 44.1414 106.851 44.1316 106.975 44.1251V45.9806C106.812 46.0066 106.623 46.0294 106.408 46.049C106.193 46.075 105.965 46.088 105.725 46.088ZM113.713 46.215C112.665 46.215 111.757 45.9936 110.988 45.5509C110.227 45.1082 109.637 44.4767 109.221 43.6564C108.811 42.8295 108.605 41.8465 108.605 40.7072V40.6876C108.605 39.5548 108.814 38.5782 109.23 37.7579C109.647 36.9311 110.236 36.2963 110.998 35.8536C111.766 35.4109 112.671 35.1896 113.713 35.1896C114.761 35.1896 115.666 35.4109 116.428 35.8536C117.189 36.2963 117.779 36.9279 118.195 37.7482C118.612 38.5685 118.82 39.5483 118.82 40.6876V40.7072C118.82 41.8465 118.612 42.8295 118.195 43.6564C117.785 44.4767 117.199 45.1082 116.438 45.5509C115.676 45.9936 114.768 46.215 113.713 46.215ZM113.713 44.2423C114.266 44.2423 114.738 44.1023 115.129 43.8224C115.52 43.5424 115.819 43.1388 116.027 42.6115C116.236 42.0841 116.34 41.4493 116.34 40.7072V40.6876C116.34 39.9454 116.236 39.3139 116.027 38.7931C115.819 38.2657 115.52 37.8621 115.129 37.5822C114.738 37.3022 114.266 37.1622 113.713 37.1622C113.166 37.1622 112.697 37.3022 112.307 37.5822C111.916 37.8621 111.617 38.2657 111.408 38.7931C111.2 39.3139 111.096 39.9454 111.096 40.6876V40.7072C111.096 41.4559 111.2 42.0939 111.408 42.6212C111.617 43.1486 111.916 43.5522 112.307 43.8322C112.697 44.1056 113.166 44.2423 113.713 44.2423ZM121.047 46.0001V35.4044H123.479V37.0353H123.615C123.876 36.4624 124.263 36.0131 124.777 35.6876C125.298 35.3556 125.946 35.1896 126.721 35.1896C127.899 35.1896 128.801 35.5346 129.426 36.2247C130.057 36.9148 130.373 37.8881 130.373 39.1447V46.0001H127.941V39.6915C127.941 38.8842 127.766 38.2755 127.414 37.8654C127.069 37.4487 126.535 37.2404 125.812 37.2404C125.331 37.2404 124.914 37.3478 124.562 37.5626C124.217 37.7775 123.951 38.0769 123.762 38.4611C123.573 38.8452 123.479 39.3009 123.479 39.8282V46.0001H121.047ZM138.293 46.0001V31.9083H140.812V43.881H147.258V46.0001H138.293ZM153.674 46.215C152.626 46.215 151.717 45.9936 150.949 45.5509C150.188 45.1082 149.598 44.4767 149.182 43.6564C148.771 42.8295 148.566 41.8465 148.566 40.7072V40.6876C148.566 39.5548 148.775 38.5782 149.191 37.7579C149.608 36.9311 150.197 36.2963 150.959 35.8536C151.727 35.4109 152.632 35.1896 153.674 35.1896C154.722 35.1896 155.627 35.4109 156.389 35.8536C157.15 36.2963 157.74 36.9279 158.156 37.7482C158.573 38.5685 158.781 39.5483 158.781 40.6876V40.7072C158.781 41.8465 158.573 42.8295 158.156 43.6564C157.746 44.4767 157.16 45.1082 156.398 45.5509C155.637 45.9936 154.729 46.215 153.674 46.215ZM153.674 44.2423C154.227 44.2423 154.699 44.1023 155.09 43.8224C155.48 43.5424 155.78 43.1388 155.988 42.6115C156.197 42.0841 156.301 41.4493 156.301 40.7072V40.6876C156.301 39.9454 156.197 39.3139 155.988 38.7931C155.78 38.2657 155.48 37.8621 155.09 37.5822C154.699 37.3022 154.227 37.1622 153.674 37.1622C153.127 37.1622 152.658 37.3022 152.268 37.5822C151.877 37.8621 151.577 38.2657 151.369 38.7931C151.161 39.3139 151.057 39.9454 151.057 40.6876V40.7072C151.057 41.4559 151.161 42.0939 151.369 42.6212C151.577 43.1486 151.877 43.5522 152.268 43.8322C152.658 44.1056 153.127 44.2423 153.674 44.2423ZM163.957 46.1759C163.28 46.1759 162.678 46.0457 162.15 45.7853C161.623 45.5249 161.21 45.157 160.91 44.6818C160.611 44.2 160.461 43.6401 160.461 43.0021V42.9825C160.461 42.351 160.617 41.8107 160.93 41.3615C161.242 40.9057 161.698 40.5476 162.297 40.2872C162.896 40.0268 163.622 39.8706 164.475 39.8185L168.43 39.5841V41.1857L164.826 41.42C164.162 41.4526 163.667 41.5958 163.342 41.8497C163.023 42.0971 162.863 42.4357 162.863 42.8654V42.8849C162.863 43.3341 163.033 43.6857 163.371 43.9396C163.716 44.1935 164.156 44.3204 164.689 44.3204C165.178 44.3204 165.611 44.2228 165.988 44.0275C166.366 43.8322 166.665 43.5685 166.887 43.2365C167.108 42.8979 167.219 42.5203 167.219 42.1036V38.7931C167.219 38.2592 167.049 37.8491 166.711 37.5626C166.372 37.2697 165.881 37.1232 165.236 37.1232C164.67 37.1232 164.211 37.2273 163.859 37.4357C163.514 37.6375 163.283 37.9174 163.166 38.2755L163.156 38.3243H160.871L160.881 38.2365C160.959 37.631 161.187 37.1004 161.564 36.6447C161.949 36.1889 162.46 35.8341 163.098 35.5802C163.742 35.3198 164.491 35.1896 165.344 35.1896C166.249 35.1896 167.02 35.3328 167.658 35.6193C168.296 35.9057 168.785 36.3159 169.123 36.8497C169.462 37.3771 169.631 38.0118 169.631 38.754V46.0001H167.219V44.506H167.072C166.877 44.851 166.623 45.1505 166.311 45.4044C166.005 45.6518 165.653 45.8439 165.256 45.9806C164.859 46.1108 164.426 46.1759 163.957 46.1759ZM176.174 46.1857C175.282 46.1857 174.51 45.9643 173.859 45.5216C173.208 45.0724 172.704 44.4376 172.346 43.6173C171.988 42.797 171.809 41.8269 171.809 40.7072V40.6974C171.809 39.5646 171.984 38.5913 172.336 37.7775C172.694 36.9572 173.199 36.3256 173.85 35.8829C174.501 35.4402 175.272 35.2189 176.164 35.2189C176.652 35.2189 177.108 35.297 177.531 35.4532C177.954 35.6095 178.326 35.8276 178.645 36.1075C178.964 36.3875 179.217 36.726 179.406 37.1232H179.543V31.3615H181.975V46.0001H179.543V44.3107H179.406C179.211 44.7013 178.954 45.0366 178.635 45.3165C178.322 45.5965 177.958 45.8113 177.541 45.9611C177.124 46.1108 176.669 46.1857 176.174 46.1857ZM176.916 44.1349C177.463 44.1349 177.935 43.9982 178.332 43.7247C178.729 43.4448 179.035 43.0476 179.25 42.5333C179.465 42.019 179.572 41.4135 179.572 40.7169V40.6974C179.572 39.9878 179.462 39.379 179.24 38.8712C179.025 38.3569 178.719 37.963 178.322 37.6896C177.925 37.4096 177.456 37.2697 176.916 37.2697C176.376 37.2697 175.907 37.4096 175.51 37.6896C175.119 37.963 174.816 38.3536 174.602 38.8615C174.393 39.3693 174.289 39.9812 174.289 40.6974V40.7072C174.289 41.4168 174.393 42.0288 174.602 42.5431C174.816 43.0574 175.119 43.4513 175.51 43.7247C175.907 43.9982 176.376 44.1349 176.916 44.1349ZM189.357 46.215C188.309 46.215 187.404 45.9936 186.643 45.5509C185.887 45.1017 185.305 44.4669 184.895 43.6466C184.491 42.8263 184.289 41.853 184.289 40.7267V40.7169C184.289 39.6036 184.491 38.6336 184.895 37.8068C185.305 36.9799 185.881 36.3387 186.623 35.8829C187.365 35.4207 188.241 35.1896 189.25 35.1896C190.253 35.1896 191.118 35.4109 191.848 35.8536C192.583 36.2963 193.146 36.9181 193.537 37.7189C193.934 38.5131 194.133 39.4441 194.133 40.5118V41.3126H185.51V39.6818H192.951L191.789 41.2052V40.2384C191.789 39.5353 191.682 38.9526 191.467 38.4904C191.252 38.0281 190.956 37.6798 190.578 37.4454C190.207 37.2111 189.774 37.0939 189.279 37.0939C188.785 37.0939 188.345 37.2143 187.961 37.4552C187.577 37.6961 187.271 38.0509 187.043 38.5197C186.822 38.9884 186.711 39.5613 186.711 40.2384V41.2052C186.711 41.8562 186.818 42.4129 187.033 42.8751C187.255 43.3374 187.567 43.6922 187.971 43.9396C188.381 44.187 188.863 44.3107 189.416 44.3107C189.846 44.3107 190.217 44.2488 190.529 44.1251C190.842 43.9949 191.096 43.8387 191.291 43.6564C191.486 43.4676 191.623 43.2853 191.701 43.1095L191.73 43.0411H194.025L194.006 43.129C193.921 43.4871 193.765 43.8484 193.537 44.213C193.309 44.5711 193.007 44.9031 192.629 45.2091C192.251 45.5086 191.789 45.7527 191.242 45.9415C190.702 46.1238 190.074 46.215 189.357 46.215ZM196.359 46.0001V35.4044H198.791V37.0743H198.928C199.104 36.4884 199.423 36.0327 199.885 35.7072C200.347 35.3816 200.913 35.2189 201.584 35.2189C201.766 35.2189 201.939 35.2319 202.102 35.2579C202.271 35.2775 202.411 35.3003 202.521 35.3263V37.5138C202.346 37.4682 202.16 37.4357 201.965 37.4161C201.776 37.3901 201.577 37.3771 201.369 37.3771C200.848 37.3771 200.393 37.478 200.002 37.6798C199.618 37.8751 199.318 38.1583 199.104 38.5294C198.895 38.894 198.791 39.3335 198.791 39.8478V46.0001H196.359Z" fill="#484848"/>
<defs>
<filter id="filter0_d_35_2274" x="491" y="48" width="327" height="192" filterUnits="userSpaceOnUse" color-interpolation-filters="sRGB">
<feFlood flood-opacity="0" result="BackgroundImageFix"/>
<feColorMatrix in="SourceAlpha" type="matrix" values="0 0 0 0 0 0 0 0 0 0 0 0 0 0 0 0 0 0 127 0" result="hardAlpha"/>
<feOffset dy="6"/>
<feGaussianBlur stdDeviation="7"/>
<feComposite in2="hardAlpha" operator="out"/>
<feColorMatrix type="matrix" values="0 0 0 0 0.282353 0 0 0 0 0.282353 0 0 0 0 0.282353 0 0 0 0.14 0"/>
<feBlend mode="normal" in2="BackgroundImageFix" result="effect1_dropShadow_35_2274"/>
<feBlend mode="normal" in="SourceGraphic" in2="effect1_dropShadow_35_2274" result="shape"/>
</filter>
<linearGradient id="paint0_linear_35_2274" x1="776.74" y1="95.3" x2="536.06" y2="46.7208" gradientUnits="userSpaceOnUse">
<stop stop-color="#E5E5E5"/>
<stop offset="1" stop-color="#CBCBCB"/>
</linearGradient>
<linearGradient id="paint1_linear_35_2274" x1="776.74" y1="128.3" x2="536.06" y2="79.7208" gradientUnits="userSpaceOnUse">
<stop stop-color="#E5E5E5"/>
<stop offset="1" stop-color="#CBCBCB"/>
</linearGradient>
<linearGradient id="paint2_linear_35_2274" x1="776.74" y1="161.3" x2="536.06" y2="112.721" gradientUnits="userSpaceOnUse">
<stop stop-color="#E5E5E5"/>
<stop offset="1" stop-color="#CBCBCB"/>
</linearGradient>
<linearGradient id="paint3_linear_35_2274" x1="776.74" y1="194.3" x2="536.06" y2="145.721" gradientUnits="userSpaceOnUse">
<stop stop-color="#E5E5E5"/>
<stop offset="1" stop-color="#CBCBCB"/>
</linearGradient>
</defs>
</svg>
