<svg width="1024" height="275" viewBox="0 0 1024 275" fill="none" xmlns="http://www.w3.org/2000/svg">
<g clip-path="url(#clip0_31_2014)">
<rect width="1024" height="275" rx="24" fill="white"/>
<path d="M55.2656 81.0001V62.3439H48.75V58.4532H66.5156V62.3439H59.9844V81.0001H55.2656ZM69.9062 81.2657C68.7917 81.2657 67.8125 81.0522 66.9688 80.6251C66.125 80.1876 65.4635 79.5887 64.9844 78.8282C64.5156 78.0574 64.2812 77.1824 64.2812 76.2032V76.172C64.2812 75.1512 64.5365 74.2814 65.0469 73.5626C65.5573 72.8335 66.2969 72.2605 67.2656 71.8439C68.2344 71.4272 69.4115 71.172 70.7969 71.0782L77.3281 70.672V73.5157L71.4844 73.8907C70.6094 73.9428 69.9427 74.1512 69.4844 74.5157C69.026 74.8699 68.7969 75.3439 68.7969 75.9376V75.9689C68.7969 76.5835 69.0312 77.0678 69.5 77.422C69.9688 77.7657 70.599 77.9376 71.3906 77.9376C72.0677 77.9376 72.6719 77.8074 73.2031 77.547C73.7448 77.2762 74.1667 76.9116 74.4688 76.4532C74.7812 75.9845 74.9375 75.4585 74.9375 74.8751V69.797C74.9375 69.0574 74.7031 68.4741 74.2344 68.047C73.7656 67.6095 73.0833 67.3907 72.1875 67.3907C71.3333 67.3907 70.6562 67.5678 70.1562 67.922C69.6562 68.2762 69.349 68.7241 69.2344 69.2657L69.2031 69.4064H65.0312L65.0469 69.2189C65.1302 68.1876 65.4688 67.271 66.0625 66.4689C66.6667 65.6668 67.5 65.0418 68.5625 64.5939C69.6354 64.1355 70.9062 63.9064 72.375 63.9064C73.8229 63.9064 75.0781 64.1407 76.1406 64.6095C77.2031 65.0678 78.026 65.7189 78.6094 66.5626C79.2031 67.4064 79.5 68.3907 79.5 69.5157V81.0001H74.9375V78.5001H74.8438C74.5312 79.073 74.125 79.5678 73.625 79.9845C73.1354 80.3907 72.5781 80.7085 71.9531 80.9376C71.3281 81.1564 70.6458 81.2657 69.9062 81.2657ZM92.375 81.3439C91.5729 81.3439 90.8385 81.2137 90.1719 80.9532C89.5052 80.6928 88.9219 80.3282 88.4219 79.8595C87.9219 79.3803 87.5208 78.8074 87.2188 78.1407H87.125V81.0001H82.5625V58.4532H87.125V67.1564H87.2188C87.5312 66.4793 87.9375 65.9012 88.4375 65.422C88.9375 64.9324 89.5208 64.5574 90.1875 64.297C90.8646 64.0366 91.599 63.9064 92.3906 63.9064C93.7969 63.9064 95.0052 64.2553 96.0156 64.9532C97.0365 65.6407 97.8229 66.6355 98.375 67.9376C98.9271 69.2293 99.2031 70.7866 99.2031 72.6095V72.6251C99.2031 74.4376 98.9271 75.9949 98.375 77.297C97.8229 78.5991 97.0365 79.5991 96.0156 80.297C94.9948 80.9949 93.7812 81.3439 92.375 81.3439ZM90.8594 77.5626C91.6198 77.5626 92.276 77.3647 92.8281 76.9689C93.3802 76.5626 93.8073 75.9897 94.1094 75.2501C94.4115 74.5105 94.5625 73.6355 94.5625 72.6251V72.6095C94.5625 71.5887 94.4115 70.7137 94.1094 69.9845C93.8073 69.2449 93.375 68.6772 92.8125 68.2814C92.2604 67.8855 91.6094 67.6876 90.8594 67.6876C90.1198 67.6876 89.4688 67.8907 88.9062 68.297C88.3542 68.6928 87.9167 69.2605 87.5938 70.0001C87.2812 70.7293 87.125 71.5991 87.125 72.6095V72.6251C87.125 73.6355 87.2812 74.5105 87.5938 75.2501C87.9062 75.9897 88.3438 76.5626 88.9062 76.9689C89.4688 77.3647 90.1198 77.5626 90.8594 77.5626ZM108.281 81.0001V58.4532H113V77.1095H122.859V81.0001H108.281ZM125.359 81.0001V64.2501H129.922V81.0001H125.359ZM127.641 62.0939C126.953 62.0939 126.375 61.8595 125.906 61.3907C125.438 60.922 125.203 60.3647 125.203 59.7189C125.203 59.0626 125.438 58.5053 125.906 58.047C126.375 57.5782 126.953 57.3439 127.641 57.3439C128.328 57.3439 128.906 57.5782 129.375 58.047C129.844 58.5053 130.078 59.0626 130.078 59.7189C130.078 60.3647 129.844 60.922 129.375 61.3907C128.906 61.8595 128.328 62.0939 127.641 62.0939ZM139.875 81.3439C138.333 81.3439 137.021 81.1199 135.938 80.672C134.854 80.2241 134.005 79.6043 133.391 78.8126C132.786 78.0105 132.422 77.0835 132.297 76.0314L132.281 75.8907H136.734L136.766 76.0314C136.911 76.6876 137.24 77.198 137.75 77.5626C138.26 77.9272 138.969 78.1095 139.875 78.1095C140.458 78.1095 140.953 78.0418 141.359 77.9064C141.766 77.7605 142.078 77.5574 142.297 77.297C142.526 77.0366 142.641 76.7241 142.641 76.3595V76.3439C142.641 75.896 142.479 75.5366 142.156 75.2657C141.833 74.9949 141.26 74.7657 140.438 74.5782L137.594 73.9845C136.51 73.7553 135.604 73.4272 134.875 73.0001C134.156 72.5626 133.615 72.0262 133.25 71.3907C132.885 70.7449 132.703 70.0053 132.703 69.172V69.1564C132.703 68.0835 132.99 67.1564 133.562 66.3751C134.135 65.5939 134.948 64.9897 136 64.5626C137.062 64.1251 138.302 63.9064 139.719 63.9064C141.198 63.9064 142.453 64.146 143.484 64.6251C144.526 65.0939 145.323 65.7293 145.875 66.5314C146.438 67.3335 146.734 68.2241 146.766 69.2032V69.3595H142.562L142.547 69.2345C142.474 68.6303 142.193 68.1303 141.703 67.7345C141.224 67.3282 140.562 67.1251 139.719 67.1251C139.198 67.1251 138.745 67.198 138.359 67.3439C137.974 67.4897 137.677 67.698 137.469 67.9689C137.26 68.2293 137.156 68.5418 137.156 68.9064V68.922C137.156 69.2032 137.224 69.4585 137.359 69.6876C137.505 69.9064 137.745 70.0991 138.078 70.2657C138.411 70.4324 138.859 70.5782 139.422 70.7032L142.266 71.3126C144.026 71.6772 145.286 72.2241 146.047 72.9532C146.818 73.6824 147.203 74.6616 147.203 75.8907V75.9064C147.203 77.0001 146.891 77.9532 146.266 78.7657C145.641 79.5782 144.776 80.2137 143.672 80.672C142.578 81.1199 141.312 81.3439 139.875 81.3439ZM156.109 81.3439C154.255 81.3439 152.88 80.9532 151.984 80.172C151.089 79.3907 150.641 78.1043 150.641 76.3126V67.6876H148.312V64.2501H150.641V60.1564H155.25V64.2501H158.312V67.6876H155.25V75.8126C155.25 76.5939 155.422 77.1407 155.766 77.4532C156.12 77.7553 156.641 77.9064 157.328 77.9064C157.536 77.9064 157.719 77.9012 157.875 77.8907C158.031 77.8699 158.177 77.8491 158.312 77.8282V81.172C158.062 81.2137 157.75 81.2501 157.375 81.2814C157.01 81.323 156.589 81.3439 156.109 81.3439Z" fill="#1B1D23"/>
<line x1="283.5" y1="243" x2="283.5" y2="32" stroke="#DDDDDD"/>
<rect x="46.5" y="101.5" width="70" height="23" rx="4.5" fill="#0F6CBD"/>
<rect x="46.5" y="101.5" width="70" height="23" rx="4.5" stroke="#0F6CBD"/>
<path d="M58.2704 117.5H55.313V108.773H58.33C59.1965 108.773 59.9408 108.947 60.563 109.297C61.188 109.643 61.6681 110.142 62.0033 110.793C62.3386 111.443 62.5062 112.222 62.5062 113.128C62.5062 114.037 62.3371 114.818 61.9991 115.472C61.6638 116.125 61.1795 116.626 60.5459 116.976C59.9153 117.325 59.1567 117.5 58.2704 117.5ZM56.8939 116.132H58.1937C58.8016 116.132 59.3087 116.021 59.715 115.8C60.1212 115.575 60.4266 115.241 60.6312 114.798C60.8357 114.352 60.938 113.795 60.938 113.128C60.938 112.46 60.8357 111.906 60.6312 111.466C60.4266 111.023 60.1241 110.692 59.7235 110.473C59.3258 110.251 58.8314 110.141 58.2405 110.141H56.8939V116.132ZM64.1883 117.5V108.773H69.8644V110.098H65.7693V112.467H69.5704V113.793H65.7693V116.175H69.8985V117.5H64.1883ZM71.6574 117.5V108.773H77.2483V110.098H73.2383V112.467H76.8647V113.793H73.2383V117.5H71.6574ZM78.8995 117.5H77.212L80.2844 108.773H82.2362L85.3129 117.5H83.6254L81.2944 110.562H81.2262L78.8995 117.5ZM78.9549 114.078H83.5572V115.348H78.9549V114.078ZM92.1438 108.773H93.7247V114.474C93.7247 115.099 93.577 115.649 93.2816 116.124C92.9889 116.598 92.577 116.969 92.0458 117.236C91.5145 117.5 90.8938 117.632 90.1835 117.632C89.4705 117.632 88.8483 117.5 88.3171 117.236C87.7858 116.969 87.3739 116.598 87.0813 116.124C86.7887 115.649 86.6424 115.099 86.6424 114.474V108.773H88.2233V114.342C88.2233 114.706 88.3029 115.03 88.462 115.314C88.6239 115.598 88.8512 115.821 89.1438 115.983C89.4364 116.142 89.783 116.222 90.1835 116.222C90.5841 116.222 90.9307 116.142 91.2233 115.983C91.5188 115.821 91.746 115.598 91.9051 115.314C92.0642 115.03 92.1438 114.706 92.1438 114.342V108.773ZM95.6231 117.5V108.773H97.2041V116.175H101.048V117.5H95.6231ZM101.103 110.098V108.773H108.066V110.098H105.369V117.5H103.801V110.098H101.103Z" fill="white"/>
<rect x="368" y="117" width="571" height="41" rx="8" fill="#DDDDDD"/>
<g filter="url(#filter0_d_31_2014)">
<rect x="372" y="121" width="281.5" height="33" rx="5" fill="white" shape-rendering="crispEdges"/>
<path d="M498.723 142V133.619H495.688V132.136H503.521V133.619H500.486V142H498.723ZM505.88 142.123C505.41 142.123 504.989 142.032 504.615 141.85C504.246 141.667 503.954 141.41 503.74 141.077C503.531 140.74 503.426 140.343 503.426 139.888V139.874C503.426 139.432 503.535 139.051 503.754 138.732C503.973 138.409 504.294 138.156 504.718 137.974C505.142 137.791 505.657 137.684 506.263 137.652L509.024 137.481V138.603L506.502 138.767C506.023 138.794 505.67 138.894 505.442 139.067C505.215 139.241 505.101 139.482 505.101 139.792V139.806C505.101 140.125 505.221 140.373 505.463 140.551C505.709 140.729 506.021 140.817 506.399 140.817C506.741 140.817 507.047 140.749 507.315 140.612C507.584 140.476 507.796 140.291 507.951 140.059C508.106 139.822 508.184 139.555 508.184 139.259V136.894C508.184 136.52 508.065 136.235 507.828 136.039C507.591 135.839 507.24 135.738 506.775 135.738C506.388 135.738 506.071 135.807 505.825 135.943C505.579 136.076 505.413 136.265 505.326 136.511L505.319 136.538H503.713L503.72 136.477C503.774 136.057 503.938 135.69 504.212 135.376C504.485 135.062 504.848 134.818 505.299 134.645C505.75 134.471 506.27 134.385 506.857 134.385C507.505 134.385 508.051 134.485 508.498 134.686C508.945 134.882 509.284 135.169 509.517 135.547C509.749 135.921 509.865 136.369 509.865 136.894V142H508.184V140.975H508.067C507.931 141.212 507.753 141.417 507.534 141.59C507.32 141.763 507.074 141.895 506.796 141.986C506.518 142.077 506.213 142.123 505.88 142.123ZM516.065 142.123C515.715 142.123 515.393 142.073 515.102 141.973C514.81 141.868 514.552 141.72 514.329 141.528C514.11 141.332 513.933 141.1 513.796 140.831H513.68V142H511.978V131.637H513.68V135.718H513.796C513.928 135.449 514.106 135.216 514.329 135.021C514.552 134.825 514.812 134.674 515.108 134.569C515.405 134.46 515.724 134.405 516.065 134.405C516.694 134.405 517.237 134.562 517.692 134.877C518.153 135.187 518.508 135.631 518.759 136.21C519.009 136.784 519.135 137.468 519.135 138.261V138.274C519.135 139.058 519.007 139.74 518.752 140.318C518.501 140.897 518.146 141.344 517.686 141.658C517.23 141.968 516.69 142.123 516.065 142.123ZM515.532 140.688C515.92 140.688 516.252 140.592 516.53 140.4C516.808 140.204 517.022 139.926 517.173 139.566C517.323 139.206 517.398 138.776 517.398 138.274V138.261C517.398 137.759 517.323 137.329 517.173 136.969C517.022 136.604 516.808 136.326 516.53 136.135C516.252 135.939 515.92 135.841 515.532 135.841C515.149 135.841 514.817 135.939 514.534 136.135C514.252 136.331 514.033 136.609 513.878 136.969C513.728 137.329 513.652 137.759 513.652 138.261V138.274C513.652 138.771 513.728 139.202 513.878 139.566C514.033 139.926 514.249 140.204 514.527 140.4C514.81 140.592 515.145 140.688 515.532 140.688ZM526.982 142V133.872H526.859L524.405 135.602V133.947L526.982 132.136H528.739V142H526.982Z" fill="#222222"/>
</g>
<path d="M778.921 142V133.619H775.886V132.136H783.72V133.619H780.685V142H778.921ZM786.078 142.123C785.609 142.123 785.187 142.032 784.813 141.85C784.444 141.667 784.153 141.41 783.938 141.077C783.729 140.74 783.624 140.343 783.624 139.888V139.874C783.624 139.432 783.733 139.051 783.952 138.732C784.171 138.409 784.492 138.156 784.916 137.974C785.34 137.791 785.855 137.684 786.461 137.652L789.223 137.481V138.603L786.7 138.767C786.222 138.794 785.868 138.894 785.641 139.067C785.413 139.241 785.299 139.482 785.299 139.792V139.806C785.299 140.125 785.42 140.373 785.661 140.551C785.907 140.729 786.219 140.817 786.598 140.817C786.939 140.817 787.245 140.749 787.514 140.612C787.783 140.476 787.994 140.291 788.149 140.059C788.304 139.822 788.382 139.555 788.382 139.259V136.894C788.382 136.52 788.263 136.235 788.026 136.039C787.789 135.839 787.438 135.738 786.974 135.738C786.586 135.738 786.27 135.807 786.023 135.943C785.777 136.076 785.611 136.265 785.524 136.511L785.518 136.538H783.911L783.918 136.477C783.973 136.057 784.137 135.69 784.41 135.376C784.684 135.062 785.046 134.818 785.497 134.645C785.948 134.471 786.468 134.385 787.056 134.385C787.703 134.385 788.25 134.485 788.696 134.686C789.143 134.882 789.482 135.169 789.715 135.547C789.947 135.921 790.063 136.369 790.063 136.894V142H788.382V140.975H788.266C788.129 141.212 787.951 141.417 787.732 141.59C787.518 141.763 787.272 141.895 786.994 141.986C786.716 142.077 786.411 142.123 786.078 142.123ZM796.264 142.123C795.913 142.123 795.591 142.073 795.3 141.973C795.008 141.868 794.751 141.72 794.527 141.528C794.309 141.332 794.131 141.1 793.994 140.831H793.878V142H792.176V131.637H793.878V135.718H793.994C794.126 135.449 794.304 135.216 794.527 135.021C794.751 134.825 795.01 134.674 795.307 134.569C795.603 134.46 795.922 134.405 796.264 134.405C796.893 134.405 797.435 134.562 797.891 134.877C798.351 135.187 798.706 135.631 798.957 136.21C799.208 136.784 799.333 137.468 799.333 138.261V138.274C799.333 139.058 799.205 139.74 798.95 140.318C798.7 140.897 798.344 141.344 797.884 141.658C797.428 141.968 796.888 142.123 796.264 142.123ZM795.73 140.688C796.118 140.688 796.451 140.592 796.729 140.4C797.007 140.204 797.221 139.926 797.371 139.566C797.521 139.206 797.597 138.776 797.597 138.274V138.261C797.597 137.759 797.521 137.329 797.371 136.969C797.221 136.604 797.007 136.326 796.729 136.135C796.451 135.939 796.118 135.841 795.73 135.841C795.348 135.841 795.015 135.939 794.732 136.135C794.45 136.331 794.231 136.609 794.076 136.969C793.926 137.329 793.851 137.759 793.851 138.261V138.274C793.851 138.771 793.926 139.202 794.076 139.566C794.231 139.926 794.448 140.204 794.726 140.4C795.008 140.592 795.343 140.688 795.73 140.688ZM804.768 142V140.811L808.001 137.502C808.448 137.051 808.794 136.679 809.04 136.388C809.291 136.091 809.466 135.832 809.566 135.608C809.667 135.381 809.717 135.141 809.717 134.891V134.87C809.717 134.569 809.651 134.3 809.519 134.063C809.386 133.826 809.197 133.642 808.951 133.51C808.705 133.373 808.411 133.305 808.069 133.305C807.723 133.305 807.418 133.378 807.153 133.523C806.889 133.665 806.684 133.863 806.538 134.118C806.392 134.373 806.319 134.672 806.319 135.014L806.312 135.041L804.672 135.034L804.665 135.014C804.665 134.398 804.813 133.856 805.109 133.387C805.406 132.917 805.816 132.55 806.34 132.286C806.864 132.022 807.47 131.89 808.158 131.89C808.796 131.89 809.364 132.01 809.86 132.252C810.362 132.493 810.754 132.826 811.036 133.25C811.319 133.674 811.46 134.164 811.46 134.72V134.74C811.46 135.109 811.389 135.472 811.248 135.827C811.107 136.178 810.865 136.563 810.523 136.982C810.186 137.402 809.719 137.901 809.122 138.479L806.682 140.852L807.146 140.072V140.852L806.682 140.544H811.61V142H804.768Z" fill="#222222"/>
</g>
<defs>
<filter id="filter0_d_31_2014" x="355" y="110" width="315.5" height="67" filterUnits="userSpaceOnUse" color-interpolation-filters="sRGB">
<feFlood flood-opacity="0" result="BackgroundImageFix"/>
<feColorMatrix in="SourceAlpha" type="matrix" values="0 0 0 0 0 0 0 0 0 0 0 0 0 0 0 0 0 0 127 0" result="hardAlpha"/>
<feOffset dy="6"/>
<feGaussianBlur stdDeviation="8.5"/>
<feComposite in2="hardAlpha" operator="out"/>
<feColorMatrix type="matrix" values="0 0 0 0 0 0 0 0 0 0 0 0 0 0 0 0 0 0 0.08 0"/>
<feBlend mode="normal" in2="BackgroundImageFix" result="effect1_dropShadow_31_2014"/>
<feBlend mode="normal" in="SourceGraphic" in2="effect1_dropShadow_31_2014" result="shape"/>
</filter>
<clipPath id="clip0_31_2014">
<rect width="1024" height="275" rx="24" fill="white"/>
</clipPath>
</defs>
</svg>
